<svg width="12" height="11" viewBox="0 0 12 11" fill="none" xmlns="http://www.w3.org/2000/svg">
<path d="M11.9065 8.20948L9.49999 4.84V0.499991C9.49999 0.223992 9.27649 0 9 0H3.00001C2.72352 0 2.50002 0.223992 2.50002 0.499991V0.716999L0.242524 2.0715C0.123017 2.143 0.039017 2.2615 0.010517 2.398C-0.0179829 2.53499 0.012017 2.677 0.093509 2.79051L2.5 6.16V10.5C2.5 10.776 2.7235 11 2.99999 11H8.99998C9.27647 11 9.49997 10.776 9.49997 10.5V10.283L11.7575 8.92897C11.877 8.85697 11.961 8.73847 11.9895 8.60197C12.018 8.46497 11.988 8.32299 11.9065 8.20948ZM2.5 4.43999L1.22151 2.65L2.5 1.88301V4.43999ZM7.5 3.49999C7.776 3.49999 7.99999 3.72398 7.99999 3.99998C7.99999 4.27598 7.776 4.49997 7.5 4.49997C7.224 4.49997 7.00001 4.27598 7.00001 3.99998C7.00001 3.72398 7.224 3.49999 7.5 3.49999ZM6.00001 2.5C6.276 2.5 6.5 2.72399 6.5 2.99999C6.5 3.27599 6.276 3.49999 6.00001 3.49999C5.72401 3.49999 5.50001 3.27599 5.50001 2.99999C5.50001 2.72399 5.72401 2.5 6.00001 2.5ZM4.50001 1.5C4.77601 1.5 5 1.72399 5 1.99999C5 2.27599 4.77601 2.49998 4.50001 2.49998C4.22401 2.49998 4.00002 2.27599 4.00002 1.99999C4.00002 1.72399 4.22401 1.5 4.50001 1.5ZM4.50001 9.49997C4.22401 9.49997 4.00002 9.27598 4.00002 8.99998C4.00002 8.72398 4.22401 8.49999 4.50001 8.49999C4.77601 8.49999 5 8.72398 5 8.99998C5 9.27598 4.77601 9.49997 4.50001 9.49997ZM4.50001 7.49998C4.22401 7.49998 4.00002 7.27599 4.00002 6.99999C4.00002 6.72399 4.22401 6.5 4.50001 6.5C4.77601 6.5 5 6.72399 5 6.99999C5 7.27599 4.77601 7.49998 4.50001 7.49998ZM7.5 9.49997C7.224 9.49997 7.00001 9.27598 7.00001 8.99998C7.00001 8.72398 7.224 8.49999 7.5 8.49999C7.776 8.49999 7.99999 8.72398 7.99999 8.99998C7.99999 9.27598 7.776 9.49997 7.5 9.49997ZM7.5 7.49998C7.224 7.49998 7.00001 7.27599 7.00001 6.99999C7.00001 6.72399 7.224 6.5 7.5 6.5C7.776 6.5 7.99999 6.72399 7.99999 6.99999C7.99999 7.27599 7.776 7.49998 7.5 7.49998ZM9.49999 9.11698V6.56049L10.7785 8.34999L9.49999 9.11698Z" fill="url(#paint0_linear_10253_105)"/>
<defs>
<linearGradient id="paint0_linear_10253_105" x1="6" y1="0" x2="6" y2="11" gradientUnits="userSpaceOnUse">
<stop stop-color="white"/>
<stop offset="1" stop-color="#C9C9C9"/>
</linearGradient>
</defs>
</svg>
