<svg width="14" height="12" viewBox="0 0 14 12" fill="none" xmlns="http://www.w3.org/2000/svg">
<path d="M3.54415 0.341087C3.16798 -0.0350917 2.54459 -0.131823 2.17916 0.212111L0.169294 2.22198C-0.142397 2.53367 -0.00267298 3.04957 0.416498 3.15705L0.760432 3.24304C1.63102 3.46874 2.51235 2.95284 2.74881 2.093L2.96376 1.26541C2.99601 1.14718 3.11424 1.0827 3.22172 1.11494C3.33994 1.14718 3.40443 1.26541 3.37219 1.37289L3.18947 2.06076C3.5549 1.85655 3.97407 1.73832 4.42549 1.73832H4.93064L3.54415 0.341087Z" fill="url(#paint0_linear_12064_27)"/>
<path d="M9.58473 0.341087C9.96091 -0.0350917 10.5843 -0.131823 10.9497 0.212111L12.9488 2.22198C13.2605 2.53367 13.1208 3.04957 12.7016 3.15705L12.3577 3.24304C11.4871 3.46874 10.6058 2.95284 10.3693 2.093L10.1544 1.26541C10.1221 1.14718 10.0039 1.0827 9.89643 1.11494C9.78895 1.14718 9.71371 1.26541 9.74595 1.37289L9.92867 2.06076C9.56324 1.85655 9.14407 1.73832 8.69265 1.73832H8.1875L9.58473 0.341087Z" fill="url(#paint1_linear_12064_27)"/>
<path d="M10.8193 5.38258V4.29704C10.8193 3.13626 9.86273 2.17969 8.70195 2.17969H4.44576C3.28498 2.17969 2.32841 3.13626 2.32841 4.29704V5.38258C1.99523 5.82325 1.79102 6.38214 1.79102 6.99477V8.59622C1.79102 9.91822 2.74758 11.0253 4.01584 11.251C4.02659 11.251 4.02659 11.251 4.03734 11.251C4.06958 11.2617 4.10183 11.2617 4.14482 11.2617C4.20931 11.2725 4.27379 11.2725 4.33828 11.2832C4.35978 11.2832 4.38127 11.2832 4.39202 11.2832C4.41352 11.2832 4.42427 11.2832 4.44576 11.2832H4.4995H5.3056C5.64953 11.5734 6.07945 11.7346 6.56311 11.7346C7.04677 11.7346 7.47669 11.5627 7.82062 11.2832H8.63747H8.69121C8.7127 11.2832 8.72345 11.2832 8.74495 11.2832C8.76644 11.2832 8.78794 11.2832 8.79869 11.2832C8.86317 11.2832 8.92766 11.2725 8.99215 11.2617C9.02439 11.2617 9.05664 11.251 9.09963 11.251C9.11038 11.251 9.11038 11.251 9.12112 11.251C10.3786 11.0253 11.346 9.91822 11.346 8.59622V6.99477C11.346 6.39289 11.1525 5.83399 10.8193 5.38258ZM8.55148 4.07133C8.93841 4.07133 9.26085 4.39377 9.26085 4.78069C9.26085 5.16762 8.93841 5.49006 8.55148 5.49006C8.16456 5.49006 7.84212 5.16762 7.84212 4.78069C7.85287 4.38302 8.16456 4.07133 8.55148 4.07133ZM4.57474 4.07133C4.96166 4.07133 5.2841 4.39377 5.2841 4.78069C5.2841 5.16762 4.96166 5.49006 4.57474 5.49006C4.18781 5.49006 3.86537 5.16762 3.86537 4.78069C3.87612 4.38302 4.18781 4.07133 4.57474 4.07133ZM6.56311 11.294C5.76776 11.294 5.10139 10.6706 5.0584 9.86448C5.5528 9.86448 6.01496 9.69251 6.38039 9.38082V10.5201C6.38039 10.6276 6.45563 10.7136 6.57386 10.7136C6.69209 10.7136 6.76732 10.6383 6.76732 10.5201V9.38082C7.13275 9.68176 7.59491 9.86448 8.08932 9.86448C8.02483 10.6598 7.35846 11.294 6.56311 11.294ZM10.1852 7.67189C10.1852 8.72519 9.32534 9.58503 8.27204 9.58503C7.53043 9.58503 6.8963 9.16586 6.57386 8.54248C6.25142 9.15511 5.61729 9.58503 4.87568 9.58503C3.82238 9.58503 2.96254 8.72519 2.96254 7.67189V7.04851C2.96254 6.93029 3.04853 6.83355 3.1775 6.83355C3.30648 6.83355 3.39246 6.91954 3.39246 7.04851V7.67189C3.39246 8.48874 4.05883 9.15511 4.87568 9.15511C5.62804 9.15511 6.24067 8.59622 6.34815 7.86536C6.3374 7.85461 6.3374 7.85461 6.32665 7.84386L5.46682 6.54336C5.34859 6.37139 5.48831 6.16718 5.71402 6.16718H7.43369C7.64865 6.16718 7.78838 6.37139 7.6809 6.54336L6.82106 7.84386C6.82106 7.85461 6.81031 7.85461 6.79956 7.86536C6.90704 8.59622 7.51968 9.15511 8.27204 9.15511C9.08888 9.15511 9.75525 8.48874 9.75525 7.67189V7.04851C9.75525 6.93029 9.84124 6.83355 9.97021 6.83355C10.0992 6.83355 10.1852 6.91954 10.1852 7.04851V7.67189Z" fill="url(#paint2_linear_12064_27)"/>
<defs>
<linearGradient id="paint0_linear_12064_27" x1="2.46532" y1="0" x2="2.46532" y2="3.29605" gradientUnits="userSpaceOnUse">
<stop stop-color="#FF4E4E"/>
<stop offset="1" stop-color="#FF9393"/>
</linearGradient>
<linearGradient id="paint1_linear_12064_27" x1="10.6528" y1="0" x2="10.6528" y2="3.29605" gradientUnits="userSpaceOnUse">
<stop stop-color="#FF4E4E"/>
<stop offset="1" stop-color="#FF9393"/>
</linearGradient>
<linearGradient id="paint2_linear_12064_27" x1="6.56848" y1="2.17969" x2="6.56848" y2="11.7346" gradientUnits="userSpaceOnUse">
<stop stop-color="#FF4E4E"/>
<stop offset="1" stop-color="#FF9393"/>
</linearGradient>
</defs>
</svg>
