<svg width="12" height="12" viewBox="0 0 12 12" fill="none" xmlns="http://www.w3.org/2000/svg">
<path d="M6 0C4.81331 0 3.65328 0.351894 2.66658 1.01118C1.67989 1.67047 0.910851 2.60754 0.456725 3.7039C0.00259971 4.80025 -0.11622 6.00665 0.115291 7.17054C0.346802 8.33442 0.918247 9.40352 1.75736 10.2426C2.59648 11.0818 3.66557 11.6532 4.82946 11.8847C5.99335 12.1162 7.19975 11.9974 8.2961 11.5433C9.39246 11.0891 10.3295 10.3201 10.9888 9.33342C11.6481 8.34672 12 7.18669 12 6C12 5.21207 11.8448 4.43185 11.5433 3.7039C11.2417 2.97594 10.7998 2.31451 10.2426 1.75736C9.68549 1.20021 9.02406 0.758251 8.2961 0.456723C7.56815 0.155195 6.78793 0 6 0ZM4.482 6.174C4.47037 6.23185 4.45225 6.2882 4.428 6.342C4.40936 6.39736 4.38311 6.44987 4.35 6.498C4.31685 6.54779 4.27865 6.59404 4.236 6.636C4.19275 6.67721 4.14663 6.7153 4.098 6.75L3.942 6.834L3.774 6.882C3.65924 6.90594 3.54077 6.90594 3.426 6.882L3.258 6.834L3.102 6.75C3.05337 6.7153 3.00725 6.67721 2.964 6.636C2.92136 6.59404 2.88316 6.54779 2.85 6.498C2.81722 6.44872 2.7891 6.39649 2.766 6.342C2.74645 6.28707 2.73042 6.23096 2.718 6.174C2.7118 6.11616 2.7118 6.05783 2.718 6C2.71951 5.76164 2.81427 5.53335 2.982 5.364C3.02525 5.32279 3.07137 5.28469 3.12 5.25C3.16882 5.21807 3.22117 5.19189 3.276 5.172C3.3298 5.14775 3.38615 5.12963 3.444 5.118C3.55877 5.09406 3.67724 5.09406 3.792 5.118C3.84985 5.12963 3.90621 5.14775 3.96 5.172C4.01484 5.19189 4.06718 5.21807 4.116 5.25C4.16463 5.28469 4.21075 5.32279 4.254 5.364C4.41516 5.53621 4.50333 5.76416 4.5 6C4.50025 6.05848 4.49422 6.11681 4.482 6.174ZM6.636 6.636C6.46665 6.80373 6.23836 6.89849 6 6.9C5.94217 6.9062 5.88384 6.9062 5.826 6.9L5.658 6.852C5.60351 6.8289 5.55128 6.80078 5.502 6.768C5.4522 6.73484 5.40596 6.69664 5.364 6.654C5.27878 6.56797 5.21155 6.46584 5.16622 6.35355C5.1209 6.24126 5.09839 6.12108 5.1 6C5.0938 5.94216 5.0938 5.88383 5.1 5.826C5.11242 5.76904 5.12845 5.71292 5.148 5.658C5.17239 5.60414 5.20046 5.55201 5.232 5.502C5.2992 5.40273 5.38473 5.3172 5.484 5.25L5.64 5.166L5.808 5.118C5.95284 5.08943 6.10247 5.09692 6.24373 5.13982C6.38498 5.18272 6.51352 5.25971 6.618 5.364C6.66065 5.40596 6.69885 5.4522 6.732 5.502C6.76393 5.55082 6.79011 5.60316 6.81 5.658C6.83425 5.71179 6.85236 5.76815 6.864 5.826C6.8702 5.88383 6.8702 5.94216 6.864 6C6.87223 6.23337 6.79062 6.46101 6.636 6.636ZM9.282 6.174C9.27036 6.23185 9.25225 6.2882 9.228 6.342C9.20936 6.39736 9.18311 6.44987 9.15 6.498C9.11685 6.54779 9.07864 6.59404 9.036 6.636C8.86665 6.80373 8.63836 6.89849 8.4 6.9C8.16139 6.89979 7.93262 6.80483 7.764 6.636C7.72136 6.59404 7.68316 6.54779 7.65 6.498C7.61722 6.44872 7.5891 6.39649 7.566 6.342C7.54645 6.28707 7.53042 6.23096 7.518 6.174C7.5118 6.11616 7.5118 6.05783 7.518 6C7.51951 5.76164 7.61427 5.53335 7.782 5.364C7.95437 5.20244 8.18176 5.11253 8.418 5.11253C8.65425 5.11253 8.88164 5.20244 9.054 5.364C9.21516 5.53621 9.30333 5.76416 9.3 6C9.30025 6.05848 9.29422 6.11681 9.282 6.174Z" fill="url(#paint0_linear_10321_43)"/>
<defs>
<linearGradient id="paint0_linear_10321_43" x1="6" y1="0" x2="6" y2="12" gradientUnits="userSpaceOnUse">
<stop stop-color="white"/>
<stop offset="1" stop-color="#D3D3D3"/>
</linearGradient>
</defs>
</svg>
