<svg width="11" height="11" viewBox="0 0 11 11" fill="none" xmlns="http://www.w3.org/2000/svg">
<path d="M3.70956 2.97033C3.89473 3.41962 4.40922 3.63382 4.85877 3.44874C5.13616 3.3345 5.32356 3.09482 5.38321 2.82248L6.09832 3.02576L6.19654 2.73732L5.46348 2.24778L5.53453 1.65085C5.54785 1.5388 5.4778 1.43369 5.36924 1.40283L4.43577 1.13747C4.3272 1.10661 4.21226 1.15917 4.16461 1.26144L3.91709 1.79289L3.05965 1.84562L2.96144 2.13402L3.69441 2.34241C3.62467 2.53954 3.62362 2.76176 3.70956 2.97033ZM5.47881 5.65122H4.41869L3.86879 3.66625C3.78926 3.31569 3.4761 3.04859 3.10865 3.04859H1.16826C1.03441 3.04859 0.9006 3.11966 0.825486 3.23668L0.0560902 4.58104C-0.0609481 4.76869 0.0141224 5.00441 0.198327 5.11965C0.366154 5.22428 0.614861 5.16028 0.736747 4.98586L1.39356 3.84592H2.41122L1.15856 6.00506C1.01244 6.25697 0.998598 6.56431 1.12153 6.82831L1.74865 8.1752L1.19564 10.2904C1.11834 10.5959 1.30032 10.9023 1.59803 10.9822C1.90368 11.0595 2.20977 10.8776 2.29017 10.58L2.8754 8.26525C2.90676 8.14648 2.90278 8.00566 2.84007 7.88645L2.78662 7.77344L3.53794 8.2061L2.79675 10.2246C2.68897 10.5173 2.82767 10.8515 3.11874 10.9623C3.41422 11.0749 3.73978 10.9266 3.84887 10.6308L4.75478 8.15621C4.86698 7.85026 4.74199 7.509 4.45931 7.3474L2.85815 6.43397L3.48448 5.34039L3.71306 6.14758C3.76476 6.32436 3.92696 6.44589 4.11121 6.44589H5.47872C5.69991 6.45387 5.86573 6.28656 5.87403 6.06979C5.88163 5.87188 5.69074 5.67061 5.47881 5.65122ZM8.21654 2.54412C8.95122 2.26532 9.34924 1.49458 9.18324 0.750685C9.1811 0.788924 9.16394 0.820396 9.14813 0.855491C9.04887 1.07619 8.78335 1.17693 8.56255 1.07767C8.52744 1.06187 8.49455 1.04109 8.46669 1.02254C8.22458 0.823277 7.88185 0.753654 7.57637 0.86959C7.11808 1.04349 6.87702 1.55918 7.05515 2.02817C7.23329 2.49711 7.74738 2.72213 8.21654 2.54412ZM11 8.83092C11 8.83092 10.8233 6.0044 9.69699 4.98896C9.68956 4.98228 9.68227 4.97608 9.67489 4.96962V2.94588L10.6101 2.53788C10.8486 2.43373 10.9765 2.16597 10.9075 1.91503L10.4565 0.275853C10.4015 0.0760194 10.1949 -0.0414011 9.99491 0.0135115C9.79499 0.0684678 9.67747 0.275023 9.73249 0.474856L10.1321 1.92742L9.30273 2.28929L7.63559 3.02925C7.31015 3.17374 7.08712 3.48357 7.05367 3.83788L6.97083 4.71361L5.9967 4.15562C5.81678 4.05256 5.58737 4.11476 5.48427 4.2946C5.38116 4.47444 5.44343 4.70374 5.62331 4.8068L6.93401 5.55759C7.0114 5.60194 7.09717 5.6242 7.18307 5.6242C7.26189 5.6242 7.34081 5.60548 7.41343 5.56789C7.56532 5.48928 7.66563 5.34074 7.68183 5.17041L7.76031 4.34074L8.15103 5.25391C8.15103 5.25391 8.23549 5.85272 7.15721 6.62254C5.92045 7.50551 6.34009 9.3377 6.34009 9.3377C6.34009 9.3377 6.70867 9.20933 7.24556 9.13591V10.5076C7.24591 10.7736 7.4713 10.9898 7.73144 10.9933C7.99753 10.9929 8.21348 10.7678 8.21733 10.5076V9.09357C8.3983 9.10387 8.58381 9.12556 8.77003 9.16267L8.75872 9.16782L9.1259 10.6233C9.19132 10.8811 9.46274 11.0357 9.71581 10.9755C9.97373 10.9101 10.1281 10.639 10.0681 10.3858L9.798 9.31505C10.8699 9.34966 11 8.83092 11 8.83092Z" fill="url(#paint0_linear_10253_103)"/>
<defs>
<linearGradient id="paint0_linear_10253_103" x1="5.5" y1="0" x2="5.5" y2="11" gradientUnits="userSpaceOnUse">
<stop stop-color="white"/>
<stop offset="1" stop-color="#CACACA"/>
</linearGradient>
</defs>
</svg>
