<svg width="12" height="12" viewBox="0 0 12 12" fill="none" xmlns="http://www.w3.org/2000/svg">
<path d="M5.99997 12C6.81958 12 7.59115 11.8431 8.31467 11.5294C9.0382 11.2157 9.67643 10.7824 10.2294 10.2294C10.7823 9.67647 11.2156 9.03824 11.5293 8.31471C11.8431 7.59118 12 6.81961 12 6C12 5.18039 11.8431 4.40882 11.5293 3.68529C11.2156 2.96176 10.7823 2.32353 10.2294 1.77059C9.67643 1.21765 9.03722 0.784316 8.31174 0.470594C7.58625 0.156865 6.8137 0 5.9941 0C5.17449 0 4.40292 0.156865 3.67939 0.470594C2.95587 0.784316 2.31862 1.21765 1.76764 1.77059C1.21666 2.32353 0.784309 2.96176 0.470589 3.68529C0.156863 4.40882 0 5.18039 0 6C0 6.81961 0.156863 7.59118 0.470589 8.31471C0.784309 9.03824 1.21764 9.67647 1.77058 10.2294C2.32352 10.7824 2.96176 11.2157 3.68529 11.5294C4.4088 11.8431 5.18037 12 5.99997 12ZM5.99997 9.02941C5.57645 9.02941 5.20586 8.95294 4.88822 8.8C4.57057 8.64706 4.32253 8.47255 4.1441 8.27647C3.96567 8.08039 3.87646 7.91569 3.87646 7.78235C3.87646 7.70784 3.90587 7.65686 3.96469 7.62941C4.02351 7.60196 4.0843 7.60196 4.14705 7.62941C4.37058 7.74706 4.62449 7.86274 4.9088 7.97646C5.19311 8.0902 5.55684 8.14706 5.99997 8.14706C6.43919 8.14706 6.80194 8.09118 7.0882 7.97942C7.37448 7.86765 7.62743 7.75098 7.84703 7.62941C7.90977 7.60196 7.97056 7.60196 8.02938 7.62941C8.0882 7.65686 8.11761 7.70784 8.11761 7.78235C8.11761 7.91569 8.02938 8.08039 7.85291 8.27647C7.67644 8.47255 7.4284 8.64706 7.10879 8.8C6.78919 8.95294 6.41958 9.02941 5.99997 9.02941ZM4.19998 5.44705C4.01175 5.44705 3.84606 5.3696 3.70292 5.2147C3.55979 5.0598 3.48822 4.86078 3.48822 4.61765C3.48822 4.37059 3.55881 4.16863 3.69998 4.01177C3.84116 3.85491 4.00782 3.77647 4.19998 3.77647C4.39606 3.77647 4.56665 3.85491 4.71175 4.01177C4.85685 4.16863 4.92939 4.37059 4.92939 4.61765C4.92939 4.86078 4.85586 5.0598 4.7088 5.2147C4.56175 5.3696 4.39214 5.44705 4.19998 5.44705ZM7.79409 5.44705C7.60586 5.44705 7.43919 5.3696 7.29409 5.2147C7.14899 5.0598 7.07645 4.86078 7.07645 4.61765C7.07645 4.37059 7.14801 4.16863 7.29115 4.01177C7.43428 3.85491 7.60193 3.77647 7.79409 3.77647C7.99016 3.77647 8.16075 3.85491 8.30584 4.01177C8.45095 4.16863 8.5235 4.37059 8.5235 4.61765C8.5235 4.86078 8.44997 5.0598 8.30291 5.2147C8.15585 5.3696 7.98625 5.44705 7.79409 5.44705Z" fill="url(#paint0_linear_12213_48)"/>
<defs>
<linearGradient id="paint0_linear_12213_48" x1="6" y1="0" x2="6" y2="12" gradientUnits="userSpaceOnUse">
<stop stop-color="#FF4E4E"/>
<stop offset="1" stop-color="#FF9292"/>
</linearGradient>
</defs>
</svg>
