<svg width="11" height="12" viewBox="0 0 11 12" fill="none" xmlns="http://www.w3.org/2000/svg">
<path d="M10.9188 10.9888C10.4641 9.19577 8.2947 8.59795 8.2947 8.59795C8.2947 8.59795 8.60954 8.22016 9.34425 7.78013C8.9983 7.18379 8.36829 6.80159 8.15668 6.6852C8.44844 6.51937 8.65199 5.86042 8.82368 5.54558C9.01221 5.20073 8.67284 5.02794 8.48468 5.06273C8.48468 5.06273 8.48431 5.04406 8.48431 5.01074C9.8842 4.62269 10.7778 4.09773 10.7225 3.60097C10.6654 3.09284 9.6283 2.73957 8.11455 2.62683C8.08892 2.58839 8.06256 2.54996 8.034 2.51189C7.89122 1.74569 7.73308 0.901514 7.68549 0.663919C7.57132 0.0939128 6.7513 -0.224934 6.14177 0.186177C5.82218 0.401795 5.53665 0.417164 5.38508 0.417164C5.23352 0.417164 5.06586 0.447927 4.62839 0.186177C3.99508 -0.193094 3.19884 0.0939128 3.08463 0.663919C3.02826 0.943967 2.81922 2.06601 2.66218 2.91018C2.6241 2.98888 2.59226 3.06468 2.56626 3.13642C1.07703 3.52848 0.114262 4.07395 0.171359 4.58865C0.218943 5.0155 0.958061 5.33289 2.08962 5.49067C2.09695 5.50861 2.10536 5.52654 2.1156 5.54558C2.28584 5.85749 2.48681 6.50728 2.77417 6.68044C2.57209 6.791 1.92852 7.17538 1.57818 7.78016C2.3129 8.22018 2.62774 8.59797 2.62774 8.59797C2.62774 8.59797 0.458717 9.19579 0.00367662 10.9888C-0.136125 11.7441 3.74725 11.9955 5.46123 11.9955C7.17521 11.9955 11.0586 11.7441 10.9188 10.9888ZM6.79523 6.25649C5.80681 6.42417 5.83609 5.69529 5.47001 5.73302C5.10356 5.69532 5.13249 6.42417 4.14407 6.25652C3.66963 6.17634 3.35406 5.87617 3.15346 5.58548C3.89295 5.61953 4.72762 5.60013 5.60583 5.51812C6.48698 5.4354 7.31067 5.29958 8.02929 5.12824C7.90371 5.44491 7.54935 6.12873 6.79523 6.25649Z" fill="url(#paint0_linear_12064_22)"/>
<defs>
<linearGradient id="paint0_linear_12064_22" x1="5.46122" y1="0" x2="5.46122" y2="11.9955" gradientUnits="userSpaceOnUse">
<stop stop-color="#FF4E4E"/>
<stop offset="1" stop-color="#FF9393"/>
</linearGradient>
</defs>
</svg>
