<svg width="9" height="14" viewBox="0 0 9 14" fill="none" xmlns="http://www.w3.org/2000/svg">
<path d="M7.69131 11.2073H8.57296C9.00366 10.5797 9.00345 10.2936 8.99928 8.8608L8.99841 5.05428C8.99841 5.03669 8.99622 5.01913 8.99204 5.00221C8.9804 4.95408 8.9615 4.89828 8.93668 4.83959C8.85801 4.61675 8.70594 4.4326 8.50927 4.31481C8.47984 4.29635 8.44927 4.27878 8.41698 4.26338C8.40402 4.25746 8.39104 4.25239 8.37786 4.24714C8.32841 4.22625 8.27655 4.20889 8.22074 4.19682C8.21724 4.19615 8.21371 4.19571 8.21019 4.19506C8.15042 4.18299 8.08779 4.17529 8.02055 4.17529C7.79838 4.17529 7.60169 4.22715 7.44283 4.31901C7.35426 3.86258 6.94862 3.51603 6.46141 3.51603C6.26232 3.51603 6.0773 3.57735 5.92281 3.68108L5.92193 1.00451C5.92188 0.450481 5.48304 0 4.94353 0C4.6805 0 4.43063 0.105249 4.24012 0.295994C4.0487 0.487847 3.94368 0.739677 3.94412 1.00446V1.04533C3.7894 0.940285 3.60438 0.87897 3.40529 0.87897C2.86359 0.87897 2.40585 1.3389 2.40585 1.88346V5.75085C2.20982 5.34871 1.9624 4.96415 1.69275 4.69473C1.33719 4.33897 0.635083 4.31324 0.248545 4.64222C0.122617 4.74946 -0.247878 5.15338 0.260416 5.85767C0.73222 6.511 1.0979 7.97871 1.0979 8.80564C1.0979 10.0411 1.65958 10.7931 2.13007 11.2073H3.50461C3.6259 11.2073 3.72435 11.3058 3.72435 11.427C3.72435 11.5486 3.6259 11.6468 3.50461 11.6468H2.62562V12.3241C2.62562 12.8069 3.01172 13.1851 3.50461 13.1851H7.46013C7.94139 13.1851 8.33583 12.7915 8.33913 12.3091L8.34791 11.6468H7.69128C7.56999 11.6468 7.47154 11.5486 7.47154 11.4271C7.47157 11.3058 7.57002 11.2073 7.69131 11.2073ZM7.02217 5.03844C7.02217 5.04393 7.02062 5.04877 7.02062 5.05426V6.48484C7.01447 6.5411 6.98591 6.70128 6.88328 6.83666C6.80549 6.92499 6.70176 6.99048 6.58356 7.01729C6.56071 7.02169 6.53718 7.02542 6.51191 7.02694C6.49543 7.02849 6.47962 7.03178 6.46291 7.03199C6.31215 7.02957 6.17812 6.96892 6.08121 6.87091C5.98387 6.77135 5.92343 6.63425 5.92343 6.48262V4.50486C5.92343 4.20204 6.16472 3.95549 6.46139 3.95549C6.76531 3.95549 7.02219 4.20712 7.02219 4.50486V5.03844H7.02217ZM7.46013 6.59253V6.49848C7.46013 6.49321 7.46168 6.48816 7.46168 6.48267V5.04506C7.47069 4.72775 7.76823 4.6148 8.0205 4.6148C8.06379 4.6148 8.10334 4.62095 8.14048 4.63017C8.14969 4.63236 8.15827 4.63609 8.16728 4.63895C8.37562 4.70465 8.48483 4.89804 8.53273 5.01517C8.5481 5.06767 8.55887 5.12219 8.55887 5.17975V6.59253C8.55887 6.91667 8.28067 7.03204 8.02047 7.03204C7.76207 7.03204 7.46013 6.91711 7.46013 6.59253Z" fill="url(#paint0_linear_11622_28)"/>
<defs>
<linearGradient id="paint0_linear_11622_28" x1="4.5" y1="0" x2="4.5" y2="13.1851" gradientUnits="userSpaceOnUse">
<stop stop-color="white"/>
<stop offset="1" stop-color="#D4D4D4"/>
</linearGradient>
</defs>
</svg>
