<svg width="11" height="12" viewBox="0 0 11 12" fill="none" xmlns="http://www.w3.org/2000/svg">
<path d="M8.25 4.5C9.49268 4.5 10.5 3.49264 10.5 2.25C10.5 1.00736 9.49268 0 8.25 0C7.00736 0 6 1.00736 6 2.25C6 2.41778 6.01837 2.58127 6.05319 2.73857L3.65146 4.23965C3.26699 3.93317 2.77989 3.75 2.25 3.75C1.00736 3.75 0 4.75736 0 6C0 7.24264 1.00736 8.25 2.25 8.25C2.77989 8.25 3.26699 8.06685 3.65146 7.76033L6.05319 9.26145C6.01837 9.41872 6 9.58222 6 9.75C6 10.9927 7.00736 12 8.25 12C9.49268 12 10.5 10.9927 10.5 9.75C10.5 8.50732 9.49268 7.5 8.25 7.5C7.72013 7.5 7.233 7.68315 6.84854 7.98967L4.44681 6.48857C4.48163 6.33127 4.5 6.16778 4.5 6C4.5 5.83222 4.48163 5.66873 4.44681 5.51143L6.84854 4.01035C7.233 4.31683 7.72013 4.5 8.25 4.5Z" fill="url(#paint0_linear_12213_8)"/>
<defs>
<linearGradient id="paint0_linear_12213_8" x1="5.25" y1="0" x2="5.25" y2="12" gradientUnits="userSpaceOnUse">
<stop stop-color="#FDFDFD"/>
<stop offset="1" stop-color="#D8D8D8"/>
</linearGradient>
</defs>
</svg>
