<svg width="11" height="13" viewBox="0 0 11 13" fill="none" xmlns="http://www.w3.org/2000/svg">
<path d="M11 5.90909C11 6.06581 10.9318 6.21611 10.8105 6.32693C10.6891 6.43774 10.5246 6.5 10.353 6.5H7.76476C7.59317 6.49997 7.42862 6.43769 7.3073 6.32686L5.97632 5.11136L7.11772 8.86364H6.14714V12.4091C6.14714 12.5658 6.07897 12.7161 5.95763 12.8269C5.83628 12.9377 5.6717 13 5.5001 13C5.32849 13 5.16391 12.9377 5.04256 12.8269C4.92122 12.7161 4.85305 12.5658 4.85305 12.4091V8.86364H4.206V12.4091C4.206 12.5658 4.13783 12.7161 4.01649 12.8269C3.89514 12.9377 3.73056 13 3.55895 13C3.38735 13 3.22277 12.9377 3.10142 12.8269C2.98008 12.7161 2.91191 12.5658 2.91191 12.4091V8.86364H1.94133L3.01479 5.33414L1.15258 7.46141C1.04533 7.58381 0.889225 7.66228 0.718614 7.67957C0.548003 7.69686 0.37686 7.65154 0.242835 7.55359C0.108809 7.45564 0.0228796 7.31308 0.00394974 7.15727C-0.0149801 7.00146 0.0346405 6.84517 0.141895 6.72277L2.73009 3.76823C2.7906 3.69883 2.86746 3.64277 2.95494 3.60421C3.04242 3.56564 3.13829 3.54556 3.23543 3.54545H5.82362C5.99521 3.54549 6.15977 3.60777 6.28108 3.71859L8.03264 5.31818H10.353C10.5246 5.31818 10.6891 5.38044 10.8105 5.49125C10.9318 5.60207 11 5.75237 11 5.90909ZM2.91191 2.95455H6.14714V1.47727C6.14714 1.08548 5.97672 0.709725 5.67335 0.432683C5.36999 0.155641 4.95854 0 4.52952 0C4.10051 0 3.68906 0.155641 3.3857 0.432683C3.08233 0.709725 2.91191 1.08548 2.91191 1.47727V2.95455Z" fill="url(#paint0_linear_10253_130)"/>
<defs>
<linearGradient id="paint0_linear_10253_130" x1="5.5" y1="0" x2="5.5" y2="13" gradientUnits="userSpaceOnUse">
<stop stop-color="white"/>
<stop offset="1" stop-color="#B9B9B9"/>
</linearGradient>
</defs>
</svg>
