<svg width="12" height="12" viewBox="0 0 12 12" fill="none" xmlns="http://www.w3.org/2000/svg">
<path d="M6 0C2.68629 0 0 2.68631 0 6C0.31604 13.9589 11.6852 13.9566 12 5.99997C12 2.68631 9.31371 0 6 0ZM6.37518 1.8309L7.61359 1.00626C8.67336 1.35202 9.59607 2.02515 10.2489 2.92874L9.84943 4.35403L7.89325 4.98102L6.37518 3.86526V1.8309ZM4.38647 1.00626L5.62518 1.83105V3.86511L4.10687 4.98102L2.15059 4.35391L1.75116 2.92868C2.40396 2.02507 3.32669 1.35195 4.38647 1.00626ZM1.76647 9.09186C1.10489 8.19417 0.748731 7.10791 0.75036 5.99277L1.9201 5.06754L3.87482 5.69416L4.458 7.50983L3.24805 9.15245L1.76647 9.09186ZM7.63006 10.9877C6.61267 11.3345 5.3872 11.3344 4.36981 10.9876L3.85357 9.59519L5.06524 7.95023H6.93487L8.1463 9.59525L7.63006 10.9877ZM10.2335 9.09189L8.75189 9.1525L7.54211 7.50986L8.12537 5.69412L10.08 5.06766L11.2496 5.99283C11.2513 7.10798 10.8951 8.19423 10.2335 9.09189Z" fill="url(#paint0_linear_12064_19)"/>
<defs>
<linearGradient id="paint0_linear_12064_19" x1="6" y1="0" x2="6" y2="11.9683" gradientUnits="userSpaceOnUse">
<stop stop-color="#FF4E4E"/>
<stop offset="1" stop-color="#FF9393"/>
</linearGradient>
</defs>
</svg>
