<svg width="13" height="11" viewBox="0 0 13 11" fill="none" xmlns="http://www.w3.org/2000/svg">
<path fill-rule="evenodd" clip-rule="evenodd" d="M0.0226535 6.60183V10.5417C0.0226535 10.7947 0.240281 11 0.50843 11H1.55382C1.66886 11 1.78018 10.9615 1.86795 10.8914C1.95572 10.8212 2.01425 10.7239 2.03312 10.6168L2.28961 9.16667H10.7097L10.9656 10.6168C10.9844 10.7239 11.043 10.8212 11.1308 10.8914C11.2185 10.9615 11.3298 11 11.4449 11H12.4909C12.6198 11 12.7433 10.9517 12.8344 10.8658C12.9255 10.7798 12.9767 10.6632 12.9767 10.5417V6.60183C12.9767 5.88342 12.7514 5.18108 12.329 4.58333L11.8238 3.86833C11.7787 3.80468 11.7401 3.73716 11.7085 3.66667H12.3523C12.4426 3.66666 12.5311 3.64293 12.6078 3.59814C12.6846 3.55334 12.7466 3.48925 12.7869 3.41306L12.9488 3.1075C12.9858 3.03767 13.0032 2.96009 12.9995 2.88212C12.9958 2.80415 12.971 2.72837 12.9275 2.66196C12.8841 2.59556 12.8234 2.54072 12.7511 2.50265C12.6789 2.46459 12.5976 2.44455 12.5149 2.44444H11.4222L11.2214 1.49967C11.1603 1.21193 11.0127 0.946877 10.7962 0.736201C10.5797 0.525526 10.3034 0.378141 10.0005 0.311667C9.05357 0.103889 7.88641 0 6.49968 0C5.1123 0 3.94579 0.103889 2.99884 0.311667C2.69579 0.378037 2.41941 0.525377 2.20277 0.73606C1.98614 0.946743 1.83841 1.21185 1.77728 1.49967L1.57649 2.44444H0.485113C0.40239 2.44455 0.321067 2.46459 0.248851 2.50265C0.176634 2.54072 0.115917 2.59556 0.0724539 2.66196C0.0289907 2.72837 0.0042214 2.80415 0.000493577 2.88212C-0.00323425 2.96009 0.0142028 3.03767 0.0511523 3.1075L0.213078 3.41306C0.253346 3.48916 0.315265 3.55319 0.391906 3.59798C0.468547 3.64277 0.556886 3.66655 0.647038 3.66667H1.2915C1.25985 3.73715 1.22125 3.80467 1.17621 3.86833L0.670356 4.58333C0.248054 5.181 0.0226535 5.88317 0.0226535 6.60183ZM10.3606 3.66911C10.4052 3.88047 10.4793 4.08534 10.5808 4.27839H2.4185C2.52019 4.08589 2.59403 3.88117 2.63872 3.66911L3.04807 1.73983C3.06015 1.68215 3.08962 1.62898 3.13293 1.58671C3.17624 1.54443 3.23156 1.51485 3.29225 1.5015C4.13297 1.31817 5.20427 1.22222 6.49968 1.22222C7.79508 1.22222 8.86638 1.31756 9.7071 1.50211C9.76782 1.51531 9.82322 1.54476 9.86665 1.58693C9.91007 1.62909 9.93969 1.68218 9.95193 1.73983L10.3606 3.66911ZM2.28961 7.33333C2.54728 7.33333 2.7944 7.23676 2.9766 7.06485C3.1588 6.89294 3.26116 6.65978 3.26116 6.41667C3.26116 6.17355 3.1588 5.94039 2.9766 5.76849C2.7944 5.59658 2.54728 5.5 2.28961 5.5C2.03194 5.5 1.78482 5.59658 1.60262 5.76849C1.42042 5.94039 1.31806 6.17355 1.31806 6.41667C1.31806 6.65978 1.42042 6.89294 1.60262 7.06485C1.78482 7.23676 2.03194 7.33333 2.28961 7.33333ZM11.6813 6.41667C11.6813 6.65978 11.5789 6.89294 11.3967 7.06485C11.2145 7.23676 10.9674 7.33333 10.7097 7.33333C10.4521 7.33333 10.205 7.23676 10.0227 7.06485C9.84055 6.89294 9.73819 6.65978 9.73819 6.41667C9.73819 6.17355 9.84055 5.94039 10.0227 5.76849C10.205 5.59658 10.4521 5.5 10.7097 5.5C10.9674 5.5 11.2145 5.59658 11.3967 5.76849C11.5789 5.94039 11.6813 6.17355 11.6813 6.41667Z" fill="url(#paint0_linear_12064_25)"/>
<defs>
<linearGradient id="paint0_linear_12064_25" x1="6.5" y1="0" x2="6.5" y2="11" gradientUnits="userSpaceOnUse">
<stop stop-color="#FF4E4E"/>
<stop offset="1" stop-color="#FF9393"/>
</linearGradient>
</defs>
</svg>
