<svg width="25" height="34" viewBox="0 0 25 34" fill="none" xmlns="http://www.w3.org/2000/svg">
<path d="M21.1923 0H3.80773C1.70572 0 0 1.70706 0 3.81291V29.5223C0 31.6282 1.70572 33.3353 3.80773 33.3353H21.1923C23.2942 33.3353 25 31.6282 25 29.5223V3.81291C24.9999 1.70706 23.2942 0 21.1923 0ZM15.0411 10.6652C15.112 10.7777 15.2234 10.8587 15.3523 10.8914V10.8914C15.7606 10.9952 15.8823 11.5164 15.5619 11.7899L13.9542 13.1625C13.8188 13.2781 13.6191 13.2653 13.4743 13.1617V13.1617C13.3274 13.0565 13.2483 12.867 13.3171 12.6999L14.1227 10.7442C14.2832 10.3546 14.8165 10.3088 15.0411 10.6652V10.6652ZM13.653 14.5211C13.653 15.1589 13.1359 15.6767 12.5 15.6767C11.863 15.6767 11.3469 15.1589 11.3469 14.5211C11.3469 13.8842 11.863 13.3674 12.5 13.3674C13.1359 13.3675 13.653 13.8842 13.653 14.5211ZM12.2254 7.93038C12.4017 8.00062 12.5982 8.00062 12.7745 7.93038V7.93038C13.3337 7.70764 13.9114 8.20828 13.7704 8.79339L12.8545 12.595C12.8168 12.7513 12.6637 12.8476 12.503 12.8476V12.8476V12.8476C12.3387 12.8476 12.1825 12.7489 12.144 12.5891L11.2295 8.79339C11.0886 8.20828 11.6663 7.70764 12.2254 7.93038V7.93038ZM9.64665 10.8914C9.77553 10.8587 9.88694 10.7777 9.9579 10.6653V10.6653C10.183 10.3087 10.7168 10.3547 10.8774 10.7446L11.6836 12.7018C11.752 12.8679 11.6734 13.0564 11.5273 13.1609V13.1609C11.3825 13.2645 11.1827 13.2778 11.0472 13.1623L9.4376 11.7897C9.11705 11.5163 9.23835 10.9951 9.64665 10.8914V10.8914ZM6.34977 12.206C6.31086 11.6047 6.96665 11.2099 7.47989 11.5256L10.7828 13.5575C10.9245 13.6447 10.9704 13.8248 10.9169 13.9823V13.9823C10.8643 14.1371 10.7216 14.2569 10.5586 14.2442L6.69461 13.9436C6.09379 13.8969 5.79561 13.1919 6.18031 12.728V12.728C6.30137 12.5821 6.36202 12.3953 6.34977 12.206V12.206ZM8.07585 15.7333C7.80678 15.4086 8.01545 14.9153 8.43591 14.8825L10.5045 14.721C10.6895 14.7066 10.8495 14.8489 10.9057 15.0258V15.0258C10.9604 15.1978 10.9097 15.3915 10.756 15.486L8.98519 16.5748C8.62596 16.7957 8.16708 16.5194 8.19431 16.0985V16.0985C8.20288 15.9662 8.16048 15.8355 8.07585 15.7333V15.7333ZM8.8681 19.968C8.76694 19.8078 8.60816 19.6923 8.42456 19.6454V19.6454C7.84089 19.4962 7.6674 18.7508 8.12568 18.3598L11.0506 15.864C11.1797 15.7537 11.3712 15.7679 11.5078 15.8688V15.8688C11.6416 15.9677 11.7111 16.1422 11.6477 16.296L10.1809 19.8548C9.95144 20.4114 9.18945 20.4771 8.8681 19.968V19.968ZM12.6922 19.0913C12.5688 19.042 12.4311 19.042 12.3076 19.0913V19.0913C11.9163 19.2474 11.5116 18.8971 11.6101 18.4875L12.0928 16.4822C12.1358 16.3034 12.313 16.1946 12.4969 16.1946V16.1946V16.1946C12.6841 16.1946 12.8635 16.306 12.9073 16.488L13.3888 18.4882C13.4874 18.8975 13.0831 19.2474 12.6922 19.0913V19.0913ZM16.5754 19.6453C16.3918 19.6923 16.2329 19.8078 16.1316 19.968V19.968C15.8098 20.4773 15.0473 20.4114 14.8176 19.8545L13.351 16.2978C13.2871 16.143 13.3574 15.9673 13.4921 15.8678V15.8678C13.6288 15.7668 13.8198 15.7534 13.9491 15.8637L16.8741 18.3596C17.3324 18.7507 17.1592 19.4961 16.5754 19.6453V19.6453ZM16.8054 16.0984C16.8323 16.5194 16.3731 16.7957 16.0138 16.5746L14.245 15.4867C14.0907 15.3918 14.0396 15.1972 14.0939 15.0244V15.0244C14.1494 14.8477 14.3092 14.7064 14.4938 14.7209L16.5638 14.8824C16.9843 14.9152 17.1931 15.4085 16.924 15.7334V15.7334C16.8394 15.8355 16.7969 15.9661 16.8054 16.0984V16.0984ZM14.4397 14.2444C14.2771 14.257 14.1347 14.1383 14.0827 13.9837V13.9837C14.0295 13.8253 14.0759 13.6444 14.2183 13.5568L17.5199 11.5257C18.0332 11.2099 18.689 11.6048 18.6501 12.2062V12.2062C18.6379 12.3953 18.6985 12.5821 18.8195 12.728V12.728C19.2042 13.1924 18.9057 13.8978 18.3045 13.9444L14.4397 14.2444Z" fill="url(#paint0_linear_8960_7781)"/>
<defs>
<linearGradient id="paint0_linear_8960_7781" x1="12.5" y1="0" x2="12.5" y2="33.3353" gradientUnits="userSpaceOnUse">
<stop stop-color="white" stop-opacity="0.7"/>
<stop offset="1" stop-color="#EFEFEF"/>
</linearGradient>
</defs>
</svg>
