<svg width="25" height="25" viewBox="0 0 25 25" fill="none" xmlns="http://www.w3.org/2000/svg">
<path d="M24.5235 3.93537C25.4622 6.24841 25.0149 9.00946 23.1736 10.8905C21.1464 12.9615 18.0826 13.2855 15.701 11.9125L13.9792 13.8335L15.2076 15.0936L15.9418 14.3436C16.3167 13.9596 16.9255 13.9596 17.3004 14.3436L23.2539 20.4877C23.6298 20.8707 23.6298 21.4927 23.2539 21.8757L20.5366 24.6517C20.1617 25.0358 19.5528 25.0358 19.1779 24.6517L13.2245 18.5076C12.8486 18.1246 12.8486 17.5026 13.2245 17.1196L13.895 16.4346L12.7243 15.2356L4.49103 24.4247C3.74024 25.1918 2.52351 25.1918 1.7737 24.4247L1.09437 23.7307C0.343581 22.9637 0.343581 21.7207 1.09437 20.9547L10.4738 12.9295L4.24435 6.54842L2.27684 6.54742L0 2.80735L1.83243 0.93232L5.57659 3.27336L5.60106 5.2414L11.903 11.7045L13.7364 10.1365C11.9441 7.64044 12.1311 4.12438 14.3394 1.86834C16.1718 -0.0036971 18.8598 -0.468705 21.118 0.472311L17.0812 4.53938L20.4788 8.01045L24.5235 3.93537ZM3.34771 21.9337C2.97281 21.5507 2.36494 21.5507 1.98905 21.9337C1.61317 22.3177 1.61317 22.9387 1.98905 23.3227C2.36494 23.7057 2.97281 23.7057 3.34771 23.3227C3.7236 22.9377 3.7236 22.3167 3.34771 21.9337Z" fill="url(#paint0_linear_8960_8199)"/>
<defs>
<linearGradient id="paint0_linear_8960_8199" x1="12.5" y1="0" x2="12.5" y2="25" gradientUnits="userSpaceOnUse">
<stop stop-color="white" stop-opacity="0.7"/>
<stop offset="1" stop-color="#EFEFEF"/>
</linearGradient>
</defs>
</svg>
