<svg width="26" height="34" viewBox="0 0 26 34" fill="none" xmlns="http://www.w3.org/2000/svg">
<path fill-rule="evenodd" clip-rule="evenodd" d="M0 0H25.5V34H0V0ZM4.25 4.25H21.25V12.75H4.25V4.25ZM6.375 21.25C7.5486 21.25 8.5 20.2986 8.5 19.125C8.5 17.9514 7.5486 17 6.375 17C5.2014 17 4.25 17.9514 4.25 19.125C4.25 20.2986 5.2014 21.25 6.375 21.25ZM8.5 27.625C8.5 28.7986 7.5486 29.75 6.375 29.75C5.2014 29.75 4.25 28.7986 4.25 27.625C4.25 26.4514 5.2014 25.5 6.375 25.5C7.5486 25.5 8.5 26.4514 8.5 27.625ZM12.75 21.25C13.9236 21.25 14.875 20.2986 14.875 19.125C14.875 17.9514 13.9236 17 12.75 17C11.5764 17 10.625 17.9514 10.625 19.125C10.625 20.2986 11.5764 21.25 12.75 21.25ZM21.25 19.125C21.25 20.2986 20.2986 21.25 19.125 21.25C17.9514 21.25 17 20.2986 17 19.125C17 17.9514 17.9514 17 19.125 17C20.2986 17 21.25 17.9514 21.25 19.125ZM12.75 25.5C11.5764 25.5 10.625 26.4514 10.625 27.625C10.625 28.7986 11.5764 29.75 12.75 29.75H19.125C20.2986 29.75 21.25 28.7986 21.25 27.625C21.25 26.4514 20.2986 25.5 19.125 25.5H12.75Z" fill="url(#paint0_linear_9517_34)"/>
<defs>
<linearGradient id="paint0_linear_9517_34" x1="12.75" y1="0" x2="12.75" y2="34" gradientUnits="userSpaceOnUse">
<stop stop-color="white"/>
<stop offset="1" stop-color="#BABABA"/>
</linearGradient>
</defs>
</svg>
