<svg width="24" height="24" viewBox="0 0 24 24" fill="none" xmlns="http://www.w3.org/2000/svg">
<path d="M0.935737 12.3503V12.3503C0.418997 12.3503 9.58407e-05 12.7692 9.58407e-05 13.286V19C9.58407e-05 21.7614 2.23867 24 5.0001 24H19C21.7614 24 24 21.7614 24 19V13.286C24 12.7692 23.5811 12.3503 23.0644 12.3503V12.3503H0.935737ZM16.3388 4.23733C16.3388 4.23733 16.3389 4.23727 16.3389 4.23721C16.1536 1.86878 14.2803 0 12 0C10.9646 0 10.0132 0.385266 9.26554 1.02764C7.68955 2.38174 6.05793 4.23733 3.98012 4.23733H3.52182C1.57677 4.23733 0 5.8141 0 7.75915V7.75915C0 9.7042 1.57678 11.281 3.52183 11.281H20.4781C22.4231 11.281 23.9999 9.7042 23.9999 7.75915V7.75915C23.9999 5.8141 22.4231 4.23733 20.4781 4.23733H16.3388V4.23733ZM8.59835 4.23733C8.59831 4.23733 8.59828 4.23729 8.59829 4.23726C8.77983 2.41608 10.2358 0.992406 12.0001 0.992406V0.992406C14.759 0.992406 13.0084 4.23733 10.2494 4.23733H8.59835V4.23733Z" fill="url(#paint0_linear_8960_7800)"/>
<defs>
<linearGradient id="paint0_linear_8960_7800" x1="12" y1="0" x2="12" y2="24" gradientUnits="userSpaceOnUse">
<stop stop-color="white" stop-opacity="0.7"/>
<stop offset="1" stop-color="#EFEFEF"/>
</linearGradient>
</defs>
</svg>
