<svg width="24" height="29" viewBox="0 0 24 29" fill="none" xmlns="http://www.w3.org/2000/svg">
<path d="M9.36674 14.5943C9.61833 14.5943 9.8217 14.3911 9.81793 14.1396C9.80069 12.9907 9.61183 11.6378 9.07949 11.1054C8.90965 10.9356 8.58 10.7773 8.14643 10.6331C6.15615 9.97091 4.20566 12.3754 5.68885 13.8586V13.8586C6.14945 14.3193 7.52434 14.5943 9.36674 14.5943V14.5943ZM8.08501 12.1683C8.64716 12.7306 7.69599 13.6903 6.98546 13.3334C6.92825 13.3047 6.87866 13.2712 6.83959 13.2321V13.2321C6.268 12.6605 7.02306 11.7264 7.78307 12.0017C7.91466 12.0494 8.02134 12.1046 8.08501 12.1683V12.1683Z" fill="url(#paint0_linear_8960_7772)"/>
<path d="M14.181 14.1397C14.1772 14.3912 14.3805 14.5943 14.6321 14.5943V14.5943C16.4745 14.5943 17.8494 14.3193 18.31 13.8586V13.8586C19.7934 12.3754 17.843 9.97084 15.8525 10.6331C15.4189 10.7774 15.0891 10.9357 14.9193 11.1055C14.3871 11.6379 14.1982 12.9906 14.181 14.1397ZM15.914 12.1683C15.9777 12.1046 16.0844 12.0494 16.216 12.0017C16.976 11.7264 17.731 12.6605 17.1594 13.2321V13.2321C17.1204 13.2712 17.0708 13.3047 17.0136 13.3334C16.3031 13.6904 15.3518 12.7305 15.914 12.1683V12.1683Z" fill="url(#paint1_linear_8960_7772)"/>
<path d="M11.121 6.59043V6.59043C11.1346 6.9435 11.475 7.19078 11.815 7.09463V7.09463C11.8755 7.07754 11.9379 7.06899 12.0001 7.06899C12.0623 7.06899 12.1247 7.07754 12.1852 7.09463V7.09463C12.5252 7.19078 12.8656 6.9435 12.8792 6.59043V6.59043C12.884 6.46472 12.9237 6.34285 12.9937 6.23826V6.23826C13.1902 5.9447 13.06 5.54455 12.7285 5.42251V5.42251C12.6105 5.3791 12.5069 5.30371 12.4291 5.20498V5.20498C12.2106 4.92736 11.7899 4.92736 11.5713 5.20498V5.20498C11.4935 5.30371 11.3899 5.3791 11.2719 5.42251V5.42251C10.9405 5.54455 10.8102 5.9447 11.0067 6.23826V6.23826C11.0764 6.34294 11.1161 6.46472 11.121 6.59043Z" fill="url(#paint2_linear_8960_7772)"/>
<path d="M20.364 2.33152C18.2339 0.806243 15.3416 0 12 0C8.65844 0 5.76615 0.806243 3.63601 2.33152C1.25733 4.03486 0 6.52082 0 9.52086C0 15.3578 1.17292 20.2128 3.39179 23.5613C5.51222 26.7611 8.56941 28.5234 12 28.5234C15.4306 28.5234 18.4878 26.7611 20.6082 23.5613C22.8271 20.2128 24 15.3578 24 9.52086C24 6.52082 22.7427 4.03486 20.364 2.33152ZM8.92831 5.11347C8.99275 4.91515 9.14458 4.75745 9.34012 4.68533V4.68533C10.1777 4.37701 10.9135 3.84246 11.4655 3.14113V3.14113C11.5945 2.97738 11.7915 2.88173 12 2.88173C12.2085 2.88173 12.4055 2.97738 12.5345 3.14113V3.14113C13.0865 3.84246 13.8223 4.37701 14.6599 4.68533V4.68533C14.8554 4.75745 15.0072 4.91515 15.0717 5.11347C15.1361 5.31179 15.1061 5.52864 14.9901 5.70199V5.70199C14.4937 6.44371 14.2127 7.3086 14.1783 8.20043V8.20043C14.1703 8.40884 14.0671 8.60197 13.8984 8.72451C13.7809 8.80989 13.6406 8.85445 13.4986 8.85445C13.4366 8.85445 13.3744 8.846 13.3135 8.82881V8.82881C12.4547 8.58586 11.5452 8.58584 10.6864 8.82872V8.82872C10.4861 8.88538 10.2703 8.84716 10.1016 8.72442C9.93287 8.60187 9.82972 8.40874 9.82166 8.20034V8.20034C9.78731 7.3085 9.50633 6.44362 9.00994 5.7019V5.7019C8.89392 5.52864 8.86387 5.31179 8.92831 5.11347ZM4.72615 14.8205C3.44144 13.5357 2.24826 9.71573 2.1164 9.28432C2.05128 9.07121 2.09469 8.83966 2.23251 8.66468C2.37052 8.48951 2.58631 8.3926 2.80768 8.40663C3.7843 8.4655 8.72288 8.82583 10.0405 10.1434C11.4268 11.5298 11.1721 14.9187 11.1385 15.3006C11.1094 15.6327 10.8438 15.8946 10.5113 15.9192C10.4918 15.9208 10.0282 15.9546 9.36586 15.9546C7.03981 15.9545 5.4788 15.573 4.72615 14.8205ZM13.5388 17.6385C13.9145 17.6385 14.219 17.943 14.219 18.3187C14.219 18.6944 13.9144 18.9988 13.5388 18.9988H10.4612C10.0855 18.9988 9.78103 18.6944 9.78103 18.3187C9.78103 17.943 10.0856 17.6385 10.4612 17.6385H13.5388ZM12 24.2216C9.75222 24.2216 8.24211 23.3954 8.24211 22.1658C8.24211 20.9361 9.75222 20.11 12 20.11C14.2478 20.11 15.7579 20.9361 15.7579 22.1658C15.7579 23.3954 14.2477 24.2216 12 24.2216ZM19.2738 14.8205C18.5212 15.5729 16.9602 15.9545 14.6341 15.9545C14.6341 15.9545 14.6341 15.9545 14.6341 15.9545C14.6341 15.9545 14.634 15.9545 14.6339 15.9545C13.9716 15.9545 13.5079 15.9207 13.4884 15.9191C13.156 15.8945 12.8904 15.6326 12.8612 15.3005C12.8276 14.9186 12.5729 11.5298 13.9591 10.1434C15.2768 8.82574 20.2154 8.4654 21.192 8.40653C21.4135 8.3926 21.6293 8.48951 21.7672 8.66459C21.9051 8.83957 21.9484 9.07112 21.8833 9.28423C21.7517 9.71573 20.5585 13.5357 19.2738 14.8205Z" fill="url(#paint3_linear_8960_7772)"/>
<path d="M12.0031 21.4727C10.2313 21.4727 9.60547 22.0265 9.60547 22.1681C9.60547 22.3096 10.2313 22.8635 12.0031 22.8635C13.7749 22.8635 14.4007 22.3096 14.4007 22.1681C14.4007 22.0265 13.7749 21.4727 12.0031 21.4727Z" fill="url(#paint4_linear_8960_7772)"/>
<defs>
<linearGradient id="paint0_linear_8960_7772" x1="6.77681" y1="9.84375" x2="6.77681" y2="14.5943" gradientUnits="userSpaceOnUse">
<stop stop-color="white" stop-opacity="0.7"/>
<stop offset="1" stop-color="#EFEFEF"/>
</linearGradient>
<linearGradient id="paint1_linear_8960_7772" x1="17.2222" y1="9.84375" x2="17.2222" y2="14.5943" gradientUnits="userSpaceOnUse">
<stop stop-color="white" stop-opacity="0.7"/>
<stop offset="1" stop-color="#EFEFEF"/>
</linearGradient>
<linearGradient id="paint2_linear_8960_7772" x1="12.0002" y1="4.66016" x2="12.0002" y2="7.28335" gradientUnits="userSpaceOnUse">
<stop stop-color="white" stop-opacity="0.7"/>
<stop offset="1" stop-color="#EFEFEF"/>
</linearGradient>
<linearGradient id="paint3_linear_8960_7772" x1="12" y1="0" x2="12" y2="28.5234" gradientUnits="userSpaceOnUse">
<stop stop-color="white" stop-opacity="0.7"/>
<stop offset="1" stop-color="#EFEFEF"/>
</linearGradient>
<linearGradient id="paint4_linear_8960_7772" x1="12.0031" y1="21.4727" x2="12.0031" y2="22.8635" gradientUnits="userSpaceOnUse">
<stop stop-color="white" stop-opacity="0.7"/>
<stop offset="1" stop-color="#EFEFEF"/>
</linearGradient>
</defs>
</svg>
