<svg width="23" height="28" viewBox="0 0 23 28" fill="none" xmlns="http://www.w3.org/2000/svg">
<path d="M13.3643 17.5807C14.0948 16.8781 14.5684 16.0206 14.7851 15.1171C15.4035 12.5393 15.2021 9.26077 17.1126 7.42309L21.7875 2.92638C22.4022 2.33508 22.4022 1.35129 21.7875 0.759996V0.759996C21.2056 0.200317 20.2856 0.20032 19.7037 0.760001L1.02065 18.731C0.405915 19.3223 0.405918 20.3061 1.02065 20.8974L1.53315 21.3903C1.8288 21.6747 2.29631 21.6747 2.59196 21.3903V21.3903C2.92224 21.0726 3.456 21.1153 3.73156 21.4815L7.33118 26.2648C8.82669 28.252 11.7235 28.4838 13.516 26.7597L13.7227 26.5608C15.1152 25.2215 15.2887 23.0534 14.1269 21.5096L13.1535 20.2161C12.5473 19.4106 12.6379 18.2795 13.3643 17.5807V17.5807ZM11.8393 16.1139C11.2925 16.6398 10.4089 16.5691 9.95268 15.9629L9.48419 15.3403L9.39306 15.2192C9.30062 15.0964 9.31442 14.9239 9.4252 14.8174V14.8174C9.54288 14.7042 9.72896 14.7042 9.84664 14.8174L10.1979 15.1552C10.5117 15.4571 11.0079 15.4571 11.3217 15.1552L11.7229 14.7694C12.0296 14.4743 12.0296 13.9834 11.7229 13.6884L11.645 13.6135C11.3807 13.3593 11.3807 12.9364 11.645 12.6822V12.6822C11.925 12.4129 12.3845 12.4501 12.5351 12.8081C12.9986 13.9101 12.7667 15.2218 11.8393 16.1139V16.1139Z" fill="url(#paint0_linear_8960_7792)"/>
<defs>
<linearGradient id="paint0_linear_8960_7792" x1="11.4041" y1="-0.242188" x2="11.4041" y2="30.0029" gradientUnits="userSpaceOnUse">
<stop stop-color="white" stop-opacity="0.7"/>
<stop offset="1" stop-color="#EFEFEF"/>
</linearGradient>
</defs>
</svg>
