<svg width="31" height="36" viewBox="0 0 31 36" fill="none" xmlns="http://www.w3.org/2000/svg">
<path d="M8.02809 22.5835C8.60452 22.5835 9.07181 22.1162 9.07181 21.5398C9.07181 20.9634 8.60452 20.4961 8.02809 20.4961C7.45166 20.4961 6.98438 20.9634 6.98438 21.5398C6.98438 22.1162 7.45166 22.5835 8.02809 22.5835Z" fill="url(#paint0_linear_9517_23)"/>
<path d="M11.9943 19.8789C11.457 19.8789 11.0195 20.3176 11.0195 20.8572C11.0195 21.3981 11.457 21.8344 11.9943 21.8344C12.5364 21.8344 12.975 21.3981 12.975 20.8572C12.975 20.3176 12.5364 19.8789 11.9943 19.8789Z" fill="url(#paint1_linear_9517_23)"/>
<path d="M10.5779 23.98C11.0696 23.98 11.4682 23.5813 11.4682 23.0896C11.4682 22.5979 11.0696 22.1992 10.5779 22.1992C10.0861 22.1992 9.6875 22.5979 9.6875 23.0896C9.6875 23.5813 10.0861 23.98 10.5779 23.98Z" fill="url(#paint2_linear_9517_23)"/>
<path d="M15.3364 23.0868C15.7638 23.0868 16.1102 22.7403 16.1102 22.3129C16.1102 21.8855 15.7638 21.5391 15.3364 21.5391C14.909 21.5391 14.5625 21.8855 14.5625 22.3129C14.5625 22.7403 14.909 23.0868 15.3364 23.0868Z" fill="url(#paint3_linear_9517_23)"/>
<path d="M5.55802 24.2254C5.93093 24.2254 6.23323 23.9231 6.23323 23.5502C6.23323 23.1773 5.93093 22.875 5.55802 22.875C5.18511 22.875 4.88281 23.1773 4.88281 23.5502C4.88281 23.9231 5.18511 24.2254 5.55802 24.2254Z" fill="url(#paint4_linear_9517_23)"/>
<path d="M30.5127 9.90811C30.2904 9.65491 29.9683 9.50988 29.6307 9.50988H21.7529V1.17678C21.7529 0.786867 21.5603 0.423111 21.2381 0.204382C20.916 -0.0143471 20.5082 -0.0607082 20.1433 0.0807525L11.5665 3.4449C10.9602 3.68265 10.6607 4.36618 10.8996 4.97244C11.1362 5.5787 11.8209 5.87708 12.426 5.63933L19.3932 2.9064V9.50988H11.5166C11.1849 9.50988 10.8687 9.64896 10.6452 9.89385C10.4217 10.1387 10.3124 10.4668 10.3445 10.7985L10.9448 17.1416C10.9293 17.1416 10.9139 17.1393 10.8984 17.1393C5.9996 17.1393 1.91031 20.9694 1.59173 25.8599C1.57865 26.0453 1.606 26.2296 1.65117 26.4079C0.696605 26.7087 0 27.5919 0 28.6451C0 29.7518 0.764363 30.6719 1.79025 30.9251C1.70109 31.2021 1.67256 31.4957 1.72725 31.7917C1.94003 32.9294 2.36204 34.0075 2.98256 35.0025C3.3059 35.522 3.87293 35.8335 4.48276 35.8335H17.3117C17.8169 35.8335 18.2817 35.61 18.6146 35.2438H26.7254C27.3209 35.2438 27.8226 34.8016 27.8915 34.2108L30.7956 10.8318C30.8408 10.4977 30.7362 10.1613 30.5127 9.90811ZM10.8996 18.9057C14.9081 18.9057 18.1807 22.0298 18.4398 25.974H3.35702C3.61498 22.0298 6.8864 18.9057 10.8996 18.9057ZM17.3141 34.0658H4.48276C3.99419 33.2824 3.64232 32.4063 3.46638 31.4648H18.3305C18.1545 32.4075 17.8015 33.2836 17.3141 34.0658ZM18.1842 29.2359H12.0919H3.61141C3.28569 29.2359 3.02179 28.972 3.02179 28.6463C3.02179 28.3218 3.28569 28.0567 3.61141 28.0567H11.9802H18.1842C18.51 28.0567 18.7739 28.3218 18.7739 28.6463C18.7739 28.972 18.5111 29.2359 18.1842 29.2359Z" fill="url(#paint5_linear_9517_23)"/>
<defs>
<linearGradient id="paint0_linear_9517_23" x1="8.02809" y1="20.4961" x2="8.02809" y2="22.5835" gradientUnits="userSpaceOnUse">
<stop stop-color="white"/>
<stop offset="1" stop-color="#C6C6C6"/>
</linearGradient>
<linearGradient id="paint1_linear_9517_23" x1="11.9973" y1="19.8789" x2="11.9973" y2="21.8344" gradientUnits="userSpaceOnUse">
<stop stop-color="white"/>
<stop offset="1" stop-color="#C6C6C6"/>
</linearGradient>
<linearGradient id="paint2_linear_9517_23" x1="10.5779" y1="22.1992" x2="10.5779" y2="23.98" gradientUnits="userSpaceOnUse">
<stop stop-color="white"/>
<stop offset="1" stop-color="#C6C6C6"/>
</linearGradient>
<linearGradient id="paint3_linear_9517_23" x1="15.3364" y1="21.5391" x2="15.3364" y2="23.0868" gradientUnits="userSpaceOnUse">
<stop stop-color="white"/>
<stop offset="1" stop-color="#C6C6C6"/>
</linearGradient>
<linearGradient id="paint4_linear_9517_23" x1="5.55802" y1="22.875" x2="5.55802" y2="24.2254" gradientUnits="userSpaceOnUse">
<stop stop-color="white"/>
<stop offset="1" stop-color="#C6C6C6"/>
</linearGradient>
<linearGradient id="paint5_linear_9517_23" x1="15.403" y1="0" x2="15.403" y2="35.8335" gradientUnits="userSpaceOnUse">
<stop stop-color="white"/>
<stop offset="1" stop-color="#C6C6C6"/>
</linearGradient>
</defs>
</svg>
