<svg width="25" height="32" viewBox="0 0 25 32" fill="none" xmlns="http://www.w3.org/2000/svg">
<path d="M12.5 0C5.625 0 0 5.53846 0 12.3077C0 22.6462 11.25 31.3846 11.75 31.7538C12 31.8769 12.25 32 12.5 32C12.75 32 13 31.8769 13.25 31.7538C13.75 31.3846 25 22.6462 25 12.3077C25 5.53846 19.375 0 12.5 0ZM12.5 17.2308C9.75 17.2308 7.5 15.0154 7.5 12.3077C7.5 9.6 9.75 7.38461 12.5 7.38461C15.25 7.38461 17.5 9.6 17.5 12.3077C17.5 15.0154 15.25 17.2308 12.5 17.2308Z" fill="url(#paint0_linear_8960_8208)"/>
<defs>
<linearGradient id="paint0_linear_8960_8208" x1="12.5" y1="0" x2="12.5" y2="32" gradientUnits="userSpaceOnUse">
<stop stop-color="white" stop-opacity="0.7"/>
<stop offset="1" stop-color="#EFEFEF"/>
</linearGradient>
</defs>
</svg>
