<svg width="27" height="27" viewBox="0 0 27 27" fill="none" xmlns="http://www.w3.org/2000/svg">
<path fill-rule="evenodd" clip-rule="evenodd" d="M22.5 15C24.1545 15 25.5 16.3455 25.5 18V19.5H27V24.75C27 25.9905 25.9905 27 24.75 27H20.25C19.0095 27 18 25.9905 18 24.75V19.5H19.5V18C19.5 16.3455 20.8455 15 22.5 15ZM11.25 0C12.525 0 13.77 0.36 14.835 1.035C15.255 1.29 15.66 1.605 16.02 1.965C16.71 2.655 17.2125 3.468 17.5395 4.353C17.6985 4.7805 17.832 5.217 17.9025 5.676L17.934 5.8815L17.985 6.165L17.9775 6.1695V6.1725L17.2365 6.6285C16.608 7.035 15.894 7.494 14.5215 7.4985C14.5155 7.4985 14.511 7.5 14.505 7.5C14.16 7.5 13.857 7.47 13.587 7.4205C13.578 7.41899 13.572 7.416 13.563 7.41449C12.771 7.263 12.255 6.933 11.787 6.63149C11.652 6.543 11.523 6.46049 11.391 6.384C10.998 6.159 10.5765 6 9.87 6H9.8655C9.0525 6.00149 8.6175 6.2235 8.1585 6.51C8.0955 6.5505 8.034 6.58649 7.9695 6.6285C7.926 6.657 7.875 6.687 7.83 6.7155C7.7415 6.7725 7.6515 6.82949 7.55399 6.8865C7.49099 6.924 7.4205 6.957 7.353 6.993C7.2555 7.044 7.1565 7.0935 7.047 7.14C6.954 7.182 6.8535 7.218 6.75 7.254C6.6525 7.287 6.54599 7.314 6.43799 7.34249C6.312 7.3755 6.1875 7.407 6.04649 7.4295C6.03 7.4325 6.0165 7.437 6 7.44V8.25C6 8.49 6.015 8.73 6.06 8.955C6.39 11.52 8.595 13.5 11.25 13.5C13.995 13.5 16.26 11.37 16.47 8.685C17.145 8.475 17.625 8.16 18 7.92V8.25C18 10.578 16.8135 12.6345 15.0135 13.848H15.0825C16.4919 14.0837 17.8763 14.4498 19.218 14.9415C18.468 15.7455 18 16.815 18 18H16.5V24.75C16.5 24.7695 16.506 24.7875 16.506 24.8085C14.496 25.3365 12.675 25.5 11.25 25.5C6.3915 25.5 2.643 23.808 0.353995 22.3875L0 22.167V19.4055C0 17.436 1.2075 15.7065 3.075 15C4.4865 14.4645 5.952 14.0865 7.437 13.842H7.5045C5.8995 12.7605 4.77 11.022 4.545 9C4.515 8.76 4.5 8.505 4.5 8.25V6.75C4.5 5.955 4.635 5.205 4.89 4.5C5.82 1.875 8.325 0 11.25 0ZM22.5 16.5C21.6735 16.5 21 17.1735 21 18V19.5H24V18C24 17.1735 23.3265 16.5 22.5 16.5Z" fill="url(#paint0_linear_9503_12)"/>
<defs>
<linearGradient id="paint0_linear_9503_12" x1="13.5" y1="0" x2="13.5" y2="27" gradientUnits="userSpaceOnUse">
<stop stop-color="white"/>
<stop offset="1" stop-color="#B0B0B0"/>
</linearGradient>
</defs>
</svg>
