<svg width="26" height="26" viewBox="0 0 26 26" fill="none" xmlns="http://www.w3.org/2000/svg">
<path fill-rule="evenodd" clip-rule="evenodd" d="M6.50002 6.06281C6.50002 2.7186 9.4138 0 13 0C16.5862 0 19.4882 2.7186 19.5 6.06281C19.5 9.41841 13 18.1998 13 18.1998C13 18.1998 6.50002 9.41841 6.50002 6.06281ZM10.4 6.49993C10.4 7.93512 11.5648 9.09991 13 9.09991C14.4352 9.09991 15.6 7.93512 15.6 6.49993C15.6 5.06475 14.4352 3.89996 13 3.89996C11.5648 3.89996 10.4 5.06475 10.4 6.49993ZM0.65506 15.7711L6.24756 12.5756C6.66622 13.3247 7.10839 14.0648 7.54171 14.762L7.57318 14.8126L3.29159 17.259L8.4089 23.4L17.5911 23.3998L22.7084 17.2591L18.4269 14.8126L18.4583 14.762C18.8916 14.0648 19.3337 13.3247 19.7525 12.5756L25.3449 15.7712C25.6788 15.9619 25.9111 16.2907 25.9793 16.6691C26.0476 17.0475 25.9449 17.4367 25.6987 17.7321L19.1987 25.532C18.9517 25.8284 18.5858 25.9997 18.2 25.9997L7.80004 26C7.4142 26 7.0483 25.8287 6.8013 25.5323L0.301306 17.732C0.0551526 17.4366 -0.0476027 17.0474 0.0206611 16.669C0.0889248 16.2905 0.321204 15.9618 0.65506 15.7711Z" fill="url(#paint0_linear_8960_8200)"/>
<defs>
<linearGradient id="paint0_linear_8960_8200" x1="13" y1="0" x2="13" y2="26" gradientUnits="userSpaceOnUse">
<stop stop-color="white" stop-opacity="0.7"/>
<stop offset="1" stop-color="#EFEFEF"/>
</linearGradient>
</defs>
</svg>
