<svg width="24" height="24" viewBox="0 0 24 24" fill="none" xmlns="http://www.w3.org/2000/svg">
<path fill-rule="evenodd" clip-rule="evenodd" d="M18 0C21.3138 0 24 2.6863 24 6V18C24 21.3138 21.3138 24 18 24C16.8954 24 16 23.1046 16 22C16 20.8954 16.8954 20 18 20C19.1046 20 20 19.1046 20 18V6C20 4.89544 19.1046 4 18 4C16.8954 4 16 3.10456 16 2C16 0.89544 16.8954 0 18 0ZM4 18C4 19.1046 4.89544 20 6 20C7.10456 20 8 20.8954 8 22C8 23.1046 7.10456 24 6 24C2.6863 24 0 21.3138 0 18V6C0 2.6863 2.6863 0 6 0C7.10456 0 8 0.89544 8 2C8 3.10456 7.10456 4 6 4C4.89544 4 4 4.89544 4 6V18ZM14.8944 6.21114C13.9064 5.71716 12.7052 6.11762 12.2112 7.10558L8.2112 15.1056L8.1188 15.3202C7.77738 16.2616 8.1882 17.3302 9.1056 17.7888C10.0936 18.2828 11.2948 17.8824 11.7888 16.8944L15.7888 8.8944L15.8812 8.6798C16.2226 7.73846 15.8118 6.66984 14.8944 6.21114Z" fill="url(#paint0_linear_8960_8161)"/>
<defs>
<linearGradient id="paint0_linear_8960_8161" x1="12" y1="0" x2="12" y2="24" gradientUnits="userSpaceOnUse">
<stop stop-color="white" stop-opacity="0.7"/>
<stop offset="1" stop-color="#EFEFEF"/>
</linearGradient>
</defs>
</svg>
