<svg width="30" height="30" viewBox="0 0 30 30" fill="none" xmlns="http://www.w3.org/2000/svg">
<path d="M6.31562 9.65825C6.41131 9.65825 6.54117 9.64441 6.70521 9.61672L7.66892 10.5928C7.24516 10.8559 6.79406 10.9874 6.31562 10.9874C6.30195 10.9874 6.28145 10.9839 6.25411 10.977L6.2131 10.9666L5.00333 22.285C4.98966 22.4649 5.0375 22.6207 5.14686 22.7522C5.25622 22.8838 5.39975 22.9495 5.57746 22.9495H9.45282C9.63053 22.9495 9.78773 22.8838 9.92443 22.7522C10.0611 22.6207 10.1363 22.4649 10.15 22.285L10.6421 17.633H13.5332C14.4901 17.633 15.2761 17.2869 15.8913 16.5946C16.5064 15.9024 16.814 14.9194 16.814 13.6456H24.0316C24.2093 13.6456 24.3631 13.5799 24.4929 13.4483C24.6228 13.3168 24.6877 13.1611 24.6877 12.9811V12.3165H25.3439C25.5216 12.3165 25.6753 12.2507 25.8052 12.1192C25.9351 11.9877 26 11.8319 26 11.6519V8.99369C26 8.8137 25.9351 8.65795 25.8052 8.52642C25.6753 8.39489 25.5216 8.32913 25.3439 8.32913H24.6877V7.66456C24.6877 7.48458 24.6228 7.32882 24.4929 7.19729C24.3631 7.06576 24.2093 7 24.0316 7C23.8539 7 23.7001 7.06576 23.5702 7.19729C23.4403 7.32882 23.3754 7.48458 23.3754 7.66456V8.32913H8.94021C8.94021 8.8137 8.81034 9.27059 8.55062 9.69979L7.40236 8.51604C7.21099 8.33605 6.99227 8.28759 6.74622 8.37066C6.56851 8.34297 6.42498 8.32913 6.31562 8.32913C5.94654 8.32913 5.63555 8.39489 5.38266 8.52642C5.12977 8.65795 5.00333 8.8137 5.00333 8.99369C5.00333 9.17368 5.12977 9.32943 5.38266 9.46096C5.63555 9.59249 5.94654 9.65825 6.31562 9.65825ZM11.0727 13.6456H11.5648C11.5648 14.1717 11.681 14.6667 11.9134 15.1305C12.1458 15.5943 12.467 15.9785 12.8771 16.2831V13.6456H15.3786C15.4607 13.8672 15.5017 14.0887 15.5017 14.3102C15.5017 14.864 15.3103 15.3347 14.9275 15.7224C14.5448 16.1101 14.08 16.3039 13.5332 16.3039H10.7856L11.0727 13.6456Z" fill="url(#paint0_linear_12408_37)"/>
<defs>
<linearGradient id="paint0_linear_12408_37" x1="15.5005" y1="7" x2="15.5005" y2="22.9495" gradientUnits="userSpaceOnUse">
<stop stop-color="white"/>
<stop offset="1" stop-color="#C4C2C2"/>
</linearGradient>
</defs>
</svg>
