<svg width="30" height="30" viewBox="0 0 30 30" fill="none" xmlns="http://www.w3.org/2000/svg">
<path d="M21.4952 19.4088C20.9256 19.1334 20.3255 18.9007 19.7193 18.7048C19.8969 17.9029 20.001 17.052 20.0377 16.1704H22.6281C22.524 17.3213 22.1321 18.4416 21.4952 19.4088ZM18.4271 22.035C18.5679 21.8085 18.7088 21.5637 18.8374 21.3066C19.0333 20.9086 19.2171 20.4679 19.3702 20.0026C19.7988 20.1433 20.2275 20.3026 20.6317 20.4862C20.0071 21.129 19.2477 21.6615 18.4271 22.035ZM16.1736 22.4697V19.4088C16.8104 19.4455 17.4473 19.5251 18.072 19.6598C17.6004 21.0372 16.9146 22.0534 16.1736 22.4697ZM16.1736 16.1704H18.6966C18.666 16.9295 18.5742 17.6641 18.4272 18.362C17.6862 18.2029 16.9268 18.1049 16.1736 18.0682V16.1704ZM16.1736 12.932C16.9268 12.8954 17.6862 12.7974 18.4272 12.6382C18.5741 13.3361 18.666 14.0707 18.6966 14.8297H16.1736V12.932ZM16.1736 8.53045C16.9146 8.94061 17.6004 9.96295 18.072 11.3403C17.4473 11.4688 16.8043 11.5546 16.1736 11.5852V8.53045ZM20.6318 10.5139C20.2277 10.6915 19.799 10.8567 19.3703 10.9975C19.2173 10.5323 19.0335 10.0915 18.8375 9.68753C18.7028 9.43042 18.568 9.18554 18.4272 8.96517C19.2478 9.33247 20.0072 9.87109 20.6318 10.5139ZM22.6282 14.8298H20.0378C20.0012 13.9483 19.897 13.0973 19.7194 12.2955C20.3257 12.0996 20.9196 11.8669 21.4953 11.5915C22.1322 12.5587 22.5241 13.6729 22.6282 14.8298ZM14.8324 11.5853C14.1955 11.5548 13.5587 11.4691 12.9279 11.3405C13.3994 9.96308 14.0914 8.94077 14.8324 8.53058V11.5853ZM14.8324 14.8298H12.3032C12.3399 14.0708 12.4318 13.3361 12.5788 12.6383C13.3198 12.7975 14.0791 12.8954 14.8324 12.9322L14.8324 14.8298ZM14.8324 18.0682C14.0731 18.1049 13.3198 18.2028 12.5788 18.3621C12.4319 17.6703 12.34 16.9296 12.3033 16.1704H14.8324L14.8324 18.0682ZM14.8324 22.4698C14.0914 22.0535 13.3994 21.0373 12.9279 19.6599C13.5587 19.5253 14.1955 19.4457 14.8324 19.4089V22.4698ZM10.3681 20.4863C10.7784 20.3027 11.2071 20.1374 11.6357 20.0027C11.7889 20.4741 11.9664 20.9148 12.1685 21.3127C12.2909 21.5637 12.4318 21.8086 12.5788 22.0351C11.7582 21.6617 10.9989 21.1291 10.3681 20.4863ZM8.37166 16.1704H10.9682C10.9988 17.0459 11.109 17.8968 11.2805 18.7049C10.6742 18.9008 10.0802 19.1395 9.5046 19.4089C8.87383 18.4416 8.48191 17.3213 8.37166 16.1704ZM9.5046 11.5914C10.0802 11.8608 10.6743 12.0996 11.2805 12.2893C11.109 13.1035 10.9988 13.9544 10.9682 14.8298H8.37166C8.48186 13.6789 8.87381 12.5586 9.5046 11.5914ZM12.5788 8.96516C12.4319 9.19167 12.291 9.43654 12.1685 9.68752C11.9664 10.0854 11.7888 10.5262 11.6357 10.9975C11.2009 10.8568 10.7784 10.6914 10.3681 10.5139C10.9989 9.86501 11.7582 9.33252 12.5788 8.96516ZM15.5061 7C10.8151 7 7 10.8139 7 15.4969C7 20.1862 10.8152 24 15.5061 24C20.1909 24 24 20.1861 24 15.4969C24 10.8138 20.1909 7 15.5061 7Z" fill="url(#paint0_linear_12408_40)"/>
<defs>
<linearGradient id="paint0_linear_12408_40" x1="15.5" y1="7" x2="15.5" y2="24" gradientUnits="userSpaceOnUse">
<stop stop-color="#FCFCFC"/>
<stop offset="1" stop-color="#C8C7C7"/>
</linearGradient>
</defs>
</svg>
