<svg width="26" height="26" viewBox="0 0 26 26" fill="none" xmlns="http://www.w3.org/2000/svg">
<path d="M15.2742 3.0001C14.054 2.98938 12.9318 3.84513 12.5006 5.00065C12.066 3.83506 10.9277 2.97571 9.695 3.0014C9.01974 3.01551 8.31632 3.29497 7.68396 3.93593C7.17137 4.45536 6.88567 5.14171 6.59322 5.83475C5.92287 6.81085 5.02612 7.53913 3.7261 7.82575C4.03893 8.10239 4.37991 8.24631 4.73859 8.3059C4.10435 8.64565 3.23777 8.83341 2 8.77377C2.91739 9.91641 4.3526 10.3051 5.85583 10.2725C8.56922 10.171 9.94263 8.82612 10.7466 7.45684L11.4714 7.8583C10.5603 9.41009 8.82797 10.9621 5.78326 11.0741C5.78317 11.0845 5.78326 11.0949 5.78326 11.1054C5.78326 11.3687 5.84225 11.6869 5.94799 12.0466L5.93681 12.0262L7.25516 17.012L7.46185 15.3356C8.22582 16.701 9.14532 18.1477 9.98826 19.414L10.0608 17.412C10.3214 19.0836 10.985 20.5988 11.8065 22.0547C12.2238 22.6409 12.488 23 12.488 23C12.488 23 12.7988 22.5793 13.2869 21.8906C13.29 21.8862 13.2936 21.8813 13.2967 21.877C14.2244 20.4526 14.9974 18.958 15.372 17.2805L15.3245 18.9054C15.742 18.2688 16.1701 17.5995 16.5828 16.9238V18.1594L18.3942 13.6402C18.8356 12.7034 19.1321 11.8797 19.1832 11.2816C16.2465 10.938 14.2135 9.46486 13.2701 7.85835L13.995 7.45688C14.8755 8.95649 16.9687 10.4486 20.1761 10.5411C20.8503 10.5281 21.5126 10.3838 22.2137 10.0501C21.5512 10.0552 20.9857 10.0032 20.4918 9.90091C21.5348 9.678 22.4392 9.17198 23 8.25295C18.4175 9.17567 18.9626 5.60459 17.316 3.93588C16.6738 3.28512 15.9588 3.00605 15.2743 3.00006L15.2742 3.0001Z" fill="url(#paint0_linear_12012_166)"/>
<defs>
<linearGradient id="paint0_linear_12012_166" x1="12.5" y1="3" x2="12.5" y2="23" gradientUnits="userSpaceOnUse">
<stop stop-color="white"/>
<stop offset="0.0001" stop-color="white"/>
<stop offset="1" stop-color="#CCC9C9"/>
</linearGradient>
</defs>
</svg>
