<svg width="30" height="30" viewBox="0 0 30 30" fill="none" xmlns="http://www.w3.org/2000/svg">
<g filter="url(#filter0_d_12408_38)">
<path d="M12.6274 8.30776C12.5896 8.31864 12.5542 8.33692 12.5234 8.36155C12.4926 8.38617 12.4669 8.41667 12.4478 8.45128C12.4287 8.4859 12.4166 8.52397 12.4121 8.56331C12.4076 8.60265 12.4109 8.64249 12.4217 8.68057C12.6136 9.35417 13.0182 9.9466 13.5742 10.3683C14.1302 10.79 14.8076 11.0181 15.5038 11.0181C16.2 11.0181 16.8774 10.79 17.4334 10.3683C17.9895 9.9466 18.394 9.35417 18.5859 8.68057C18.5969 8.64244 18.6003 8.6025 18.596 8.56304C18.5916 8.52358 18.5795 8.48537 18.5604 8.45062C18.5414 8.41587 18.5156 8.38525 18.4848 8.36053C18.4539 8.3358 18.4185 8.31745 18.3806 8.30654C18.3426 8.29562 18.3029 8.29236 18.2638 8.29692C18.2246 8.30149 18.1867 8.3138 18.1522 8.33315C18.1178 8.3525 18.0875 8.3785 18.063 8.40967C18.0386 8.44084 18.0205 8.47656 18.0098 8.51478C17.8537 9.0624 17.5247 9.54401 17.0726 9.88684C16.6205 10.2297 16.0699 10.4151 15.5038 10.4151C14.9378 10.4151 14.3871 10.2297 13.935 9.88684C13.4829 9.54401 13.1539 9.0624 12.9978 8.51478C12.9759 8.4379 12.9247 8.37289 12.8552 8.33407C12.7857 8.29524 12.7038 8.28578 12.6274 8.30776Z" fill="url(#paint0_linear_12408_38)" fill-opacity="0.8" stroke="url(#paint1_linear_12408_38)" stroke-width="0.691289"/>
<path d="M20.996 11.928C20.9199 11.9052 20.8379 11.9137 20.768 11.9517C20.698 11.9897 20.646 12.0541 20.6232 12.1307L20.2535 13.3767C20.2452 13.4047 20.241 13.4337 20.241 13.463V22.7962L10.7622 22.7741V13.4394C10.7622 13.4102 10.758 13.3811 10.7497 13.3531L10.38 12.1071C10.3689 12.069 10.3504 12.0335 10.3256 12.0026C10.3008 11.9718 10.2702 11.9461 10.2355 11.9272C10.2008 11.9082 10.1628 11.8963 10.1235 11.8922C10.0843 11.8881 10.0446 11.8919 10.0068 11.9032C9.96904 11.9146 9.93384 11.9334 9.90326 11.9584C9.87268 11.9835 9.84733 12.0145 9.82865 12.0494C9.80998 12.0844 9.79835 12.1228 9.79444 12.1623C9.79053 12.2018 9.79442 12.2417 9.80587 12.2797L10.163 13.4835V23.0749C10.163 23.1548 10.1945 23.2314 10.2505 23.2879C10.3066 23.3444 10.3826 23.3763 10.4619 23.3765L20.5399 23.4H20.5406C20.6201 23.4 20.6963 23.3682 20.7525 23.3117C20.8086 23.2551 20.8402 23.1784 20.8402 23.0985V13.507L21.1974 12.3032C21.2201 12.2266 21.2117 12.144 21.1739 12.0737C21.1362 12.0033 21.0722 11.9509 20.996 11.928Z" fill="url(#paint2_linear_12408_38)" fill-opacity="0.8" stroke="url(#paint3_linear_12408_38)" stroke-width="0.691289"/>
<path d="M25.9088 12.7803L21.8202 8.66399C21.7894 8.63292 21.7581 8.60227 21.7265 8.57203C20.8292 7.72328 19.6445 7.25012 18.4132 7.24867L18.112 7.2461H18.1094C18.03 7.24576 17.9536 7.27721 17.8972 7.33352C17.8408 7.38984 17.8089 7.4664 17.8086 7.54637C17.8083 7.62634 17.8395 7.70317 17.8955 7.75996C17.9514 7.81674 18.0275 7.84883 18.1069 7.84916L18.4081 7.85173C19.4877 7.85207 20.5266 8.26598 21.3139 9.00939C21.3417 9.03594 21.3692 9.06292 21.3964 9.09031L25.2733 12.9935L22.6152 15.6687L21.7199 14.7677C21.6637 14.7111 21.5875 14.6793 21.5081 14.6793C21.4286 14.6793 21.3524 14.7111 21.2962 14.7677C21.24 14.8242 21.2085 14.9009 21.2085 14.9809C21.2085 15.0609 21.24 15.1376 21.2962 15.1941L22.4033 16.3084C22.4312 16.3364 22.4642 16.3586 22.5005 16.3738C22.5369 16.3889 22.5758 16.3967 22.6152 16.3967C22.6545 16.3967 22.6935 16.3889 22.7298 16.3738C22.7662 16.3586 22.7992 16.3364 22.827 16.3084L25.9087 13.2067C25.9366 13.1787 25.9586 13.1455 25.9737 13.1089C25.9888 13.0723 25.9965 13.0331 25.9965 12.9935C25.9965 12.9539 25.9888 12.9147 25.9737 12.8781C25.9587 12.8415 25.9366 12.8083 25.9088 12.7803Z" fill="url(#paint4_linear_12408_38)" fill-opacity="0.8" stroke="url(#paint5_linear_12408_38)" stroke-width="0.691289"/>
<path d="M9.29751 14.7471L8.3813 15.6692L5.72324 12.9939L9.60008 9.09082C9.62726 9.06343 9.65475 9.03648 9.68254 9.00995C10.4699 8.26649 11.5088 7.85255 12.5884 7.85222L12.9453 7.84916C13.0248 7.84883 13.1009 7.81674 13.1568 7.75996C13.2128 7.70317 13.244 7.62634 13.2437 7.54637C13.2434 7.4664 13.2115 7.38984 13.1551 7.33352C13.0986 7.27721 13.0223 7.24576 12.9428 7.2461H12.9402L12.5833 7.24915C11.3519 7.25061 10.1672 7.7238 9.26995 8.57261C9.23841 8.60275 9.20721 8.63335 9.17636 8.6644L5.08773 12.7808C5.03155 12.8373 4.99999 12.914 5 12.994C5.00001 13.074 5.03157 13.1506 5.08775 13.2072L8.16946 16.3089C8.19728 16.3369 8.23031 16.3591 8.26666 16.3742C8.30301 16.3894 8.34197 16.3972 8.38131 16.3972C8.42066 16.3972 8.45961 16.3894 8.49596 16.3742C8.53231 16.3591 8.56534 16.3369 8.59316 16.3089L9.72121 15.1735C9.7774 15.1169 9.80896 15.0403 9.80896 14.9603C9.80896 14.8803 9.7774 14.8036 9.72121 14.7471C9.66502 14.6905 9.58882 14.6587 9.50936 14.6587C9.4299 14.6587 9.35369 14.6905 9.29751 14.7471Z" fill="url(#paint6_linear_12408_38)" fill-opacity="0.8" stroke="url(#paint7_linear_12408_38)" stroke-width="0.691289"/>
</g>
<defs>
<filter id="filter0_d_12408_38" x="2.52921" y="6.90039" width="25.9416" height="21.0998" filterUnits="userSpaceOnUse" color-interpolation-filters="sRGB">
<feFlood flood-opacity="0" result="BackgroundImageFix"/>
<feColorMatrix in="SourceAlpha" type="matrix" values="0 0 0 0 0 0 0 0 0 0 0 0 0 0 0 0 0 0 127 0" result="hardAlpha"/>
<feOffset dy="2.12704"/>
<feGaussianBlur stdDeviation="1.06352"/>
<feComposite in2="hardAlpha" operator="out"/>
<feColorMatrix type="matrix" values="0 0 0 0 0 0 0 0 0 0 0 0 0 0 0 0 0 0 0.25 0"/>
<feBlend mode="normal" in2="BackgroundImageFix" result="effect1_dropShadow_12408_38"/>
<feBlend mode="normal" in="SourceGraphic" in2="effect1_dropShadow_12408_38" result="shape"/>
</filter>
<linearGradient id="paint0_linear_12408_38" x1="15.504" y1="8.29492" x2="15.504" y2="11.0181" gradientUnits="userSpaceOnUse">
<stop stop-color="white"/>
<stop offset="1" stop-color="#B8B8B8"/>
</linearGradient>
<linearGradient id="paint1_linear_12408_38" x1="15.504" y1="8.29492" x2="15.504" y2="11.0181" gradientUnits="userSpaceOnUse">
<stop stop-color="white"/>
<stop offset="1" stop-color="#B8B8B8"/>
</linearGradient>
<linearGradient id="paint2_linear_12408_38" x1="15.5014" y1="11.8906" x2="15.5014" y2="23.4" gradientUnits="userSpaceOnUse">
<stop stop-color="white"/>
<stop offset="1" stop-color="#C7C7C7"/>
</linearGradient>
<linearGradient id="paint3_linear_12408_38" x1="15.5014" y1="11.8906" x2="15.5014" y2="23.4" gradientUnits="userSpaceOnUse">
<stop stop-color="white"/>
<stop offset="1" stop-color="#B8B8B8"/>
<stop offset="1" stop-color="#B8B8B8"/>
</linearGradient>
<linearGradient id="paint4_linear_12408_38" x1="21.9026" y1="7.24609" x2="21.9026" y2="16.3967" gradientUnits="userSpaceOnUse">
<stop stop-color="white"/>
<stop offset="1" stop-color="#B8B8B8"/>
</linearGradient>
<linearGradient id="paint5_linear_12408_38" x1="21.9026" y1="7.24609" x2="21.9026" y2="16.3967" gradientUnits="userSpaceOnUse">
<stop stop-color="white"/>
<stop offset="1" stop-color="#B8B8B8"/>
</linearGradient>
<linearGradient id="paint6_linear_12408_38" x1="9.12185" y1="7.24609" x2="9.12185" y2="16.3972" gradientUnits="userSpaceOnUse">
<stop stop-color="white"/>
<stop offset="1" stop-color="#B8B8B8"/>
</linearGradient>
<linearGradient id="paint7_linear_12408_38" x1="9.12185" y1="7.24609" x2="9.12185" y2="16.3972" gradientUnits="userSpaceOnUse">
<stop stop-color="white"/>
<stop offset="1" stop-color="#B8B8B8"/>
</linearGradient>
</defs>
</svg>
