<svg width="30" height="30" viewBox="0 0 30 30" fill="none" xmlns="http://www.w3.org/2000/svg">
<path d="M23.5777 12.7917H21.4729L20.8879 11.3833C20.2867 9.93539 18.852 9 17.2323 9H12.7675C11.1482 9 9.71308 9.93539 9.11156 11.3833L8.52656 12.7917H6.4221C6.14753 12.7917 5.94608 13.0402 6.01288 13.2964L6.22382 14.1089C6.27058 14.2897 6.43933 14.4167 6.63304 14.4167H7.33862C6.86647 14.8138 6.56237 15.391 6.56237 16.0417V17.6667C6.56237 18.2124 6.77894 18.705 7.12487 19.0862V20.9167C7.12487 21.5149 7.62866 22 8.24988 22H9.37488C9.99609 22 10.4999 21.5149 10.4999 20.9167V19.8333H19.4999V20.9167C19.4999 21.5149 20.0037 22 20.6249 22H21.7499C22.3711 22 22.8749 21.5149 22.8749 20.9167V19.0862C23.2208 18.7053 23.4374 18.2127 23.4374 17.6667V16.0417C23.4374 15.391 23.1333 14.8138 22.6615 14.4167H23.3671C23.5608 14.4167 23.7295 14.2897 23.7763 14.1089L23.9872 13.2964C24.0537 13.0402 23.8522 12.7917 23.5777 12.7917ZM11.2005 12.188C11.4568 11.5712 12.0773 11.1667 12.7675 11.1667H17.2323C17.9224 11.1667 18.5429 11.5712 18.7992 12.188L19.4999 13.875H10.4999L11.2005 12.188ZM9.37488 17.6599C8.69988 17.6599 8.24988 17.2279 8.24988 16.5799C8.24988 15.932 8.69988 15.5 9.37488 15.5C10.0499 15.5 11.0624 16.472 11.0624 17.1199C11.0624 17.7679 10.0499 17.6599 9.37488 17.6599ZM20.6249 17.6599C19.9499 17.6599 18.9374 17.7679 18.9374 17.1199C18.9374 16.472 19.9499 15.5 20.6249 15.5C21.2999 15.5 21.7499 15.932 21.7499 16.5799C21.7499 17.2279 21.2999 17.6599 20.6249 17.6599Z" fill="url(#paint0_linear_12408_44)"/>
<defs>
<linearGradient id="paint0_linear_12408_44" x1="15" y1="9" x2="15" y2="22" gradientUnits="userSpaceOnUse">
<stop stop-color="white"/>
<stop offset="1" stop-color="#C0C0C0"/>
</linearGradient>
</defs>
</svg>
