<svg width="30" height="30" viewBox="0 0 30 30" fill="none" xmlns="http://www.w3.org/2000/svg">
<path d="M23.6058 16.1184C23.6082 16.116 23.6106 16.1136 23.613 16.1115C23.8626 15.8613 24 15.5292 24 15.1761V14.7C24 14.5341 23.8659 14.4 23.7 14.4H22.8579L17.3271 12.1875C17.1744 12.126 16.9986 12.2004 16.9371 12.3549C16.8756 12.5085 16.9506 12.6831 17.1045 12.7446L21.2421 14.4H8.87371L14.0304 12.4902C14.2956 12.9147 14.7636 13.2 15.3 13.2C16.1271 13.2 16.8 12.5271 16.8 11.7C16.8 10.9755 16.2837 10.3695 15.6 10.2303V9.86972C16.2837 9.73022 16.8 9.12423 16.8 8.40001V6.29999C16.8 6.13409 16.6659 6 16.5 6C16.3341 6 16.2001 6.13409 16.2001 6.29999V7.20779C15.9487 7.01728 15.6391 6.9 15.3001 6.9C14.961 6.9 14.6515 7.01732 14.4001 7.20779V6.29999C14.4001 6.13409 14.266 6 14.1001 6C13.9342 6 13.8001 6.13409 13.8001 6.29999V8.39998C13.8001 9.12416 14.3164 9.73018 15.0001 9.86968V10.5C15.0001 10.6659 15.1342 10.8 15.3001 10.8C15.7963 10.8 16.2001 11.2038 16.2001 11.7C16.2001 12.1962 15.7963 12.6 15.3001 12.6C15.0232 12.6 14.7781 12.4716 14.6131 12.2742L15.2959 12.0216L15.4897 12.099C15.526 12.1137 15.5638 12.1203 15.601 12.1203C15.7198 12.1203 15.8323 12.0492 15.8797 11.9316C15.9412 11.778 15.8665 11.6034 15.7123 11.5419L15.4114 11.4213C15.3979 11.4159 15.3838 11.4172 15.3699 11.4139C15.348 11.4084 15.3271 11.4019 15.3042 11.4015C15.2811 11.4013 15.2598 11.4072 15.2377 11.4121C15.2238 11.415 15.2097 11.4136 15.1956 11.4187L14.4013 11.713C14.4013 11.7085 14.4001 11.7046 14.4001 11.7001C14.4001 11.5342 14.266 11.4001 14.1001 11.4001C13.9342 11.4001 13.8001 11.5342 13.8001 11.7001C13.8001 11.7778 13.8115 11.8525 13.8232 11.9272L7.14638 14.4001H6.29999C6.13409 14.4001 6 14.5341 6 14.7V15.1767C6 15.5253 6.14161 15.8664 6.38791 16.1127C6.52471 16.2489 6.60001 16.4307 6.60001 16.6239V21.7764C6.60001 21.9636 6.52502 22.1472 6.39393 22.2814C6.39182 22.2837 6.38943 22.2862 6.38704 22.2882C6.13739 22.5384 6 22.8705 6 23.2236V23.7C6 23.8659 6.13409 24 6.29999 24H23.7C23.8659 24 24 23.8659 24 23.7V23.2242C24 22.8768 23.8593 22.5363 23.6112 22.2879C23.4771 22.1529 23.4 21.9669 23.4 21.777V16.6236C23.4 16.4334 23.4729 16.2543 23.6058 16.1184ZM8.99999 22.2C8.99999 22.3659 8.8659 22.5 8.7 22.5C8.5341 22.5 8.40001 22.3659 8.40001 22.2V16.2C8.40001 16.0341 8.5341 15.9 8.7 15.9C8.8659 15.9 8.99999 16.0341 8.99999 16.2V22.2ZM10.8 22.2C10.8 22.3659 10.6659 22.5 10.5 22.5C10.3341 22.5 10.2 22.3659 10.2 22.2V16.2C10.2 16.0341 10.3341 15.9 10.5 15.9C10.6659 15.9 10.8 16.0341 10.8 16.2V22.2ZM12.6 22.2C12.6 22.3659 12.4659 22.5 12.3 22.5C12.1341 22.5 12 22.3659 12 22.2V16.2C12 16.0341 12.1341 15.9 12.3 15.9C12.4659 15.9 12.6 16.0341 12.6 16.2V22.2ZM14.4 22.2C14.4 22.3659 14.2659 22.5 14.1 22.5C13.9341 22.5 13.8 22.3659 13.8 22.2V16.2C13.8 16.0341 13.9341 15.9 14.1 15.9C14.2659 15.9 14.4 16.0341 14.4 16.2V22.2ZM16.2 22.2C16.2 22.3659 16.0659 22.5 15.9 22.5C15.7341 22.5 15.6 22.3659 15.6 22.2V16.2C15.6 16.0341 15.7341 15.9 15.9 15.9C16.0659 15.9 16.2 16.0341 16.2 16.2V22.2ZM18 22.2C18 22.3659 17.8659 22.5 17.7 22.5C17.5341 22.5 17.4 22.3659 17.4 22.2V16.2C17.4 16.0341 17.5341 15.9 17.7 15.9C17.8659 15.9 18 16.0341 18 16.2V22.2ZM19.8 22.2C19.8 22.3659 19.6659 22.5 19.5 22.5C19.3341 22.5 19.2 22.3659 19.2 22.2V16.2C19.2 16.0341 19.3341 15.9 19.5 15.9C19.6659 15.9 19.8 16.0341 19.8 16.2V22.2ZM21.6 22.2C21.6 22.3659 21.4659 22.5 21.3 22.5C21.1341 22.5 21 22.3659 21 22.2V16.2C21 16.0341 21.1341 15.9 21.3 15.9C21.4659 15.9 21.6 16.0341 21.6 16.2V22.2Z" fill="url(#paint0_linear_12408_43)"/>
<defs>
<linearGradient id="paint0_linear_12408_43" x1="15" y1="6" x2="15" y2="24" gradientUnits="userSpaceOnUse">
<stop stop-color="#F8F7F7"/>
<stop offset="1" stop-color="#CECECE"/>
</linearGradient>
</defs>
</svg>
