<svg width="30" height="30" viewBox="0 0 30 30" fill="none" xmlns="http://www.w3.org/2000/svg">
<mask id="path-1-inside-1_12408_42" fill="white">
<path d="M16.9665 8C17.836 8.00255 18.6092 8.41272 19.1053 9.04941L19.1098 9.05548L21.5849 12.3481L27.1303 14.5685V20.8667H21.7357V20.3082C21.7357 19.4385 21.0306 18.7334 20.1608 18.7334C19.2911 18.7334 18.586 19.4385 18.586 20.3083V20.8667H9.98588V20.3082C9.98588 19.4385 9.28081 18.7334 8.41103 18.7334C7.54125 18.7334 6.83618 19.4385 6.83618 20.3083V20.8667H2.51376V13.5566L5.9326 12.3648L8.38868 9.08341C8.88616 8.42702 9.66433 8.0058 10.5411 8.00001H10.5421L16.9665 8ZM18.2219 9.73455C17.9282 9.35863 17.4756 9.11873 16.9668 9.11688H10.5443C10.0298 9.12052 9.57376 9.36755 9.2851 9.74844L9.28221 9.75239L6.62287 13.3075L3.63069 14.3496V19.7498H5.77739C6.04355 18.5212 7.12138 17.6142 8.41103 17.6142C9.70068 17.6142 10.7785 18.5212 11.0414 19.732L11.0447 19.7498H17.5227C17.7889 18.5212 18.8667 17.6142 20.1564 17.6142C21.446 17.6142 22.5238 18.5212 22.7868 19.732L22.79 19.7498H26.0134V15.3258L20.8756 13.2718L18.2219 9.73455ZM20.1608 17.6165C21.6475 17.6165 22.8526 18.8216 22.8526 20.3082C22.8526 21.7948 21.6475 23 20.1609 23C18.6743 23 17.4691 21.7949 17.4691 20.3082C17.471 18.8224 18.675 17.6184 20.1607 17.6165H20.1609L20.1608 17.6165ZM20.1608 21.8831C21.0306 21.8831 21.7357 21.178 21.7357 20.3082C21.7357 19.4384 21.0306 18.7334 20.1608 18.7334C19.2911 18.7334 18.586 19.4385 18.586 20.3082C18.5873 21.1775 19.2916 21.8818 20.1607 21.8831H20.1608ZM8.41103 17.6165C9.89764 17.6165 11.1028 18.8216 11.1028 20.3082C11.1028 21.7949 9.89764 23 8.41103 23C6.92442 23 5.71929 21.7949 5.71929 20.3083C5.7212 18.8224 6.9252 17.6184 8.41084 17.6165H8.41103V17.6165ZM8.41103 21.8831C9.28078 21.8831 9.98588 21.178 9.98588 20.3082C9.98588 19.4385 9.28079 18.7334 8.41103 18.7334C7.54128 18.7334 6.83618 19.4385 6.83618 20.3083C6.83747 21.1775 7.54179 21.8818 8.41088 21.8831H8.41103ZM23.8913 14.4669H9.48323V13.3499H23.8913V14.4669ZM26.5718 17.6612H24.4386V16.5443H26.5718V17.6612ZM15.3805 13.9084H14.2636V10.7029H15.3805V13.9084ZM5.77849 13.0864L3.78703 9.1169H2V8H4.47841L6.777 12.586L5.77849 13.0864Z"/>
</mask>
<path d="M16.9665 8C17.836 8.00255 18.6092 8.41272 19.1053 9.04941L19.1098 9.05548L21.5849 12.3481L27.1303 14.5685V20.8667H21.7357V20.3082C21.7357 19.4385 21.0306 18.7334 20.1608 18.7334C19.2911 18.7334 18.586 19.4385 18.586 20.3083V20.8667H9.98588V20.3082C9.98588 19.4385 9.28081 18.7334 8.41103 18.7334C7.54125 18.7334 6.83618 19.4385 6.83618 20.3083V20.8667H2.51376V13.5566L5.9326 12.3648L8.38868 9.08341C8.88616 8.42702 9.66433 8.0058 10.5411 8.00001H10.5421L16.9665 8ZM18.2219 9.73455C17.9282 9.35863 17.4756 9.11873 16.9668 9.11688H10.5443C10.0298 9.12052 9.57376 9.36755 9.2851 9.74844L9.28221 9.75239L6.62287 13.3075L3.63069 14.3496V19.7498H5.77739C6.04355 18.5212 7.12138 17.6142 8.41103 17.6142C9.70068 17.6142 10.7785 18.5212 11.0414 19.732L11.0447 19.7498H17.5227C17.7889 18.5212 18.8667 17.6142 20.1564 17.6142C21.446 17.6142 22.5238 18.5212 22.7868 19.732L22.79 19.7498H26.0134V15.3258L20.8756 13.2718L18.2219 9.73455ZM20.1608 17.6165C21.6475 17.6165 22.8526 18.8216 22.8526 20.3082C22.8526 21.7948 21.6475 23 20.1609 23C18.6743 23 17.4691 21.7949 17.4691 20.3082C17.471 18.8224 18.675 17.6184 20.1607 17.6165H20.1609L20.1608 17.6165ZM20.1608 21.8831C21.0306 21.8831 21.7357 21.178 21.7357 20.3082C21.7357 19.4384 21.0306 18.7334 20.1608 18.7334C19.2911 18.7334 18.586 19.4385 18.586 20.3082C18.5873 21.1775 19.2916 21.8818 20.1607 21.8831H20.1608ZM8.41103 17.6165C9.89764 17.6165 11.1028 18.8216 11.1028 20.3082C11.1028 21.7949 9.89764 23 8.41103 23C6.92442 23 5.71929 21.7949 5.71929 20.3083C5.7212 18.8224 6.9252 17.6184 8.41084 17.6165H8.41103V17.6165ZM8.41103 21.8831C9.28078 21.8831 9.98588 21.178 9.98588 20.3082C9.98588 19.4385 9.28079 18.7334 8.41103 18.7334C7.54128 18.7334 6.83618 19.4385 6.83618 20.3083C6.83747 21.1775 7.54179 21.8818 8.41088 21.8831H8.41103ZM23.8913 14.4669H9.48323V13.3499H23.8913V14.4669ZM26.5718 17.6612H24.4386V16.5443H26.5718V17.6612ZM15.3805 13.9084H14.2636V10.7029H15.3805V13.9084ZM5.77849 13.0864L3.78703 9.1169H2V8H4.47841L6.777 12.586L5.77849 13.0864Z" fill="url(#paint0_linear_12408_42)"/>
<path d="M16.9665 8L16.9709 6.5L16.9665 6.5L16.9665 8ZM19.1053 9.04941L20.3032 8.14662L20.2959 8.13698L20.2885 8.12747L19.1053 9.04941ZM19.1098 9.05548L20.3089 8.15418L20.3077 8.15268L19.1098 9.05548ZM21.5849 12.3481L20.3859 13.2494L20.6379 13.5847L21.0273 13.7406L21.5849 12.3481ZM27.1303 14.5685H28.6303V13.5534L27.6879 13.176L27.1303 14.5685ZM27.1303 20.8667V22.3667H28.6303V20.8667H27.1303ZM21.7357 20.8667H20.2357V22.3667H21.7357V20.8667ZM18.586 20.8667V22.3667H20.086V20.8667H18.586ZM9.98588 20.8667H8.48588V22.3667H9.98588V20.8667ZM6.83618 20.8667V22.3667H8.33618V20.8667H6.83618ZM2.51376 20.8667H1.01376V22.3667H2.51376V20.8667ZM2.51376 13.5566L2.02003 12.1402L1.01376 12.4909V13.5566H2.51376ZM5.9326 12.3648L6.42634 13.7813L6.85895 13.6305L7.13348 13.2637L5.9326 12.3648ZM8.38868 9.08341L7.19321 8.17735L7.1878 8.18459L8.38868 9.08341ZM10.5411 8.00001L10.5411 6.49998L10.5312 6.50005L10.5411 8.00001ZM10.5421 8.00001L10.5421 9.50001L10.5421 9.50001L10.5421 8.00001ZM18.2219 9.73455L19.4217 8.83436L19.413 8.8227L19.404 8.8112L18.2219 9.73455ZM16.9668 9.11688L16.9722 7.61688H16.9668V9.11688ZM10.5443 9.11688L10.5443 7.61685L10.5337 7.61692L10.5443 9.11688ZM9.2851 9.74844L8.08963 8.84243L8.08139 8.85331L8.07334 8.86433L9.2851 9.74844ZM9.28221 9.75239L10.4833 10.6509L10.4887 10.6437L10.494 10.6365L9.28221 9.75239ZM6.62287 13.3075L7.11621 14.7241L7.5493 14.5732L7.824 14.206L6.62287 13.3075ZM3.63069 14.3496L3.13735 12.933L2.13069 13.2836V14.3496H3.63069ZM3.63069 19.7498H2.13069V21.2498H3.63069V19.7498ZM5.77739 19.7498V21.2498H6.98723L7.24338 20.0674L5.77739 19.7498ZM11.0414 19.732L12.5173 19.4641L12.5127 19.4388L12.5073 19.4137L11.0414 19.732ZM11.0447 19.7498L9.56879 20.0177L9.79246 21.2498H11.0447V19.7498ZM17.5227 19.7498V21.2498H18.7325L18.9887 20.0674L17.5227 19.7498ZM22.7868 19.732L24.2622 19.4619L24.2578 19.4377L24.2526 19.4137L22.7868 19.732ZM22.79 19.7498L21.3146 20.02L21.5397 21.2498H22.79V19.7498ZM26.0134 19.7498V21.2498H27.5134V19.7498H26.0134ZM26.0134 15.3258H27.5134V14.31L26.5702 13.9329L26.0134 15.3258ZM20.8756 13.2718L19.6758 14.172L19.9282 14.5084L20.3188 14.6646L20.8756 13.2718ZM20.1608 17.6165V16.1165H16.5395L19.1002 18.6772L20.1608 17.6165ZM17.4691 20.3082L15.9691 20.3063V20.3082H17.4691ZM20.1607 17.6165L20.1607 16.1165L20.1588 16.1165L20.1607 17.6165ZM20.1609 17.6165V19.1165H23.7822L21.2215 16.5559L20.1609 17.6165ZM18.586 20.3082L17.086 20.3082L17.086 20.3104L18.586 20.3082ZM20.1607 21.8831L20.1585 23.3831H20.1607V21.8831ZM8.41103 17.6165V16.1165H6.91103V17.6165H8.41103ZM5.71929 20.3083L4.21929 20.3063V20.3083H5.71929ZM8.41084 17.6165L8.41084 16.1165L8.40892 16.1165L8.41084 17.6165ZM8.41103 17.6165V19.1165H9.91103V17.6165H8.41103ZM8.41088 21.8831L8.40866 23.3831H8.41088V21.8831ZM23.8913 14.4669V15.9669H25.3913V14.4669H23.8913ZM9.48323 14.4669H7.98323V15.9669H9.48323V14.4669ZM9.48323 13.3499V11.8499H7.98323V13.3499H9.48323ZM23.8913 13.3499H25.3913V11.8499H23.8913V13.3499ZM26.5718 17.6612V19.1612H28.0718V17.6612H26.5718ZM24.4386 17.6612H22.9386V19.1612H24.4386V17.6612ZM24.4386 16.5443V15.0443H22.9386V16.5443H24.4386ZM26.5718 16.5443H28.0718V15.0443H26.5718V16.5443ZM15.3805 13.9084V15.4084H16.8805V13.9084H15.3805ZM14.2636 13.9084H12.7636V15.4084H14.2636V13.9084ZM14.2636 10.7029V9.2029H12.7636V10.7029H14.2636ZM15.3805 10.7029H16.8805V9.2029H15.3805V10.7029ZM5.77849 13.0864L4.43776 13.759L5.11009 15.0991L6.45053 14.4274L5.77849 13.0864ZM3.78703 9.1169L5.12777 8.44426L4.71268 7.6169H3.78703V9.1169ZM2 9.1169H0.5V10.6169H2V9.1169ZM2 8V6.5H0.5V8H2ZM4.47841 8L5.8194 7.32787L5.40445 6.5H4.47841V8ZM6.777 12.586L7.44904 13.927L8.79016 13.2549L8.11798 11.9139L6.777 12.586ZM16.9621 9.49999C17.3515 9.50113 17.6972 9.68276 17.922 9.97136L20.2885 8.12747C19.5212 7.14268 18.3205 6.50396 16.9709 6.50001L16.9621 9.49999ZM17.9074 9.95221L17.9119 9.95827L20.3077 8.15268L20.3032 8.14662L17.9074 9.95221ZM17.9108 9.95678L20.3859 13.2494L22.7839 11.4468L20.3089 8.15418L17.9108 9.95678ZM21.0273 13.7406L26.5727 15.961L27.6879 13.176L22.1425 10.9556L21.0273 13.7406ZM25.6303 14.5685V20.8667H28.6303V14.5685H25.6303ZM27.1303 19.3667H21.7357V22.3667H27.1303V19.3667ZM23.2357 20.8667V20.3082H20.2357V20.8667H23.2357ZM23.2357 20.3082C23.2357 18.6101 21.859 17.2334 20.1608 17.2334V20.2334C20.2022 20.2334 20.2357 20.2669 20.2357 20.3082H23.2357ZM20.1608 17.2334C18.4626 17.2334 17.086 18.61 17.086 20.3083H20.086C20.086 20.2669 20.1195 20.2334 20.1608 20.2334V17.2334ZM17.086 20.3083V20.8667H20.086V20.3083H17.086ZM18.586 19.3667H9.98588V22.3667H18.586V19.3667ZM11.4859 20.8667V20.3082H8.48588V20.8667H11.4859ZM11.4859 20.3082C11.4859 18.6101 10.1092 17.2334 8.41103 17.2334V20.2334C8.45239 20.2334 8.48588 20.2669 8.48588 20.3082H11.4859ZM8.41103 17.2334C6.71282 17.2334 5.33618 18.6101 5.33618 20.3083H8.33618C8.33618 20.2669 8.36968 20.2334 8.41103 20.2334V17.2334ZM5.33618 20.3083V20.8667H8.33618V20.3083H5.33618ZM6.83618 19.3667H2.51376V22.3667H6.83618V19.3667ZM4.01376 20.8667V13.5566H1.01376V20.8667H4.01376ZM3.0075 14.973L6.42634 13.7813L5.43887 10.9484L2.02003 12.1402L3.0075 14.973ZM7.13348 13.2637L9.58955 9.98224L7.1878 8.18459L4.73172 11.466L7.13348 13.2637ZM9.58412 9.98945C9.8136 9.68668 10.1621 9.50255 10.551 9.49998L10.5312 6.50005C9.16661 6.50905 7.95873 7.16735 7.19323 8.17737L9.58412 9.98945ZM10.5411 9.50001H10.5421V6.50001H10.5411V9.50001ZM10.5421 9.50001L16.9665 9.5L16.9665 6.5L10.5421 6.50001L10.5421 9.50001ZM19.404 8.8112C18.8407 8.09004 17.9623 7.62049 16.9722 7.61689L16.9614 10.6169C16.979 10.6169 16.9913 10.6206 17.0019 10.6259C17.0139 10.632 17.0276 10.6423 17.0397 10.6579L19.404 8.8112ZM16.9668 7.61688H10.5443V10.6169H16.9668V7.61688ZM10.5337 7.61692C9.53424 7.62398 8.64779 8.10593 8.08963 8.84243L10.4806 10.6544C10.4899 10.6421 10.5017 10.6324 10.5139 10.6262C10.5245 10.6208 10.537 10.617 10.5549 10.6168L10.5337 7.61692ZM8.07334 8.86433L8.07046 8.86829L10.494 10.6365L10.4969 10.6325L8.07334 8.86433ZM8.08108 8.8539L5.42173 12.409L7.824 14.206L10.4833 10.6509L8.08108 8.8539ZM6.12952 11.891L3.13735 12.933L4.12404 15.7661L7.11621 14.7241L6.12952 11.891ZM2.13069 14.3496V19.7498H5.13069V14.3496H2.13069ZM3.63069 21.2498H5.77739V18.2498H3.63069V21.2498ZM7.24338 20.0674C7.36441 19.5087 7.84775 19.1142 8.41103 19.1142V16.1142C6.39501 16.1142 4.72269 17.5336 4.31139 19.4322L7.24338 20.0674ZM8.41103 19.1142C8.98018 19.1142 9.45929 19.5147 9.57561 20.0503L12.5073 19.4137C12.0977 17.5277 10.4212 16.1142 8.41103 16.1142V19.1142ZM9.56557 20L9.56879 20.0177L12.5205 19.4819L12.5173 19.4641L9.56557 20ZM11.0447 21.2498H17.5227V18.2498H11.0447V21.2498ZM18.9887 20.0674C19.1098 19.5087 19.5931 19.1142 20.1564 19.1142V16.1142C18.1403 16.1142 16.4681 17.5336 16.0567 19.4322L18.9887 20.0674ZM20.1564 19.1142C20.7255 19.1142 21.2046 19.5147 21.3209 20.0503L24.2526 19.4137C23.8431 17.5277 22.1665 16.1142 20.1564 16.1142V19.1142ZM21.3113 20.0022L21.3146 20.02L24.2655 19.4796L24.2622 19.4619L21.3113 20.0022ZM22.79 21.2498H26.0134V18.2498H22.79V21.2498ZM27.5134 19.7498V15.3258H24.5134V19.7498H27.5134ZM26.5702 13.9329L21.4325 11.8789L20.3188 14.6646L25.4566 16.7186L26.5702 13.9329ZM22.0755 12.3716L19.4217 8.83436L17.022 10.6347L19.6758 14.172L22.0755 12.3716ZM20.1608 19.1165C20.819 19.1165 21.3526 19.6501 21.3526 20.3082H24.3526C24.3526 17.9932 22.4759 16.1165 20.1608 16.1165V19.1165ZM21.3526 20.3082C21.3526 20.9664 20.819 21.5 20.1609 21.5V24.5C22.4759 24.5 24.3526 22.6233 24.3526 20.3082H21.3526ZM20.1609 21.5C19.5027 21.5 18.9691 20.9664 18.9691 20.3082H15.9691C15.9691 22.6233 17.8458 24.5 20.1609 24.5V21.5ZM18.9691 20.3102C18.97 19.6512 19.5039 19.1174 20.1626 19.1165L20.1588 16.1165C17.8461 16.1195 15.9721 17.9936 15.9691 20.3063L18.9691 20.3102ZM20.1607 19.1165H20.1609V16.1165H20.1607V19.1165ZM21.2215 16.5559L21.2215 16.5558L19.1002 18.6772L19.1002 18.6772L21.2215 16.5559ZM20.1608 23.3831C21.859 23.3831 23.2357 22.0064 23.2357 20.3082H20.2357C20.2357 20.3496 20.2022 20.3831 20.1608 20.3831V23.3831ZM23.2357 20.3082C23.2357 18.61 21.859 17.2334 20.1608 17.2334V20.2334C20.2022 20.2334 20.2357 20.2669 20.2357 20.3082H23.2357ZM20.1608 17.2334C18.4627 17.2334 17.086 18.6101 17.086 20.3082H20.086C20.086 20.2669 20.1195 20.2334 20.1608 20.2334V17.2334ZM17.086 20.3104C17.0885 22.0063 18.4626 23.3806 20.1585 23.3831L20.1629 20.3831C20.1206 20.383 20.0861 20.3486 20.086 20.3061L17.086 20.3104ZM20.1607 23.3831H20.1608V20.3831H20.1607V23.3831ZM8.41103 19.1165C9.06921 19.1165 9.60276 19.6501 9.60276 20.3082H12.6028C12.6028 17.9932 10.7261 16.1165 8.41103 16.1165V19.1165ZM9.60276 20.3082C9.60276 20.9664 9.0692 21.5 8.41103 21.5V24.5C10.7261 24.5 12.6028 22.6233 12.6028 20.3082H9.60276ZM8.41103 21.5C7.75285 21.5 7.21929 20.9664 7.21929 20.3083H4.21929C4.21929 22.6233 6.09599 24.5 8.41103 24.5V21.5ZM7.21929 20.3102C7.22014 19.6512 7.75411 19.1174 8.41276 19.1165L8.40892 16.1165C6.09628 16.1195 4.22226 17.9937 4.21929 20.3063L7.21929 20.3102ZM8.41084 19.1165H8.41103V16.1165H8.41084V19.1165ZM9.91103 17.6165V17.6165H6.91103V17.6165H9.91103ZM8.41103 23.3831C10.1092 23.3831 11.4859 22.0065 11.4859 20.3082H8.48588C8.48588 20.3496 8.45237 20.3831 8.41103 20.3831V23.3831ZM11.4859 20.3082C11.4859 18.61 10.1092 17.2334 8.41103 17.2334V20.2334C8.45241 20.2334 8.48588 20.2669 8.48588 20.3082H11.4859ZM8.41103 17.2334C6.71287 17.2334 5.33618 18.61 5.33618 20.3083H8.33618C8.33618 20.2669 8.36969 20.2334 8.41103 20.2334V17.2334ZM5.33618 20.3105C5.33869 22.0064 6.71282 23.3806 8.40866 23.3831L8.41311 20.3831C8.37076 20.383 8.33624 20.3486 8.33617 20.306L5.33618 20.3105ZM8.41088 23.3831H8.41103V20.3831H8.41088V23.3831ZM23.8913 12.9669H9.48323V15.9669H23.8913V12.9669ZM10.9832 14.4669V13.3499H7.98323V14.4669H10.9832ZM9.48323 14.8499H23.8913V11.8499H9.48323V14.8499ZM22.3913 13.3499V14.4669H25.3913V13.3499H22.3913ZM26.5718 16.1612H24.4386V19.1612H26.5718V16.1612ZM25.9386 17.6612V16.5443H22.9386V17.6612H25.9386ZM24.4386 18.0443H26.5718V15.0443H24.4386V18.0443ZM25.0718 16.5443V17.6612H28.0718V16.5443H25.0718ZM15.3805 12.4084H14.2636V15.4084H15.3805V12.4084ZM15.7636 13.9084V10.7029H12.7636V13.9084H15.7636ZM14.2636 12.2029H15.3805V9.2029H14.2636V12.2029ZM13.8805 10.7029V13.9084H16.8805V10.7029H13.8805ZM7.11922 12.4137L5.12777 8.44426L2.4463 9.78953L4.43776 13.759L7.11922 12.4137ZM3.78703 7.6169H2V10.6169H3.78703V7.6169ZM3.5 9.1169V8H0.5V9.1169H3.5ZM2 9.5H4.47841V6.5H2V9.5ZM3.13742 8.67213L5.43601 13.2581L8.11798 11.9139L5.8194 7.32787L3.13742 8.67213ZM6.10496 11.245L5.10645 11.7453L6.45053 14.4274L7.44904 13.927L6.10496 11.245Z" fill="#E0E0E0" mask="url(#path-1-inside-1_12408_42)"/>
<defs>
<linearGradient id="paint0_linear_12408_42" x1="14.5652" y1="8" x2="14.5652" y2="23" gradientUnits="userSpaceOnUse">
<stop stop-color="#F8F7F7"/>
<stop offset="1" stop-color="#C9C7C7"/>
</linearGradient>
</defs>
</svg>
