<svg width="30" height="30" viewBox="0 0 30 30" fill="none" xmlns="http://www.w3.org/2000/svg">
<path d="M27.5796 18.6933L2.06254 15.818C1.86646 15.7959 1.7343 16.0085 1.83587 16.1778C3.4668 18.8983 7.32772 20.8161 11.8221 20.8161H27.0444C27.1479 20.8161 27.2387 20.7488 27.2692 20.6501L27.7781 18.9961C27.8213 18.8555 27.7259 18.7097 27.5796 18.6933Z" fill="url(#paint0_linear_12465_17)"/>
<path d="M29.1421 13.9785C29.0674 13.8619 28.9456 13.7843 28.8087 13.766L21.7546 12.8254C21.5002 12.792 21.2608 12.9721 21.2261 13.2294C21.1913 13.4866 21.3728 13.7237 21.63 13.7579L22.4286 13.8642C22.5452 13.8798 22.6326 13.9795 22.6326 14.097V14.8241C22.6326 14.9637 22.5113 15.0729 22.3726 15.0578L20.4915 14.8561C20.3721 14.8438 20.2813 14.7427 20.2813 14.6228V12.5644C20.2813 12.5178 20.2949 12.4727 20.3208 12.4341L21.1428 11.2011C21.2369 11.06 21.2477 10.8794 21.1716 10.7285C21.0949 10.577 20.943 10.4783 20.7737 10.4703L10.898 10C10.7395 9.99859 10.5857 10.0668 10.4931 10.1966C10.4931 10.1966 8.61386 12.8376 8.20191 13.4189C8.15254 13.4885 8.06976 13.5256 7.98511 13.5162L1.52013 12.824C1.3866 12.8099 1.25488 12.8527 1.15569 12.9416C1.05693 13.031 1 13.1579 1 13.2915C1 13.7444 1.0588 14.1883 1.16979 14.6191C1.19426 14.7141 1.27704 14.7832 1.37436 14.7945L27.9434 17.7883C28.0558 17.8009 28.1611 17.7318 28.1945 17.6236L29.1958 14.3703C29.2362 14.2382 29.2164 14.0947 29.1421 13.9785ZM14.5712 11.3737L14.2044 13.9423C14.1865 14.0669 14.0759 14.1558 13.9504 14.1432C13.0329 14.0505 9.58579 13.6879 9.58579 13.6879C9.40706 13.6687 9.31492 13.4641 9.4193 13.3174L11.0347 11.0558C11.0813 10.9909 11.1574 10.9538 11.2374 10.9576L14.3497 11.1057C14.488 11.1123 14.5909 11.2364 14.5712 11.3737ZM19.6694 11.7165L19.3802 12.1492C19.3543 12.1878 19.3407 12.2334 19.3407 12.2799V14.4719C19.3407 14.6115 19.2193 14.7207 19.0806 14.7056L15.3485 14.3059C15.2163 14.2918 15.1218 14.1704 15.1406 14.0388L15.521 11.3756C15.538 11.2557 15.6438 11.1682 15.7651 11.1739L19.485 11.3512C19.6675 11.3596 19.771 11.5642 19.6694 11.7165ZM25.4542 15.1265C25.4542 15.2661 25.3329 15.3753 25.1942 15.3602C25.1942 15.3602 24.2179 15.2502 23.7805 15.1985C23.662 15.1848 23.5731 15.0842 23.5731 14.9652V14.2852C23.5731 14.1432 23.6982 14.0331 23.8393 14.0519L25.2501 14.24C25.3668 14.256 25.4542 14.3557 25.4542 14.4733V15.1265ZM28.0516 14.8904L27.8771 15.4566C27.8442 15.5638 27.7393 15.6329 27.6274 15.6212L26.6045 15.5117C26.4856 15.499 26.3948 15.3978 26.3948 15.2779V14.6619C26.3948 14.5198 26.5199 14.4098 26.661 14.4286L27.8578 14.588C28.0017 14.6073 28.0943 14.7512 28.0516 14.8904Z" fill="url(#paint1_linear_12465_17)"/>
<defs>
<linearGradient id="paint0_linear_12465_17" x1="14.7947" y1="15.8164" x2="14.7947" y2="20.8161" gradientUnits="userSpaceOnUse">
<stop stop-color="#E5E4E4"/>
<stop offset="1" stop-color="#CAC8C8"/>
</linearGradient>
<linearGradient id="paint1_linear_12465_17" x1="15.1082" y1="10" x2="15.1082" y2="17.7897" gradientUnits="userSpaceOnUse">
<stop stop-color="#E5E4E4"/>
<stop offset="1" stop-color="#CAC8C8"/>
</linearGradient>
</defs>
</svg>
