<svg width="30" height="30" viewBox="0 0 30 30" fill="none" xmlns="http://www.w3.org/2000/svg">
<path d="M8.64492 21.4957C10.366 21.182 13.0051 18.7167 13.2448 17.1474C11.6913 17.3033 9.00384 19.7656 8.64492 21.4957ZM14.9615 20.0358L12.8924 18.0799C13.0766 17.7515 13.201 17.4345 13.2448 17.1474C12.9464 17.1773 12.6061 17.2926 12.2486 17.4712L9.97691 15.3239L10.9188 14.4336L15.9034 19.1454L14.9615 20.0358ZM8.64492 21.4957C8.82682 21.4626 9.01903 21.4051 9.21752 21.3275L9.77746 21.8568L8.56809 23L7 21.5177L8.20937 20.3745L8.82136 20.953C8.74133 21.1393 8.68111 21.3212 8.64492 21.4957ZM21.4558 11.9659L20.0107 11.7225L20.2818 13.0677L18.8417 12.8275L19.1297 14.1568L17.7066 13.9005L17.9777 15.2458L16.5376 15.0056L16.8137 16.369L15.1378 17.9531L12.4758 15.4367L18.9677 9.2999C20.2149 8.12084 22.2848 6.69019 24 7.05917C23.1678 7.77365 21.0974 10.6404 21.4558 11.9659Z" fill="url(#paint0_linear_12408_46)"/>
<defs>
<linearGradient id="paint0_linear_12408_46" x1="15.5" y1="23" x2="15.5" y2="7" gradientUnits="userSpaceOnUse">
<stop stop-color="white"/>
<stop offset="1" stop-color="#D0D0D0"/>
</linearGradient>
</defs>
</svg>
