<svg width="30" height="30" viewBox="0 0 30 30" fill="none" xmlns="http://www.w3.org/2000/svg">
<path fill-rule="evenodd" clip-rule="evenodd" d="M8.3056 8.2543H13.2922V7.48958C13.2922 7.22031 13.5121 7 13.7818 7H16.5349C16.8044 7 17.0245 7.22018 17.0245 7.48958V8.25443H21.9503C22.1186 8.25443 22.2559 8.39206 22.2559 8.56029V10.0595H8V8.56016C8 8.39193 8.13737 8.2543 8.3056 8.2543ZM9.13151 10.8548H21.2306C21.4828 10.8548 21.7118 11.063 21.6891 11.3137L20.6651 22.5414C20.6424 22.7922 20.4581 22.9999 20.2064 22.9999H10.1413C9.88945 22.9999 9.70482 22.7926 9.68242 22.5414L8.67266 11.3137C8.65026 11.0621 8.87904 10.8548 9.13151 10.8548ZM16.9944 12.5987H18.279V21.1031H16.9944V12.5987ZM11.9156 12.5987H13.2004V21.1031H11.9156V12.5987ZM14.4547 12.5987H15.7397V21.1031H14.4547V12.5987Z" fill="url(#paint0_linear_12408_48)"/>
<defs>
<linearGradient id="paint0_linear_12408_48" x1="15.1279" y1="7" x2="15.1279" y2="22.9999" gradientUnits="userSpaceOnUse">
<stop stop-color="#F3F2F2"/>
<stop offset="1" stop-color="#C9C7C7"/>
</linearGradient>
</defs>
</svg>
