<svg width="32" height="47" viewBox="0 0 32 47" fill="none" xmlns="http://www.w3.org/2000/svg">
<path fill-rule="evenodd" clip-rule="evenodd" d="M1.23385 0H4.4791C5.1417 0 5.57842 0.558431 5.68383 1.22396C6.91115 9.08024 7.57375 16.9327 7.53987 24.789H29.7408C30.618 24.789 31.3333 25.5195 31.3333 26.4069V29.6772H30.0608V46.3957C30.0608 46.6634 29.8425 46.8891 29.5752 46.8891H25.321C25.0537 46.8891 24.8353 46.6672 24.8353 46.3957V39.1208H6.66644C6.4029 41.3392 6.07537 43.5576 5.68383 45.776C5.56712 46.4377 5.1417 47 4.4791 47H1.23385C0.571248 47 -0.155356 46.4224 0.0291185 45.776C4.30592 30.6449 3.41743 15.8541 0.0291185 1.22396C-0.125238 0.569906 0.571248 0 1.23385 0ZM24.8353 36.8717V29.681H7.47211C7.37422 32.7409 7.16716 33.8157 6.84339 36.8717H24.8353Z" fill="white"/>
</svg>
