<svg width="42" height="45" viewBox="0 0 42 45" fill="none" xmlns="http://www.w3.org/2000/svg">
<path d="M42 2.25V6.75C42 15.4485 35.0722 22.5 26.5263 22.5H24.3158V24.75H35.3684V40.5C35.3684 42.9863 33.39 45 30.9474 45H13.2632C10.8205 45 8.8421 42.9863 8.8421 40.5V24.75H19.8947V18C19.8947 9.3015 26.8225 2.25 35.3684 2.25H42ZM7.73684 0C13.3273 0 18.27 2.81475 21.2741 7.13025C19.0194 10.1475 17.6842 13.9162 17.6842 18V20.25H16.5789C7.42295 20.25 0 12.6945 0 3.375V0H7.73684Z" fill="white"/>
</svg>
