<svg width="52" height="41" viewBox="0 0 52 41" fill="none" xmlns="http://www.w3.org/2000/svg">
<path d="M3.25529 6.83333C3.49224 6.83333 3.81382 6.79774 4.22003 6.72656L6.60649 9.23568C5.55712 9.91189 4.44006 10.25 3.25529 10.25C3.22144 10.25 3.17066 10.2411 3.10296 10.2233L3.00141 10.1966L0.00564194 39.2917C-0.0282086 39.7543 0.0902682 40.1547 0.361072 40.4928C0.631876 40.8309 0.987306 41 1.42736 41H11.024C11.464 41 11.8533 40.8309 12.1918 40.4928C12.5303 40.1547 12.7165 39.7543 12.7504 39.2917L13.969 27.3333H21.1283C23.4979 27.3333 25.4443 26.4436 26.9676 24.6641C28.4908 22.8845 29.2525 20.3576 29.2525 17.0833H47.1255C47.5656 17.0833 47.9464 16.9143 48.268 16.5762C48.5896 16.2381 48.7504 15.8377 48.7504 15.375V13.6667H50.3752C50.8152 13.6667 51.1961 13.4976 51.5176 13.1595C51.8392 12.8214 52 12.421 52 11.9583V5.125C52 4.66233 51.8392 4.26194 51.5176 3.92383C51.1961 3.58572 50.8152 3.41667 50.3752 3.41667H48.7504V1.70833C48.7504 1.24566 48.5896 0.845269 48.268 0.507161C47.9464 0.169054 47.5656 0 47.1255 0C46.6855 0 46.3047 0.169054 45.9831 0.507161C45.6615 0.845269 45.5007 1.24566 45.5007 1.70833V3.41667L9.75458 3.41667C9.75458 4.66233 9.433 5.83681 8.78985 6.9401L5.9464 3.89714C5.4725 3.43446 4.93089 3.3099 4.32158 3.52344C3.88152 3.45226 3.52609 3.41667 3.25529 3.41667C2.34133 3.41667 1.57123 3.58572 0.944993 3.92383C0.318759 4.26194 0.00564194 4.66233 0.00564194 5.125C0.00564194 5.58767 0.318759 5.98806 0.944993 6.32617C1.57123 6.66428 2.34133 6.83333 3.25529 6.83333ZM15.0353 17.0833H16.2539C16.2539 18.4358 16.5416 19.7081 17.1171 20.9004C17.6925 22.0927 18.488 23.0803 19.5035 23.8633V17.0833H25.6982C25.9013 17.6528 26.0028 18.2222 26.0028 18.7917C26.0028 20.2153 25.5289 21.4253 24.5811 22.4219C23.6333 23.4184 22.4824 23.9167 21.1283 23.9167H14.3244L15.0353 17.0833Z" fill="white"/>
</svg>
