<svg width="47" height="40" viewBox="0 0 47 40" fill="none" xmlns="http://www.w3.org/2000/svg">
<path d="M42.4125 19.8H4.3875C3.22386 19.8 2.10788 20.247 1.28507 21.0427C0.462253 21.8384 0 22.9176 0 24.0429C0 25.1681 0.462253 26.2473 1.28507 27.043C2.10788 27.8387 3.22386 28.2857 4.3875 28.2857H42.4125C43.5761 28.2857 44.6921 27.8387 45.5149 27.043C46.3377 26.2473 46.8 25.1681 46.8 24.0429C46.8 22.9176 46.3377 21.8384 45.5149 21.0427C44.6921 20.247 43.5761 19.8 42.4125 19.8ZM43.875 31.1143H2.925C2.53712 31.1143 2.16513 31.2633 1.89086 31.5285C1.61658 31.7937 1.4625 32.1535 1.4625 32.5286V33.9429C1.4625 35.4432 2.07884 36.8821 3.17593 37.9431C4.27301 39.004 5.76098 39.6 7.3125 39.6H39.4875C41.039 39.6 42.527 39.004 43.6241 37.9431C44.7212 36.8821 45.3375 35.4432 45.3375 33.9429V32.5286C45.3375 32.1535 45.1834 31.7937 44.9091 31.5285C44.6349 31.2633 44.2629 31.1143 43.875 31.1143ZM5.36006 16.9714H41.4399C44.5998 16.9714 46.4325 13.091 44.6227 10.2642C40.95 4.52571 32.8651 0.00883929 23.4 0C13.9358 0.00883929 5.85 4.52571 2.1773 10.2633C0.365625 13.0901 2.20015 16.9714 5.36006 16.9714ZM35.1 7.07143C35.3893 7.07143 35.672 7.15437 35.9125 7.30978C36.153 7.46518 36.3405 7.68606 36.4512 7.94449C36.5619 8.20292 36.5908 8.48728 36.5344 8.76163C36.478 9.03597 36.3387 9.28797 36.1341 9.48576C35.9296 9.68356 35.669 9.81825 35.3853 9.87282C35.1016 9.9274 34.8076 9.89939 34.5403 9.79234C34.2731 9.6853 34.0447 9.50403 33.884 9.27145C33.7233 9.03887 33.6375 8.76543 33.6375 8.48571C33.6375 8.11062 33.7916 7.75089 34.0659 7.48566C34.3401 7.22043 34.7121 7.07143 35.1 7.07143ZM23.4 4.24286C23.6893 4.24286 23.972 4.3258 24.2125 4.48121C24.453 4.63661 24.6405 4.85749 24.7512 5.11592C24.8619 5.37435 24.8908 5.65871 24.8344 5.93306C24.778 6.2074 24.6387 6.4594 24.4341 6.65719C24.2296 6.85498 23.969 6.98968 23.6853 7.04425C23.4016 7.09882 23.1076 7.07082 22.8403 6.96377C22.5731 6.85673 22.3447 6.67546 22.184 6.44288C22.0233 6.2103 21.9375 5.93686 21.9375 5.65714C21.9375 5.28205 22.0916 4.92232 22.3659 4.65709C22.6401 4.39186 23.0121 4.24286 23.4 4.24286ZM11.7 7.07143C11.9893 7.07143 12.272 7.15437 12.5125 7.30978C12.753 7.46518 12.9405 7.68606 13.0512 7.94449C13.1619 8.20292 13.1908 8.48728 13.1344 8.76163C13.078 9.03597 12.9387 9.28797 12.7341 9.48576C12.5296 9.68356 12.269 9.81825 11.9853 9.87282C11.7016 9.9274 11.4076 9.89939 11.1403 9.79234C10.8731 9.6853 10.6447 9.50403 10.484 9.27145C10.3233 9.03887 10.2375 8.76543 10.2375 8.48571C10.2375 8.11062 10.3916 7.75089 10.6659 7.48566C10.9401 7.22043 11.3121 7.07143 11.7 7.07143Z" fill="white"/>
</svg>
