<svg width="14" height="17" viewBox="0 0 14 17" fill="none" xmlns="http://www.w3.org/2000/svg">
<path d="M2.85818 8.19447L8.60266 7.96288L10.2525 13.3002L12.5694 2.16106L2.85818 8.19447ZM0.740379 9.42351C0.614379 9.42891 0.490113 9.39228 0.387026 9.31935C0.283939 9.24643 0.207847 9.14133 0.170657 9.0205C0.133468 8.89966 0.137279 8.76992 0.181494 8.65156C0.22571 8.5332 0.307835 8.4329 0.415018 8.36637L13.0989 0.487662C13.1937 0.428717 13.3037 0.39898 13.4153 0.402138C13.5269 0.405296 13.6351 0.441211 13.7266 0.505428C13.818 0.569646 13.8887 0.659343 13.9298 0.763399C13.9709 0.867455 13.9807 0.981295 13.9579 1.0908L10.9183 15.6974C10.8925 15.8213 10.8264 15.9329 10.7304 16.015C10.6344 16.0971 10.5139 16.1448 10.3879 16.1509C10.2618 16.1569 10.1373 16.1208 10.0338 16.0483C9.93028 15.9758 9.85368 15.871 9.81598 15.7502L7.77269 9.14014L0.740379 9.42351Z" fill="white"/>
</svg>
