<svg width="23" height="15" viewBox="0 0 23 15" fill="none" xmlns="http://www.w3.org/2000/svg">
<path d="M4 4V1.8C4 1.36 4.36 1 4.8 1H21.2C21.64 1 22 1.36 22 1.8V10.2C22 10.64 21.64 11 21.2 11H19M1.8 4H18.2C18.4122 4 18.6157 4.08429 18.7657 4.23431C18.9157 4.38434 19 4.58783 19 4.8V13.2C19 13.4122 18.9157 13.6157 18.7657 13.7657C18.6157 13.9157 18.4122 14 18.2 14H1.8C1.58783 14 1.38434 13.9157 1.23431 13.7657C1.08429 13.6157 1 13.4122 1 13.2V4.8C1 4.58783 1.08429 4.38434 1.23431 4.23431C1.38434 4.08429 1.58783 4 1.8 4ZM11 9C11 9.26522 10.8946 9.51957 10.7071 9.70711C10.5196 9.89464 10.2652 10 10 10C9.73478 10 9.48043 9.89464 9.29289 9.70711C9.10536 9.51957 9 9.26522 9 9C9 8.73478 9.10536 8.48043 9.29289 8.29289C9.48043 8.10536 9.73478 8 10 8C10.2652 8 10.5196 8.10536 10.7071 8.29289C10.8946 8.48043 11 8.73478 11 9Z" stroke="white" stroke-miterlimit="10" stroke-linejoin="round"/>
</svg>
