<svg width="30" height="30" viewBox="0 0 30 30" fill="none" xmlns="http://www.w3.org/2000/svg">
<path d="M10.3519 21V9.1H15.6899C17.0612 9.1 18.1152 9.37767 18.8519 9.933C19.5886 10.477 19.9569 11.225 19.9569 12.177C19.9569 12.823 19.8096 13.367 19.5149 13.809C19.2316 14.251 18.8462 14.591 18.3589 14.829C17.8716 15.067 17.3446 15.186 16.7779 15.186L17.0839 14.676C17.7639 14.676 18.3646 14.795 18.8859 15.033C19.4072 15.271 19.8209 15.6223 20.1269 16.087C20.4329 16.5403 20.5859 17.107 20.5859 17.787C20.5859 18.807 20.2006 19.6003 19.4299 20.167C18.6706 20.7223 17.5372 21 16.0299 21H10.3519ZM12.0519 19.623H15.9619C16.9026 19.623 17.6222 19.4643 18.1209 19.147C18.6196 18.8297 18.8689 18.331 18.8689 17.651C18.8689 16.9597 18.6196 16.4553 18.1209 16.138C17.6222 15.8207 16.9026 15.662 15.9619 15.662H11.8989V14.285H15.5369C16.3982 14.285 17.0669 14.1263 17.5429 13.809C18.0189 13.4917 18.2569 13.0157 18.2569 12.381C18.2569 11.7463 18.0189 11.2703 17.5429 10.953C17.0669 10.6357 16.3982 10.477 15.5369 10.477H12.0519V19.623Z" fill="url(#paint0_linear_12499_8)"/>
<defs>
<linearGradient id="paint0_linear_12499_8" x1="15" y1="0" x2="15" y2="30" gradientUnits="userSpaceOnUse">
<stop stop-color="#FBC504"/>
<stop offset="1" stop-color="#FB9D04"/>
</linearGradient>
</defs>
</svg>
