<svg width="30" height="30" viewBox="0 0 30 30" fill="none" xmlns="http://www.w3.org/2000/svg">
<path d="M15.9634 21.136C15.0568 21.136 14.2181 20.9887 13.4474 20.694C12.6881 20.388 12.0251 19.963 11.4584 19.419C10.9031 18.8637 10.4668 18.2177 10.1494 17.481C9.83209 16.7443 9.67342 15.934 9.67342 15.05C9.67342 14.166 9.83209 13.3557 10.1494 12.619C10.4668 11.8823 10.9088 11.242 11.4754 10.698C12.0421 10.1427 12.7051 9.71767 13.4644 9.423C14.2351 9.117 15.0738 8.964 15.9804 8.964C16.8984 8.964 17.7428 9.12267 18.5134 9.44C19.2954 9.746 19.9584 10.205 20.5024 10.817L19.3974 11.888C18.9441 11.412 18.4341 11.0607 17.8674 10.834C17.3008 10.596 16.6944 10.477 16.0484 10.477C15.3798 10.477 14.7564 10.5903 14.1784 10.817C13.6118 11.0437 13.1188 11.361 12.6994 11.769C12.2801 12.177 11.9514 12.6643 11.7134 13.231C11.4868 13.7863 11.3734 14.3927 11.3734 15.05C11.3734 15.7073 11.4868 16.3193 11.7134 16.886C11.9514 17.4413 12.2801 17.923 12.6994 18.331C13.1188 18.739 13.6118 19.0563 14.1784 19.283C14.7564 19.5097 15.3798 19.623 16.0484 19.623C16.6944 19.623 17.3008 19.5097 17.8674 19.283C18.4341 19.045 18.9441 18.6823 19.3974 18.195L20.5024 19.266C19.9584 19.878 19.2954 20.3427 18.5134 20.66C17.7428 20.9773 16.8928 21.136 15.9634 21.136Z" fill="url(#paint0_linear_12499_8)"/>
<defs>
<linearGradient id="paint0_linear_12499_8" x1="15" y1="0" x2="15" y2="30" gradientUnits="userSpaceOnUse">
<stop stop-color="#FBC504"/>
<stop offset="1" stop-color="#FB9D04"/>
</linearGradient>
</defs>
</svg>
