<svg width="30" height="30" viewBox="0 0 30 30" fill="none" xmlns="http://www.w3.org/2000/svg">
<path d="M9.76254 21V9.1H14.7775C16.0469 9.1 17.1632 9.34933 18.1265 9.848C19.1012 10.3467 19.8549 11.0437 20.3875 11.939C20.9315 12.8343 21.2035 13.8713 21.2035 15.05C21.2035 16.2287 20.9315 17.2657 20.3875 18.161C19.8549 19.0563 19.1012 19.7533 18.1265 20.252C17.1632 20.7507 16.0469 21 14.7775 21H9.76254ZM11.4625 19.521H14.6755C15.6615 19.521 16.5115 19.334 17.2255 18.96C17.9509 18.586 18.5119 18.0647 18.9085 17.396C19.3052 16.716 19.5035 15.934 19.5035 15.05C19.5035 14.1547 19.3052 13.3727 18.9085 12.704C18.5119 12.0353 17.9509 11.514 17.2255 11.14C16.5115 10.766 15.6615 10.579 14.6755 10.579H11.4625V19.521Z" fill="url(#paint0_linear_12499_8)"/>
<defs>
<linearGradient id="paint0_linear_12499_8" x1="15" y1="0" x2="15" y2="30" gradientUnits="userSpaceOnUse">
<stop stop-color="#FBC504"/>
<stop offset="1" stop-color="#FB9D04"/>
</linearGradient>
</defs>
</svg>
