<svg width="30" height="30" viewBox="0 0 30 30" fill="none" xmlns="http://www.w3.org/2000/svg">
<path d="M14.9737 21.136C14.067 21.136 13.2 21 12.3727 20.728C11.5454 20.4447 10.8937 20.082 10.4177 19.64L11.0467 18.314C11.5 18.7107 12.078 19.0393 12.7807 19.3C13.4834 19.5607 14.2144 19.691 14.9737 19.691C15.665 19.691 16.226 19.6117 16.6567 19.453C17.0874 19.2943 17.4047 19.079 17.6087 18.807C17.8127 18.5237 17.9147 18.2063 17.9147 17.855C17.9147 17.447 17.7787 17.1183 17.5067 16.869C17.246 16.6197 16.9004 16.4213 16.4697 16.274C16.0504 16.1153 15.5857 15.9793 15.0757 15.866C14.5657 15.7527 14.05 15.6223 13.5287 15.475C13.0187 15.3163 12.5484 15.118 12.1177 14.88C11.6984 14.642 11.3584 14.3247 11.0977 13.928C10.837 13.52 10.7067 12.9987 10.7067 12.364C10.7067 11.752 10.8654 11.191 11.1827 10.681C11.5114 10.1597 12.01 9.746 12.6787 9.44C13.3587 9.12267 14.22 8.964 15.2627 8.964C15.954 8.964 16.6397 9.05467 17.3197 9.236C17.9997 9.41733 18.589 9.678 19.0877 10.018L18.5267 11.378C18.0167 11.038 17.4784 10.7943 16.9117 10.647C16.345 10.4883 15.7954 10.409 15.2627 10.409C14.594 10.409 14.0444 10.494 13.6137 10.664C13.183 10.834 12.8657 11.0607 12.6617 11.344C12.469 11.6273 12.3727 11.9447 12.3727 12.296C12.3727 12.7153 12.503 13.0497 12.7637 13.299C13.0357 13.5483 13.3814 13.7467 13.8007 13.894C14.2314 14.0413 14.7017 14.1773 15.2117 14.302C15.7217 14.4153 16.2317 14.5457 16.7417 14.693C17.263 14.8403 17.7334 15.033 18.1527 15.271C18.5834 15.509 18.929 15.8263 19.1897 16.223C19.4504 16.6197 19.5807 17.1297 19.5807 17.753C19.5807 18.3537 19.4164 18.9147 19.0877 19.436C18.759 19.946 18.249 20.3597 17.5577 20.677C16.8777 20.983 16.0164 21.136 14.9737 21.136Z" fill="url(#paint0_linear_12499_8)"/>
<defs>
<linearGradient id="paint0_linear_12499_8" x1="15" y1="0" x2="15" y2="30" gradientUnits="userSpaceOnUse">
<stop stop-color="#FBC504"/>
<stop offset="1" stop-color="#FB9D04"/>
</linearGradient>
</defs>
</svg>
