<svg width="65" height="67" viewBox="0 0 65 67" fill="none" xmlns="http://www.w3.org/2000/svg">
<path d="M51.5982 50.4217L65 47.7453L31.4256 26.7864L30.6337 27.3392L38.1087 66.249L45.4052 54.6817L52.481 65.0099C53.8248 66.9546 56.2916 67.5823 58.0021 66.4083C59.7029 65.2311 60.008 62.6946 58.674 60.7466L51.5982 50.4217ZM32.091 60.3564C26.7063 60.3564 21.6883 58.8085 17.4071 56.1711C21.2599 56.2102 14.5411 50.2981 19.1696 49.3908C24.0253 48.4347 26.0701 42.8706 24.5154 42.9552C22.9639 43.0365 20.0102 42.1519 17.9329 39.5374C15.8524 36.9033 14.0315 37.5049 11.886 37.9179C10.01 38.2886 7.69899 43.7259 7.12449 45.1535C5.66389 42.3503 4.67392 39.2707 4.22601 36.0155C6.60841 34.7667 10.4969 32.666 11.9023 31.505C13.9731 29.7847 11.2109 29.0888 10.8701 28.0514C10.5326 27.0141 10.8701 24.5978 10.8701 22.1979C10.8701 19.7752 15.6933 19.7752 17.4039 17.3655C18.634 15.6452 16.3815 11.8502 14.976 9.79491C19.7246 6.1332 25.6514 3.93162 32.091 3.93162C33.7983 3.93162 35.4634 4.11048 37.0895 4.40316C37.5667 7.37545 38.5599 11.4632 40.4781 12.5298C43.5843 14.2533 47.343 18.0484 48.7322 18.7313C50.1148 19.4207 51.8254 25.2938 51.4878 27.7067C51.2444 29.4107 49.1346 31.2871 48.2713 33.092L62.6176 42.0479C63.6303 38.926 64.1886 35.6057 64.1886 32.1489C64.1886 14.4192 49.7838 0 32.0943 0C14.395 -5.58334e-07 0 14.4192 0 32.1489C0 49.8819 14.395 64.3076 32.0943 64.3076C32.7662 64.3076 33.4218 64.2458 34.0839 64.2067L33.3342 60.2914C32.9187 60.3109 32.5097 60.3564 32.091 60.3564ZM59.9041 36.3114C59.2972 33.8985 58.1222 31.5701 55.6229 29.7717C53.9124 28.562 52.5167 23.2223 53.5554 21.4922C54.1753 20.4613 55.7885 19.5541 56.9764 18.9882C59.057 22.9198 60.2449 27.3945 60.2449 32.1489C60.2449 33.5668 60.1054 34.9488 59.9041 36.3114ZM45.3922 61.3808C45.4604 61.3451 45.5318 61.3125 45.6 61.28C45.574 61.2409 45.548 61.2084 45.5253 61.1694C45.4864 61.2312 45.4344 61.3157 45.3922 61.3808Z" fill="url(#paint0_linear_9970_1597)"/>
<defs>
<linearGradient id="paint0_linear_9970_1597" x1="32.5" y1="0" x2="32.5" y2="67" gradientUnits="userSpaceOnUse">
<stop stop-color="white"/>
<stop offset="1" stop-color="#ADADAD"/>
</linearGradient>
</defs>
</svg>
