<svg width="62" height="66" viewBox="0 0 62 66" fill="none" xmlns="http://www.w3.org/2000/svg">
<path d="M61.9972 27.4104C61.9959 27.3546 61.9933 27.299 61.9887 27.2441C61.9855 27.2068 61.9814 27.1696 61.9769 27.1325C61.971 27.0853 61.9638 27.0387 61.9554 26.9925C61.9471 26.9466 61.9374 26.9009 61.9266 26.8554C61.9178 26.8184 61.9085 26.7815 61.8984 26.7449C61.8834 26.6923 61.8666 26.6399 61.8483 26.5877C61.8418 26.5696 61.8376 26.5516 61.8309 26.5335L57.194 14.168H54.356H51.2171H10.7832H7.64414H4.80613L0.169071 26.5334C0.162395 26.5515 0.158031 26.5695 0.15174 26.5876C0.133382 26.6398 0.116694 26.6923 0.101802 26.7448C0.0914035 26.7813 0.0821605 26.8181 0.0734309 26.8552C0.0623906 26.9009 0.0528909 26.9466 0.0445464 26.9923C0.036202 27.0385 0.0290129 27.0851 0.0231076 27.1324C0.018486 27.1696 0.0142496 27.2068 0.011297 27.2439C0.00667546 27.299 0.00397957 27.3545 0.00282419 27.4103C0.00243906 27.4289 0 27.4473 0 27.4663V38.0949C0 39.5623 1.18966 40.752 2.65712 40.752H5.31425V52.4391V63.0677C5.31425 64.5351 6.5039 65.7249 7.97137 65.7249H34.5429H54.0286C55.4961 65.7249 56.6858 64.5349 56.6858 63.0677V40.7522H59.3429C60.8103 40.7522 62 39.5622 62 38.095V27.4664C62 27.4474 61.9976 27.4292 61.9972 27.4104ZM10.6285 40.7522H31.8856V49.782H10.6285V40.7522ZM31.8856 60.4106H10.6285V55.0964H31.8857V60.4106H31.8856ZM51.3714 60.4106H37.2V52.4391V40.752H51.3714V60.4106Z" fill="url(#paint0_linear_9970_1615)"/>
<path d="M48.7108 0H13.2821C11.8147 0 10.625 1.18966 10.625 2.65712V8.85716H13.2821H15.9392H46.0536H48.7108H51.3679V2.65712C51.3679 1.18966 50.1782 0 48.7108 0Z" fill="url(#paint1_linear_9970_1615)"/>
<defs>
<linearGradient id="paint0_linear_9970_1615" x1="31" y1="14.168" x2="31" y2="65.7249" gradientUnits="userSpaceOnUse">
<stop stop-color="white"/>
<stop offset="1" stop-color="#A8A8A8"/>
</linearGradient>
<linearGradient id="paint1_linear_9970_1615" x1="30.9964" y1="0" x2="30.9964" y2="8.85716" gradientUnits="userSpaceOnUse">
<stop stop-color="white"/>
<stop offset="1" stop-color="#A8A8A8"/>
</linearGradient>
</defs>
</svg>
