<svg width="53" height="58" viewBox="0 0 53 58" fill="none" xmlns="http://www.w3.org/2000/svg">
<path d="M52.9822 53.1324C50.7759 44.4627 40.2492 41.5722 40.2492 41.5722C40.2492 41.5722 41.7769 39.7455 45.342 37.618C43.6633 34.7346 40.6063 32.8866 39.5794 32.3238C40.9952 31.522 41.9829 28.3359 42.816 26.8136C43.7308 25.1462 42.0841 24.3107 41.1711 24.479C41.1711 24.479 41.1692 24.3887 41.1692 24.2276C47.9621 22.3513 52.2982 19.8131 52.0299 17.4111C51.7527 14.9543 46.7204 13.2462 39.375 12.7011C39.2507 12.5152 39.1228 12.3294 38.9842 12.1453C38.2914 8.44063 37.524 4.35894 37.2931 3.21014C36.7391 0.454081 32.76 -1.08758 29.8023 0.900188C28.2515 1.94273 26.866 2.01704 26.1306 2.01704C25.3951 2.01704 24.5816 2.16578 22.4588 0.900188C19.3857 -0.933632 15.5221 0.454081 14.9678 3.21014C14.6943 4.5642 13.68 9.98943 12.9179 14.0711C12.7332 14.4516 12.5787 14.8181 12.4525 15.165C5.2262 17.0606 0.554445 19.6981 0.831501 22.1867C1.0624 24.2506 4.64889 25.7852 10.1397 26.5481C10.1752 26.6348 10.216 26.7215 10.2657 26.8136C11.0918 28.3217 12.067 31.4635 13.4614 32.3008C12.4808 32.8354 9.35794 34.6939 7.65797 37.6181C11.2231 39.7456 12.7508 41.5723 12.7508 41.5723C12.7508 41.5723 2.22588 44.4628 0.0178404 53.1325C-0.660532 56.784 18.1831 58 26.5001 58C34.817 58 53.6606 56.784 52.9822 53.1324ZM32.9732 30.2509C28.1769 31.0617 28.3191 27.5375 26.5427 27.7199C24.7645 27.5376 24.9049 31.0617 20.1087 30.2511C17.8065 29.8634 16.2752 28.412 15.3019 27.0065C18.8902 27.1711 22.9403 27.0773 27.2017 26.6808C31.4774 26.2808 35.4743 25.6241 38.9613 24.7957C38.352 26.3268 36.6324 29.6332 32.9732 30.2509Z" fill="url(#paint0_linear_9970_1605)"/>
<defs>
<linearGradient id="paint0_linear_9970_1605" x1="26.5" y1="0" x2="26.5" y2="58" gradientUnits="userSpaceOnUse">
<stop stop-color="white"/>
<stop offset="1" stop-color="#C7C7C7"/>
</linearGradient>
</defs>
</svg>
