<svg width="63" height="58" viewBox="0 0 63 58" fill="none" xmlns="http://www.w3.org/2000/svg">
<path d="M63 39.1125C63 31.7625 59.0625 25.9875 53.2875 23.1C55.9125 20.475 57.75 17.0625 57.75 13.125C57.75 5.775 51.975 0 44.625 0C39.1125 0 34.65 3.15 32.55 7.875C32.2875 7.875 31.7625 7.875 31.5 7.875C31.2375 7.875 30.7125 7.875 30.45 7.875C28.35 3.15 23.8875 0 18.375 0C11.025 0 5.25 5.775 5.25 13.125C5.25 17.0625 7.0875 20.475 9.7125 23.1C3.9375 25.9875 0 32.025 0 39.1125V49.875H13.125V57.75H49.875V49.875H63V39.1125ZM44.625 5.25C49.0875 5.25 52.5 8.6625 52.5 13.125C52.5 17.325 49.0875 21 44.625 21C44.625 16.0125 41.7375 11.8125 37.5375 9.45C38.85 6.825 41.475 5.25 44.625 5.25ZM39.375 21C39.375 25.4625 35.9625 28.875 31.5 28.875C27.0375 28.875 23.625 25.4625 23.625 21C23.625 16.5375 27.0375 13.125 31.5 13.125C35.9625 13.125 39.375 16.5375 39.375 21ZM18.375 5.25C21.525 5.25 24.15 6.825 25.4625 9.45C21.2625 11.8125 18.375 16.0125 18.375 21C13.9125 21 10.5 17.5875 10.5 13.125C10.5 8.6625 13.9125 5.25 18.375 5.25ZM13.3875 44.625H5.25V39.1125C5.25 31.7625 10.7625 26.25 18.375 26.25C18.6375 26.25 18.9 26.25 19.1625 26.25C19.95 28.0875 21.2625 29.6625 22.575 30.975C17.5875 33.6 14.175 38.5875 13.3875 44.625ZM44.625 52.5H18.375V46.9875C18.375 39.6375 24.15 34.125 31.5 34.125C39.1125 34.125 44.625 39.6375 44.625 46.9875V52.5ZM57.75 44.625H49.6125C48.825 38.5875 45.15 33.6 39.9 30.975C41.475 29.6625 42.525 28.0875 43.3125 26.25C43.575 26.25 43.8375 26.25 44.3625 26.25C51.975 26.25 57.4875 31.7625 57.4875 39.1125V44.625H57.75Z" fill="url(#paint0_linear_9970_1602)"/>
<defs>
<linearGradient id="paint0_linear_9970_1602" x1="31.5" y1="0" x2="31.5" y2="57.75" gradientUnits="userSpaceOnUse">
<stop stop-color="white"/>
<stop offset="1" stop-color="#C3C3C3"/>
</linearGradient>
</defs>
</svg>
