<svg width="70" height="70" viewBox="0 0 70 70" fill="none" xmlns="http://www.w3.org/2000/svg">
<path d="M35 0C54.3305 0 70 15.6695 70 35C70 54.3305 54.3305 70 35 70C15.6695 70 0 54.3305 0 35C0 15.6695 15.6695 0 35 0ZM35 7C27.5739 7 20.452 9.94999 15.201 15.201C9.94999 20.452 7 27.5739 7 35C7 42.4261 9.94999 49.548 15.201 54.799C20.452 60.05 27.5739 63 35 63C42.4261 63 49.548 60.05 54.799 54.799C60.05 49.548 63 42.4261 63 35C63 27.5739 60.05 20.452 54.799 15.201C49.548 9.94999 42.4261 7 35 7ZM36.75 17.5C39.4227 17.4995 42.0223 18.3731 44.1522 19.9876C46.2822 21.6021 47.8257 23.8689 48.5474 26.4423C49.2691 29.0157 49.1293 31.7546 48.1494 34.2412C47.1695 36.7278 45.4033 38.8257 43.12 40.215L52.038 52.5H43.386L35.756 42H28V52.5H21V17.5H36.75ZM36.75 24.5H28V35H36.75C38.0551 34.9999 39.3134 34.5138 40.2795 33.6363C41.2456 32.7589 41.8502 31.5531 41.9755 30.254L42 29.75C42 28.3576 41.4469 27.0223 40.4623 26.0377C39.4777 25.0531 38.1424 24.5 36.75 24.5Z" fill="url(#paint0_linear_9970_1593)"/>
<defs>
<linearGradient id="paint0_linear_9970_1593" x1="35" y1="0" x2="35" y2="70" gradientUnits="userSpaceOnUse">
<stop stop-color="white"/>
<stop offset="1" stop-color="#C7C7C7"/>
</linearGradient>
</defs>
</svg>
