<svg width="26" height="35" viewBox="0 0 26 35" fill="none" xmlns="http://www.w3.org/2000/svg">
<path d="M13.8462 11.9114V28.6464M13.8462 11.9114V6.14124C13.8462 5.78017 13.8462 5.59962 13.9049 5.44601C13.9567 5.31035 14.0408 5.19027 14.1494 5.09677C14.2726 4.99087 14.439 4.93377 14.7718 4.81959L22.218 2.26551C22.8196 2.05915 23.1205 1.95595 23.36 2.01782C23.5695 2.07198 23.7511 2.20661 23.8673 2.39409C24 2.60829 24 2.93458 24 3.58714V9.35729C24 9.71835 24 9.89889 23.9413 10.0525C23.8895 10.1882 23.8054 10.3082 23.6967 10.4018C23.5735 10.5077 23.4072 10.5647 23.0743 10.6789L15.6282 13.233C15.0265 13.4394 14.7256 13.5426 14.4862 13.4807C14.2767 13.4265 14.0951 13.2919 13.9788 13.1044C13.8462 12.8902 13.8462 12.5639 13.8462 11.9114ZM13.8462 28.6464C13.8462 31.0508 11.1943 33 7.92308 33C4.65185 33 2 31.0508 2 28.6464C2 26.2419 4.65185 24.2929 7.92308 24.2929C11.1943 24.2929 13.8462 26.2419 13.8462 28.6464Z" stroke="url(#paint0_linear_8960_8207)" stroke-width="3" stroke-linecap="round" stroke-linejoin="round"/>
<defs>
<linearGradient id="paint0_linear_8960_8207" x1="13" y1="2" x2="13" y2="33" gradientUnits="userSpaceOnUse">
<stop stop-color="white" stop-opacity="0.7"/>
<stop offset="1" stop-color="#EFEFEF"/>
</linearGradient>
</defs>
</svg>
