<svg width="40" height="30" viewBox="0 0 40 30" fill="none" xmlns="http://www.w3.org/2000/svg">
<path d="M2.50407 5C2.68634 5 2.93371 4.97396 3.24617 4.92188L5.08191 6.75781C4.27471 7.2526 3.41542 7.5 2.50407 7.5C2.47803 7.5 2.43897 7.49349 2.38689 7.48047L2.30877 7.46094L0.00433731 28.75C-0.0217018 29.0885 0.0694351 29.3815 0.277744 29.6289C0.486057 29.8763 0.759464 30 1.09797 30H8.47998C8.81849 30 9.11793 29.8763 9.37832 29.6289C9.63871 29.3815 9.78192 29.0885 9.80796 28.75L10.7454 20H16.2526C18.0753 20 19.5725 19.349 20.7443 18.0469C21.916 16.7448 22.5019 14.8958 22.5019 12.5H36.2504C36.5889 12.5 36.8818 12.3763 37.1292 12.1289C37.3766 11.8815 37.5003 11.5885 37.5003 11.25V10H38.7501C39.0886 10 39.3816 9.8763 39.6289 9.62891C39.8763 9.38151 40 9.08854 40 8.75V3.75C40 3.41146 39.8763 3.11849 39.6289 2.87109C39.3816 2.6237 39.0886 2.5 38.7501 2.5H37.5003V1.25C37.5003 0.911458 37.3766 0.61849 37.1292 0.371094C36.8818 0.123698 36.5889 0 36.2504 0C35.9119 0 35.619 0.123698 35.3716 0.371094C35.1242 0.61849 35.0005 0.911458 35.0005 1.25V2.5H7.50352C7.50352 3.41146 7.25616 4.27083 6.76142 5.07812L4.57415 2.85156C4.20961 2.51302 3.79299 2.42188 3.32429 2.57812C2.98579 2.52604 2.71238 2.5 2.50407 2.5C1.80102 2.5 1.20863 2.6237 0.726913 2.87109C0.245197 3.11849 0.00433731 3.41146 0.00433731 3.75C0.00433731 4.08854 0.245197 4.38151 0.726913 4.62891C1.20863 4.8763 1.80102 5 2.50407 5ZM11.5656 12.5H12.503C12.503 13.4896 12.7243 14.4206 13.167 15.293C13.6096 16.1654 14.2215 16.888 15.0027 17.4609V12.5H19.7678C19.9241 12.9167 20.0022 13.3333 20.0022 13.75C20.0022 14.7917 19.6376 15.6771 18.9085 16.4062C18.1794 17.1354 17.2941 17.5 16.2526 17.5H11.0188L11.5656 12.5Z" fill="url(#paint0_linear_10727_17)"/>
<defs>
<linearGradient id="paint0_linear_10727_17" x1="20" y1="0" x2="20" y2="30" gradientUnits="userSpaceOnUse">
<stop stop-color="white"/>
<stop offset="1" stop-color="#C4C2C2"/>
</linearGradient>
</defs>
</svg>
