<svg width="35" height="34" viewBox="0 0 35 34" fill="none" xmlns="http://www.w3.org/2000/svg">
<path d="M22.1237 0.000169336C20.0899 -0.018055 18.2197 1.43672 17.501 3.40111C16.7766 1.4196 14.8795 -0.0412967 12.825 0.00238273C11.6996 0.0263621 10.5272 0.501449 9.47327 1.59107C8.61895 2.47411 8.14278 3.64091 7.65536 4.81907C6.53812 6.47844 5.04354 7.71652 2.87683 8.20378C3.39821 8.67407 3.96652 8.91873 4.56432 9.02004C3.50725 9.59761 2.06296 9.91679 0 9.81542C1.52899 11.7579 3.92101 12.4186 6.42639 12.3633C10.9487 12.1906 13.2377 9.9044 14.5777 7.57663L15.7856 8.25912C14.2671 10.8971 11.38 13.5355 6.30543 13.726C6.30528 13.7437 6.30543 13.7614 6.30543 13.7791C6.30543 14.2267 6.40375 14.7678 6.57997 15.3792L6.56135 15.3446L8.7586 23.8204L9.10309 20.9705C10.3764 23.2917 11.9089 25.751 13.3138 27.9038L13.4347 24.5005C13.869 27.3421 14.975 29.918 16.3442 32.393C17.0396 33.3896 17.48 34 17.48 34C17.48 34 17.9979 33.2848 18.8114 32.114C18.8166 32.1066 18.8227 32.0983 18.8278 32.0909C20.3741 29.6695 21.6623 27.1285 22.2866 24.2768L22.2075 27.0391C22.9033 25.957 23.6169 24.8191 24.3046 23.6705V25.7709L27.3236 18.0883C28.0593 16.4957 28.5535 15.0955 28.6387 14.0788C23.7442 13.4947 20.3558 10.9903 18.7836 8.25919L19.9917 7.5767C21.4591 10.126 24.9478 12.6625 30.2936 12.8198C31.4171 12.7977 32.521 12.5525 33.6895 11.9851C32.5854 11.9939 31.6428 11.9055 30.8196 11.7316C32.5581 11.3526 34.0653 10.4924 35 8.93002C27.3625 10.4986 28.271 4.4278 25.5267 1.591C24.4563 0.484701 23.2646 0.0102776 22.1238 9.55939e-05L22.1237 0.000169336Z" fill="url(#paint0_linear_10727_16)"/>
<defs>
<linearGradient id="paint0_linear_10727_16" x1="17.5" y1="0" x2="17.5" y2="34" gradientUnits="userSpaceOnUse">
<stop stop-color="white"/>
<stop offset="1" stop-color="#C1C1C1"/>
</linearGradient>
</defs>
</svg>
