<svg width="48" height="39" viewBox="0 0 48 39" fill="none" xmlns="http://www.w3.org/2000/svg">
<path d="M27.3906 26.4141C27.948 31.3131 32.8462 31.9803 34.2934 31.9803C35.7409 31.9803 40.6391 31.3131 41.1957 26.4141C40.3055 27.1936 37.4109 28.5303 34.2934 28.5303C31.1762 28.5302 28.2816 27.1935 27.3906 26.4141Z" fill="url(#paint0_linear_10727_32)"/>
<path d="M29.1624 20.7001C30.3105 20.8241 31.37 21.1979 32.2952 21.7605C32.332 20.1102 31.0992 18.679 29.4277 18.4992C27.7651 18.3201 26.2636 19.4436 25.9375 21.0494C26.944 20.7113 28.0378 20.5797 29.1624 20.7001Z" fill="url(#paint1_linear_10727_32)"/>
<path d="M36.2899 21.7605C37.215 21.1979 38.275 20.8242 39.4223 20.7001C40.5477 20.5797 41.6406 20.7113 42.6472 21.0494C42.321 19.4436 40.8196 18.3201 39.1573 18.4992C37.4854 18.679 36.2527 20.1102 36.2899 21.7605Z" fill="url(#paint2_linear_10727_32)"/>
<path d="M47.7247 11.3601C47.7247 11.3601 47.7228 11.34 47.7213 11.3296L47.7194 11.3199L47.7176 11.3065C47.6292 10.6667 47.1603 10.151 46.5005 10.0842C45.9628 10.0291 45.42 10.3033 44.9039 10.4267C43.8403 10.6779 42.7617 10.8688 41.6831 11.0294C38.8773 11.447 36.0351 11.6402 33.1996 11.5733C30.9982 11.522 28.7954 11.3289 26.6197 10.9878C25.8083 7.62092 24.4741 2.10369 24.0962 0.54024C24.0197 0.222961 23.9628 -0.273383 23.3231 0.186588C22.8605 0.521681 18.2249 2.87945 12.2949 4.31281C6.36485 5.74616 1.16341 5.76406 0.598701 5.67864C-0.179669 5.55973 -0.00433522 6.02781 0.0726064 6.34509C0.478672 8.02512 1.98589 14.2624 2.76985 17.5022C4.68136 25.4174 13.2147 29.4507 18.0848 28.273C19.1332 28.0196 20.2222 27.4734 21.2674 26.6932C22.3196 30.9934 25.2903 34.7979 29.168 36.932C30.4189 37.62 31.7865 38.1424 33.2073 38.3334C34.6002 38.5221 35.9998 38.3178 37.3239 37.8652C39.9295 36.9736 42.2356 35.234 44.0038 33.1416C45.7273 31.1004 46.9631 28.6438 47.4705 26.0156C47.7042 24.8065 47.7361 23.5969 47.7361 22.3715V12.7644C47.7362 12.303 47.7748 11.8192 47.7247 11.3601ZM5.70352 12.6128C6.7628 12.7035 7.85621 12.5757 8.91987 12.1938C10.0069 11.8043 10.9508 11.1928 11.7168 10.4281C12.1397 12.0227 11.278 13.7043 9.69497 14.2705C8.12182 14.8353 6.39833 14.0967 5.70352 12.6128ZM20.8501 19.2588C19.5623 18.9928 17.7222 18.8866 15.9221 19.3227C13.2552 19.9669 11.0557 21.708 10.4546 22.558C9.9189 18.2534 13.97 16.67 15.2091 16.3697C16.1606 16.1393 18.9397 15.8258 20.8501 17.5475V19.2588ZM21.6215 10.2157C21.4413 10.582 21.1943 10.912 20.8899 11.1862C20.4229 11.6083 19.8263 11.898 19.1553 11.9864C17.4882 12.2035 15.9541 11.1015 15.6012 9.48757C16.6336 9.81903 17.7505 9.93188 18.896 9.78331C20.0169 9.63689 21.0487 9.25125 21.9488 8.68654C21.9693 9.23035 21.8504 9.75206 21.6215 10.2157ZM45.5656 21.9004C45.5656 23.0856 45.5806 24.2634 45.3717 25.436C45.1915 26.4495 44.8824 27.4363 44.4652 28.3756C44.46 28.3853 44.4548 28.3971 44.4499 28.409C44.4485 28.4134 44.4448 28.4187 44.4433 28.4253C44.4351 28.4424 44.428 28.4602 44.4199 28.4772C44.4051 28.5121 44.3883 28.5471 44.3716 28.5836C44.3761 28.5701 44.3831 28.559 44.3883 28.5448C43.3294 30.8432 41.6212 32.8502 39.5487 34.2954C38.4014 35.0965 37.1137 35.7497 35.7424 36.0617C34.4617 36.356 33.1978 36.2319 31.9587 35.8098C29.3636 34.9233 27.1061 33.0293 25.5227 30.8178C24.2836 29.0865 23.445 27.0803 23.1448 24.9818C23.0628 24.4127 23.0212 23.8345 23.0212 23.255V12.5007C24.3524 12.8283 25.7099 13.0698 27.0723 13.2533C27.941 13.3722 28.8141 13.4674 29.6824 13.5462C32.5915 13.8078 35.5157 13.8226 38.4264 13.5863C40.8195 13.3924 43.2307 13.0736 45.5657 12.4992V21.9004H45.5656Z" fill="url(#paint3_linear_10727_32)"/>
<defs>
<linearGradient id="paint0_linear_10727_32" x1="34.2932" y1="26.4141" x2="34.2932" y2="31.9803" gradientUnits="userSpaceOnUse">
<stop stop-color="white"/>
<stop offset="1" stop-color="#B3B3B3"/>
</linearGradient>
<linearGradient id="paint1_linear_10727_32" x1="29.1168" y1="18.4805" x2="29.1168" y2="21.7605" gradientUnits="userSpaceOnUse">
<stop stop-color="white"/>
<stop offset="1" stop-color="#B3B3B3"/>
</linearGradient>
<linearGradient id="paint2_linear_10727_32" x1="39.4681" y1="18.4805" x2="39.4681" y2="21.7605" gradientUnits="userSpaceOnUse">
<stop stop-color="white"/>
<stop offset="1" stop-color="#B3B3B3"/>
</linearGradient>
<linearGradient id="paint3_linear_10727_32" x1="23.8752" y1="0" x2="23.8752" y2="38.4035" gradientUnits="userSpaceOnUse">
<stop stop-color="white"/>
<stop offset="1" stop-color="#B3B3B3"/>
</linearGradient>
</defs>
</svg>
