<svg width="43" height="19" viewBox="0 0 43 19" fill="none" xmlns="http://www.w3.org/2000/svg">
<path d="M42.6121 0.403269C42.0744 -0.134423 41.2679 -0.134423 40.7302 0.403269C38.3106 2.68846 35.2189 4.03269 31.9927 4.03269H11.0227C7.66212 4.03269 4.57039 2.68846 2.28519 0.403269C1.7475 -0.134423 0.940962 -0.134423 0.403269 0.403269C-0.134423 0.940962 -0.134423 1.7475 0.403269 2.28519C3.22615 5.10808 6.99 6.72116 11.0227 6.72116H31.8583C35.891 6.72116 39.6548 5.10808 42.4777 2.28519C43.1498 1.7475 43.1498 0.940962 42.6121 0.403269Z" fill="url(#paint0_linear_10727_75)"/>
<path d="M9.41208 8.06445C6.45477 8.06445 4.03516 10.4841 4.03516 13.4414C4.03516 16.3987 6.45477 18.8183 9.41208 18.8183C12.3694 18.8183 14.789 16.3987 14.789 13.4414C14.789 10.4841 12.3694 8.06445 9.41208 8.06445ZM9.41208 14.7856C8.60554 14.7856 8.06785 14.1135 8.06785 13.4414C8.06785 12.7693 8.73997 12.0971 9.41208 12.0971C10.0842 12.0971 10.7563 12.7693 10.7563 13.4414C10.7563 14.1135 10.2186 14.7856 9.41208 14.7856Z" fill="url(#paint1_linear_10727_75)"/>
<path d="M33.6074 8.06445C30.6501 8.06445 28.2305 10.4841 28.2305 13.4414C28.2305 16.3987 30.6501 18.8183 33.6074 18.8183C36.5647 18.8183 38.9843 16.3987 38.9843 13.4414C38.9843 10.4841 36.5647 8.06445 33.6074 8.06445ZM33.6074 14.7856C32.8009 14.7856 32.2632 14.1135 32.2632 13.4414C32.2632 12.7693 32.9353 12.0971 33.6074 12.0971C34.2795 12.0971 34.9516 12.7693 34.9516 13.4414C34.9516 14.1135 34.4139 14.7856 33.6074 14.7856Z" fill="url(#paint2_linear_10727_75)"/>
<defs>
<linearGradient id="paint0_linear_10727_75" x1="21.5" y1="0" x2="21.5" y2="6.72116" gradientUnits="userSpaceOnUse">
<stop stop-color="white"/>
<stop offset="1" stop-color="#B0B0B0"/>
</linearGradient>
<linearGradient id="paint1_linear_10727_75" x1="9.41208" y1="8.06445" x2="9.41208" y2="18.8183" gradientUnits="userSpaceOnUse">
<stop stop-color="white"/>
<stop offset="1" stop-color="#B0B0B0"/>
</linearGradient>
<linearGradient id="paint2_linear_10727_75" x1="33.6074" y1="8.06445" x2="33.6074" y2="18.8183" gradientUnits="userSpaceOnUse">
<stop stop-color="white"/>
<stop offset="1" stop-color="#B0B0B0"/>
</linearGradient>
</defs>
</svg>
