<svg width="23" height="35" viewBox="0 0 23 35" fill="none" xmlns="http://www.w3.org/2000/svg">
<path d="M19.8154 11.3644C19.4762 11.3644 19.1493 11.4183 18.8424 11.5171V5.95633C18.8424 4.20039 17.4138 2.77178 15.6578 2.77178C15.3143 2.77178 14.9837 2.82706 14.6735 2.92822C14.5423 1.29178 13.1697 0 11.5 0C9.83042 0 8.45778 1.29178 8.32657 2.92822C8.01644 2.82717 7.68578 2.77178 7.34228 2.77178C5.58633 2.77178 4.15772 4.20039 4.15772 5.95633V7.08215C3.85081 6.9834 3.52393 6.9295 3.18467 6.9295C1.42861 6.9295 0 8.35811 0 10.1141V22.5636C0 28.9048 5.15888 34.0637 11.5001 34.0637C17.8412 34.0637 23 28.9048 23 22.5637V14.549C23 12.793 21.5714 11.3644 19.8154 11.3644ZM20.5333 24.6117C20.3032 25.6261 19.9314 26.5847 19.3987 27.4439C18.6947 27.1263 18.3301 26.3186 18.5794 25.5705C18.8454 24.7721 19.7349 24.3458 20.5333 24.6117ZM17.2849 29.8228C16.3476 29.2693 15.6506 28.4153 15.2792 27.4311H17.281C17.5411 27.9496 17.9469 28.3947 18.4643 28.7C18.1046 29.1077 17.7099 29.4835 17.2849 29.8228ZM14.9771 25.8831C14.9639 25.3542 15.04 24.8211 15.2167 24.2909C15.4661 23.5426 15.8873 22.8994 16.421 22.3886C16.4228 22.3904 16.4244 22.3925 16.4263 22.3944L17.8833 23.8515C17.5414 24.1832 17.2714 24.5986 17.1108 25.0809C17.0222 25.3466 16.9728 25.616 16.9581 25.8831H14.9771ZM19.2913 23.07L17.7256 21.5043C18.6595 21.0779 19.7332 20.9543 20.7885 21.2125C20.7885 21.2125 20.7831 22.9034 20.774 23.0718C20.2734 22.9461 19.7661 22.9521 19.2913 23.07ZM2.2115 20.273C6.09752 20.273 9.30364 23.4346 9.30364 27.3206C9.30364 28.713 8.89028 30.0675 8.12827 31.216C6.98616 30.7694 5.95392 30.1034 5.08272 29.2693C5.47898 28.704 5.69472 28.0274 5.69472 27.3315C5.69472 25.4694 4.17986 23.9547 2.31794 23.9547C2.31725 23.9547 2.31656 23.9548 2.31599 23.9548C2.24752 23.5009 2.2115 23.0365 2.2115 22.5638V20.273ZM2.70514 25.5449C3.52806 25.7231 4.14671 26.456 4.14671 27.3315C4.14671 27.5763 4.09602 27.8161 4.00277 28.0383C3.45122 27.2849 3.01137 26.4457 2.70514 25.5449ZM11.5 31.8522C10.6431 31.8522 9.67019 31.6703 9.67019 31.6703C10.4388 30.3599 10.8518 28.859 10.8518 27.3207C10.8518 22.581 6.95118 18.7249 2.2115 18.7249V11.1857C2.26048 11.2142 2.31668 11.2317 2.37712 11.2317C2.56074 11.2317 2.70881 11.0836 2.70881 10.9C2.70881 10.7165 2.56063 10.5684 2.37712 10.5684C2.31656 10.5684 2.26048 10.5859 2.2115 10.6143V10.1143C2.2115 9.57775 2.64814 9.14123 3.18467 9.14123C3.7212 9.14123 4.15772 9.57775 4.15772 10.1143V10.5695C4.15382 10.5694 4.15027 10.5684 4.14637 10.5684C3.96389 10.5684 3.81468 10.7165 3.81468 10.9C3.81468 11.0836 3.96389 11.2317 4.14637 11.2317C4.15027 11.2317 4.15382 11.2307 4.15772 11.2306V14.7149C4.15772 15.3256 4.65285 15.8207 5.26347 15.8207C5.8741 15.8207 6.36923 15.3256 6.36923 14.7149V7.58107C6.37473 7.5813 6.37989 7.58267 6.38551 7.58267C6.56913 7.58267 6.7172 7.43449 6.7172 7.25098C6.7172 7.06736 6.56902 6.91929 6.38551 6.91929C6.37989 6.91929 6.37473 6.92067 6.36923 6.9209V5.95645C6.36923 5.41991 6.80575 4.98339 7.34228 4.98339C7.87881 4.98339 8.31533 5.41991 8.31533 5.95645V6.96219C8.26762 6.93558 8.21337 6.91918 8.15476 6.91918C7.97114 6.91918 7.82307 7.06736 7.82307 7.25087C7.82307 7.43449 7.97125 7.58256 8.15476 7.58256C8.21337 7.58256 8.26762 7.56616 8.31533 7.53955V13.4166C8.31533 14.0273 8.81046 14.5224 9.42108 14.5224C10.0317 14.5224 10.5268 14.0273 10.5268 13.4166V5.30969C10.5466 5.31336 10.5666 5.31577 10.5874 5.31577C10.771 5.31577 10.9191 5.16759 10.9191 4.98408C10.9191 4.80046 10.7709 4.65239 10.5874 4.65239C10.5666 4.65239 10.5466 4.6548 10.5268 4.65847V3.18467C10.5268 2.64814 10.9634 2.21162 11.4999 2.21162C12.0364 2.21162 12.4731 2.64814 12.4731 3.18467V4.67441C12.4367 4.66076 12.3978 4.65239 12.3566 4.65239C12.1742 4.65239 12.0249 4.80057 12.0249 4.98408C12.0249 5.16771 12.1742 5.31577 12.3566 5.31577C12.3978 5.31577 12.4367 5.3074 12.4731 5.29375V13.4167C12.4731 14.0274 12.9682 14.5225 13.5788 14.5225C14.1894 14.5225 14.6846 14.0274 14.6846 13.4167V7.50124C14.7427 7.55136 14.8175 7.58267 14.8998 7.58267C15.0835 7.58267 15.2315 7.43449 15.2315 7.25098C15.2315 7.06736 15.0833 6.91929 14.8998 6.91929C14.8174 6.91929 14.7427 6.9506 14.6846 7.00072V5.95656C14.6846 5.42003 15.1211 4.98351 15.6576 4.98351C16.1941 4.98351 16.6307 5.42003 16.6307 5.95656V6.92319C16.4663 6.94246 16.3374 7.08066 16.3374 7.25098C16.3374 7.4213 16.4663 7.55951 16.6307 7.57877V18.198C16.6307 18.8087 17.1258 19.3038 17.7364 19.3038C18.347 19.3038 18.8422 18.8087 18.8422 18.198V16.6683C18.8872 16.6911 18.9374 16.7052 18.9911 16.7052C19.1748 16.7052 19.3228 16.557 19.3228 16.3735C19.3228 16.19 19.1747 16.0418 18.9911 16.0418C18.9374 16.0418 18.8872 16.0559 18.8422 16.0788V14.549C18.8422 14.0125 19.2787 13.5759 19.8152 13.5759C20.3517 13.5759 20.7883 14.0125 20.7883 14.549V16.0446C20.779 16.0438 20.7699 16.0418 20.7604 16.0418C20.5768 16.0418 20.4287 16.19 20.4287 16.3735C20.4287 16.557 20.5769 16.7052 20.7604 16.7052C20.7699 16.7052 20.7789 16.7031 20.7883 16.7025V19.629C19.4651 19.3864 18.1053 19.5767 16.8808 20.1889C15.3882 20.9353 14.2756 22.2181 13.748 23.8012C12.8819 26.3994 13.8259 29.171 15.8907 30.7463C14.5825 31.4512 13.2417 31.8522 11.5 31.8522Z" fill="url(#paint0_linear_10730_87)"/>
<path d="M4.3868 17.1719C4.08378 17.1276 3.80404 17.3378 3.75977 17.6397C3.71561 17.9426 3.92562 18.2224 4.2276 18.2666C4.25524 18.2699 4.28185 18.2722 4.30835 18.2722C4.5781 18.2722 4.81471 18.0742 4.85451 17.7988C4.89878 17.4971 4.68867 17.2162 4.3868 17.1719Z" fill="url(#paint1_linear_10730_87)"/>
<path d="M2.98262 17.0723C2.67742 17.0723 2.42969 17.32 2.42969 17.6252C2.43072 17.9305 2.67846 18.1781 2.98365 18.1781C3.28896 18.1771 3.53659 17.9294 3.53659 17.6242C3.53555 17.3189 3.28782 17.0711 2.98262 17.0723Z" fill="url(#paint2_linear_10730_87)"/>
<path d="M5.75915 17.4749C5.46611 17.3864 5.15862 17.5534 5.07019 17.8452C4.98279 18.1382 5.14864 18.4457 5.44179 18.5342C5.49478 18.5496 5.54788 18.5573 5.60099 18.5573C5.83874 18.5573 6.05769 18.4025 6.1296 18.1626C6.21803 17.8708 6.05104 17.5623 5.75915 17.4749Z" fill="url(#paint3_linear_10730_87)"/>
<path d="M11.9463 25.1574C11.6433 25.1907 11.4233 25.4627 11.4564 25.7668C11.4862 26.0498 11.7262 26.26 12.0049 26.26C12.0247 26.26 12.0447 26.2588 12.0646 26.2577C12.3687 26.2245 12.5876 25.9514 12.5555 25.6484C12.5224 25.3444 12.2504 25.1253 11.9463 25.1574Z" fill="url(#paint4_linear_10730_87)"/>
<path d="M11.6288 23.8673C11.3336 23.9446 11.1556 24.2466 11.2329 24.5418C11.297 24.7906 11.5216 24.9565 11.767 24.9565C11.8135 24.9565 11.8599 24.9498 11.9064 24.9376C12.2016 24.8613 12.3796 24.5595 12.3033 24.2643C12.226 23.9679 11.924 23.7911 11.6288 23.8673Z" fill="url(#paint5_linear_10730_87)"/>
<path d="M11.8132 29.1199C11.519 29.038 11.2139 29.2116 11.1332 29.5058C11.0524 29.8 11.2248 30.1051 11.519 30.1858C11.5688 30.1991 11.6185 30.2058 11.6672 30.2058C11.9094 30.2058 12.1316 30.0443 12.1991 29.8C12.2799 29.5048 12.1074 29.2006 11.8132 29.1199Z" fill="url(#paint6_linear_10730_87)"/>
<path d="M10.3877 20.541C10.1931 20.3066 9.84372 20.2744 9.60917 20.4692C9.37474 20.6649 9.34262 21.0132 9.5384 21.2488C9.64794 21.3792 9.80495 21.4478 9.963 21.4478C10.0879 21.4478 10.2129 21.4058 10.3168 21.3195C10.5514 21.1237 10.5834 20.7754 10.3877 20.541Z" fill="url(#paint7_linear_10730_87)"/>
<path d="M9.4101 19.5288C9.4101 19.5277 9.4101 19.5277 9.4101 19.5277C9.18335 19.3242 8.83285 19.343 8.62938 19.5709C8.42592 19.7976 8.44473 20.1481 8.67136 20.3515C8.77757 20.4466 8.90912 20.4931 9.04067 20.4931C9.19218 20.4931 9.34369 20.4311 9.45322 20.3094C9.65657 20.0817 9.63776 19.7322 9.4101 19.5288Z" fill="url(#paint8_linear_10730_87)"/>
<path d="M11.2087 21.6828C11.0494 21.4218 10.71 21.3401 10.449 21.4991C10.1879 21.6573 10.105 21.9979 10.2654 22.2589C10.3694 22.4292 10.5507 22.5232 10.7375 22.5232C10.836 22.5232 10.9342 22.4978 11.025 22.4425C11.285 22.2832 11.3679 21.9427 11.2087 21.6828Z" fill="url(#paint9_linear_10730_87)"/>
<path d="M7.07296 17.9782C6.79655 17.8488 6.46692 17.9672 6.33755 18.2436C6.20818 18.52 6.32654 18.8495 6.60295 18.9789C6.67933 19.0153 6.75893 19.032 6.83738 19.032C7.0452 19.032 7.24431 18.9136 7.33939 18.7136C7.46888 18.4372 7.34937 18.1075 7.07296 17.9782Z" fill="url(#paint10_linear_10730_87)"/>
<path d="M11.3381 23.702C11.41 23.702 11.4841 23.6875 11.5537 23.6577C11.8346 23.5383 11.9662 23.2132 11.8467 22.9323C11.7273 22.6515 11.4033 22.521 11.1224 22.6394C10.8405 22.7587 10.7099 23.0838 10.8295 23.3647C10.919 23.5748 11.1235 23.702 11.3381 23.702Z" fill="url(#paint11_linear_10730_87)"/>
<path d="M12.0686 26.4807C11.7623 26.4719 11.508 26.713 11.5002 27.017C11.4915 27.3232 11.7325 27.5765 12.0377 27.5853C12.0432 27.5853 12.0477 27.5853 12.0532 27.5853C12.3507 27.5853 12.5973 27.3477 12.6049 27.048C12.6138 26.7428 12.3727 26.4885 12.0686 26.4807Z" fill="url(#paint12_linear_10730_87)"/>
<path d="M11.4495 30.395C11.1676 30.2789 10.8447 30.4149 10.7285 30.697C10.6135 30.9801 10.7484 31.3029 11.0316 31.418C11.1002 31.4466 11.1709 31.4599 11.2405 31.4599C11.4583 31.4599 11.6651 31.3295 11.7525 31.116C11.8686 30.8329 11.7327 30.51 11.4495 30.395Z" fill="url(#paint13_linear_10730_87)"/>
<path d="M8.2996 18.6667C8.04533 18.4975 7.70251 18.5671 7.53334 18.8214C7.3652 19.0758 7.43379 19.4186 7.68932 19.5878C7.78325 19.6497 7.88946 19.6795 7.99337 19.6795C8.17252 19.6795 8.34834 19.5933 8.45558 19.4318C8.62361 19.1775 8.55387 18.8346 8.2996 18.6667Z" fill="url(#paint14_linear_10730_87)"/>
<path d="M12.0185 27.8066C11.7166 27.7625 11.4358 27.9725 11.3926 28.2745C11.3484 28.5763 11.5584 28.8571 11.8604 28.9004C11.887 28.9048 11.9134 28.907 11.94 28.907C12.2109 28.907 12.4465 28.708 12.4874 28.4326C12.4864 28.4326 12.4864 28.4326 12.4864 28.4326C12.5304 28.1308 12.3204 27.8499 12.0185 27.8066Z" fill="url(#paint15_linear_10730_87)"/>
<path d="M7.14346 26.1737C6.71784 26.2169 6.40713 26.595 6.44911 27.0207C6.4888 27.4199 6.82611 27.7184 7.2187 27.7184C7.24405 27.7184 7.27065 27.7174 7.296 27.7139C7.72174 27.672 8.03244 27.2927 7.98932 26.8669C7.98932 26.8681 7.98932 26.8681 7.98932 26.8681C7.94746 26.4424 7.56817 26.1316 7.14346 26.1737Z" fill="url(#paint16_linear_10730_87)"/>
<path d="M6.20439 24.214C5.83049 24.4208 5.69458 24.892 5.90137 25.2668H5.9024C6.0429 25.5222 6.30715 25.666 6.58023 25.666C6.7064 25.666 6.83577 25.635 6.95402 25.5686C7.3278 25.362 7.46383 24.8908 7.25589 24.517C7.25692 24.517 7.25692 24.517 7.25692 24.517C7.04921 24.1422 6.57817 24.0073 6.20439 24.214Z" fill="url(#paint17_linear_10730_87)"/>
<path d="M5.65627 22.6465C5.31908 22.3833 4.83358 22.4431 4.57036 22.7803C4.30714 23.1175 4.3669 23.6041 4.70409 23.8672C4.84562 23.9778 5.01365 24.0309 5.17961 24.0309C5.41083 24.0309 5.63861 23.928 5.79115 23.7323C6.05322 23.3951 5.99347 22.9096 5.65627 22.6465Z" fill="url(#paint18_linear_10730_87)"/>
<path d="M7.23224 28.3464C6.82416 28.2182 6.38959 28.4448 6.26137 28.8528H6.2624C6.13417 29.2608 6.36092 29.6954 6.76888 29.8226C6.84527 29.8469 6.92372 29.8591 6.99999 29.8591C7.32961 29.8591 7.6347 29.6468 7.73872 29.3161C7.86706 28.908 7.6402 28.4735 7.23224 28.3464Z" fill="url(#paint19_linear_10730_87)"/>
<path d="M3.45133 21.5508C3.03775 21.4425 2.61419 21.6902 2.50592 22.1038C2.39754 22.5172 2.64528 22.9408 3.05886 23.0492C3.12515 23.0658 3.19041 23.0745 3.25555 23.0745C3.59837 23.0745 3.9124 22.8434 4.00427 22.4963C4.11254 22.0827 3.86492 21.6591 3.45133 21.5508Z" fill="url(#paint20_linear_10730_87)"/>
<path d="M15.1491 18.2532C15.577 18.2532 15.9231 17.9059 15.9231 17.4791C15.9231 17.0512 15.577 16.7051 15.1491 16.7051C14.7222 16.7051 14.375 17.0512 14.375 17.4791C14.375 17.9059 14.7222 18.2532 15.1491 18.2532Z" fill="url(#paint21_linear_10730_87)"/>
<path d="M13.8216 17.4791C13.8216 17.0512 13.4754 16.7051 13.0475 16.7051C12.6206 16.7051 12.2734 17.0512 12.2734 17.4791C12.2734 17.9059 12.6206 18.2532 13.0475 18.2532C13.4754 18.2532 13.8216 17.9059 13.8216 17.4791Z" fill="url(#paint22_linear_10730_87)"/>
<path d="M10.9459 18.2532C11.3739 18.2532 11.72 17.9059 11.72 17.4791C11.72 17.0512 11.3739 16.7051 10.9459 16.7051C10.519 16.7051 10.1719 17.0512 10.1719 17.4791C10.1719 17.9059 10.519 18.2532 10.9459 18.2532Z" fill="url(#paint23_linear_10730_87)"/>
<path d="M3.26138 10.5684C3.07776 10.5684 2.92969 10.7165 2.92969 10.9001C2.92969 11.0836 3.07787 11.2317 3.26138 11.2317C3.44489 11.2317 3.59307 11.0836 3.59307 10.9001C3.59307 10.7165 3.445 10.5684 3.26138 10.5684Z" fill="url(#paint24_linear_10730_87)"/>
<path d="M7.26919 7.5833C7.45281 7.5833 7.60088 7.43512 7.60088 7.25161C7.60088 7.06799 7.4527 6.91992 7.26919 6.91992C7.08672 6.91992 6.9375 7.0681 6.9375 7.25161C6.93739 7.43512 7.0866 7.5833 7.26919 7.5833Z" fill="url(#paint25_linear_10730_87)"/>
<path d="M15.7848 7.5833C15.9684 7.5833 16.1165 7.43512 16.1165 7.25161C16.1165 7.06799 15.9683 6.91992 15.7848 6.91992C15.6013 6.91992 15.4531 7.0681 15.4531 7.25161C15.453 7.43512 15.6012 7.5833 15.7848 7.5833Z" fill="url(#paint26_linear_10730_87)"/>
<path d="M19.8747 16.7044C20.0583 16.7044 20.2064 16.5562 20.2064 16.3727C20.2064 16.1892 20.0582 16.041 19.8747 16.041C19.6922 16.041 19.543 16.1892 19.543 16.3727C19.543 16.5562 19.6922 16.7044 19.8747 16.7044Z" fill="url(#paint27_linear_10730_87)"/>
<path d="M11.4723 5.31573C11.6559 5.31573 11.804 5.16754 11.804 4.98404C11.804 4.80041 11.6558 4.65234 11.4723 4.65234C11.2898 4.65234 11.1406 4.80053 11.1406 4.98404C11.1406 5.16754 11.2898 5.31573 11.4723 5.31573Z" fill="url(#paint28_linear_10730_87)"/>
<defs>
<linearGradient id="paint0_linear_10730_87" x1="11.5" y1="0" x2="11.5" y2="34.0637" gradientUnits="userSpaceOnUse">
<stop stop-color="white"/>
<stop offset="1" stop-color="#B1B1B1"/>
</linearGradient>
<linearGradient id="paint1_linear_10730_87" x1="4.30715" y1="17.166" x2="4.30715" y2="18.2722" gradientUnits="userSpaceOnUse">
<stop stop-color="white"/>
<stop offset="1" stop-color="#B1B1B1"/>
</linearGradient>
<linearGradient id="paint2_linear_10730_87" x1="2.98314" y1="17.0723" x2="2.98314" y2="18.1781" gradientUnits="userSpaceOnUse">
<stop stop-color="white"/>
<stop offset="1" stop-color="#B1B1B1"/>
</linearGradient>
<linearGradient id="paint3_linear_10730_87" x1="5.60008" y1="17.4512" x2="5.60008" y2="18.5573" gradientUnits="userSpaceOnUse">
<stop stop-color="white"/>
<stop offset="1" stop-color="#B1B1B1"/>
</linearGradient>
<linearGradient id="paint4_linear_10730_87" x1="12.0059" y1="25.1543" x2="12.0059" y2="26.26" gradientUnits="userSpaceOnUse">
<stop stop-color="white"/>
<stop offset="1" stop-color="#B1B1B1"/>
</linearGradient>
<linearGradient id="paint5_linear_10730_87" x1="11.7679" y1="23.8496" x2="11.7679" y2="24.9565" gradientUnits="userSpaceOnUse">
<stop stop-color="white"/>
<stop offset="1" stop-color="#B1B1B1"/>
</linearGradient>
<linearGradient id="paint6_linear_10730_87" x1="11.6661" y1="29.0996" x2="11.6661" y2="30.2058" gradientUnits="userSpaceOnUse">
<stop stop-color="white"/>
<stop offset="1" stop-color="#B1B1B1"/>
</linearGradient>
<linearGradient id="paint7_linear_10730_87" x1="9.96302" y1="20.3418" x2="9.96302" y2="21.4478" gradientUnits="userSpaceOnUse">
<stop stop-color="white"/>
<stop offset="1" stop-color="#B1B1B1"/>
</linearGradient>
<linearGradient id="paint8_linear_10730_87" x1="9.0412" y1="19.3867" x2="9.0412" y2="20.4931" gradientUnits="userSpaceOnUse">
<stop stop-color="white"/>
<stop offset="1" stop-color="#B1B1B1"/>
</linearGradient>
<linearGradient id="paint9_linear_10730_87" x1="10.7366" y1="21.418" x2="10.7366" y2="22.5232" gradientUnits="userSpaceOnUse">
<stop stop-color="white"/>
<stop offset="1" stop-color="#B1B1B1"/>
</linearGradient>
<linearGradient id="paint10_linear_10730_87" x1="6.8384" y1="17.9258" x2="6.8384" y2="19.032" gradientUnits="userSpaceOnUse">
<stop stop-color="white"/>
<stop offset="1" stop-color="#B1B1B1"/>
</linearGradient>
<linearGradient id="paint11_linear_10730_87" x1="11.338" y1="22.5957" x2="11.338" y2="23.702" gradientUnits="userSpaceOnUse">
<stop stop-color="white"/>
<stop offset="1" stop-color="#B1B1B1"/>
</linearGradient>
<linearGradient id="paint12_linear_10730_87" x1="12.0526" y1="26.4805" x2="12.0526" y2="27.5853" gradientUnits="userSpaceOnUse">
<stop stop-color="white"/>
<stop offset="1" stop-color="#B1B1B1"/>
</linearGradient>
<linearGradient id="paint13_linear_10730_87" x1="11.2408" y1="30.3535" x2="11.2408" y2="31.4599" gradientUnits="userSpaceOnUse">
<stop stop-color="white"/>
<stop offset="1" stop-color="#B1B1B1"/>
</linearGradient>
<linearGradient id="paint14_linear_10730_87" x1="7.99427" y1="18.5742" x2="7.99427" y2="19.6795" gradientUnits="userSpaceOnUse">
<stop stop-color="white"/>
<stop offset="1" stop-color="#B1B1B1"/>
</linearGradient>
<linearGradient id="paint15_linear_10730_87" x1="11.9395" y1="27.8008" x2="11.9395" y2="28.907" gradientUnits="userSpaceOnUse">
<stop stop-color="white"/>
<stop offset="1" stop-color="#B1B1B1"/>
</linearGradient>
<linearGradient id="paint16_linear_10730_87" x1="7.21931" y1="26.1699" x2="7.21931" y2="27.7184" gradientUnits="userSpaceOnUse">
<stop stop-color="white"/>
<stop offset="1" stop-color="#B1B1B1"/>
</linearGradient>
<linearGradient id="paint17_linear_10730_87" x1="6.57901" y1="24.1172" x2="6.57901" y2="25.666" gradientUnits="userSpaceOnUse">
<stop stop-color="white"/>
<stop offset="1" stop-color="#B1B1B1"/>
</linearGradient>
<linearGradient id="paint18_linear_10730_87" x1="5.18029" y1="22.4824" x2="5.18029" y2="24.0309" gradientUnits="userSpaceOnUse">
<stop stop-color="white"/>
<stop offset="1" stop-color="#B1B1B1"/>
</linearGradient>
<linearGradient id="paint19_linear_10730_87" x1="7.00058" y1="28.3105" x2="7.00058" y2="29.8591" gradientUnits="userSpaceOnUse">
<stop stop-color="white"/>
<stop offset="1" stop-color="#B1B1B1"/>
</linearGradient>
<linearGradient id="paint20_linear_10730_87" x1="3.25508" y1="21.5254" x2="3.25508" y2="23.0745" gradientUnits="userSpaceOnUse">
<stop stop-color="white"/>
<stop offset="1" stop-color="#B1B1B1"/>
</linearGradient>
<linearGradient id="paint21_linear_10730_87" x1="15.1491" y1="16.7051" x2="15.1491" y2="18.2532" gradientUnits="userSpaceOnUse">
<stop stop-color="white"/>
<stop offset="1" stop-color="#B1B1B1"/>
</linearGradient>
<linearGradient id="paint22_linear_10730_87" x1="13.0475" y1="16.7051" x2="13.0475" y2="18.2532" gradientUnits="userSpaceOnUse">
<stop stop-color="white"/>
<stop offset="1" stop-color="#B1B1B1"/>
</linearGradient>
<linearGradient id="paint23_linear_10730_87" x1="10.9459" y1="16.7051" x2="10.9459" y2="18.2532" gradientUnits="userSpaceOnUse">
<stop stop-color="white"/>
<stop offset="1" stop-color="#B1B1B1"/>
</linearGradient>
<linearGradient id="paint24_linear_10730_87" x1="3.26138" y1="10.5684" x2="3.26138" y2="11.2317" gradientUnits="userSpaceOnUse">
<stop stop-color="white"/>
<stop offset="1" stop-color="#B1B1B1"/>
</linearGradient>
<linearGradient id="paint25_linear_10730_87" x1="7.26919" y1="6.91992" x2="7.26919" y2="7.5833" gradientUnits="userSpaceOnUse">
<stop stop-color="white"/>
<stop offset="1" stop-color="#B1B1B1"/>
</linearGradient>
<linearGradient id="paint26_linear_10730_87" x1="15.7848" y1="6.91992" x2="15.7848" y2="7.5833" gradientUnits="userSpaceOnUse">
<stop stop-color="white"/>
<stop offset="1" stop-color="#B1B1B1"/>
</linearGradient>
<linearGradient id="paint27_linear_10730_87" x1="19.8747" y1="16.041" x2="19.8747" y2="16.7044" gradientUnits="userSpaceOnUse">
<stop stop-color="white"/>
<stop offset="1" stop-color="#B1B1B1"/>
</linearGradient>
<linearGradient id="paint28_linear_10730_87" x1="11.4723" y1="4.65234" x2="11.4723" y2="5.31573" gradientUnits="userSpaceOnUse">
<stop stop-color="white"/>
<stop offset="1" stop-color="#B1B1B1"/>
</linearGradient>
</defs>
</svg>
