<svg width="26" height="35" viewBox="0 0 26 35" fill="none" xmlns="http://www.w3.org/2000/svg">
<path d="M26 21.875C26 29.1238 20.1798 35 13 35C5.82024 35 0 29.1238 0 21.875C0 16.4841 3.22516 11.8624 7.8286 9.84229L8.33733 10.2419L10.573 11.9974C6.1724 13.1023 2.88889 17.0949 2.88889 21.875C2.88889 27.5039 7.42473 32.0833 13 32.0833C18.5753 32.0833 23.1111 27.5039 23.1111 21.875C23.1111 17.0949 19.8276 13.1023 15.427 11.9974L18.1714 9.84258C22.7748 11.8627 26 16.4841 26 21.875ZM13 10.2083L20.2222 4.53688L17.3333 0H8.66667L5.77778 4.53688L10.1111 7.93975L13 10.2083Z" fill="url(#paint0_linear_10727_14)"/>
<defs>
<linearGradient id="paint0_linear_10727_14" x1="13" y1="0" x2="13" y2="35" gradientUnits="userSpaceOnUse">
<stop stop-color="white"/>
<stop offset="1" stop-color="#BABABA"/>
</linearGradient>
</defs>
</svg>
