<svg width="26" height="26" viewBox="0 0 26 26" fill="none" xmlns="http://www.w3.org/2000/svg">
<path d="M1.6252 6.54167C1.74369 6.54167 1.9045 6.52452 2.10762 6.49023L3.30097 7.69889C2.77624 8.02463 2.21765 8.1875 1.6252 8.1875C1.60828 8.1875 1.58289 8.18321 1.54903 8.17464L1.49825 8.16178L0.000217438 22.1771C-0.0167103 22.4 0.0425339 22.5928 0.17795 22.7557C0.313366 22.9186 0.491098 23 0.711149 23H5.50994C5.72999 23 5.92465 22.9186 6.09392 22.7557C6.26319 22.5928 6.35628 22.4 6.37321 22.1771L6.98258 16.4167H10.5626C11.7475 16.4167 12.7208 15.9881 13.4825 15.1309C14.2442 14.2737 14.6251 13.0564 14.6251 11.4792H23.5625C23.7826 11.4792 23.973 11.3977 24.1338 11.2349C24.2946 11.072 24.375 10.8791 24.375 10.6562V9.83333H25.1875C25.4076 9.83333 25.598 9.7519 25.7588 9.58903C25.9196 9.42616 26 9.23329 26 9.01042V5.71875C26 5.49588 25.9196 5.30301 25.7588 5.14014C25.598 4.97727 25.4076 4.89583 25.1875 4.89583H24.375V4.07292C24.375 3.85004 24.2946 3.65717 24.1338 3.4943C23.973 3.33143 23.7826 3.25 23.5625 3.25C23.3425 3.25 23.152 3.33143 22.9912 3.4943C22.8304 3.65717 22.75 3.85004 22.75 4.07292V4.89583H4.87518C4.87518 5.49588 4.71437 6.06163 4.39276 6.5931L2.9709 5.12728C2.73392 4.90441 2.46309 4.8444 2.1584 4.94727C1.93835 4.91298 1.76062 4.89583 1.6252 4.89583C1.16818 4.89583 0.783089 4.97727 0.46994 5.14014C0.156792 5.30301 0.000217438 5.49588 0.000217438 5.71875C0.000217438 5.94162 0.156792 6.13449 0.46994 6.29736C0.783089 6.46023 1.16818 6.54167 1.6252 6.54167ZM7.51578 11.4792H8.12515C8.12515 12.1306 8.26903 12.7435 8.55679 13.3179C8.84455 13.8922 9.24233 14.3679 9.75014 14.7451V11.4792H12.8478C12.9493 11.7535 13.0001 12.0278 13.0001 12.3021C13.0001 12.9878 12.7631 13.5707 12.2892 14.0508C11.8152 14.5308 11.2397 14.7708 10.5626 14.7708H7.16031L7.51578 11.4792Z" fill="url(#paint0_linear_12012_264)"/>
<defs>
<linearGradient id="paint0_linear_12012_264" x1="12.9987" y1="3.25" x2="12.9987" y2="23" gradientUnits="userSpaceOnUse">
<stop stop-color="white"/>
<stop offset="1" stop-color="#C4C2C2"/>
</linearGradient>
</defs>
</svg>
