<svg width="26" height="26" viewBox="0 0 26 26" fill="none" xmlns="http://www.w3.org/2000/svg">
<path d="M15.9063 2.00011C14.628 1.98813 13.4524 2.94452 13.0007 4.23594C12.5453 2.93327 11.3529 1.97285 10.0614 2.00157C9.35401 2.01733 8.6171 2.32966 7.95462 3.046C7.41762 3.62651 7.11832 4.39359 6.81194 5.16813C6.10967 6.25903 5.17023 7.07296 3.80829 7.39329C4.13602 7.70246 4.49324 7.86331 4.869 7.92991C4.20456 8.30961 3.29671 8.51945 2 8.4528C2.96108 9.72982 4.46463 10.1642 6.03945 10.1278C8.88204 10.0143 10.3208 8.5113 11.1631 6.98099L11.9224 7.42967C10.9679 9.16395 9.15312 10.8985 5.96341 11.0237C5.96332 11.0353 5.96341 11.0469 5.96341 11.0586C5.96341 11.3529 6.02521 11.7086 6.13598 12.1105L6.12428 12.0878L7.50541 17.6599L7.72194 15.7863C8.52229 17.3123 9.48557 18.9291 10.3686 20.3444L10.4447 18.107C10.7176 19.9751 11.4129 21.6686 12.2735 23.2957C12.7106 23.9508 12.9875 24.3521 12.9875 24.3521C12.9875 24.3521 13.313 23.8819 13.8243 23.1122C13.8276 23.1074 13.8314 23.1019 13.8346 23.097C14.8066 21.5052 15.6163 19.8347 16.0087 17.96L15.959 19.7759C16.3964 19.0645 16.8449 18.3165 17.2772 17.5613V18.9422L19.1749 13.8915C19.6373 12.8445 19.9479 11.924 20.0015 11.2556C16.9249 10.8716 14.795 9.22516 13.8068 7.42972L14.5662 6.98104C15.4886 8.65701 17.6815 10.3245 21.0417 10.428C21.7479 10.4134 22.4418 10.2522 23.1762 9.87921C22.4823 9.88494 21.8898 9.82683 21.3723 9.7125C22.4651 9.46337 23.4125 8.89784 24 7.87073C19.1993 8.90197 19.7703 4.9109 18.0453 3.04595C17.3726 2.31865 16.6235 2.00676 15.9064 2.00006L15.9063 2.00011Z" fill="url(#paint0_linear_12012_166)"/>
<defs>
<linearGradient id="paint0_linear_12012_166" x1="13" y1="2" x2="13" y2="24.3521" gradientUnits="userSpaceOnUse">
<stop stop-color="white"/>
<stop offset="0.0001" stop-color="white"/>
<stop offset="1" stop-color="#CCC9C9"/>
</linearGradient>
</defs>
</svg>
