<svg width="32" height="28" viewBox="0 0 32 28" fill="none" xmlns="http://www.w3.org/2000/svg">
<g filter="url(#filter0_d_12007_16)">
<path d="M12.4447 4.10982C12.3979 4.12344 12.3542 4.14631 12.316 4.17713C12.2779 4.20795 12.2461 4.24611 12.2224 4.28944C12.1988 4.33276 12.1838 4.3804 12.1782 4.42963C12.1726 4.47887 12.1767 4.52873 12.1901 4.57638C12.4277 5.41939 12.9285 6.1608 13.617 6.68858C14.3054 7.21637 15.144 7.50183 16.006 7.50183C16.868 7.50183 17.7066 7.21637 18.3951 6.68858C19.0835 6.1608 19.5844 5.41939 19.822 4.57638C19.8356 4.52866 19.8398 4.47868 19.8344 4.42929C19.829 4.37991 19.814 4.3321 19.7904 4.28861C19.7668 4.24511 19.735 4.2068 19.6967 4.17585C19.6585 4.14491 19.6147 4.12195 19.5677 4.10829C19.5208 4.09463 19.4716 4.09054 19.4231 4.09625C19.3746 4.10197 19.3276 4.11737 19.285 4.14159C19.2423 4.1658 19.2048 4.19835 19.1746 4.23736C19.1443 4.27637 19.1219 4.32107 19.1087 4.3689C18.9154 5.05424 18.5081 5.65697 17.9484 6.08601C17.3886 6.51505 16.7068 6.7471 16.006 6.7471C15.3052 6.7471 14.6234 6.51505 14.0637 6.08601C13.5039 5.65697 13.0966 5.05424 12.9033 4.3689C12.8763 4.27268 12.8128 4.19133 12.7268 4.14274C12.6408 4.09415 12.5393 4.08231 12.4447 4.10982Z" fill="url(#paint0_linear_12007_16)" fill-opacity="0.8" stroke="url(#paint1_linear_12007_16)" stroke-width="0.691289"/>
<path d="M22.8041 8.64058C22.7098 8.61196 22.6082 8.6226 22.5217 8.67016C22.4351 8.71772 22.3707 8.7983 22.3425 8.89419L21.8848 10.4535C21.8745 10.4886 21.8693 10.5249 21.8693 10.5615V22.242L10.1336 22.2143V10.532C10.1336 10.4955 10.1284 10.4591 10.1181 10.4241L9.66039 8.86471C9.64662 8.81703 9.62372 8.77259 9.59302 8.73394C9.56232 8.69529 9.52442 8.66318 9.4815 8.63947C9.43857 8.61576 9.39146 8.60091 9.34288 8.59577C9.29429 8.59063 9.24519 8.59531 9.19839 8.60953C9.15158 8.62375 9.108 8.64723 9.07014 8.67863C9.03228 8.71003 9.00089 8.74873 8.97777 8.7925C8.95465 8.83628 8.94026 8.88427 8.93542 8.93372C8.93058 8.98317 8.93539 9.0331 8.94957 9.08066L9.39178 10.5872V22.5908C9.39178 22.6907 9.43074 22.7866 9.50012 22.8573C9.5695 22.928 9.66362 22.9679 9.76185 22.9681L22.2393 22.9976H22.2402C22.3386 22.9976 22.4329 22.9578 22.5025 22.8871C22.572 22.8163 22.6111 22.7203 22.6111 22.6202V10.6167L23.0533 9.11014C23.0815 9.01424 23.071 8.9109 23.0243 8.82284C22.9775 8.73478 22.8983 8.66922 22.8041 8.64058Z" fill="url(#paint2_linear_12007_16)" fill-opacity="0.8" stroke="url(#paint3_linear_12007_16)" stroke-width="0.691289"/>
<path d="M28.8882 9.70721L23.8261 4.55573C23.7879 4.51685 23.7493 4.47849 23.7101 4.44065C22.5992 3.37844 21.1325 2.78629 19.6079 2.78447L19.235 2.78125H19.2319C19.1335 2.78084 19.039 2.82019 18.9691 2.89067C18.8993 2.96114 18.8598 3.05696 18.8594 3.15704C18.859 3.25713 18.8977 3.35328 18.9669 3.42434C19.0362 3.49541 19.1304 3.53557 19.2288 3.53598L19.6016 3.5392C20.9382 3.53962 22.2245 4.05762 23.1993 4.98799C23.2337 5.02122 23.2677 5.05498 23.3014 5.08927L28.1013 9.97401L24.8104 13.3221L23.702 12.1944C23.6324 12.1236 23.5381 12.0839 23.4397 12.0839C23.3413 12.0839 23.247 12.1236 23.1774 12.1944C23.1078 12.2652 23.0687 12.3612 23.0687 12.4612C23.0687 12.5613 23.1078 12.6573 23.1774 12.7281L24.5481 14.1226C24.5826 14.1576 24.6234 14.1854 24.6684 14.2044C24.7135 14.2234 24.7617 14.2331 24.8104 14.2331C24.8591 14.2331 24.9073 14.2234 24.9523 14.2044C24.9974 14.1854 25.0382 14.1576 25.0727 14.1226L28.8881 10.2409C28.9226 10.2059 28.9499 10.1643 28.9686 10.1185C28.9872 10.0727 28.9968 10.0236 28.9968 9.97406C28.9968 9.9245 28.9872 9.87543 28.9686 9.82964C28.9499 9.78386 28.9226 9.74225 28.8882 9.70721Z" fill="url(#paint4_linear_12007_16)" fill-opacity="0.8" stroke="url(#paint5_linear_12007_16)" stroke-width="0.691289"/>
<path d="M8.32073 12.1686L7.18637 13.3227L3.89544 9.97461L8.69534 5.08991C8.72899 5.05563 8.76302 5.02189 8.79743 4.9887C9.7722 4.05826 11.0586 3.54022 12.3952 3.53981L12.8371 3.53598C12.9355 3.53557 13.0297 3.49541 13.0989 3.42434C13.1682 3.35328 13.2069 3.25713 13.2065 3.15704C13.2061 3.05696 13.1666 2.96114 13.0967 2.89067C13.0269 2.82019 12.9324 2.78084 12.834 2.78125H12.8308L12.3889 2.78508C10.8643 2.7869 9.39754 3.3791 8.28661 4.44137C8.24755 4.47909 8.20893 4.51738 8.17073 4.55624L3.10862 9.70783C3.03906 9.7786 2.99999 9.87458 3 9.97466C3.00001 10.0747 3.03909 10.1707 3.10865 10.2415L6.9241 14.1232C6.95854 14.1582 6.99943 14.186 7.04444 14.205C7.08944 14.2239 7.13767 14.2337 7.18639 14.2337C7.2351 14.2337 7.28333 14.2239 7.32834 14.205C7.37334 14.186 7.41423 14.1582 7.44867 14.1232L8.84531 12.7023C8.91487 12.6315 8.95395 12.5355 8.95395 12.4355C8.95395 12.3354 8.91487 12.2394 8.84531 12.1686C8.77574 12.0978 8.6814 12.0581 8.58302 12.0581C8.48464 12.0581 8.39029 12.0978 8.32073 12.1686Z" fill="url(#paint6_linear_12007_16)" fill-opacity="0.8" stroke="url(#paint7_linear_12007_16)" stroke-width="0.691289"/>
</g>
<defs>
<filter id="filter0_d_12007_16" x="0.529207" y="2.4375" width="30.9416" height="25.1603" filterUnits="userSpaceOnUse" color-interpolation-filters="sRGB">
<feFlood flood-opacity="0" result="BackgroundImageFix"/>
<feColorMatrix in="SourceAlpha" type="matrix" values="0 0 0 0 0 0 0 0 0 0 0 0 0 0 0 0 0 0 127 0" result="hardAlpha"/>
<feOffset dy="2.12704"/>
<feGaussianBlur stdDeviation="1.06352"/>
<feComposite in2="hardAlpha" operator="out"/>
<feColorMatrix type="matrix" values="0 0 0 0 0 0 0 0 0 0 0 0 0 0 0 0 0 0 0.25 0"/>
<feBlend mode="normal" in2="BackgroundImageFix" result="effect1_dropShadow_12007_16"/>
<feBlend mode="normal" in="SourceGraphic" in2="effect1_dropShadow_12007_16" result="shape"/>
</filter>
<linearGradient id="paint0_linear_12007_16" x1="16.0062" y1="4.09375" x2="16.0062" y2="7.50183" gradientUnits="userSpaceOnUse">
<stop stop-color="white"/>
<stop offset="1" stop-color="#B8B8B8"/>
</linearGradient>
<linearGradient id="paint1_linear_12007_16" x1="16.0062" y1="4.09375" x2="16.0062" y2="7.50183" gradientUnits="userSpaceOnUse">
<stop stop-color="white"/>
<stop offset="1" stop-color="#B8B8B8"/>
</linearGradient>
<linearGradient id="paint2_linear_12007_16" x1="16.0012" y1="8.59375" x2="16.0012" y2="22.9976" gradientUnits="userSpaceOnUse">
<stop stop-color="white"/>
<stop offset="1" stop-color="#C7C7C7"/>
</linearGradient>
<linearGradient id="paint3_linear_12007_16" x1="16.0012" y1="8.59375" x2="16.0012" y2="22.9976" gradientUnits="userSpaceOnUse">
<stop stop-color="white"/>
<stop offset="1" stop-color="#B8B8B8"/>
<stop offset="1" stop-color="#B8B8B8"/>
</linearGradient>
<linearGradient id="paint4_linear_12007_16" x1="23.9281" y1="2.78125" x2="23.9281" y2="14.2331" gradientUnits="userSpaceOnUse">
<stop stop-color="white"/>
<stop offset="1" stop-color="#B8B8B8"/>
</linearGradient>
<linearGradient id="paint5_linear_12007_16" x1="23.9281" y1="2.78125" x2="23.9281" y2="14.2331" gradientUnits="userSpaceOnUse">
<stop stop-color="white"/>
<stop offset="1" stop-color="#B8B8B8"/>
</linearGradient>
<linearGradient id="paint6_linear_12007_16" x1="8.10324" y1="2.78125" x2="8.10324" y2="14.2337" gradientUnits="userSpaceOnUse">
<stop stop-color="white"/>
<stop offset="1" stop-color="#B8B8B8"/>
</linearGradient>
<linearGradient id="paint7_linear_12007_16" x1="8.10324" y1="2.78125" x2="8.10324" y2="14.2337" gradientUnits="userSpaceOnUse">
<stop stop-color="white"/>
<stop offset="1" stop-color="#B8B8B8"/>
</linearGradient>
</defs>
</svg>
