<svg width="26" height="26" viewBox="0 0 26 26" fill="none" xmlns="http://www.w3.org/2000/svg">
<path d="M1.62911 6.54167C1.7476 6.54167 1.90841 6.52452 2.11153 6.49023L3.30488 7.69889C2.78014 8.02463 2.22155 8.1875 1.62911 8.1875C1.61218 8.1875 1.58679 8.18321 1.55294 8.17464L1.50216 8.16178L0.00412369 22.1771C-0.0128033 22.4 0.0464406 22.5928 0.181856 22.7557C0.317272 22.9186 0.495005 23 0.715055 23H5.51384C5.73389 23 5.92855 22.9186 6.09782 22.7557C6.26709 22.5928 6.36019 22.4 6.37712 22.1771L6.98649 16.4167H10.5665C11.7514 16.4167 12.7247 15.9881 13.4864 15.1309C14.2481 14.2737 14.629 13.0564 14.629 11.4792H23.5664C23.7865 11.4792 23.9769 11.3977 24.1377 11.2349C24.2985 11.072 24.3789 10.8791 24.3789 10.6562V9.83333H25.1914C25.4115 9.83333 25.6019 9.7519 25.7627 9.58903C25.9235 9.42616 26.0039 9.23329 26.0039 9.01042V5.71875C26.0039 5.49588 25.9235 5.30301 25.7627 5.14014C25.6019 4.97727 25.4115 4.89583 25.1914 4.89583H24.3789V4.07292C24.3789 3.85004 24.2985 3.65717 24.1377 3.4943C23.9769 3.33143 23.7865 3.25 23.5664 3.25C23.3464 3.25 23.1559 3.33143 22.9951 3.4943C22.8343 3.65717 22.7539 3.85004 22.7539 4.07292V4.89583H4.87908C4.87908 5.49588 4.71828 6.06163 4.39667 6.5931L2.9748 5.12728C2.73782 4.90441 2.46699 4.8444 2.16231 4.94727C1.94226 4.91298 1.76453 4.89583 1.62911 4.89583C1.17208 4.89583 0.786995 4.97727 0.473846 5.14014C0.160698 5.30301 0.00412369 5.49588 0.00412369 5.71875C0.00412369 5.94162 0.160698 6.13449 0.473846 6.29736C0.786995 6.46023 1.17208 6.54167 1.62911 6.54167ZM7.51969 11.4792H8.12906C8.12906 12.1306 8.27293 12.7435 8.56069 13.3179C8.84845 13.8922 9.24623 14.3679 9.75404 14.7451V11.4792H12.8517C12.9532 11.7535 13.004 12.0278 13.004 12.3021C13.004 12.9878 12.767 13.5707 12.2931 14.0508C11.8191 14.5308 11.2436 14.7708 10.5665 14.7708H7.16422L7.51969 11.4792Z" fill="url(#paint0_linear_12012_264)"/>
<defs>
<linearGradient id="paint0_linear_12012_264" x1="13.0026" y1="3.25" x2="13.0026" y2="23" gradientUnits="userSpaceOnUse">
<stop stop-color="#F14444"/>
<stop offset="1" stop-color="#E00000"/>
</linearGradient>
</defs>
</svg>
