<svg width="26" height="26" viewBox="0 0 26 26" fill="none" xmlns="http://www.w3.org/2000/svg">
<path d="M23 5H3C1.89583 5 1 5.86384 1 6.92857V21.0714C1 22.1362 1.89583 23 3 23H23C24.1042 23 25 22.1362 25 21.0714V6.92857C25 5.86384 24.1042 5 23 5ZM23 21.0714H3V6.92857H23V21.0714ZM9.66667 14C11.1375 14 12.3333 12.8469 12.3333 11.4286C12.3333 10.0103 11.1375 8.85714 9.66667 8.85714C8.19583 8.85714 7 10.0103 7 11.4286C7 12.8469 8.19583 14 9.66667 14ZM5.93333 19.1429H13.4C13.9167 19.1429 14.3333 18.7973 14.3333 18.3714V17.6C14.3333 16.3223 13.0792 15.2857 11.5333 15.2857C11.0833 15.2857 10.7542 15.6071 9.66667 15.6071C8.54583 15.6071 8.275 15.2857 7.8 15.2857C6.25417 15.2857 5 16.3223 5 17.6V18.3714C5 18.7973 5.41667 19.1429 5.93333 19.1429ZM16 16.5714H20.6667C20.85 16.5714 21 16.4268 21 16.25V15.6071C21 15.4304 20.85 15.2857 20.6667 15.2857H16C15.8167 15.2857 15.6667 15.4304 15.6667 15.6071V16.25C15.6667 16.4268 15.8167 16.5714 16 16.5714ZM16 14H20.6667C20.85 14 21 13.8554 21 13.6786V13.0357C21 12.8589 20.85 12.7143 20.6667 12.7143H16C15.8167 12.7143 15.6667 12.8589 15.6667 13.0357V13.6786C15.6667 13.8554 15.8167 14 16 14ZM16 11.4286H20.6667C20.85 11.4286 21 11.2839 21 11.1071V10.4643C21 10.2875 20.85 10.1429 20.6667 10.1429H16C15.8167 10.1429 15.6667 10.2875 15.6667 10.4643V11.1071C15.6667 11.2839 15.8167 11.4286 16 11.4286Z" fill="url(#paint0_linear_12466_8)"/>
<defs>
<linearGradient id="paint0_linear_12466_8" x1="13" y1="5" x2="13" y2="23" gradientUnits="userSpaceOnUse">
<stop stop-color="white"/>
<stop offset="1" stop-color="#A4A4A4"/>
</linearGradient>
</defs>
</svg>
