<svg width="26" height="26" viewBox="0 0 26 26" fill="none" xmlns="http://www.w3.org/2000/svg">
<path d="M2 3H13.732V21.982H2V3ZM12.268 4.31881H3.46405V20.6631H12.268V4.31881ZM12.268 3H24V21.982H12.268V3ZM22.5359 4.31881H13.732V20.6631H22.536L22.5359 4.31881ZM11.1358 7.68611H4.59629V6.36732H11.1358L11.1358 7.68611ZM11.1358 11.0447H4.59629V9.72587H11.1358L11.1358 11.0447ZM21.4037 7.68611H14.8642V6.36732H21.4037L21.4037 7.68611ZM21.4037 11.0447H14.8642V9.72587H21.4037L21.4037 11.0447ZM11.1358 14.412H9.26178V13.0933H11.1358V14.412ZM21.4037 14.412H19.5395V13.0933H21.4037V14.412ZM5.32832 23.0018H3.86422V21.3226H5.32829L5.32832 23.0018ZM11.8678 23.0018H10.4038V21.3226H11.8678L11.8678 23.0018ZM15.5963 23.0018H14.1322V21.3226H15.5963V23.0018ZM22.1358 23.0018H20.6717V21.3226H22.1358L22.1358 23.0018Z" fill="url(#paint0_linear_12012_55)"/>
<defs>
<linearGradient id="paint0_linear_12012_55" x1="13" y1="3" x2="13" y2="23.0018" gradientUnits="userSpaceOnUse">
<stop stop-color="white"/>
<stop offset="1" stop-color="#B9B9B9"/>
</linearGradient>
</defs>
</svg>
