<svg width="26" height="26" viewBox="0 0 26 26" fill="none" xmlns="http://www.w3.org/2000/svg">
<path d="M13 10C12.4067 10 11.8266 10.1759 11.3333 10.5056C10.8399 10.8352 10.4554 11.3038 10.2284 11.8519C10.0013 12.4001 9.94189 13.0033 10.0576 13.5853C10.1734 14.1672 10.4591 14.7018 10.8787 15.1213C11.2982 15.5409 11.8328 15.8266 12.4147 15.9424C12.9967 16.0581 13.5999 15.9987 14.1481 15.7716C14.6962 15.5446 15.1648 15.1601 15.4944 14.6667C15.8241 14.1734 16 13.5933 16 13C16 12.2044 15.6839 11.4413 15.1213 10.8787C14.5587 10.3161 13.7956 10 13 10ZM13 14C12.8022 14 12.6089 13.9414 12.4444 13.8315C12.28 13.7216 12.1518 13.5654 12.0761 13.3827C12.0004 13.2 11.9806 12.9989 12.0192 12.8049C12.0578 12.6109 12.153 12.4327 12.2929 12.2929C12.4327 12.153 12.6109 12.0578 12.8049 12.0192C12.9989 11.9806 13.2 12.0004 13.3827 12.0761C13.5654 12.1518 13.7216 12.28 13.8315 12.4444C13.9414 12.6089 14 12.8022 14 13C14 13.2652 13.8946 13.5196 13.7071 13.7071C13.5196 13.8946 13.2652 14 13 14ZM22 12H20.93C20.7068 10.24 19.9049 8.60408 18.6504 7.34959C17.3959 6.0951 15.76 5.29319 14 5.07V4C14 3.73478 13.8946 3.48043 13.7071 3.29289C13.5196 3.10536 13.2652 3 13 3C12.7348 3 12.4804 3.10536 12.2929 3.29289C12.1054 3.48043 12 3.73478 12 4V5.07C10.24 5.29319 8.60408 6.0951 7.34959 7.34959C6.0951 8.60408 5.29319 10.24 5.07 12H4C3.73478 12 3.48043 12.1054 3.29289 12.2929C3.10536 12.4804 3 12.7348 3 13C3 13.2652 3.10536 13.5196 3.29289 13.7071C3.48043 13.8946 3.73478 14 4 14H5.07C5.29319 15.76 6.0951 17.3959 7.34959 18.6504C8.60408 19.9049 10.24 20.7068 12 20.93V22C12 22.2652 12.1054 22.5196 12.2929 22.7071C12.4804 22.8946 12.7348 23 13 23C13.2652 23 13.5196 22.8946 13.7071 22.7071C13.8946 22.5196 14 22.2652 14 22V20.93C15.76 20.7068 17.3959 19.9049 18.6504 18.6504C19.9049 17.3959 20.7068 15.76 20.93 14H22C22.2652 14 22.5196 13.8946 22.7071 13.7071C22.8946 13.5196 23 13.2652 23 13C23 12.7348 22.8946 12.4804 22.7071 12.2929C22.5196 12.1054 22.2652 12 22 12ZM13 19C11.8133 19 10.6533 18.6481 9.66658 17.9888C8.67988 17.3295 7.91085 16.3925 7.45672 15.2961C7.0026 14.1997 6.88378 12.9933 7.11529 11.8295C7.3468 10.6656 7.91824 9.59647 8.75736 8.75736C9.59647 7.91824 10.6656 7.3468 11.8295 7.11529C12.9933 6.88378 14.1997 7.0026 15.2961 7.45672C16.3925 7.91085 17.3295 8.67988 17.9888 9.66658C18.6481 10.6533 19 11.8133 19 13C19 14.5913 18.3679 16.1174 17.2426 17.2426C16.1174 18.3679 14.5913 19 13 19Z" fill="url(#paint0_linear_12511_137)"/>
<defs>
<linearGradient id="paint0_linear_12511_137" x1="13" y1="3" x2="13" y2="23" gradientUnits="userSpaceOnUse">
<stop stop-color="#F8F7F7"/>
<stop offset="1" stop-color="#CAC8C8"/>
</linearGradient>
</defs>
</svg>
