<svg width="26" height="26" viewBox="0 0 26 26" fill="none" xmlns="http://www.w3.org/2000/svg">
<path d="M11.2151 13.2574L6.14804 8.60032C5.08508 7.62337 4.48594 6.24341 4.49875 4.80158L4.50587 4L12.5 11.9755L20.4941 4L20.51 4.73268C20.5416 6.19232 19.9451 7.59557 18.8713 8.58752L13.7999 13.2724L16.021 15.4884C16.6008 15.1647 17.2692 14.9802 17.9808 14.9802C20.2005 14.9802 22 16.7755 22 18.9901C22 21.2047 20.2005 23 17.9808 23C15.761 23 13.9615 21.2047 13.9615 18.9901C13.9615 18.0704 14.2719 17.223 14.7938 16.5465L12.519 14.4557L10.2267 16.5734C10.7362 17.2454 11.0385 18.0825 11.0385 18.9901C11.0385 21.2047 9.23899 23 7.01923 23C4.79947 23 3 21.2047 3 18.9901C3 16.7755 4.79947 14.9802 7.01923 14.9802C7.7308 14.9802 8.39919 15.1647 8.97895 15.4884L11.2151 13.2574ZM7.01591 21.7045C8.44683 21.7045 9.60682 20.5446 9.60682 19.1136C9.60682 17.6827 8.44683 16.5227 7.01591 16.5227C5.58499 16.5227 4.425 17.6827 4.425 19.1136C4.425 20.5446 5.58499 21.7045 7.01591 21.7045ZM17.9841 21.7045C19.415 21.7045 20.575 20.5446 20.575 19.1136C20.575 17.6827 19.415 16.5227 17.9841 16.5227C16.5532 16.5227 15.3932 17.6827 15.3932 19.1136C15.3932 20.5446 16.5532 21.7045 17.9841 21.7045ZM12.5 13.9318C12.8577 13.9318 13.1477 13.6418 13.1477 13.2841C13.1477 12.9264 12.8577 12.6364 12.5 12.6364C12.1423 12.6364 11.8523 12.9264 11.8523 13.2841C11.8523 13.6418 12.1423 13.9318 12.5 13.9318Z" fill="url(#paint0_linear_12514_373)"/>
<defs>
<linearGradient id="paint0_linear_12514_373" x1="12.5" y1="4" x2="12.5" y2="23" gradientUnits="userSpaceOnUse">
<stop stop-color="white"/>
<stop offset="1" stop-color="#BDBDBD"/>
</linearGradient>
</defs>
</svg>
