<svg width="26" height="26" viewBox="0 0 26 26" fill="none" xmlns="http://www.w3.org/2000/svg">
<path d="M16.125 20.625H3.625C3.28125 20.625 3 20.8922 3 21.2188V22.4062C3 22.7328 3.28125 23 3.625 23H16.125C16.4688 23 16.75 22.7328 16.75 22.4062V21.2188C16.75 20.8922 16.4688 20.625 16.125 20.625ZM22.2656 7.98184L19.1016 4.97598C18.8594 4.7459 18.4609 4.7459 18.2188 4.97598L17.7773 5.39531C17.5352 5.62539 17.5352 6.00391 17.7773 6.23398L19.25 7.63301V9.9375C19.25 10.9803 20.0664 11.8412 21.125 11.9859V17.9531C21.125 18.443 20.7031 18.8438 20.1875 18.8438C19.6719 18.8438 19.25 18.443 19.25 17.9531V16.7656C19.25 14.9621 17.7109 13.5 15.8125 13.5H15.5V6.375C15.5 5.06504 14.3789 4 13 4H6.75C5.37109 4 4.25 5.06504 4.25 6.375V19.4375H15.5V15.2812H15.8125C16.6758 15.2812 17.375 15.9455 17.375 16.7656V17.7973C17.375 19.1963 18.4297 20.4691 19.8945 20.6139C21.5742 20.7734 23 19.5191 23 17.9531V9.66289C23 9.03203 22.7344 8.42715 22.2656 7.98184ZM13 11.125H6.75V6.375H13V11.125Z" fill="url(#paint0_linear_12012_129)"/>
<defs>
<linearGradient id="paint0_linear_12012_129" x1="13" y1="4" x2="13" y2="23" gradientUnits="userSpaceOnUse">
<stop stop-color="#FAFAFA"/>
<stop offset="1" stop-color="#C5C3C3"/>
</linearGradient>
</defs>
</svg>
