<svg width="26" height="26" viewBox="0 0 26 26" fill="none" xmlns="http://www.w3.org/2000/svg">
<path d="M16.5455 12.125H22.9155L18.98 7.375H16.5455V12.125ZM19.5 22.2188C19.9609 22.2188 20.3745 22.0644 20.7291 21.7081C21.0836 21.3519 21.2727 20.9362 21.2727 20.4375C21.2727 19.9744 21.0836 19.5588 20.7291 19.2025C20.3745 18.8463 19.9609 18.6562 19.5 18.6562C19.0036 18.6562 18.59 18.8463 18.2355 19.2025C17.8809 19.5588 17.7273 19.9744 17.7273 20.4375C17.7273 20.9362 17.8809 21.3519 18.2355 21.7081C18.59 22.0644 19.0036 22.2188 19.5 22.2188ZM5.90909 22.2188C6.42909 22.2188 6.85455 22.0644 7.18545 21.7081C7.51636 21.3519 7.68182 20.9362 7.68182 20.4375C7.68182 19.9744 7.51636 19.5588 7.18545 19.2025C6.85455 18.8463 6.42909 18.6562 5.90909 18.6562C5.38909 18.6562 4.96364 18.8463 4.63273 19.2025C4.30182 19.5588 4.13636 19.9744 4.13636 20.4375C4.13636 20.9362 4.30182 21.3519 4.63273 21.7081C4.96364 22.0644 5.38909 22.2188 5.90909 22.2188ZM20.0909 5L26 12.125V20.4375H23.0455C23.0455 21.4231 22.6791 22.2544 21.97 22.9669C21.2727 23.6675 20.4455 24 19.5 24C18.5191 24 17.6918 23.6675 16.9945 22.9669C16.2855 22.2544 15.9545 21.4231 15.9545 20.4375H9.45455C9.45455 21.4231 9.1 22.2544 8.40273 22.9669C7.68182 23.6675 6.86636 24 5.90909 24C4.95182 24 4.13636 23.6675 3.41545 22.9669C2.71818 22.2544 2.36364 21.4231 2.36364 20.4375H0V15.6875H9.67909L2.36364 9.88062V13.3125H0V6.1875H1.18182L14.1818 13.3838V5H20.0909Z" fill="url(#paint0_linear_12012_310)"/>
<defs>
<linearGradient id="paint0_linear_12012_310" x1="13" y1="5" x2="13" y2="24" gradientUnits="userSpaceOnUse">
<stop stop-color="white"/>
<stop offset="1" stop-color="#B8B8B8"/>
</linearGradient>
</defs>
</svg>
