<svg width="26" height="26" viewBox="0 0 26 26" fill="none" xmlns="http://www.w3.org/2000/svg">
<path d="M11.0387 3L7.344 4.524L8.20267 6.60533C7.60327 7.0527 7.0704 7.58288 6.62 8.18L4.54133 7.316L3.00533 11.004L5.084 11.8693C4.97869 12.61 4.97734 13.3617 5.08 14.1027L3 14.96L4.52267 18.656L6.604 17.7987C7.05283 18.3964 7.58283 18.9286 8.17867 19.38L7.31467 21.4587L11.0053 22.9933L11.8693 20.916C12.2416 20.9697 12.6172 20.9965 12.9933 20.996C13.3645 20.9963 13.7352 20.9705 14.1027 20.9187L14.96 23L18.656 21.4773L17.7987 19.396C18.3968 18.9472 18.9295 18.4172 19.3813 17.8213L21.4573 18.6853L22.9933 14.9947L20.9147 14.1307C21.022 13.3902 21.0233 12.6382 20.9187 11.8973L23 11.04L21.476 7.344L19.3947 8.20133C18.9473 7.60235 18.4171 7.06993 17.82 6.62L18.684 4.54267L14.996 3.00667L14.1307 5.08533C13.7571 5.03116 13.3801 5.00398 13.0027 5.004C12.6333 5.0043 12.2644 5.03014 11.8987 5.08133L11.0387 3ZM12.9973 17.9987C11.9249 17.9982 10.881 17.6528 10.02 17.0135C9.15899 16.3741 8.52646 15.4748 8.21589 14.4483C7.90533 13.4218 7.9332 12.3227 8.29538 11.3132C8.65757 10.3038 9.33487 9.43766 10.2272 8.84278C11.1195 8.2479 12.1795 7.95584 13.2506 8.00975C14.3217 8.06367 15.347 8.46069 16.1751 9.14217C17.0032 9.82365 17.5901 10.7534 17.8491 11.7941C18.1081 12.8348 18.0254 13.9312 17.6133 14.9213C17.2367 15.8348 16.5965 16.6154 15.7743 17.1635C14.9522 17.7116 13.9854 18.0023 12.9973 17.9987ZM13 11.0013C12.5034 11.0005 12.0242 11.1844 11.6556 11.5172C11.287 11.85 11.0553 12.308 11.0056 12.8021C10.9559 13.2963 11.0918 13.7912 11.3867 14.1908C11.6817 14.5903 12.1147 14.8659 12.6015 14.964C13.0884 15.062 13.5943 14.9755 14.0209 14.7213C14.4476 14.4671 14.7644 14.0633 14.9099 13.5884C15.0553 13.1136 15.019 12.6016 14.808 12.152C14.5969 11.7025 14.2262 11.3475 13.768 11.156C13.5247 11.0543 13.2637 11.0017 13 11.0013Z" fill="url(#paint0_linear_12014_313)"/>
<defs>
<linearGradient id="paint0_linear_12014_313" x1="13" y1="3" x2="13" y2="23" gradientUnits="userSpaceOnUse">
<stop stop-color="#FEFEFE"/>
<stop offset="1" stop-color="#BBBBBB"/>
</linearGradient>
</defs>
</svg>
