<svg width="26" height="26" viewBox="0 0 26 26" fill="none" xmlns="http://www.w3.org/2000/svg">
<path d="M4.0696 14.4172C4.06531 14.4172 4.05995 14.4172 4.05459 14.4172C2.72343 14.4172 1.64414 12.9431 1.64414 11.1249C1.64414 9.30664 2.72343 7.83246 4.05459 7.83246C4.93132 7.83246 5.69979 8.4722 6.121 9.42961L6.12743 9.44425H6.86053C6.37501 7.96128 5.3043 6.94531 4.05888 6.94531C2.36974 6.94531 1 8.81622 1 11.1234C1 13.4306 2.36974 15.3015 4.05888 15.3015C5.13817 15.3015 6.0867 14.5388 6.63117 13.3852L6.63867 13.3691L5.97738 13.1158C5.53259 13.9019 4.8445 14.407 4.0696 14.4158H4.06853L4.0696 14.4172Z" fill="url(#paint0_linear_12215_74)"/>
<path d="M25.4433 14.7391C23.572 10.9431 20.437 8.4793 16.8819 8.4793C16.8261 8.4793 16.7704 8.4793 16.7136 8.48077H16.7222H16.6514L16.4607 7.39892L16.2645 7.38281L15.9216 7.4077L15.8144 8.53786C14.7897 8.58324 13.8637 9.12051 13.1521 9.98277L13.1563 9.97691H2.86719L3.53384 11.9298L11.6794 15.0626C11.7973 17.8558 13.3182 20.1176 15.2881 20.5626L15.3128 20.567L15.0148 21.747H12.8713C12.6183 21.747 12.4125 22.028 12.4125 22.3735C12.4125 22.719 12.6183 23.0001 12.8713 23.0001H23.9321C24.185 23.0001 24.3908 22.719 24.3908 22.3735C24.3908 22.028 24.185 21.747 23.9321 21.747H22.2226L21.8003 20.567C23.9567 20.2889 25.2493 19.4676 25.7445 18.052C25.8602 17.6714 25.9278 17.2278 25.9278 16.7637C25.9278 16.0039 25.7477 15.3027 25.4422 14.7332L25.4476 14.7435L25.4433 14.7391ZM11.1747 14.5299L13.2979 16.7637L14.0609 16.7886V15.414H13.062V13.7949H14.0684V12.4202H15.2538V13.7949H16.2602L14.687 10.824L11.1747 14.5299ZM15.7822 21.7455L16.0598 20.6314H20.9922L21.392 21.7455H15.7822ZM25.2718 15.96C25.1496 16.2777 24.9096 16.49 24.6341 16.49H20.7757C18.556 16.4548 16.7661 13.9896 16.7661 10.9519C16.7661 10.9358 16.7661 10.9211 16.7661 10.9065V10.9094V10.6972C16.7661 10.542 16.7726 10.3883 16.7779 10.2287C16.8208 9.50552 17.2613 8.94044 17.7972 8.94044H17.8068H17.8293C17.8615 8.94044 17.8926 8.94337 17.9237 8.94776H17.9204C20.9825 9.3401 23.6031 11.6136 25.1861 14.9031L25.2086 14.9528C25.2965 15.1095 25.349 15.3086 25.349 15.5238C25.349 15.6833 25.3201 15.8327 25.2686 15.9644L25.2708 15.9586L25.2718 15.96Z" fill="url(#paint1_linear_12215_74)"/>
<path d="M24.4902 8.13136C24.5084 8.13429 24.5288 8.13575 24.5492 8.13575C24.8085 8.13575 25.0186 7.85029 25.0207 7.49748V5.63388C25.0207 5.63242 25.0207 5.63096 25.0207 5.62949C25.0207 5.44504 24.9607 5.27961 24.8664 5.16689C24.7817 5.06295 24.6681 5 24.5438 5C24.5288 5 24.5138 5.00146 24.4999 5.00293H24.502L16.9781 6.12577L9.45517 5.00293C9.44231 5.00146 9.42731 5 9.4123 5C9.28905 5 9.17651 5.06295 9.09184 5.16689C8.99645 5.28108 8.9375 5.44796 8.9375 5.63388V5.63535V7.49894C8.94072 7.85175 9.15079 8.13722 9.41016 8.13722C9.43052 8.13722 9.45089 8.13575 9.47125 8.13136H9.46911L16.9781 6.73916L24.4902 8.13136Z" fill="url(#paint2_linear_12215_74)"/>
<defs>
<linearGradient id="paint0_linear_12215_74" x1="3.93027" y1="6.94531" x2="3.93027" y2="15.3015" gradientUnits="userSpaceOnUse">
<stop stop-color="#FBFBFB"/>
<stop offset="1" stop-color="#D0CECE"/>
</linearGradient>
<linearGradient id="paint1_linear_12215_74" x1="15.2035" y1="7.38281" x2="15.2035" y2="23.0001" gradientUnits="userSpaceOnUse">
<stop stop-color="#FBFBFB"/>
<stop offset="1" stop-color="#D0CECE"/>
</linearGradient>
<linearGradient id="paint2_linear_12215_74" x1="16.9791" y1="5" x2="16.9791" y2="8.13722" gradientUnits="userSpaceOnUse">
<stop stop-color="#FBFBFB"/>
<stop offset="1" stop-color="#D0CECE"/>
</linearGradient>
</defs>
</svg>
