<svg width="26" height="26" viewBox="0 0 26 26" fill="none" xmlns="http://www.w3.org/2000/svg">
<path d="M20.5714 21.8125H19.8571V4.89062C19.8571 4.39874 19.4734 4 19 4H7C6.52661 4 6.14286 4.39874 6.14286 4.89062V21.8125H5.42857C5.19189 21.8125 5 22.0119 5 22.2578V23H21V22.2578C21 22.0119 20.8081 21.8125 20.5714 21.8125ZM9.57143 6.82031C9.57143 6.57439 9.76332 6.375 10 6.375H11.4286C11.6653 6.375 11.8571 6.57439 11.8571 6.82031V8.30469C11.8571 8.55061 11.6653 8.75 11.4286 8.75H10C9.76332 8.75 9.57143 8.55061 9.57143 8.30469V6.82031ZM9.57143 10.3828C9.57143 10.1369 9.76332 9.9375 10 9.9375H11.4286C11.6653 9.9375 11.8571 10.1369 11.8571 10.3828V11.8672C11.8571 12.1131 11.6653 12.3125 11.4286 12.3125H10C9.76332 12.3125 9.57143 12.1131 9.57143 11.8672V10.3828ZM11.4286 15.875H10C9.76332 15.875 9.57143 15.6756 9.57143 15.4297V13.9453C9.57143 13.6994 9.76332 13.5 10 13.5H11.4286C11.6653 13.5 11.8571 13.6994 11.8571 13.9453V15.4297C11.8571 15.6756 11.6653 15.875 11.4286 15.875ZM14.1429 21.8125H11.8571V18.6953C11.8571 18.4494 12.049 18.25 12.2857 18.25H13.7143C13.951 18.25 14.1429 18.4494 14.1429 18.6953V21.8125ZM16.4286 15.4297C16.4286 15.6756 16.2367 15.875 16 15.875H14.5714C14.3348 15.875 14.1429 15.6756 14.1429 15.4297V13.9453C14.1429 13.6994 14.3348 13.5 14.5714 13.5H16C16.2367 13.5 16.4286 13.6994 16.4286 13.9453V15.4297ZM16.4286 11.8672C16.4286 12.1131 16.2367 12.3125 16 12.3125H14.5714C14.3348 12.3125 14.1429 12.1131 14.1429 11.8672V10.3828C14.1429 10.1369 14.3348 9.9375 14.5714 9.9375H16C16.2367 9.9375 16.4286 10.1369 16.4286 10.3828V11.8672ZM16.4286 8.30469C16.4286 8.55061 16.2367 8.75 16 8.75H14.5714C14.3348 8.75 14.1429 8.55061 14.1429 8.30469V6.82031C14.1429 6.57439 14.3348 6.375 14.5714 6.375H16C16.2367 6.375 16.4286 6.57439 16.4286 6.82031V8.30469Z" fill="url(#paint0_linear_12140_30)"/>
<defs>
<linearGradient id="paint0_linear_12140_30" x1="13" y1="4" x2="13" y2="23" gradientUnits="userSpaceOnUse">
<stop stop-color="#FEFEFE"/>
<stop offset="1" stop-color="#CDCBCB"/>
</linearGradient>
</defs>
</svg>
