<svg width="26" height="26" viewBox="0 0 26 26" fill="none" xmlns="http://www.w3.org/2000/svg">
<path d="M3.6875 8.8125H5.75C6.025 8.8125 6.23125 8.675 6.36875 8.46875L7.2625 7.025C7.8125 5.99375 8.98125 5.375 10.15 5.375H15.1C16.2688 5.375 17.4375 5.99375 18.0562 7.025L18.95 8.46875C19.0875 8.675 19.2938 8.8125 19.5688 8.8125H21.6313C22.0438 8.8125 22.3188 8.5375 22.3188 8.125C22.3188 7.7125 22.0438 7.4375 21.6313 7.4375H19.9813L19.2938 6.3375C18.3313 4.89375 16.75 4 15.1 4H10.15C8.5 4 6.91875 4.89375 6.025 6.3375L5.3375 7.4375H3.6875C3.275 7.4375 3 7.7125 3 8.125C3 8.5375 3.275 8.8125 3.6875 8.8125Z" fill="url(#paint0_linear_12517_497)"/>
<path d="M7.05625 13.2812C7.125 13.1437 7.19375 13.075 7.19375 12.9375H3V13.625H6.3C6.64375 13.625 6.85 13.4875 7.05625 13.2812Z" fill="url(#paint1_linear_12517_497)"/>
<path d="M18.1922 13.2812C18.3297 13.4875 18.6047 13.625 18.8797 13.625H22.2484V12.9375H18.0547C18.0547 13.075 18.1234 13.1437 18.1922 13.2812Z" fill="url(#paint2_linear_12517_497)"/>
<path d="M20.5312 10.875C18.0563 10.875 16.0625 12.9375 16.0625 15.4125C16.0625 19.125 19.9125 22.2875 20.1187 22.425C20.2562 22.4937 20.3937 22.5625 20.5312 22.5625C20.6688 22.5625 20.8063 22.4937 20.9438 22.425C21.15 22.2875 25 19.125 25 15.4125C25 12.9375 23.0062 10.875 20.5312 10.875ZM20.5312 17.0625C19.5688 17.0625 18.8125 16.3062 18.8125 15.3438C18.8125 14.3813 19.5688 13.625 20.5312 13.625C21.4937 13.625 22.25 14.3813 22.25 15.3438C22.25 16.3062 21.4937 17.0625 20.5312 17.0625Z" fill="url(#paint3_linear_12517_497)"/>
<path d="M14.6875 15.4125C14.6875 15.275 14.6875 15.1375 14.6875 15H10.5625C10.15 15 9.875 14.725 9.875 14.3125C9.875 13.9 10.15 13.625 10.5625 13.625H14.6875C14.7563 13.625 14.8937 13.625 14.9625 13.6938C15.5812 11.5625 17.3688 9.98125 19.5688 9.6375C19.2938 9.56875 19.0875 9.5 18.8125 9.5H6.4375C5.0625 9.5 3.825 10.325 3.275 11.5625H8.5C8.9125 11.5625 9.1875 11.8375 9.1875 12.25C9.1875 12.5938 8.9125 12.8687 8.56875 12.9375C8.56875 13.35 8.3625 13.6938 8.15625 14.0375C7.74375 14.6563 7.05625 15 6.3 15H3V16.375V17.75C3 18.9188 3.89375 19.8125 5.0625 19.8125H6.4375C7.60625 19.8125 8.5 18.9188 8.5 17.75V17.0625H14.8937C14.7562 16.5125 14.6875 15.9625 14.6875 15.4125Z" fill="url(#paint4_linear_12517_497)"/>
<defs>
<linearGradient id="paint0_linear_12517_497" x1="12.6594" y1="4" x2="12.6594" y2="8.8125" gradientUnits="userSpaceOnUse">
<stop stop-color="#F9F9F9"/>
<stop offset="1" stop-color="#C6C4C4"/>
</linearGradient>
<linearGradient id="paint1_linear_12517_497" x1="5.09687" y1="12.9375" x2="5.09687" y2="13.625" gradientUnits="userSpaceOnUse">
<stop stop-color="#F9F9F9"/>
<stop offset="1" stop-color="#C6C4C4"/>
</linearGradient>
<linearGradient id="paint2_linear_12517_497" x1="20.1516" y1="12.9375" x2="20.1516" y2="13.625" gradientUnits="userSpaceOnUse">
<stop stop-color="#F9F9F9"/>
<stop offset="1" stop-color="#C6C4C4"/>
</linearGradient>
<linearGradient id="paint3_linear_12517_497" x1="20.5312" y1="10.875" x2="20.5312" y2="22.5625" gradientUnits="userSpaceOnUse">
<stop stop-color="#F9F9F9"/>
<stop offset="1" stop-color="#C6C4C4"/>
</linearGradient>
<linearGradient id="paint4_linear_12517_497" x1="11.2844" y1="9.5" x2="11.2844" y2="19.8125" gradientUnits="userSpaceOnUse">
<stop stop-color="#F9F9F9"/>
<stop offset="1" stop-color="#C6C4C4"/>
</linearGradient>
</defs>
</svg>
