<svg width="26" height="26" viewBox="0 0 26 26" fill="none" xmlns="http://www.w3.org/2000/svg">
<path d="M14.8086 17.0703C15.1097 19.4941 17.756 19.8242 18.5379 19.8242C19.3199 19.8242 21.9663 19.4941 22.267 17.0703C21.786 17.456 20.2222 18.1173 18.5379 18.1173C16.8538 18.1173 15.2899 17.4559 14.8086 17.0703Z" fill="url(#paint0_linear_12012_239)"/>
<path d="M15.7657 14.2388C16.386 14.3002 16.9584 14.4851 17.4583 14.7634C17.4781 13.9469 16.8121 13.2389 15.909 13.1499C15.0108 13.0613 14.1996 13.6171 14.0234 14.4116C14.5672 14.2443 15.1581 14.1792 15.7657 14.2388Z" fill="url(#paint1_linear_12012_239)"/>
<path d="M19.6176 14.7634C20.1174 14.4851 20.6901 14.3002 21.31 14.2388C21.918 14.1792 22.5084 14.2443 23.0523 14.4116C22.876 13.6171 22.0649 13.0613 21.1668 13.1499C20.2635 13.2389 19.5975 13.9469 19.6176 14.7634Z" fill="url(#paint2_linear_12012_239)"/>
<path d="M25.6867 9.62037C25.6867 9.62037 25.6857 9.6104 25.6849 9.60528L25.684 9.60048L25.683 9.59384C25.6373 9.27731 25.3948 9.02219 25.0535 8.98911C24.7753 8.96189 24.4945 9.09754 24.2276 9.15859C23.6774 9.28285 23.1195 9.3773 22.5616 9.45675C21.1102 9.66337 19.64 9.75893 18.1732 9.72585C17.0345 9.70047 15.8951 9.60491 14.7697 9.43617C14.35 7.77042 13.6598 5.0408 13.4643 4.26728C13.4248 4.11031 13.3953 3.86474 13.0644 4.09231C12.8251 4.2581 10.4272 5.4246 7.3598 6.13375C4.29236 6.84289 1.6018 6.85175 1.30969 6.80948C0.907062 6.75065 0.997758 6.98224 1.03756 7.13921C1.2476 7.9704 2.02725 11.0563 2.43277 12.6591C3.42154 16.5752 7.83561 18.5706 10.3548 17.988C10.8971 17.8626 11.4604 17.5924 12.001 17.2064C12.5453 19.3339 14.082 21.2161 16.0878 22.272C16.7349 22.6124 17.4423 22.8708 18.1772 22.9653C18.8977 23.0587 19.6217 22.9576 20.3067 22.7337C21.6545 22.2926 22.8473 21.4319 23.762 20.3967C24.6535 19.3868 25.2927 18.1714 25.5552 16.8711C25.6761 16.2729 25.6926 15.6745 25.6926 15.0682V10.3152C25.6927 10.0869 25.7126 9.84752 25.6867 9.62037ZM3.95028 10.2401C4.49821 10.285 5.06381 10.2218 5.61401 10.0328C6.17632 9.84014 6.66453 9.53759 7.06079 9.15928C7.27952 9.9482 6.83381 10.7802 6.01495 11.0603C5.2012 11.3397 4.30968 10.9743 3.95028 10.2401ZM11.7852 13.5282C11.1191 13.3966 10.1672 13.3441 9.23608 13.5598C7.85655 13.8786 6.7188 14.7399 6.40788 15.1605C6.13078 13.0308 8.22632 12.2474 8.86727 12.0989C9.35944 11.9849 10.797 11.8298 11.7852 12.6816V13.5282ZM12.1842 9.05417C12.091 9.23541 11.9632 9.39866 11.8058 9.53432C11.5642 9.74315 11.2556 9.88651 10.9085 9.93025C10.0462 10.0376 9.25263 9.49242 9.07008 8.69394C9.60412 8.85793 10.1819 8.91376 10.7744 8.84026C11.3542 8.76782 11.8879 8.57702 12.3535 8.29764C12.3641 8.56669 12.3026 8.8248 12.1842 9.05417ZM24.5699 14.8352C24.5699 15.4215 24.5776 16.0043 24.4696 16.5844C24.3763 17.0858 24.2165 17.574 24.0007 18.0387C23.998 18.0435 23.9953 18.0494 23.9928 18.0552C23.992 18.0575 23.9901 18.06 23.9893 18.0633C23.9851 18.0718 23.9814 18.0806 23.9772 18.089C23.9695 18.1063 23.9609 18.1236 23.9522 18.1416C23.9545 18.135 23.9582 18.1295 23.9609 18.1225C23.4131 19.2596 22.5295 20.2525 21.4575 20.9675C20.864 21.3638 20.1979 21.687 19.4886 21.8414C18.8261 21.987 18.1723 21.9256 17.5314 21.7168C16.189 21.2782 15.0212 20.3411 14.2022 19.247C13.5612 18.3905 13.1275 17.3979 12.9722 16.3597C12.9297 16.0781 12.9082 15.792 12.9082 15.5053V10.1847C13.5968 10.3468 14.2991 10.4662 15.0038 10.557C15.4531 10.6159 15.9048 10.6629 16.3539 10.7019C17.8587 10.8313 19.3713 10.8387 20.8769 10.7218C22.1148 10.6258 23.3621 10.4681 24.5699 10.1839V14.8352H24.5699Z" fill="url(#paint3_linear_12012_239)"/>
<defs>
<linearGradient id="paint0_linear_12012_239" x1="18.5378" y1="17.0703" x2="18.5378" y2="19.8242" gradientUnits="userSpaceOnUse">
<stop stop-color="#FEFEFE"/>
<stop offset="1" stop-color="#CECBCB"/>
</linearGradient>
<linearGradient id="paint1_linear_12012_239" x1="15.7411" y1="13.1406" x2="15.7411" y2="14.7634" gradientUnits="userSpaceOnUse">
<stop stop-color="#FEFEFE"/>
<stop offset="1" stop-color="#CECBCB"/>
</linearGradient>
<linearGradient id="paint2_linear_12012_239" x1="21.3347" y1="13.1406" x2="21.3347" y2="14.7634" gradientUnits="userSpaceOnUse">
<stop stop-color="#FEFEFE"/>
<stop offset="1" stop-color="#CECBCB"/>
</linearGradient>
<linearGradient id="paint3_linear_12012_239" x1="13.35" y1="4" x2="13.35" y2="23" gradientUnits="userSpaceOnUse">
<stop stop-color="#FEFEFE"/>
<stop offset="1" stop-color="#CECBCB"/>
</linearGradient>
</defs>
</svg>
