<svg width="30" height="30" viewBox="0 0 30 30" fill="none" xmlns="http://www.w3.org/2000/svg">
<path d="M9.77795 3.18268C9.04108 3.63719 8.39016 4.42261 8.13793 5.16642C8.08234 5.3369 8.08234 5.3369 7.931 5.25943C7.57273 5.06815 7.22449 4.44843 7.04793 3.68908L6.93185 3.18794L6.86132 3.42033C6.82092 3.55471 6.7908 3.85429 6.79569 4.14359C6.80084 4.69111 6.93699 5.18197 7.31045 6.01377L7.51224 6.46327L7.22449 6.81449C6.96712 7.12435 6.50795 7.54276 6.09923 7.84259C6.01352 7.8995 5.86708 8.13716 5.73092 8.4212L5.50391 8.90153L5.62513 8.94791C5.69076 8.97373 5.94813 9.05646 6.19033 9.13392C6.43767 9.21139 6.69504 9.32495 6.76557 9.38712C6.95242 9.55233 7.1138 9.64534 7.43681 9.76417L7.72456 9.87773L7.60334 9.68144C7.53281 9.57815 7.44196 9.40242 7.39641 9.29913C7.32074 9.1081 7.32074 9.10284 7.44685 9.02011C7.61338 8.90654 8.1634 8.76189 8.91031 8.63253C9.58155 8.51897 10.086 8.38986 10.1264 8.32267C10.1416 8.29685 10.1869 8.27629 10.2273 8.27629C10.3233 8.27629 10.3233 8.62752 10.2222 9.02537C10.0001 9.90882 9.51053 10.5596 8.80917 10.9161C8.05222 11.2984 7.67386 11.2365 7.39616 10.6732C7.24972 10.3786 7.24482 10.3736 7.22964 10.5285C7.20931 10.7507 7.34057 11.5669 7.43657 11.7993C7.48701 11.9181 7.57787 12.0214 7.68391 12.0783C7.93124 12.2127 8.47612 12.223 9.03618 12.1094L9.51567 12.0164L9.28866 11.9131L9.06165 11.8098L9.26344 11.6755C9.37437 11.6033 9.70252 11.412 9.99516 11.2468C10.2878 11.0866 10.6813 10.8181 10.8682 10.6579C11.61 10.0276 12.0439 9.71253 12.4377 9.51623C12.8667 9.29913 13.3964 9.15473 13.7851 9.15473C14.1233 9.15473 14.1686 9.06699 13.982 8.79824L13.8306 8.5864L13.9518 8.53476C14.9206 8.15772 16.5861 7.86315 17.7314 7.86315C18.0645 7.86315 18.2866 7.83206 18.5944 7.73404C20.8501 7.03661 23.4136 7.08324 25.6844 7.85814L26.2697 8.05969L25.7702 7.5741C24.7054 6.53071 23.7567 5.83829 22.6466 5.27523C21.5414 4.72244 20.2697 4.3454 19.0031 4.19548C18.327 4.11802 16.7223 4.13356 16.0106 4.2213C15.0771 4.34013 14.0427 4.56751 13.1192 4.85155C13.0587 4.86709 13.0284 4.82573 13.0031 4.66027C12.9679 4.42261 12.5993 3.3895 12.5085 3.28095C12.4328 3.18267 12.3975 3.23457 12.2663 3.65298C11.9888 4.5259 11.6202 5.02202 11.2519 5.02202C11.1863 5.02202 10.9997 4.97565 10.828 4.91347L10.5202 4.81019L10.2175 4.91874C9.77844 5.08395 9.67265 5.09447 9.57665 4.9962C9.44539 4.86709 9.42017 4.66554 9.48065 4.36069C9.56147 3.96284 9.71281 3.66852 10.0006 3.34813C10.1367 3.1932 10.2479 3.05357 10.2479 3.03828C10.2474 2.96056 10.0405 3.02273 9.77795 3.18268ZM9.62661 6.68538C9.45004 6.83004 9.4449 6.84558 9.52571 6.9075C9.61142 6.97469 9.61142 6.98496 9.49045 7.11934C9.31878 7.30535 9.00606 7.45 8.74868 7.45C8.35 7.45 8.28951 7.36226 8.51163 7.0885C8.67301 6.89747 8.95561 6.74229 9.36433 6.61845C9.79313 6.48884 9.84358 6.49937 9.62661 6.68538Z" fill="url(#paint0_linear_12514_354)"/>
<path d="M21.2967 8.10617C19.2428 8.35411 17.7945 8.82416 16.321 9.73343C15.4279 10.2809 14.4841 11.1489 13.9441 11.9135C13.0914 13.1223 12.4202 13.9644 12.3092 13.9644C12.2892 13.9644 12.2639 13.9128 12.2537 13.8508C12.2233 13.6493 12.1275 13.7009 11.9206 14.0266C11.5168 14.6621 10.9971 15.1011 10.6489 15.1011C10.5277 15.1011 10.4016 15.0547 10.2906 14.9719C9.92231 14.6929 9.74575 14.6363 9.35197 14.6724C8.91288 14.7085 8.83231 14.6621 8.83231 14.3625C8.83231 13.9286 9.25107 13.3552 9.80623 13.0348C9.96762 12.9418 10.094 12.8488 10.094 12.823C10.094 12.73 9.75579 12.7816 9.27654 12.9471C8.42874 13.2519 7.83341 13.7117 7.2278 14.533C6.7586 15.1735 6.00654 15.7005 5.17906 15.9795C4.7248 16.1344 4.30604 16.0983 3.57431 15.8607C3.27652 15.7624 3.02429 15.6955 3.00911 15.7107C2.95866 15.7574 3.12518 16.0156 3.32697 16.2016C3.43791 16.3049 3.65488 16.4651 3.81136 16.5528C3.9627 16.6406 4.08882 16.7283 4.08882 16.7439C4.08882 16.7594 4.00801 16.8574 3.91225 16.9607L3.73569 17.1467L4.25534 17.5185C4.54309 17.7251 4.81051 17.9525 4.85091 18.0249C4.88618 18.0971 5.0527 18.2831 5.21433 18.4381C5.49693 18.7066 5.63823 18.7893 5.58778 18.6499C5.57774 18.6138 5.53734 18.4536 5.50207 18.2884C5.41636 17.8647 5.44648 17.8389 6.05209 17.8389C6.32465 17.8389 6.8039 17.875 7.12201 17.9164C7.77292 18.0041 8.34817 18.0299 8.51984 17.9733C8.62587 17.9372 8.63077 17.9474 8.60065 18.0818C8.54506 18.3195 8.24238 18.8825 8.01022 19.1718C7.73276 19.5181 7.27849 19.864 6.91508 20.0139C6.52644 20.1689 5.69382 20.2155 5.45677 20.0914C5.24469 19.9778 5.10854 19.7402 5.06813 19.3992C5.04291 19.1874 5.02282 19.1357 4.98732 19.2029C4.9065 19.3476 4.79557 20.0553 4.79557 20.4221C4.79557 20.7733 4.79557 20.7785 5.0025 20.9593C5.26477 21.1867 5.55766 21.29 6.1378 21.3571C6.38514 21.383 6.63223 21.4191 6.68782 21.4346C6.75835 21.4502 6.72823 21.4035 6.59697 21.2797C6.4204 21.1195 6.41036 21.0989 6.49608 21.0523C6.54652 21.0215 6.88961 20.9387 7.26307 20.861C8.02516 20.7061 8.13095 20.67 8.94349 20.3135C9.80648 19.9365 10.4069 19.7918 11.0023 19.8176C11.2648 19.8279 11.6128 19.8693 11.7693 19.9106C12.1479 19.9984 12.2184 19.9467 12.0923 19.6524C12.0418 19.5439 11.9358 19.3528 11.8601 19.234L11.7188 19.0119L12.3293 18.6504C13.9946 17.6792 15.352 16.3773 16.6036 14.5591C17.078 13.8616 17.3858 13.5259 17.8653 13.1797C18.8341 12.4773 20.3835 11.9398 21.6853 11.8623C22.1396 11.8365 22.2001 11.821 22.2454 11.7229C22.3563 11.475 22.957 10.7051 23.3405 10.3178C23.9814 9.67727 24.7535 9.1814 25.6062 8.87129L26.01 8.72664L25.8486 8.65945C25.5712 8.54062 24.7283 8.33405 24.0977 8.2255C23.5171 8.12146 21.7659 8.04926 21.2967 8.10617ZM8.78187 15.9532C8.78187 15.9634 8.69101 16.0254 8.58008 16.0823C8.36825 16.1908 8.34278 16.2322 8.43363 16.325C8.5093 16.4024 8.17111 16.604 7.8988 16.6351C7.65146 16.6659 7.16707 16.5212 7.16707 16.4232C7.16707 16.2733 7.56061 16.0409 7.91888 15.979C8.1814 15.9324 8.78187 15.9168 8.78187 15.9532Z" fill="url(#paint1_linear_12514_354)"/>
<path d="M26.4698 9.38366C24.6986 9.86399 23.2907 11.0212 22.3824 12.7415C21.9433 13.5783 21.6659 14.4617 21.4538 15.6861C21.1612 17.36 20.616 18.5481 19.7685 19.3591C19.4102 19.7 18.8249 20.1029 18.6885 20.1029C18.6432 20.1029 18.6229 20.0049 18.618 19.7775C18.6128 19.2866 18.5575 18.9923 18.4767 18.9923C18.4363 18.9923 18.2849 19.1628 18.1387 19.3746C17.9923 19.5812 17.7753 19.8549 17.6543 19.9843C17.4222 20.2272 17.0083 20.4646 16.8166 20.4646C16.6853 20.4646 16.5036 20.3819 16.5036 20.315C16.5036 20.2942 16.6045 20.0928 16.7306 19.8707C17.1849 19.0495 17.4624 18.1866 17.4624 17.5874C17.4624 17.2775 17.4119 17.3342 17.215 17.8561C16.8619 18.8015 16.4128 19.3543 15.6759 19.7572C15.1864 20.0206 15.0906 20.0412 14.9694 19.9174C14.6616 19.6075 15.2015 18.6569 15.9129 18.2435C16.3773 17.9747 16.3672 17.887 15.8877 17.98C15.4185 18.073 14.7928 18.352 14.3082 18.6824C13.8791 18.9717 13.7129 19.1475 13.1122 19.9224C12.5722 20.6198 11.5277 21.3275 10.5538 21.6529C10.2712 21.7512 10.1855 21.8131 9.87252 22.1541C9.67563 22.3709 9.50911 22.5725 9.50421 22.6036C9.49417 22.6346 9.73636 22.8307 10.0341 23.0428C10.4125 23.3113 10.6145 23.487 10.7103 23.6419C10.8264 23.8435 11.4016 24.3652 11.4469 24.3186C11.4569 24.3083 11.4268 24.1739 11.3864 24.0242C11.2804 23.673 11.2804 23.4301 11.3864 23.3887C11.5478 23.3268 12.4612 23.3629 13.1981 23.4609C14.0459 23.5748 14.3185 23.585 14.5051 23.5126C14.5756 23.4868 14.6412 23.4817 14.6564 23.5023C14.6968 23.5748 14.4848 24.0964 14.283 24.4166C14.0307 24.8092 13.5564 25.3 13.2383 25.4911C12.8599 25.7132 12.3552 25.8528 11.8909 25.8578C11.2096 25.8631 10.9623 25.6563 10.8766 25.021C10.8565 24.8764 10.8261 24.7628 10.8009 24.7781C10.7152 24.835 10.5739 25.8578 10.594 26.3176C10.604 26.6794 11.0884 26.9945 11.7748 27.0822C12.0018 27.108 12.2947 27.1544 12.4257 27.1752C12.5619 27.2011 12.6679 27.2011 12.6679 27.1805C12.6679 27.1597 12.5871 27.0772 12.4862 26.9997C12.3853 26.9223 12.3248 26.8396 12.3501 26.8137C12.3701 26.7932 12.7235 26.7002 13.1322 26.6122C14.0204 26.4262 14.2727 26.3437 15.0448 25.9975C15.8522 25.6307 16.4931 25.4705 17.134 25.4705C17.4469 25.4705 17.7344 25.5016 17.8909 25.548C18.0322 25.5943 18.2039 25.6304 18.2844 25.6304C18.5418 25.6304 18.451 25.3101 17.9967 24.649C17.8706 24.4682 17.7746 24.3133 17.7797 24.3028C17.7849 24.2975 18.0168 24.2459 18.2945 24.1892C20.641 23.6881 22.5232 22.3295 23.7293 20.2631C24.3349 19.2247 24.7889 17.897 25.0564 16.3783C25.1271 15.9907 25.228 15.5104 25.2885 15.3194C25.5459 14.4515 26.1464 13.6094 26.7216 13.3045L26.9991 13.1546V11.202C26.9991 10.1325 26.9839 9.2543 26.9638 9.2543C26.9393 9.25957 26.7223 9.31648 26.4698 9.38366ZM14.6214 21.3323C14.46 21.5028 14.4497 21.5338 14.5205 21.5802C14.5962 21.6266 14.5962 21.6421 14.5205 21.761C14.3388 22.04 13.804 22.2258 13.4001 22.1485L13.2184 22.1124L13.3294 21.9109C13.4807 21.6371 13.7584 21.4511 14.2528 21.2806C14.8029 21.0946 14.8433 21.0999 14.6214 21.3323Z" fill="url(#paint2_linear_12514_354)"/>
<defs>
<linearGradient id="paint0_linear_12514_354" x1="15.8868" y1="3.00493" x2="15.8868" y2="12.1875" gradientUnits="userSpaceOnUse">
<stop stop-color="#F8F7F7"/>
<stop offset="1" stop-color="#CAC8C8"/>
</linearGradient>
<linearGradient id="paint1_linear_12514_354" x1="14.505" y1="8.08616" x2="14.505" y2="21.4375" gradientUnits="userSpaceOnUse">
<stop stop-color="#F8F7F7"/>
<stop offset="1" stop-color="#CAC8C8"/>
</linearGradient>
<linearGradient id="paint2_linear_12514_354" x1="18.2515" y1="9.2543" x2="18.2515" y2="27.1953" gradientUnits="userSpaceOnUse">
<stop stop-color="#F8F7F7"/>
<stop offset="1" stop-color="#CAC8C8"/>
</linearGradient>
</defs>
</svg>
