<svg width="32" height="30" viewBox="0 0 32 30" fill="none" xmlns="http://www.w3.org/2000/svg">
<path d="M29.9995 4.99927H28.3328V3.33264C28.3328 2.89063 28.1572 2.46671 27.8447 2.15416C27.5321 1.84161 27.1082 1.66602 26.6662 1.66602C26.2242 1.66602 25.8003 1.84161 25.4877 2.15416C25.1752 2.46671 24.9996 2.89063 24.9996 3.33264V4.99927H23.3329C22.8909 4.99927 22.467 5.17486 22.1545 5.48742C21.8419 5.79997 21.6663 6.22388 21.6663 6.6659C21.6663 7.10792 21.8419 7.53183 22.1545 7.84439C22.467 8.15694 22.8909 8.33253 23.3329 8.33253H24.9996V9.99916C24.9996 10.4412 25.1752 10.8651 25.4877 11.1776C25.8003 11.4902 26.2242 11.6658 26.6662 11.6658C27.1082 11.6658 27.5321 11.4902 27.8447 11.1776C28.1572 10.8651 28.3328 10.4412 28.3328 9.99916V8.33253H29.9995C30.4415 8.33253 30.8654 8.15694 31.178 7.84439C31.4905 7.53183 31.6661 7.10792 31.6661 6.6659C31.6661 6.22388 31.4905 5.79997 31.178 5.48742C30.8654 5.17486 30.4415 4.99927 29.9995 4.99927Z" fill="url(#paint0_linear_4746_42)"/>
<path d="M11.6664 13.333C12.9849 13.333 14.2738 12.942 15.3701 12.2095C16.4664 11.477 17.3209 10.4358 17.8255 9.21768C18.33 7.99954 18.462 6.65912 18.2048 5.36595C17.9476 4.07277 17.3127 2.88491 16.3803 1.95258C15.448 1.02025 14.2601 0.385327 12.967 0.128098C11.6738 -0.129131 10.3334 0.00288847 9.11523 0.507461C7.89708 1.01203 6.85591 1.8665 6.12339 2.9628C5.39086 4.0591 4.99988 5.34801 4.99988 6.66652C4.99988 8.43459 5.70224 10.1302 6.95245 11.3805C8.20267 12.6307 9.89832 13.333 11.6664 13.333Z" fill="url(#paint1_linear_4746_42)"/>
<path d="M21.6662 29.999C22.1082 29.999 22.5321 29.8235 22.8447 29.5109C23.1572 29.1983 23.3328 28.7744 23.3328 28.3324C23.3328 25.2383 22.1037 22.2709 19.9158 20.083C17.7279 17.8952 14.7605 16.666 11.6664 16.666C8.57228 16.666 5.60488 17.8952 3.41701 20.083C1.22914 22.2709 4.6106e-08 25.2383 0 28.3324C0 28.7744 0.175591 29.1983 0.488144 29.5109C0.800698 29.8235 1.22461 29.999 1.66663 29.999" fill="url(#paint2_linear_4746_42)"/>
<defs>
<linearGradient id="paint0_linear_4746_42" x1="26.6662" y1="1.66602" x2="26.6662" y2="11.6658" gradientUnits="userSpaceOnUse">
<stop stop-color="white"/>
<stop offset="1" stop-color="#D3D3D3"/>
</linearGradient>
<linearGradient id="paint1_linear_4746_42" x1="11.6664" y1="0" x2="11.6664" y2="13.333" gradientUnits="userSpaceOnUse">
<stop stop-color="white"/>
<stop offset="1" stop-color="#D3D3D3"/>
</linearGradient>
<linearGradient id="paint2_linear_4746_42" x1="11.6664" y1="16.666" x2="11.6664" y2="29.999" gradientUnits="userSpaceOnUse">
<stop stop-color="white"/>
<stop offset="1" stop-color="#D3D3D3"/>
</linearGradient>
</defs>
</svg>
