<svg width="31" height="29" viewBox="0 0 31 29" fill="none" xmlns="http://www.w3.org/2000/svg">
<path d="M29.45 4.77901H26.35V0H23.25V4.77901H7.75V0H4.65V4.77901H1.55C0.69285 4.77901 0 5.49268 0 6.37202V17.523C0 18.404 0.69285 19.1161 1.55 19.1161H4.65V28.6741H7.75V19.1161H23.25V28.6741H26.35V19.1161H29.45C30.3071 19.1161 31 18.404 31 17.523V6.37202C31 5.49268 30.3071 4.77901 29.45 4.77901ZM3.751 15.93L8.17935 7.96502H11.749L7.32065 15.93H3.751ZM15.9293 7.96502H19.499L15.0707 15.93H11.501L15.9293 7.96502ZM23.6793 7.96502H27.249L22.8207 15.93H19.251L23.6793 7.96502Z" fill="url(#paint0_linear_4746_33)"/>
<defs>
<linearGradient id="paint0_linear_4746_33" x1="15.5" y1="0" x2="15.5" y2="28.6741" gradientUnits="userSpaceOnUse">
<stop stop-color="white"/>
<stop offset="1" stop-color="#BEBEBE"/>
</linearGradient>
</defs>
</svg>
