<svg width="8" height="7" viewBox="0 0 8 7" fill="none" xmlns="http://www.w3.org/2000/svg">
<path d="M5.07029 1.18C5.07105 1.1601 5.07143 1.1401 5.07143 1.12C5.07143 1.10268 5.07116 1.08541 5.07061 1.06819L5.08647 1.06H5.18501L5.31767 1.16021L5.34386 1.18H5.07029ZM6.20506 1.18H5.89423L5.92043 1.16021L6.05308 1.06H6.20506L6.2867 1.12L6.20506 1.18ZM1.07143 4.76V4.5054L1.12452 4.53058C1.24206 4.59013 1.36434 4.63302 1.49121 4.66075C1.44765 4.68346 1.40573 4.70943 1.3659 4.7387C1.2432 4.82889 1.13189 4.95922 1.07143 5.12244V4.76ZM6.51123 4.66203C6.6382 4.63518 6.76206 4.59305 6.88044 4.53243L6.92857 4.50847V4.76V5.12245C6.86811 4.95922 6.75681 4.82889 6.6341 4.7387C6.59502 4.70997 6.55392 4.68443 6.51123 4.66203ZM6.6341 6.0413C6.75681 5.95111 6.86811 5.82078 6.92857 5.65756V6.49013C6.91072 6.49553 6.88681 6.5 6.85714 6.5H6.28571C6.25604 6.5 6.23214 6.49553 6.21429 6.49013V6.44V6.22016C6.36526 6.19175 6.50989 6.1326 6.6341 6.0413ZM5.02381 5.39C5.02381 5.61734 5.12043 5.80455 5.25037 5.94H2.74963C2.87958 5.80455 2.97619 5.61734 2.97619 5.39C2.97619 5.09904 2.81793 4.87382 2.6341 4.7387C2.61558 4.72509 2.59661 4.71219 2.57722 4.7H5.42278C5.40339 4.71219 5.38442 4.72509 5.3659 4.7387C5.18207 4.87382 5.02381 5.09904 5.02381 5.39ZM1.3659 6.0413C1.49011 6.1326 1.63474 6.19175 1.78571 6.22016V6.44V6.49013C1.76786 6.49553 1.74396 6.5 1.71429 6.5H1.14286C1.11319 6.5 1.08929 6.49553 1.07143 6.49013V5.65756C1.13189 5.82078 1.24319 5.95111 1.3659 6.0413ZM2.83665 1.73143C2.84156 1.72798 2.84643 1.72448 2.85127 1.72092C3.01459 1.60088 3.16667 1.39419 3.16667 1.12C3.16667 0.845813 3.01459 0.639122 2.85127 0.519081C2.84643 0.515523 2.84156 0.51202 2.83665 0.508569C3.0945 0.534982 3.30642 0.619892 3.45277 0.727452C3.62822 0.856412 3.69048 0.9985 3.69048 1.12C3.69048 1.2415 3.62822 1.38359 3.45277 1.51255C3.30642 1.62011 3.0945 1.70502 2.83665 1.73143ZM6.13201 0.994758L6.28571 0.78564L6.13201 0.994758Z" fill="url(#paint0_linear_9976_87)" stroke="url(#paint1_linear_9976_87)"/>
<defs>
<linearGradient id="paint0_linear_9976_87" x1="4" y1="0" x2="4" y2="7" gradientUnits="userSpaceOnUse">
<stop stop-color="white"/>
<stop offset="1" stop-color="#C2C2C2"/>
</linearGradient>
<linearGradient id="paint1_linear_9976_87" x1="4" y1="0" x2="4" y2="7" gradientUnits="userSpaceOnUse">
<stop stop-color="white"/>
<stop offset="1" stop-color="#C2C2C2"/>
</linearGradient>
</defs>
</svg>
