<svg width="8" height="8" viewBox="0 0 8 8" fill="none" xmlns="http://www.w3.org/2000/svg">
<mask id="path-1-inside-1_9976_124" fill="white">
<path d="M3.9975 0C1.78888 0 0 1.792 0 4C0 6.208 1.78888 8 3.9975 8C6.34104 8 4.51718 6.49067 5.39163 5.57333C5.77139 5.17333 6.20612 5.10933 6.61087 5.10933C6.79575 5.10933 6.97564 5.12533 7.14054 5.12533C7.63523 5.12533 8 5.00267 8 4.00533C7.995 1.792 6.20612 0 3.9975 0ZM7.32042 4.43733C7.29544 4.44267 7.24047 4.448 7.13554 4.448C7.06558 4.448 6.99063 4.448 6.91068 4.44267C6.81574 4.44267 6.7158 4.43733 6.60587 4.43733C6.16115 4.43733 5.51156 4.50667 4.94691 5.09333C4.36227 5.712 4.49719 6.48 4.57714 6.944C4.59213 7.04 4.61711 7.17867 4.62211 7.264C4.54216 7.29067 4.36227 7.33333 3.9925 7.33333C2.13367 7.33333 0.619613 5.84 0.619613 4C0.619613 2.16 2.13866 0.666667 3.9975 0.666667C5.85634 0.666667 7.37039 2.16 7.37039 4C7.37039 4.26667 7.34041 4.39467 7.32042 4.43733Z"/>
</mask>
<path d="M3.9975 0C1.78888 0 0 1.792 0 4C0 6.208 1.78888 8 3.9975 8C6.34104 8 4.51718 6.49067 5.39163 5.57333C5.77139 5.17333 6.20612 5.10933 6.61087 5.10933C6.79575 5.10933 6.97564 5.12533 7.14054 5.12533C7.63523 5.12533 8 5.00267 8 4.00533C7.995 1.792 6.20612 0 3.9975 0ZM7.32042 4.43733C7.29544 4.44267 7.24047 4.448 7.13554 4.448C7.06558 4.448 6.99063 4.448 6.91068 4.44267C6.81574 4.44267 6.7158 4.43733 6.60587 4.43733C6.16115 4.43733 5.51156 4.50667 4.94691 5.09333C4.36227 5.712 4.49719 6.48 4.57714 6.944C4.59213 7.04 4.61711 7.17867 4.62211 7.264C4.54216 7.29067 4.36227 7.33333 3.9925 7.33333C2.13367 7.33333 0.619613 5.84 0.619613 4C0.619613 2.16 2.13866 0.666667 3.9975 0.666667C5.85634 0.666667 7.37039 2.16 7.37039 4C7.37039 4.26667 7.34041 4.39467 7.32042 4.43733Z" fill="url(#paint0_linear_9976_124)"/>
<path d="M5.39163 5.57333L6.54975 6.67732L6.55197 6.67497L5.39163 5.57333ZM8 4.00533H9.6L9.6 4.00172L8 4.00533ZM7.32042 4.43733L7.65445 6.00208L8.43203 5.83609L8.76932 5.11608L7.32042 4.43733ZM6.91068 4.44267L7.01718 2.84622L6.96399 2.84267H6.91068V4.44267ZM4.94691 5.09333L3.79411 3.9838L3.78903 3.98908L3.784 3.9944L4.94691 5.09333ZM4.57714 6.944L6.15798 6.69715L6.15604 6.68472L6.1539 6.67231L4.57714 6.944ZM4.62211 7.264L5.12836 8.7818L6.29102 8.394L6.21938 7.17047L4.62211 7.264ZM3.9975 -1.6C0.903763 -1.6 -1.6 0.909809 -1.6 4H1.6C1.6 2.67419 2.674 1.6 3.9975 1.6V-1.6ZM-1.6 4C-1.6 7.09019 0.903763 9.6 3.9975 9.6V6.4C2.674 6.4 1.6 5.32581 1.6 4H-1.6ZM3.9975 9.6C4.63997 9.6 5.50778 9.52143 6.15451 8.93629C6.93033 8.23435 6.87487 7.31284 6.83602 6.95701C6.81552 6.76923 6.77635 6.56205 6.76089 6.47238C6.73944 6.34797 6.7341 6.29765 6.73303 6.27213C6.73247 6.25893 6.73424 6.48377 6.54974 6.67731L4.23352 4.46935C3.61179 5.12156 3.51362 5.87907 3.53587 6.40687C3.54619 6.65185 3.58294 6.87411 3.60743 7.01616C3.63792 7.19295 3.64857 7.24611 3.65492 7.30432C3.66979 7.44049 3.57623 6.95365 4.00758 6.56338C4.09216 6.48685 4.17142 6.44 4.22738 6.41305C4.255 6.39976 4.27698 6.39128 4.29148 6.38623C4.30594 6.3812 4.31405 6.37922 4.31437 6.37914C4.31471 6.37906 4.30859 6.38056 4.29493 6.38279C4.2813 6.38501 4.26139 6.38775 4.23437 6.39039C4.17955 6.39574 4.10215 6.4 3.9975 6.4V9.6ZM6.55197 6.67497C6.55518 6.67159 6.54736 6.68027 6.52804 6.69223C6.50888 6.7041 6.49057 6.71168 6.47846 6.71555C6.46784 6.71894 6.46962 6.71703 6.49088 6.71452C6.51342 6.71185 6.55027 6.70933 6.61087 6.70933V3.50933C6.01669 3.50933 5.05005 3.6093 4.23129 4.4717L6.55197 6.67497ZM6.61087 6.70933C6.66213 6.70933 6.71895 6.71155 6.81111 6.71571C6.89017 6.71927 7.01489 6.72533 7.14054 6.72533V3.52533C7.10129 3.52533 7.05361 3.52339 6.95528 3.51896C6.87006 3.51511 6.74449 3.50933 6.61087 3.50933V6.70933ZM7.14054 6.72533C7.43616 6.72533 8.25208 6.7154 8.89557 6.06222C9.50813 5.44044 9.6 4.60953 9.6 4.00533H6.4C6.4 4.16819 6.38386 4.20826 6.39306 4.17498C6.40502 4.13168 6.4573 3.97752 6.61599 3.81645C6.78133 3.64861 6.96403 3.57257 7.07945 3.54245C7.17114 3.51852 7.21452 3.52533 7.14054 3.52533V6.72533ZM9.6 4.00172C9.59302 0.911099 7.09331 -1.6 3.9975 -1.6V1.6C5.31893 1.6 6.39699 2.6729 6.4 4.00895L9.6 4.00172ZM6.9864 2.87259C7.03994 2.86116 7.08134 2.85553 7.1031 2.85289C7.12697 2.85 7.14382 2.84872 7.15146 2.84822C7.16601 2.84724 7.16292 2.848 7.13554 2.848V6.048C7.25499 6.048 7.45359 6.04496 7.65445 6.00208L6.9864 2.87259ZM7.13554 2.848C7.09868 2.848 7.07636 2.84796 7.05532 2.84759C7.03591 2.84724 7.02428 2.84669 7.01718 2.84622L6.80418 6.03912C6.94493 6.04851 7.07089 6.048 7.13554 6.048V2.848ZM6.91068 2.84267C6.88851 2.84267 6.86242 2.84204 6.80605 2.84056C6.75658 2.83925 6.68457 2.83733 6.60587 2.83733V6.03733C6.6371 6.03733 6.67002 6.03808 6.72175 6.03944C6.76656 6.04063 6.83791 6.04267 6.91068 6.04267V2.84267ZM6.60587 2.83733C5.9787 2.83733 4.79935 2.93936 3.79411 3.9838L6.09971 6.20286C6.17993 6.11951 6.24496 6.08936 6.30096 6.07176C6.3716 6.04957 6.46387 6.03733 6.60587 6.03733V2.83733ZM3.784 3.9944C2.58947 5.25847 2.9336 6.82816 3.00037 7.21569L6.1539 6.67231C6.1329 6.5504 6.11926 6.46876 6.11096 6.38618C6.10305 6.30744 6.10328 6.25449 6.10641 6.21959C6.10934 6.18694 6.11399 6.17952 6.11117 6.18639C6.10691 6.19674 6.10227 6.20025 6.10981 6.19227L3.784 3.9944ZM2.9963 7.19085C3.00106 7.22135 3.00659 7.25505 3.01055 7.27944C3.01501 7.30684 3.01859 7.32907 3.02166 7.34925C3.02478 7.36968 3.02644 7.38189 3.0272 7.38799C3.02825 7.39649 3.02638 7.38377 3.02485 7.35753L6.21938 7.17047C6.20838 6.98267 6.15939 6.70614 6.15798 6.69715L2.9963 7.19085ZM4.11586 5.7462C4.2438 5.70353 4.24462 5.73333 3.9925 5.73333V8.93333C4.47993 8.93333 4.84052 8.87781 5.12836 8.7818L4.11586 5.7462ZM3.9925 5.73333C2.99854 5.73333 2.21961 4.93768 2.21961 4H-0.980387C-0.980387 6.74232 1.26879 8.93333 3.9925 8.93333V5.73333ZM2.21961 4C2.21961 3.06538 3.00044 2.26667 3.9975 2.26667V-0.933333C1.27689 -0.933333 -0.980387 1.25462 -0.980387 4H2.21961ZM3.9975 2.26667C4.99146 2.26667 5.77039 3.06232 5.77039 4H8.97039C8.97039 1.25768 6.72122 -0.933333 3.9975 -0.933333V2.26667ZM5.77039 4C5.77039 4.07663 5.76589 4.09829 5.76867 4.07862C5.77009 4.06858 5.77462 4.03911 5.78576 3.99519C5.79143 3.97284 5.79989 3.94246 5.81218 3.906C5.82394 3.87113 5.84287 3.81976 5.87153 3.75859L8.76932 5.11608C8.8791 4.88173 8.91893 4.6555 8.93714 4.52671C8.95991 4.36571 8.97039 4.19004 8.97039 4H5.77039Z" fill="url(#paint1_linear_9976_124)" mask="url(#path-1-inside-1_9976_124)"/>
<mask id="path-3-inside-2_9976_124" fill="white">
<path d="M3.03109 4.96398C2.49741 4.96398 2.06736 5.41896 2.06736 5.98199C2.06736 6.54502 2.50259 7 3.03109 7C3.55959 7 3.99482 6.54502 3.99482 5.98199C3.99482 5.41896 3.55959 4.96398 3.03109 4.96398ZM3.03109 6.30047C2.84974 6.30047 2.69948 6.15829 2.69948 5.98199C2.69948 5.80569 2.84974 5.66351 3.03109 5.66351C3.21244 5.66351 3.36269 5.80569 3.36269 5.98199C3.36269 6.15829 3.21244 6.30047 3.03109 6.30047ZM2.92746 3.69005C2.92746 3.12701 2.49223 2.67204 1.96373 2.67204C1.43523 2.67204 1 3.12701 1 3.69005C1 4.25308 1.43523 4.70806 1.96373 4.70806C2.49223 4.70806 2.92746 4.25308 2.92746 3.69005ZM1.96373 4.00853C1.78238 4.00853 1.63212 3.86635 1.63212 3.69005C1.63212 3.51374 1.78238 3.37156 1.96373 3.37156C2.14508 3.37156 2.29534 3.51374 2.29534 3.69005C2.29534 3.86635 2.14508 4.00853 1.96373 4.00853ZM3.79275 1C3.25907 1 2.82902 1.45498 2.82902 2.01801C2.82902 2.58104 3.26425 3.03602 3.79275 3.03602C4.32124 3.03602 4.75648 2.58104 4.75648 2.01801C4.75648 1.45498 4.32124 1 3.79275 1ZM3.79275 2.33649C3.6114 2.33649 3.46114 2.19431 3.46114 2.01801C3.46114 1.84171 3.6114 1.69953 3.79275 1.69953C3.97409 1.69953 4.12435 1.84171 4.12435 2.01801C4.12435 2.19431 3.97409 2.33649 3.79275 2.33649ZM5.07254 3.08152C5.07254 3.64455 5.50777 4.09953 6.03627 4.09953C6.56477 4.09953 7 3.64455 7 3.08152C7 2.51848 6.56477 2.06351 6.03627 2.06351C5.50777 2.06351 5.07254 2.51848 5.07254 3.08152ZM6.36788 3.08152C6.36788 3.25782 6.21762 3.4 6.03627 3.4C5.85492 3.4 5.70466 3.25782 5.70466 3.08152C5.70466 2.90521 5.85492 2.76303 6.03627 2.76303C6.21762 2.76303 6.36788 2.90521 6.36788 3.08152Z"/>
</mask>
<path d="M3.03109 4.96398C2.49741 4.96398 2.06736 5.41896 2.06736 5.98199C2.06736 6.54502 2.50259 7 3.03109 7C3.55959 7 3.99482 6.54502 3.99482 5.98199C3.99482 5.41896 3.55959 4.96398 3.03109 4.96398ZM3.03109 6.30047C2.84974 6.30047 2.69948 6.15829 2.69948 5.98199C2.69948 5.80569 2.84974 5.66351 3.03109 5.66351C3.21244 5.66351 3.36269 5.80569 3.36269 5.98199C3.36269 6.15829 3.21244 6.30047 3.03109 6.30047ZM2.92746 3.69005C2.92746 3.12701 2.49223 2.67204 1.96373 2.67204C1.43523 2.67204 1 3.12701 1 3.69005C1 4.25308 1.43523 4.70806 1.96373 4.70806C2.49223 4.70806 2.92746 4.25308 2.92746 3.69005ZM1.96373 4.00853C1.78238 4.00853 1.63212 3.86635 1.63212 3.69005C1.63212 3.51374 1.78238 3.37156 1.96373 3.37156C2.14508 3.37156 2.29534 3.51374 2.29534 3.69005C2.29534 3.86635 2.14508 4.00853 1.96373 4.00853ZM3.79275 1C3.25907 1 2.82902 1.45498 2.82902 2.01801C2.82902 2.58104 3.26425 3.03602 3.79275 3.03602C4.32124 3.03602 4.75648 2.58104 4.75648 2.01801C4.75648 1.45498 4.32124 1 3.79275 1ZM3.79275 2.33649C3.6114 2.33649 3.46114 2.19431 3.46114 2.01801C3.46114 1.84171 3.6114 1.69953 3.79275 1.69953C3.97409 1.69953 4.12435 1.84171 4.12435 2.01801C4.12435 2.19431 3.97409 2.33649 3.79275 2.33649ZM5.07254 3.08152C5.07254 3.64455 5.50777 4.09953 6.03627 4.09953C6.56477 4.09953 7 3.64455 7 3.08152C7 2.51848 6.56477 2.06351 6.03627 2.06351C5.50777 2.06351 5.07254 2.51848 5.07254 3.08152ZM6.36788 3.08152C6.36788 3.25782 6.21762 3.4 6.03627 3.4C5.85492 3.4 5.70466 3.25782 5.70466 3.08152C5.70466 2.90521 5.85492 2.76303 6.03627 2.76303C6.21762 2.76303 6.36788 2.90521 6.36788 3.08152Z" fill="url(#paint2_linear_9976_124)"/>
<path d="M3.03109 3.36398C1.53158 3.36398 0.467357 4.61977 0.467357 5.98199H3.66736C3.66736 6.21814 3.46324 6.56398 3.03109 6.56398V3.36398ZM0.467357 5.98199C0.467357 7.34994 1.5422 8.6 3.03109 8.6V5.4C3.46298 5.4 3.66736 5.7401 3.66736 5.98199H0.467357ZM3.03109 8.6C4.51997 8.6 5.59482 7.34994 5.59482 5.98199H2.39482C2.39482 5.7401 2.5992 5.4 3.03109 5.4V8.6ZM5.59482 5.98199C5.59482 4.61404 4.51997 3.36398 3.03109 3.36398V6.56398C2.5992 6.56398 2.39482 6.22388 2.39482 5.98199H5.59482ZM3.03109 4.70047C3.66478 4.70047 4.29948 5.20755 4.29948 5.98199H1.09948C1.09948 7.10904 2.0347 7.90047 3.03109 7.90047V4.70047ZM4.29948 5.98199C4.29948 6.75643 3.66479 7.26351 3.03109 7.26351V4.06351C2.0347 4.06351 1.09948 4.85495 1.09948 5.98199H4.29948ZM3.03109 7.26351C2.39739 7.26351 1.76269 6.75643 1.76269 5.98199H4.96269C4.96269 4.85495 4.02748 4.06351 3.03109 4.06351V7.26351ZM1.76269 5.98199C1.76269 5.20755 2.39739 4.70047 3.03109 4.70047V7.90047C4.02748 7.90047 4.96269 7.10904 4.96269 5.98199H1.76269ZM4.52746 3.69005C4.52746 2.32209 3.45262 1.07204 1.96373 1.07204V4.27204C1.53184 4.27204 1.32746 3.93193 1.32746 3.69005H4.52746ZM1.96373 1.07204C0.474845 1.07204 -0.6 2.32209 -0.6 3.69005H2.6C2.6 3.93193 2.39562 4.27204 1.96373 4.27204V1.07204ZM-0.6 3.69005C-0.6 5.058 0.474844 6.30806 1.96373 6.30806V3.10806C2.39562 3.10806 2.6 3.44816 2.6 3.69005H-0.6ZM1.96373 6.30806C3.45262 6.30806 4.52746 5.058 4.52746 3.69005H1.32746C1.32746 3.44816 1.53184 3.10806 1.96373 3.10806V6.30806ZM1.96373 2.40853C2.59743 2.40853 3.23212 2.91561 3.23212 3.69005H0.0321243C0.0321243 4.81709 0.967339 5.60853 1.96373 5.60853V2.40853ZM3.23212 3.69005C3.23212 4.46449 2.59743 4.97156 1.96373 4.97156V1.77156C0.967339 1.77156 0.0321243 2.563 0.0321243 3.69005H3.23212ZM1.96373 4.97156C1.33003 4.97156 0.695337 4.46449 0.695337 3.69005H3.89534C3.89534 2.563 2.96012 1.77156 1.96373 1.77156V4.97156ZM0.695337 3.69005C0.695337 2.91561 1.33003 2.40853 1.96373 2.40853V5.60853C2.96012 5.60853 3.89534 4.81709 3.89534 3.69005H0.695337ZM3.79275 -0.6C2.29324 -0.6 1.22902 0.655794 1.22902 2.01801H4.42902C4.42902 2.25416 4.22489 2.6 3.79275 2.6V-0.6ZM1.22902 2.01801C1.22902 3.38596 2.30386 4.63602 3.79275 4.63602V1.43602C4.22464 1.43602 4.42902 1.77612 4.42902 2.01801H1.22902ZM3.79275 4.63602C5.28163 4.63602 6.35648 3.38596 6.35648 2.01801H3.15648C3.15648 1.77612 3.36085 1.43602 3.79275 1.43602V4.63602ZM6.35648 2.01801C6.35648 0.650057 5.28163 -0.6 3.79275 -0.6V2.6C3.36085 2.6 3.15648 2.2599 3.15648 2.01801H6.35648ZM3.79275 0.736493C4.42644 0.736493 5.06114 1.24357 5.06114 2.01801H1.86114C1.86114 3.14505 2.79635 3.93649 3.79275 3.93649V0.736493ZM5.06114 2.01801C5.06114 2.79245 4.42644 3.29953 3.79275 3.29953V0.099526C2.79635 0.099526 1.86114 0.890965 1.86114 2.01801H5.06114ZM3.79275 3.29953C3.15905 3.29953 2.52435 2.79245 2.52435 2.01801H5.72435C5.72435 0.890963 4.78914 0.099526 3.79275 0.099526V3.29953ZM2.52435 2.01801C2.52435 1.24357 3.15905 0.736493 3.79275 0.736493V3.93649C4.78914 3.93649 5.72435 3.14506 5.72435 2.01801H2.52435ZM3.47254 3.08152C3.47254 4.44947 4.54738 5.69953 6.03627 5.69953V2.49953C6.46816 2.49953 6.67254 2.83963 6.67254 3.08152H3.47254ZM6.03627 5.69953C7.52515 5.69953 8.6 4.44947 8.6 3.08152H5.4C5.4 2.83963 5.60438 2.49953 6.03627 2.49953V5.69953ZM8.6 3.08152C8.6 1.71356 7.52515 0.463507 6.03627 0.463507V3.66351C5.60438 3.66351 5.4 3.3234 5.4 3.08152H8.6ZM6.03627 0.463507C4.54738 0.463507 3.47254 1.71356 3.47254 3.08152H6.67254C6.67254 3.3234 6.46816 3.66351 6.03627 3.66351V0.463507ZM4.76788 3.08152C4.76788 2.30707 5.40258 1.8 6.03627 1.8V5C7.03266 5 7.96788 4.20857 7.96788 3.08152H4.76788ZM6.03627 1.8C6.66997 1.8 7.30466 2.30708 7.30466 3.08152H4.10466C4.10466 4.20856 5.03988 5 6.03627 5V1.8ZM7.30466 3.08152C7.30466 3.85595 6.66997 4.36303 6.03627 4.36303V1.16303C5.03988 1.16303 4.10466 1.95447 4.10466 3.08152H7.30466ZM6.03627 4.36303C5.40258 4.36303 4.76788 3.85596 4.76788 3.08152H7.96788C7.96788 1.95447 7.03266 1.16303 6.03627 1.16303V4.36303Z" fill="url(#paint3_linear_9976_124)" mask="url(#path-3-inside-2_9976_124)"/>
<defs>
<linearGradient id="paint0_linear_9976_124" x1="4" y1="0" x2="4" y2="8" gradientUnits="userSpaceOnUse">
<stop stop-color="white"/>
<stop offset="1" stop-color="#C2C2C2"/>
</linearGradient>
<linearGradient id="paint1_linear_9976_124" x1="4" y1="0" x2="4" y2="8" gradientUnits="userSpaceOnUse">
<stop stop-color="white"/>
<stop offset="1" stop-color="#C2C2C2"/>
</linearGradient>
<linearGradient id="paint2_linear_9976_124" x1="4" y1="1" x2="4" y2="7" gradientUnits="userSpaceOnUse">
<stop stop-color="white"/>
<stop offset="1" stop-color="#C2C2C2"/>
</linearGradient>
<linearGradient id="paint3_linear_9976_124" x1="4" y1="1" x2="4" y2="7" gradientUnits="userSpaceOnUse">
<stop stop-color="white"/>
<stop offset="1" stop-color="#C2C2C2"/>
</linearGradient>
</defs>
</svg>
