<svg width="14" height="16" viewBox="0 0 14 16" fill="none" xmlns="http://www.w3.org/2000/svg">
<path fill-rule="evenodd" clip-rule="evenodd" d="M9.85819 4.19999C9.85819 2.65579 8.57629 1.39999 7 1.39999C5.42371 1.39999 4.14181 2.65579 4.14181 4.19999C4.14181 5.74419 5.42371 6.99999 7 6.99999C8.57629 6.99999 9.85819 5.74419 9.85819 4.19999ZM12.562 14H11.2873C10.8928 14 10.5727 13.6864 10.5727 13.3C10.5727 12.9136 10.8928 12.6 11.2873 12.6H11.5938C12.0883 12.6 12.4534 12.1121 12.2662 11.6634C11.4009 9.58858 9.36872 8.39999 7 8.39999C4.63128 8.39999 2.59911 9.58858 1.73379 11.6634C1.54658 12.1121 1.91171 12.6 2.40618 12.6H2.71272C3.10715 12.6 3.42727 12.9136 3.42727 13.3C3.42727 13.6864 3.10715 14 2.71272 14H1.43797C0.544785 14 -0.158327 13.1999 0.0310275 12.3452C0.551217 9.99388 2.17538 8.25857 4.31473 7.47107C3.33866 6.70177 2.71272 5.52299 2.71272 4.19999C2.71272 1.71429 4.91638 -0.266716 7.51376 0.0293838C9.39587 0.243584 10.955 1.71285 11.2373 3.54895C11.4802 5.13165 10.8193 6.57717 9.68527 7.47107C11.8246 8.25857 13.4488 9.99388 13.969 12.3452C14.1583 13.1999 13.4552 14 12.562 14ZM9.14364 13.3C9.14364 13.6864 8.82352 14 8.42909 14H7.86031C7.86031 14.7 7.93463 15.4 7.14577 15.4C6.75062 15.4 6.43122 15.0864 6.43122 14.7V14H5.57091C5.17648 14 4.85636 13.6864 4.85636 13.3C4.85636 12.9136 5.17648 12.6 5.57091 12.6H6.43122V11.9C6.43122 11.5136 6.75062 11.2 7.14577 11.2C7.5402 11.2 7.86031 11.5136 7.86031 11.9V12.6H8.42909C8.82352 12.6 9.14364 12.9136 9.14364 13.3Z" fill="url(#paint0_linear_11039_622)"/>
<defs>
<linearGradient id="paint0_linear_11039_622" x1="7" y1="0" x2="7" y2="15.4" gradientUnits="userSpaceOnUse">
<stop stop-color="white"/>
<stop offset="1" stop-color="#C1C1C1"/>
</linearGradient>
</defs>
</svg>
