<svg width="8" height="7" viewBox="0 0 8 7" fill="none" xmlns="http://www.w3.org/2000/svg">
<path d="M4.8843 5.53125H4.485H4.1315H4.09769L3.98823 6.01688L3.79375 5.53125H3.248H2.87277L2.76792 5.17097L2.74909 5.10626L2.60085 5.318L2.45156 5.53125H2.19125H1.42657C2.05587 6.12029 2.96087 6.5 4 6.5C5.99791 6.5 7.5 5.09632 7.5 3.5C7.5 3.09426 7.40296 2.70096 7.2254 2.33999L7.16212 2.36895C7.24264 2.57547 7.26472 2.79629 7.24092 3.01895L7.24015 3.02618L7.24009 3.02618C7.18547 3.47534 6.95493 3.83975 6.58406 4.09694L4.8843 5.53125ZM4.8843 5.53125L4.97262 5.14184L5.1282 4.45586M4.8843 5.53125L5.1282 4.45586M5.1282 4.45586L5.30385 4.45653V4.45653H5.30575C5.78227 4.45653 6.22021 4.34936 6.58387 4.09707L5.1282 4.45586ZM6.75872 1.82249L6.67022 1.76167C6.38373 1.56475 6.04323 1.47975 5.68251 1.47108L5.68252 1.47096L5.67135 1.47094L4.38985 1.46875H4.389H3.83525H3.57784L3.42829 1.67826L3.28837 1.87428L3.27476 1.82793L3.16933 1.46875H2.795H1.925H1.42657C2.05587 0.879712 2.96087 0.5 4 0.5C5.33261 0.5 6.44464 1.12449 7.03747 2.01409L6.91305 1.92857L6.82755 1.79102L6.75872 1.82249ZM0.5 3.5C0.5 2.81196 0.779048 2.15971 1.25657 1.64022L1.46029 2.15327L1.94549 3.37518L1.51231 3.91139L1.6903 4.14064L1.6399 4.1637L1.49577 3.93039L1.05237 4.47994L0.860869 4.71728L0.826335 4.76008C0.615974 4.37225 0.5 3.94356 0.5 3.5Z" fill="url(#paint0_linear_9976_119)" stroke="url(#paint1_linear_9976_119)"/>
<defs>
<linearGradient id="paint0_linear_9976_119" x1="4" y1="0" x2="4" y2="7" gradientUnits="userSpaceOnUse">
<stop stop-color="white"/>
<stop offset="1" stop-color="#C2C2C2"/>
</linearGradient>
<linearGradient id="paint1_linear_9976_119" x1="4" y1="0" x2="4" y2="7" gradientUnits="userSpaceOnUse">
<stop stop-color="white"/>
<stop offset="1" stop-color="#C2C2C2"/>
</linearGradient>
</defs>
</svg>
