<svg width="8" height="7" viewBox="0 0 8 7" fill="none" xmlns="http://www.w3.org/2000/svg">
<mask id="path-1-inside-1_9976_123" fill="white">
<path d="M7 0.823113V0.997642L5.17212 0.514151C4.4802 0.332547 3.51463 0.332547 2.82788 0.514151L1 1V0.823113C1 0.292453 1.63511 0 2.7969 0H5.2031C6.36489 0 7 0.292453 7 0.823113Z"/>
</mask>
<path d="M7 0.823113V0.997642L5.17212 0.514151C4.4802 0.332547 3.51463 0.332547 2.82788 0.514151L1 1V0.823113C1 0.292453 1.63511 0 2.7969 0H5.2031C6.36489 0 7 0.292453 7 0.823113Z" fill="url(#paint0_linear_9976_123)"/>
<path d="M7 0.997642L6.74429 1.96439L8 2.29654V0.997642H7ZM5.17212 0.514151L5.42783 -0.452603L5.42598 -0.453088L5.17212 0.514151ZM2.82788 0.514151L2.57223 -0.452618L2.57101 -0.452293L2.82788 0.514151ZM1 1H0V2.30052L1.25688 1.96644L1 1ZM6 0.823113V0.997642H8V0.823113H6ZM7.25571 0.0308891L5.42783 -0.452602L4.9164 1.4809L6.74429 1.96439L7.25571 0.0308891ZM5.42598 -0.453088C4.56827 -0.678208 3.42715 -0.678695 2.57223 -0.452617L3.08354 1.48092C3.6021 1.34379 4.39213 1.3433 4.91825 1.48139L5.42598 -0.453088ZM2.57101 -0.452293L0.743121 0.0335565L1.25688 1.96644L3.08476 1.48059L2.57101 -0.452293ZM2 1V0.823113H0V1H2ZM2 0.823113C2 0.905066 1.97044 1.001 1.91301 1.07642C1.86522 1.13919 1.83219 1.14329 1.87971 1.1215C1.9922 1.0699 2.2734 1 2.7969 1V-1C2.15861 -1 1.54136 -0.923671 1.04585 -0.69638C0.509424 -0.450321 0 0.0476464 0 0.823113H2ZM2.7969 1H5.2031V-1H2.7969V1ZM5.2031 1C5.7266 1 6.0078 1.0699 6.12029 1.1215C6.16781 1.14329 6.13478 1.13919 6.08699 1.07642C6.02956 1.001 6 0.905066 6 0.823113H8C8 0.0476464 7.49058 -0.450321 6.95415 -0.69638C6.45864 -0.923671 5.84139 -1 5.2031 -1V1Z" fill="url(#paint1_linear_9976_123)" mask="url(#path-1-inside-1_9976_123)"/>
<path d="M4.59355 4.99822L4.13419 4.87022M4.59355 4.99822L2.88 4.24445C2.93161 4.28356 2.96774 4.35823 2.96258 4.41156L2.93161 4.75289M4.59355 4.99822C4.87742 5.07289 5.09419 4.96622 5.07355 4.75645M4.59355 4.99822L5.12516 4.248C5.07355 4.28711 5.03742 4.36178 5.04258 4.41511L5.07355 4.75645M4.13419 4.87022C4.06194 4.85245 3.94323 4.85245 3.87097 4.87022M4.13419 4.87022L4.00073 5.3492L3.87097 4.87022M4.13419 4.87022L4.01474 5.35575C4.0208 5.35724 4.02446 5.35785 4.02525 5.35797C4.02574 5.35805 4.02581 5.35806 4.02544 5.35801C4.02512 5.35797 4.02444 5.35789 4.02342 5.35779C4.02246 5.35769 4.02138 5.3576 4.02019 5.35751M3.87097 4.87022L3.41161 4.99467M3.87097 4.87022L3.99042 5.35575C3.98436 5.35724 3.9807 5.35785 3.97991 5.35797C3.97963 5.35802 3.97949 5.35804 3.97949 5.35804C3.97949 5.35804 3.98023 5.35794 3.98174 5.35779C3.9825 5.35771 3.98333 5.35764 3.98423 5.35756M3.41161 4.99467C3.12774 5.07289 2.91097 4.96267 2.93161 4.75289M3.41161 4.99467L3.54236 5.47727L3.54327 5.47703C3.32314 5.53746 3.06255 5.54455 2.83196 5.42806C2.57044 5.29594 2.40331 5.02562 2.43379 4.70628M3.41161 4.99467L3.54444 5.4767L3.98423 5.35756M2.93161 4.75289L2.43402 4.70392C2.43394 4.70471 2.43386 4.70549 2.43379 4.70628M2.93161 4.75289L2.43366 4.70771L2.43379 4.70628M2.43379 4.70628L2.4491 4.53747L2.24394 4.36877C2.24364 4.36853 2.24335 4.36829 2.24306 4.36805C2.06167 4.21964 1.83932 3.90157 2.01842 3.52911C2.15884 3.23707 2.46007 3.13388 2.65662 3.09825L2.65829 3.09794L2.65829 3.09794L3.1027 3.01894L3.33589 2.7718M3.98423 5.35756C3.98881 5.3572 3.99516 5.35689 4.00258 5.35689C4.00961 5.35689 4.01568 5.35716 4.02019 5.35751M3.98423 5.35756L4.00171 5.35283L4.00157 5.35232L4.02019 5.35751M4.02019 5.35751L4.45933 5.47987L4.45932 5.47993L4.46636 5.48178C4.6836 5.53892 4.94212 5.54585 5.17138 5.4312C5.43314 5.3003 5.60202 5.03074 5.57137 4.70979M5.57137 4.70979L5.55583 4.53848M5.57137 4.70979L5.5715 4.71127L5.07355 4.75645M5.57137 4.70979C5.5713 4.70902 5.57122 4.70825 5.57114 4.70748L5.07355 4.75645M5.55583 4.53848L5.76051 4.36511M5.55583 4.53848L5.54054 4.36994M5.55583 4.53848L5.44832 4.62954L5.43796 4.63831L5.42714 4.64651C5.43469 4.64079 5.44165 4.63502 5.44807 4.62925C5.48123 4.59945 5.50012 4.56957 5.5114 4.54659C5.51915 4.53081 5.52736 4.51007 5.53338 4.48384C5.53903 4.45923 5.545 4.41992 5.54054 4.36994M5.76051 4.36511C5.94122 4.21547 6.1595 3.89913 5.98158 3.52911C5.84116 3.23707 5.53993 3.13388 5.34338 3.09824L5.34171 3.09794L4.8973 3.01894L4.66302 2.77064L4.66303 2.77063L4.6604 2.76788C4.29682 2.38839 3.70197 2.37958 3.33589 2.7718M5.76051 4.36511C5.75903 4.36634 5.75754 4.36756 5.75606 4.36877L5.44 3.98134L5.76316 4.36287L5.76051 4.36511ZM3.33589 2.7718C3.33537 2.77235 3.33485 2.77291 3.33433 2.77347L3.70063 3.11377L3.33698 2.77064L3.33589 2.7718ZM5.54054 4.36994C5.54045 4.36895 5.54035 4.36795 5.54026 4.36695L5.54054 4.36994L5.54054 4.36994ZM6.75821 2.45524L6.76857 2.45934L6.7791 2.46296L6.82663 2.47934C7.04628 2.58185 7.19773 2.65594 7.30805 2.71961C7.42273 2.78579 7.45872 2.82188 7.46926 2.83455C7.46935 2.83466 7.46948 2.83478 7.46964 2.83493C7.47141 2.8366 7.47736 2.84223 7.48436 2.87976C7.4951 2.93738 7.5 3.02551 7.5 3.19556V4.80267C7.5 4.97438 7.49544 5.06394 7.48483 5.12297C7.48035 5.14784 7.47616 5.15836 7.47501 5.16103L7.47495 5.16117C7.47435 5.16258 7.474 5.16339 7.47166 5.16624C7.46345 5.17624 7.43084 5.21023 7.31953 5.27428C7.21045 5.33703 7.05938 5.41023 6.83734 5.51291L4.59956 6.40391L4.59861 6.40429C4.45261 6.46277 4.23606 6.5 4 6.5C3.75369 6.5 3.54709 6.46493 3.40774 6.40688L3.40777 6.40682L3.4 6.40374L1.18382 5.52376C0.958513 5.41872 0.804009 5.34329 0.691949 5.27862C0.57727 5.21243 0.541277 5.17634 0.530734 5.16367C0.530645 5.16356 0.530519 5.16345 0.530359 5.16329C0.52859 5.16162 0.52264 5.156 0.515641 5.11846C0.504897 5.06084 0.5 4.97272 0.5 4.80267V3.19556C0.5 3.02569 0.504858 2.93686 0.515555 2.87865C0.523004 2.83812 0.529362 2.8341 0.529902 2.83375C0.529923 2.83374 0.529935 2.83373 0.529938 2.83373C0.53904 2.82267 0.572605 2.7881 0.683668 2.72386C0.790691 2.66195 0.937951 2.58997 1.1525 2.49008L1.2209 2.46652L1.2335 2.46218L1.24585 2.45717L1.94589 2.1735L3.39947 1.59825L3.39947 1.59825L3.40139 1.59749C3.54936 1.53822 3.76417 1.5 4 1.5C4.23583 1.5 4.45064 1.53822 4.59861 1.59749L4.59955 1.59786L6.05503 2.17742L6.05627 2.17791L6.75821 2.45524ZM2.4649 4.3634L2.46463 4.36638C2.46471 4.36539 2.4648 4.36439 2.4649 4.3634ZM4.88755 3.01862C4.88759 3.01864 4.88751 3.01861 4.88732 3.01853L4.88755 3.01862Z" fill="url(#paint2_linear_9976_123)" stroke="url(#paint3_linear_9976_123)"/>
<defs>
<linearGradient id="paint0_linear_9976_123" x1="4" y1="0" x2="4" y2="1" gradientUnits="userSpaceOnUse">
<stop stop-color="white"/>
<stop offset="1" stop-color="#C2C2C2"/>
</linearGradient>
<linearGradient id="paint1_linear_9976_123" x1="4" y1="0" x2="4" y2="1" gradientUnits="userSpaceOnUse">
<stop stop-color="white"/>
<stop offset="1" stop-color="#C2C2C2" stop-opacity="0.760784"/>
</linearGradient>
<linearGradient id="paint2_linear_9976_123" x1="4" y1="1" x2="4" y2="7" gradientUnits="userSpaceOnUse">
<stop stop-color="white"/>
<stop offset="1" stop-color="#C2C2C2"/>
</linearGradient>
<linearGradient id="paint3_linear_9976_123" x1="4" y1="1" x2="4" y2="7" gradientUnits="userSpaceOnUse">
<stop stop-color="white"/>
<stop offset="1" stop-color="#C2C2C2" stop-opacity="0.760784"/>
</linearGradient>
</defs>
</svg>
