<svg width="10" height="9" viewBox="0 0 10 9" fill="none" xmlns="http://www.w3.org/2000/svg">
<path d="M4.32834 1.41051H2.52152C1.98894 1.41051 1.72265 1.41051 1.51923 1.50029C1.34029 1.57926 1.19482 1.70527 1.10365 1.86025C1 2.03645 1 2.2671 1 2.72841V6.6821C1 7.14341 1 7.37408 1.10365 7.55027C1.19482 7.70524 1.34029 7.83127 1.51923 7.91022C1.72265 8 1.98894 8 2.52152 8H7.0861C7.61868 8 7.885 8 8.0884 7.91022C8.26733 7.83127 8.41282 7.70524 8.50397 7.55027C8.60762 7.37408 8.60762 7.14341 8.60762 6.6821V4.91118M6.46798 2.02828L7.81282 3.19315M4.21551 3.9793L7.37662 1.24125C7.74796 0.919583 8.35011 0.919583 8.72145 1.24125C9.09285 1.56292 9.09285 2.08445 8.72145 2.40612L5.45873 5.23217C5.09661 5.54587 4.91555 5.7027 4.70929 5.8274C4.52623 5.93815 4.32876 6.02983 4.12103 6.10066C3.88695 6.18048 3.63594 6.22434 3.13391 6.3121L2.90191 6.35263L2.92447 6.21581C3.0043 5.73177 3.04423 5.48973 3.13503 5.26376C3.2156 5.06323 3.32567 4.87259 3.46252 4.69644C3.61674 4.49793 3.81634 4.32504 4.21551 3.9793Z" stroke="url(#paint0_linear_9965_92)" stroke-linecap="round" stroke-linejoin="round"/>
<defs>
<linearGradient id="paint0_linear_9965_92" x1="5" y1="1" x2="5" y2="8" gradientUnits="userSpaceOnUse">
<stop stop-color="white"/>
<stop offset="1" stop-color="#C2C2C2"/>
</linearGradient>
</defs>
</svg>
