<svg width="8" height="7" viewBox="0 0 8 7" fill="none" xmlns="http://www.w3.org/2000/svg">
<mask id="path-1-inside-1_9976_121" fill="white">
<path fill-rule="evenodd" clip-rule="evenodd" d="M4 5.5C3.17175 5.5 2.5 4.82825 2.5 4C2.5 3.17175 3.17175 2.5 4 2.5C4.82825 2.5 5.5 3.17175 5.5 4C5.5 4.82825 4.82825 5.5 4 5.5ZM4 2C2.8955 2 2 2.8955 2 4C2 5.1045 2.8955 6 4 6C5.1045 6 6 5.1045 6 4C6 2.8955 5.1045 2 4 2ZM7.5 6C7.5 6.276 7.276 6.5 7 6.5H1C0.724 6.5 0.5 6.276 0.5 6V2C0.5 1.724 0.724 1.5 1 1.5H2L2.25 1C2.42675 0.70925 2.474 0.5 2.75 0.5H5.25C5.526 0.5 5.57325 0.70925 5.75 1L6 1.5H7C7.276 1.5 7.5 1.724 7.5 2V6ZM7 1H6.25L6 0.5C5.85275 0.20925 5.776 0 5.5 0H2.5C2.224 0 2.1325 0.2385 2 0.5L1.75 1H1C0.44775 1 0 1.44775 0 2V6C0 6.55225 0.44775 7 1 7H7C7.55225 7 8 6.55225 8 6V2C8 1.44775 7.55225 1 7 1Z"/>
</mask>
<path fill-rule="evenodd" clip-rule="evenodd" d="M4 5.5C3.17175 5.5 2.5 4.82825 2.5 4C2.5 3.17175 3.17175 2.5 4 2.5C4.82825 2.5 5.5 3.17175 5.5 4C5.5 4.82825 4.82825 5.5 4 5.5ZM4 2C2.8955 2 2 2.8955 2 4C2 5.1045 2.8955 6 4 6C5.1045 6 6 5.1045 6 4C6 2.8955 5.1045 2 4 2ZM7.5 6C7.5 6.276 7.276 6.5 7 6.5H1C0.724 6.5 0.5 6.276 0.5 6V2C0.5 1.724 0.724 1.5 1 1.5H2L2.25 1C2.42675 0.70925 2.474 0.5 2.75 0.5H5.25C5.526 0.5 5.57325 0.70925 5.75 1L6 1.5H7C7.276 1.5 7.5 1.724 7.5 2V6ZM7 1H6.25L6 0.5C5.85275 0.20925 5.776 0 5.5 0H2.5C2.224 0 2.1325 0.2385 2 0.5L1.75 1H1C0.44775 1 0 1.44775 0 2V6C0 6.55225 0.44775 7 1 7H7C7.55225 7 8 6.55225 8 6V2C8 1.44775 7.55225 1 7 1Z" fill="black"/>
<path d="M2 1.5V6.5H5.09017L6.47214 3.73607L2 1.5ZM2.25 1L-2.02248 -1.59729L-2.12977 -1.4208L-2.22214 -1.23607L2.25 1ZM5.75 1L10.2221 -1.23607L10.1298 -1.4208L10.0225 -1.59729L5.75 1ZM6 1.5L1.52786 3.73607L2.90983 6.5H6V1.5ZM6.25 1L1.77786 3.23607L3.15983 6H6.25V1ZM6 0.5L10.4721 -1.73607L10.4664 -1.74757L10.4606 -1.75905L6 0.5ZM2 0.5L-2.46013 -1.75991L-2.46617 -1.74801L-2.47214 -1.73607L2 0.5ZM1.75 1V6H4.84017L6.22214 3.23607L1.75 1ZM4 0.5C5.93317 0.5 7.5 2.06683 7.5 4H-2.5C-2.5 7.58967 0.410326 10.5 4 10.5V0.5ZM7.5 4C7.5 5.93317 5.93317 7.5 4 7.5V-2.5C0.410326 -2.5 -2.5 0.410326 -2.5 4H7.5ZM4 7.5C2.06683 7.5 0.5 5.93317 0.5 4H10.5C10.5 0.410326 7.58967 -2.5 4 -2.5V7.5ZM0.5 4C0.5 2.06683 2.06683 0.5 4 0.5V10.5C7.58967 10.5 10.5 7.58967 10.5 4H0.5ZM4 -3C0.134076 -3 -3 0.134076 -3 4H7C7 5.65692 5.65692 7 4 7V-3ZM-3 4C-3 7.86592 0.134076 11 4 11V1C5.65692 1 7 2.34308 7 4H-3ZM4 11C7.86592 11 11 7.86592 11 4H1C1 2.34308 2.34308 1 4 1V11ZM11 4C11 0.134076 7.86592 -3 4 -3V7C2.34308 7 1 5.65692 1 4H11ZM2.5 6C2.5 3.51458 4.51458 1.5 7 1.5V11.5C10.0374 11.5 12.5 9.03742 12.5 6H2.5ZM7 1.5H1V11.5H7V1.5ZM1 1.5C3.48542 1.5 5.5 3.51458 5.5 6H-4.5C-4.5 9.03742 -2.03742 11.5 1 11.5V1.5ZM5.5 6V2H-4.5V6H5.5ZM5.5 2C5.5 4.48542 3.48542 6.5 1 6.5V-3.5C-2.03742 -3.5 -4.5 -1.03742 -4.5 2H5.5ZM1 6.5H2V-3.5H1V6.5ZM6.47214 3.73607L6.72214 3.23607L-2.22214 -1.23607L-2.47214 -0.736068L6.47214 3.73607ZM6.52248 3.59729C6.58749 3.49034 6.63992 3.39804 6.67565 3.3341C6.69318 3.30274 6.70861 3.27474 6.71812 3.25745C6.72991 3.23604 6.73239 3.23153 6.73514 3.22657C6.76949 3.16472 6.64134 3.41032 6.42138 3.69539C6.1636 4.02949 5.67992 4.55698 4.90507 4.96391C4.11056 5.38117 3.33893 5.5 2.75 5.5V-4.5C2.02307 -4.5 1.14203 -4.35501 0.255512 -3.88943C-0.611339 -3.43418 -1.16963 -2.83621 -1.49582 -2.41345C-1.78418 -2.03973 -1.97454 -1.6873 -2.00739 -1.62814C-2.08785 -1.48323 -2.04574 -1.55902 -2.02248 -1.59729L6.52248 3.59729ZM2.75 5.5H5.25V-4.5H2.75V5.5ZM5.25 5.5C4.66107 5.5 3.88944 5.38117 3.09493 4.96391C2.32008 4.55698 1.8364 4.02949 1.57862 3.69539C1.35866 3.41032 1.23051 3.16472 1.26486 3.22657C1.26761 3.23153 1.27009 3.23604 1.28188 3.25745C1.29139 3.27474 1.30682 3.30274 1.32435 3.3341C1.36008 3.39804 1.41251 3.49034 1.47752 3.59729L10.0225 -1.59729C10.0457 -1.55902 10.0879 -1.48323 10.0074 -1.62814C9.97453 -1.6873 9.78418 -2.03973 9.49582 -2.41345C9.16963 -2.83621 8.61134 -3.43418 7.74449 -3.88943C6.85797 -4.35501 5.97693 -4.5 5.25 -4.5V5.5ZM1.27786 3.23607L1.52786 3.73607L10.4721 -0.736068L10.2221 -1.23607L1.27786 3.23607ZM6 6.5H7V-3.5H6V6.5ZM7 6.5C4.51458 6.5 2.5 4.48542 2.5 2H12.5C12.5 -1.03742 10.0374 -3.5 7 -3.5V6.5ZM2.5 2V6H12.5V2H2.5ZM7 -4H6.25V6H7V-4ZM10.7221 -1.23607L10.4721 -1.73607L1.52786 2.73607L1.77786 3.23607L10.7221 -1.23607ZM10.4606 -1.75905C10.4514 -1.77723 10.4511 -1.77812 10.422 -1.83637C10.4017 -1.87703 10.361 -1.95857 10.312 -2.05066C10.2262 -2.21173 10.0164 -2.59691 9.67755 -3.01359C9.31024 -3.46529 8.74032 -4.0196 7.91036 -4.43468C7.06804 -4.85594 6.22576 -5 5.5 -5V5C4.91224 5 4.18305 4.8821 3.43735 4.50916C2.70401 4.14239 2.21423 3.65857 1.91901 3.29553C1.65227 2.9675 1.5065 2.68915 1.48517 2.64909C1.46835 2.61751 1.45991 2.60001 1.47309 2.62644C1.47751 2.63529 1.51183 2.70455 1.53943 2.75905L10.4606 -1.75905ZM5.5 -5H2.5V5H5.5V-5ZM2.5 -5C1.67131 -5 0.794711 -4.81076 -0.0334605 -4.36796C-0.83045 -3.94184 -1.3686 -3.39548 -1.70635 -2.97379C-2.02675 -2.57377 -2.22841 -2.20672 -2.31699 -2.04057C-2.3744 -1.93287 -2.50493 -1.6715 -2.46013 -1.75991L6.46013 2.75991C6.48655 2.70778 6.52154 2.63711 6.5233 2.63357C6.53456 2.61099 6.52517 2.63037 6.50741 2.66368C6.48188 2.71157 6.34519 2.96995 6.09873 3.27767C5.83492 3.60704 5.37967 4.07743 4.6816 4.45067C3.95235 4.84057 3.19069 5 2.5 5V-5ZM-2.47214 -1.73607L-2.72214 -1.23607L6.22214 3.23607L6.47214 2.73607L-2.47214 -1.73607ZM1.75 -4H1V6H1.75V-4ZM1 -4C-2.31367 -4 -5 -1.31367 -5 2H5C5 4.20917 3.20917 6 1 6V-4ZM-5 2V6H5V2H-5ZM-5 6C-5 9.31367 -2.31367 12 1 12V2C3.20917 2 5 3.79083 5 6H-5ZM1 12H7V2H1V12ZM7 12C10.3137 12 13 9.31367 13 6H3C3 3.79083 4.79083 2 7 2V12ZM13 6V2H3V6H13ZM13 2C13 -1.31367 10.3137 -4 7 -4V6C4.79083 6 3 4.20917 3 2H13Z" fill="url(#paint0_linear_9976_121)" mask="url(#path-1-inside-1_9976_121)"/>
<defs>
<linearGradient id="paint0_linear_9976_121" x1="4" y1="0" x2="4" y2="7" gradientUnits="userSpaceOnUse">
<stop stop-color="white"/>
<stop offset="1" stop-color="#C2C2C2"/>
</linearGradient>
</defs>
</svg>
