<svg width="8" height="7" viewBox="0 0 8 7" fill="none" xmlns="http://www.w3.org/2000/svg">
<path d="M4.00014 6.5L4.00012 7L4.00009 6.5H4.00001H3.99988H3.9997H3.99947H3.99919H3.99886H3.99847H3.99804H3.99755H3.99702H3.99643H3.9958H3.99511H3.99438H3.99359H3.99276H3.99188H3.99095H3.98997H3.98894H3.98787H3.98674H3.98557H3.98435H3.98308H3.98177H3.9804H3.97899H3.97754H3.97603H3.97448H3.97288H3.97124H3.96955H3.96782H3.96603H3.96421H3.96233H3.96042H3.95845H3.95644H3.95439H3.95229H3.95015H3.94796H3.94573H3.94346H3.94114H3.93878H3.93637H3.93392H3.93143H3.92889H3.92631H3.92369H3.92103H3.91832H3.91557H3.91278H3.90995H3.90708H3.90416H3.9012H3.89821H3.89517H3.89209H3.88897H3.8858H3.8826H3.87936H3.87608H3.87276H3.8694H3.86599H3.86255H3.85907H3.85556H3.852H3.8484H3.84477H3.84109H3.83738H3.83363H3.82984H3.82602H3.82216H3.81826H3.81432H3.81034H3.80633H3.80228H3.7982H3.79408H3.78992H3.78573H3.7815H3.77723H3.77293H3.7686H3.76423H3.75982H3.75538H3.7509H3.74639H3.74185H3.73727H3.73266H3.72801H3.72333H3.71861H3.71387H3.70908H3.70427H3.69942H3.69454H3.68963H3.68469H3.67971H3.6747H3.66966H3.66459H3.65948H3.65435H3.64918H3.64398H3.63875H3.63349H3.6282H3.62288H3.61753H3.61215H3.60674H3.6013H3.59583H3.59033H3.5848H3.57924H3.57366H3.56804H3.5624H3.55672H3.55102H3.54529H3.53954H3.53375H3.52794H3.5221H3.51623H3.51034H3.50442H3.49847H3.4925H3.4865H3.48047H3.47442H3.46834H3.46223H3.4561H3.44995H3.44377H3.43756H3.43133H3.42507H3.41879H3.41249H3.40616H3.3998H3.39343H3.38703H3.3806H3.37415H3.36768H3.36119H3.35467H3.34813H3.34157H3.33498H3.32837H3.32174H3.31509H3.30842H3.30172H3.29501H3.28827H3.28151H3.27473H3.26793H3.26111H3.25427H3.24741H3.24052H3.23362H3.2267H3.21976H3.2128H3.20582H3.19882H3.1918H3.18476H3.17771H3.17063H3.16354H3.15643H3.1493H3.14216H3.13499H3.12781H3.12061H3.1134H3.10617H3.09892H3.09165H3.08437H3.07707H3.06975H3.06242H3.05508H3.04771H3.04034H3.03294H3.02553H3.01811H3.01067H3.00322H2.99575H2.98827H2.98078H2.97327H2.96574H2.95821H2.95065H2.94309H2.93551H2.92792H2.92032H2.91271H2.90508H2.89744H2.88979H2.88212H2.87444H2.86676H2.85906H2.85135H2.84363H2.83589H2.82815H2.8204H2.81263H2.80486H2.79707H2.78928H2.78147H2.77366H2.76583H2.758H2.75016H2.7423H2.73444H2.72657H2.7187H2.71081H2.70292H2.69502H2.68711H2.67919H2.67126H2.66333H2.65539H2.64744H2.63949H2.63153H2.62356H2.61559H2.60761H2.59963H2.59164H2.58364H2.57564H2.56763H2.55962H2.5516H2.54358H2.53555H2.52752H2.51948H2.51144H2.5034H2.49535H2.4873H2.47925H2.47119H2.46313H2.45506H2.44699H2.43892H2.43085H2.42278H2.4147H2.40662H2.39854H2.39046H2.38237H2.37429H2.3662H2.35811H2.35002H2.34193H2.33384H2.32575H2.31766H2.30957H2.30148H2.29339H2.2853H2.27721H2.26913H2.26104H2.25295H2.24487H2.23679H2.2287H2.22062H2.21255H2.20447H2.1964H2.18833H2.18026H2.17219H2.16413H2.15607H2.14802H2.13996H2.13191H2.12387H2.11583H2.10779H2.09976H2.09173H2.08371H2.07569H2.06767H2.05966H2.05166H2.04366H2.03567H2.02768H2.0197H2.01173H2.00376H1.9958H1.98784H1.9799H1.97195H1.96402H1.95609H1.94817H1.94026H1.93236H1.92446H1.91657H1.90869H1.90082H1.89296H1.88511H1.87726H1.86943H1.8616H1.85378H1.84597H1.83818H1.83039H1.82261H1.81484H1.80709H1.79934H1.7916H1.78388H1.77617H1.76846H1.76077H1.75309H1.74543H1.73777H1.73013H1.7225H1.71488H1.70727H1.69968H1.6921H1.68453H1.67698H1.66944H1.66191H1.6544H1.6469H1.63941H1.63194H1.62448H1.61704H1.60961H1.6022H1.5948H1.58742H1.58006H1.57271H1.56537H1.55805H1.55075H1.54346H1.53619H1.52894H1.5217H1.51448H1.50728H1.50009H1.49292H1.48577H1.47864H1.47152H1.46442H1.45735H1.45029H1.44324H1.43622H1.42922H1.42223H1.41527H1.40832H1.40139H1.39448H1.3876H1.38073H1.37388H1.36706H1.36025H1.35347H1.3467H1.33996H1.33324H1.32653H1.31986H1.3132H1.30656H1.29995H1.29336H1.28679H1.28024H1.27372H1.26722H1.26074H1.25429H1.24786H1.24145H1.23507H1.22871H1.22237H1.21606H1.20977H1.20351H1.19727H1.19106H1.18487H1.17871H1.17257H1.16646H1.16037H1.15431H1.14828H1.14227H1.13629H1.13034H1.12441H1.11851H1.11263H1.10679H1.10097H1.09517H1.08941H1.08367H1.07797H1.07229H1.06663H1.06101H1.05542H1.04985H1.04431H1.03881H1.03333H1.02788H1.02246H1.01707H1.01171H1.00638H1.00109H0.995818H0.990581H0.985375H0.9802H0.975056H0.969943H0.964862H0.959813H0.954796H0.94981H0.944857H0.939936H0.935048H0.930192H0.925369H0.92058C0.732156 6.5 0.606512 6.40193 0.542262 6.25062C0.473629 6.08898 0.482082 5.8708 0.615813 5.68187L0.615893 5.68176C0.897951 5.28304 1.34448 4.835 2.05791 4.54575C2.63109 4.82203 3.29572 4.9784 4.0001 4.9784C4.70414 4.9784 5.36873 4.82201 5.94187 4.54574C6.65531 4.835 7.10188 5.28304 7.38417 5.68187L7.38418 5.68188C7.51792 5.87081 7.52637 6.08899 7.45774 6.25062C7.39349 6.40194 7.26785 6.5 7.07945 6.5H7.07466H7.06983H7.06498H7.06009H7.05517H7.05021H7.04523H7.04021H7.03516H7.03008H7.02497H7.01982H7.01465H7.00944H7.00421H6.99894H6.99364H6.98831H6.98295H6.97756H6.97214H6.9667H6.96122H6.95571H6.95017H6.94461H6.93901H6.93339H6.92774H6.92206H6.91635H6.91061H6.90485H6.89906H6.89324H6.88739H6.88152H6.87562H6.86969H6.86373H6.85775H6.85174H6.84571H6.83965H6.83357H6.82745H6.82132H6.81515H6.80897H6.80275H6.79652H6.79025H6.78397H6.77766H6.77132H6.76496H6.75858H6.75217H6.74574H6.73929H6.73281H6.72631H6.71978H6.71324H6.70667H6.70008H6.69347H6.68683H6.68017H6.67349H6.66679H6.66007H6.65333H6.64657H6.63978H6.63297H6.62615H6.6193H6.61243H6.60555H6.59864H6.59171H6.58477H6.5778H6.57082H6.56381H6.55679H6.54975H6.54269H6.53561H6.52851H6.5214H6.51427H6.50711H6.49995H6.49276H6.48556H6.47834H6.4711H6.46385H6.45658H6.44929H6.44199H6.43467H6.42733H6.41998H6.41262H6.40524H6.39784H6.39043H6.383H6.37556H6.3681H6.36063H6.35315H6.34565H6.33814H6.33061H6.32307H6.31552H6.30795H6.30037H6.29278H6.28517H6.27755H6.26992H6.26228H6.25462H6.24696H6.23928H6.23159H6.22388H6.21617H6.20845H6.20071H6.19297H6.18521H6.17744H6.16967H6.16188H6.15408H6.14627H6.13846H6.13063H6.1228H6.11495H6.1071H6.09924H6.09136H6.08349H6.0756H6.0677H6.0598H6.05189H6.04397H6.03604H6.02811H6.02017H6.01222H6.00426H5.9963H5.98834H5.98036H5.97238H5.9644H5.9564H5.94841H5.9404H5.9324H5.92438H5.91636H5.90834H5.90031H5.89228H5.88424H5.8762H5.86816H5.86011H5.85206H5.844H5.83595H5.82788H5.81982H5.81175H5.80368H5.79561H5.78753H5.77946H5.77138H5.7633H5.75521H5.74713H5.73904H5.73096H5.72287H5.71478H5.70669H5.6986H5.69051H5.68242H5.67433H5.66624H5.65815H5.65007H5.64198H5.63389H5.6258H5.61772H5.60964H5.60155H5.59347H5.58539H5.57732H5.56924H5.56117H5.5531H5.54504H5.53697H5.52891H5.52085H5.5128H5.50475H5.4967H5.48866H5.48062H5.47258H5.46455H5.45652H5.4485H5.44049H5.43247H5.42447H5.41647H5.40847H5.40048H5.3925H5.38452H5.37654H5.36858H5.36062H5.35267H5.34472H5.33678H5.32885H5.32093H5.31301H5.3051H5.2972H5.28931H5.28142H5.27354H5.26568H5.25782H5.24996H5.24212H5.23429H5.22647H5.21865H5.21085H5.20305H5.19527H5.18749H5.17973H5.17198H5.16423H5.1565H5.14878H5.14107H5.13337H5.12569H5.11801H5.11035H5.10269H5.09505H5.08743H5.07981H5.07221H5.06462H5.05704H5.04948H5.04193H5.0344H5.02687H5.01936H5.01187H5.00439H4.99692H4.98947H4.98203H4.97461H4.9672H4.95981H4.95243H4.94507H4.93772H4.93039H4.92308H4.91578H4.9085H4.90123H4.89398H4.88675H4.87954H4.87234H4.86516H4.858H4.85085H4.84372H4.83661H4.82952H4.82245H4.81539H4.80836H4.80134H4.79434H4.78736H4.7804H4.77346H4.76654H4.75964H4.75276H4.74589H4.73905H4.73223H4.72543H4.71865H4.71189H4.70516H4.69844H4.69175H4.68508H4.67842H4.67179H4.66519H4.6586H4.65204H4.6455H4.63898H4.63249H4.62602H4.61957H4.61315H4.60675H4.60037H4.59402H4.58769H4.58139H4.57511H4.56885H4.56262H4.55641H4.55023H4.54408H4.53795H4.53184H4.52577H4.51971H4.51369H4.50769H4.50171H4.49577H4.48985H4.48395H4.47809H4.47225H4.46643H4.46065H4.45489H4.44917H4.44347H4.43779H4.43215H4.42653H4.42095H4.41539H4.40986H4.40436H4.39889H4.39345H4.38804H4.38266H4.37731H4.37199H4.3667H4.36144H4.35621H4.35102H4.34585H4.34072H4.33561H4.33054H4.3255H4.32049H4.31551H4.31057H4.30566H4.30078H4.29593H4.29112H4.28634H4.28159H4.27688H4.2722H4.26755H4.26294H4.25836H4.25381H4.2493H4.24483H4.24039H4.23598H4.23161H4.22728H4.22298H4.21871H4.21448H4.21029H4.20613H4.20201H4.19793H4.19388H4.18987H4.1859H4.18196H4.17806H4.1742H4.17037H4.16658H4.16283H4.15912H4.15545H4.15182H4.14822H4.14466H4.14114H4.13766H4.13422H4.13082H4.12746H4.12414H4.12086H4.11762H4.11442H4.11125H4.10813H4.10505H4.10202H4.09902H4.09606H4.09315H4.09027H4.08744H4.08465H4.0819H4.0792H4.07653H4.07391H4.07133H4.0688H4.0663H4.06386H4.06145H4.05909H4.05677H4.05449H4.05226H4.05008H4.04793H4.04584H4.04378H4.04178H4.03981H4.03789H4.03602H4.03419H4.03241H4.03068H4.02899H4.02735H4.02575H4.0242H4.02269H4.02124H4.01983H4.01847H4.01715H4.01588H4.01466H4.01349H4.01237H4.01129H4.01026H4.00928H4.00835H4.00747H4.00664H4.00585H4.00512H4.00444H4.0038H4.00321H4.00268H4.00219H4.00176H4.00138H4.00104H4.00076H4.00053H4.00035H4.00022H4.00014Z" fill="url(#paint0_linear_9976_75)" stroke="url(#paint1_linear_9976_75)"/>
<path d="M5.5 2.21392C5.5 2.87251 4.88326 3.5 4.00016 3.5C3.11682 3.5 2.5 2.87244 2.5 2.21394V1.78608C2.5 1.12756 3.11681 0.5 4.00016 0.5C4.88326 0.5 5.5 1.12749 5.5 1.78606V2.21392Z" fill="url(#paint2_linear_9976_75)" stroke="url(#paint3_linear_9976_75)"/>
<defs>
<linearGradient id="paint0_linear_9976_75" x1="4" y1="4" x2="4" y2="7" gradientUnits="userSpaceOnUse">
<stop stop-color="white"/>
<stop offset="1" stop-color="#C2C2C2"/>
</linearGradient>
<linearGradient id="paint1_linear_9976_75" x1="4" y1="4" x2="4" y2="7" gradientUnits="userSpaceOnUse">
<stop stop-color="white"/>
<stop offset="1" stop-color="#C2C2C2"/>
</linearGradient>
<linearGradient id="paint2_linear_9976_75" x1="4" y1="0" x2="4" y2="4" gradientUnits="userSpaceOnUse">
<stop stop-color="white"/>
<stop offset="1" stop-color="#C2C2C2"/>
</linearGradient>
<linearGradient id="paint3_linear_9976_75" x1="4" y1="0" x2="4" y2="4" gradientUnits="userSpaceOnUse">
<stop stop-color="white"/>
<stop offset="1" stop-color="#C2C2C2"/>
</linearGradient>
</defs>
</svg>
