<?xml version="1.0" encoding="UTF-8"?>
<!DOCTYPE svg PUBLIC "-//W3C//DTD SVG 1.1//EN" "http://www.w3.org/Graphics/SVG/1.1/DTD/svg11.dtd">
<svg xmlns="http://www.w3.org/2000/svg" version="1.1" width="86px" height="86px" style="shape-rendering:geometricPrecision; text-rendering:geometricPrecision; image-rendering:optimizeQuality; fill-rule:evenodd; clip-rule:evenodd" xmlns:xlink="http://www.w3.org/1999/xlink">
<g><path style="opacity:0.774" fill="#fefffe" d="M -0.5,68.5 C -0.5,66.5 -0.5,64.5 -0.5,62.5C 0.910961,57.574 3.74429,53.574 8,50.5C 8.30066,47.0258 9.13399,43.6925 10.5,40.5C 9.3957,36.2282 6.72904,33.3948 2.5,32C 1.60064,30.3484 0.60064,28.8484 -0.5,27.5C -0.5,23.1667 -0.5,18.8333 -0.5,14.5C 1.34735,11.8285 4.01402,10.8285 7.5,11.5C 7.17095,15.4204 6.33762,19.0871 5,22.5C 9.49017,25.7581 13.3235,29.7581 16.5,34.5C 25.9973,35.305 35.3306,36.9717 44.5,39.5C 49.871,37.1483 54.5377,33.8149 58.5,29.5C 59.0276,32.8607 60.8609,35.1941 64,36.5C 67.7148,43.3827 65.5481,46.716 57.5,46.5C 55.8456,56.1945 59.3456,63.5278 68,68.5C 68.4828,69.448 68.6495,70.448 68.5,71.5C 65.4816,71.6646 62.4816,71.498 59.5,71C 54.6353,67.1319 50.1353,62.9652 46,58.5C 43.5409,58.8902 41.8743,60.2235 41,62.5C 40.861,65.5752 41.361,68.5752 42.5,71.5C 39.5,71.5 36.5,71.5 33.5,71.5C 33.2302,67.1496 33.8968,62.983 35.5,59C 32.4203,56.1845 29.087,55.8511 25.5,58C 24.0716,60.1847 22.4049,62.1847 20.5,64C 21.8168,65.6591 23.4835,66.8257 25.5,67.5C 26.4287,68.6888 26.762,70.0222 26.5,71.5C 17.4326,72.4768 12.4326,68.4768 11.5,59.5C 10.1667,60.5 8.83333,61.5 7.5,62.5C 6.95943,64.7138 6.6261,66.8805 6.5,69C 4.11521,69.5564 1.78188,69.3897 -0.5,68.5 Z"/></g>
</svg>
