<?xml version="1.0" encoding="UTF-8"?>
<!DOCTYPE svg PUBLIC "-//W3C//DTD SVG 1.1//EN" "http://www.w3.org/Graphics/SVG/1.1/DTD/svg11.dtd">
<svg xmlns="http://www.w3.org/2000/svg" version="1.1" width="86px" height="86px" style="shape-rendering:geometricPrecision; text-rendering:geometricPrecision; image-rendering:optimizeQuality; fill-rule:evenodd; clip-rule:evenodd" xmlns:xlink="http://www.w3.org/1999/xlink">
<g><path style="opacity:0.836" fill="#fefffe" d="M 51.5,25.5 C 52.7498,25.5774 53.5831,26.244 54,27.5C 54.7175,26.5494 55.5509,26.3828 56.5,27C 57.9868,30.3002 59.9868,33.1335 62.5,35.5C 62.3918,36.4419 62.0585,37.2753 61.5,38C 59.2686,38.622 57.4352,39.7887 56,41.5C 53.9408,47.3052 53.1075,53.3052 53.5,59.5C 52.1667,59.5 50.8333,59.5 49.5,59.5C 49.7261,56.7508 49.3928,54.0841 48.5,51.5C 45.3091,50.0774 41.9758,49.0774 38.5,48.5C 36.1667,50.5 33.8333,52.5 31.5,54.5C 30.5481,56.0453 30.2148,57.712 30.5,59.5C 29.325,59.719 28.325,59.3857 27.5,58.5C 26.8333,56.8333 26.1667,55.1667 25.5,53.5C 27.0546,49.5065 28.0546,45.3398 28.5,41C 25.1434,39.4875 23.1434,36.9875 22.5,33.5C 24.9053,34.6871 27.2387,36.1871 29.5,38C 35.5391,38.5726 41.5391,38.2393 47.5,37C 49.1365,33.2566 50.4698,29.4232 51.5,25.5 Z"/></g>
</svg>
