<?xml version="1.0" encoding="UTF-8"?>
<!DOCTYPE svg PUBLIC "-//W3C//DTD SVG 1.1//EN" "http://www.w3.org/Graphics/SVG/1.1/DTD/svg11.dtd">
<svg xmlns="http://www.w3.org/2000/svg" version="1.1" width="86px" height="86px" style="shape-rendering:geometricPrecision; text-rendering:geometricPrecision; image-rendering:optimizeQuality; fill-rule:evenodd; clip-rule:evenodd" xmlns:xlink="http://www.w3.org/1999/xlink">
<g><path style="opacity:0.914" fill="#fefffe" d="M 48.5,14.5 C 50.1439,14.2865 51.6439,14.6198 53,15.5C 54.8847,19.3982 55.3847,23.3982 54.5,27.5C 59.218,30.5896 62.218,34.9229 63.5,40.5C 60.9359,41.866 58.4359,43.5327 56,45.5C 56.1637,50.6677 54.497,55.3343 51,59.5C 50.3333,60.8333 50.3333,62.1667 51,63.5C 52.5218,65.0218 54.0218,66.5218 55.5,68C 53.2052,71.2507 50.2052,72.0841 46.5,70.5C 43.7851,68.2813 41.2851,65.948 39,63.5C 37.1945,65.7353 35.3611,68.0687 33.5,70.5C 13.9115,75.4552 8.74487,68.7885 18,50.5C 23.9192,43.743 31.4192,40.243 40.5,40C 41.6667,39.5 42.5,38.6667 43,37.5C 43.3747,34.9999 44.2081,32.6666 45.5,30.5C 42.5,25.8333 39.5,21.1667 36.5,16.5C 40.4805,15.1085 44.1472,15.7752 47.5,18.5C 48.4287,17.3112 48.762,15.9778 48.5,14.5 Z"/></g>
</svg>
