<?xml version="1.0" encoding="UTF-8"?>
<!DOCTYPE svg PUBLIC "-//W3C//DTD SVG 1.1//EN" "http://www.w3.org/Graphics/SVG/1.1/DTD/svg11.dtd">
<svg xmlns="http://www.w3.org/2000/svg" version="1.1" width="86px" height="86px" style="shape-rendering:geometricPrecision; text-rendering:geometricPrecision; image-rendering:optimizeQuality; fill-rule:evenodd; clip-rule:evenodd" xmlns:xlink="http://www.w3.org/1999/xlink">
<g><path style="opacity:0.857" fill="#fefffe" d="M 54.5,68.5 C 53.7785,73.0178 51.6118,73.6845 48,70.5C 47.3339,63.5071 46.8339,56.5071 46.5,49.5C 42.9408,49.7155 39.4408,49.3822 36,48.5C 34.7387,48.7591 33.7387,49.4258 33,50.5C 29.759,55.1236 28.5923,60.1236 29.5,65.5C 32.337,66.5095 33.6703,68.5095 33.5,71.5C 26.949,71.7879 23.2823,68.6212 22.5,62C 27.1078,53.6765 26.2745,52.8432 20,59.5C 17.3762,63.5795 18.0429,66.9129 22,69.5C 22.49,70.7932 22.6567,72.1266 22.5,73.5C 15.5102,73.7771 12.1769,70.2771 12.5,63C 12.6816,60.6572 13.6816,58.8239 15.5,57.5C 14.3112,56.5713 12.9778,56.238 11.5,56.5C 9.69481,47.3242 12.0281,39.4908 18.5,33C 20.087,32.1376 21.7536,31.4709 23.5,31C 31.6329,30.9255 39.6329,29.9255 47.5,28C 48.91,27.6322 49.91,26.7989 50.5,25.5C 48.876,24.1311 48.376,22.4645 49,20.5C 51.4977,21.5982 53.9977,21.4316 56.5,20C 60.6176,17.3903 64.6176,14.557 68.5,11.5C 69.943,14.428 71.6097,17.2613 73.5,20C 72.8307,21.8475 71.4974,23.0142 69.5,23.5C 68.6816,26.1071 68.1816,28.7737 68,31.5C 64.9069,39.4175 61.9069,47.4175 59,55.5C 58.3333,58.8333 58.3333,62.1667 59,65.5C 60.883,66.6526 61.7163,68.3193 61.5,70.5C 58.7892,70.8151 56.4559,70.1484 54.5,68.5 Z M 54.5,68.5 C 53.8501,68.1961 53.1835,67.8627 52.5,67.5C 51.3452,64.5541 51.1786,61.5541 52,58.5C 53.2775,61.7206 54.1109,65.054 54.5,68.5 Z"/></g>
</svg>
