<?xml version="1.0" encoding="UTF-8"?>
<!DOCTYPE svg PUBLIC "-//W3C//DTD SVG 1.1//EN" "http://www.w3.org/Graphics/SVG/1.1/DTD/svg11.dtd">
<svg xmlns="http://www.w3.org/2000/svg" version="1.1" width="86px" height="86px" style="shape-rendering:geometricPrecision; text-rendering:geometricPrecision; image-rendering:optimizeQuality; fill-rule:evenodd; clip-rule:evenodd" xmlns:xlink="http://www.w3.org/1999/xlink">
<g><path style="opacity:0.823" fill="#fefffe" d="M 43.5,68.5 C 44.5624,69.5754 44.5624,70.5754 43.5,71.5C 37.7982,73.2866 32.4648,72.62 27.5,69.5C 27.5071,65.3375 27.3404,61.0041 27,56.5C 26.586,56.0426 26.086,55.7093 25.5,55.5C 22.5,58.1667 19.5,60.8333 16.5,63.5C 18.1128,64.4274 19.7795,65.2607 21.5,66C 22.3366,67.0113 22.67,68.1779 22.5,69.5C 15.7979,71.0158 11.4646,68.6825 9.5,62.5C 12.5396,59.4537 14.873,55.7871 16.5,51.5C 15.0673,43.2396 15.5673,35.2396 18,27.5C 16.3333,26.1667 14.6667,26.1667 13,27.5C 11.8225,32.5435 10.4892,37.5435 9,42.5C 7.84555,43.7433 6.51221,44.7433 5,45.5C 5.37078,37.5226 7.53745,30.0226 11.5,23C 13.0344,22.077 14.701,21.577 16.5,21.5C 20.5,22.8333 24.5,24.1667 28.5,25.5C 35.6273,24.5746 42.6273,23.0746 49.5,21C 52.5,19.3333 54.8333,17 56.5,14C 60.9738,13.1185 64.9738,14.1185 68.5,17C 69.8333,17.6667 69.8333,18.3333 68.5,19C 73.0562,20.4812 74.7228,23.6479 73.5,28.5C 70.1379,28.0695 67.3046,29.0695 65,31.5C 61.5991,43.3174 60.7658,55.3174 62.5,67.5C 64.756,68.4209 65.756,70.0876 65.5,72.5C 62.8806,72.7683 60.3806,72.435 58,71.5C 56.3216,65.4473 54.6549,59.4473 53,53.5C 52.3116,57.2093 50.8116,60.5427 48.5,63.5C 49.3202,65.1112 50.6536,65.7778 52.5,65.5C 52.5,66.5 52.5,67.5 52.5,68.5C 49.5,68.5 46.5,68.5 43.5,68.5 Z M 43.5,68.5 C 40.4177,67.9831 37.4177,67.1498 34.5,66C 37.7145,58.7457 37.7145,51.579 34.5,44.5C 34.8333,44.1667 35.1667,43.8333 35.5,43.5C 38.5715,45.4144 41.9049,46.7477 45.5,47.5C 46.1398,53.9997 45.1398,60.333 42.5,66.5C 42.8627,67.1835 43.1961,67.8501 43.5,68.5 Z"/></g>
</svg>
