<svg width="13" height="13" viewBox="0 0 13 13" fill="none" xmlns="http://www.w3.org/2000/svg">
<path d="M2.43555 12.1878H10.5605V10.1565C10.5597 9.40257 10.2598 8.67976 9.72666 8.14665C9.19354 7.61353 8.47073 7.31364 7.7168 7.31276H5.2793C4.52536 7.31364 3.80255 7.61353 3.26944 8.14665C2.73632 8.67976 2.43643 9.40257 2.43555 10.1565V12.1878Z" fill="url(#paint0_linear_5900_32)"/>
<path d="M3.65625 3.65608C3.65625 4.21852 3.82303 4.76833 4.13551 5.23599C4.44798 5.70364 4.89212 6.06813 5.41174 6.28337C5.93137 6.4986 6.50315 6.55492 7.05479 6.44519C7.60642 6.33547 8.11313 6.06462 8.51083 5.66692C8.90854 5.26921 9.17938 4.76251 9.28911 4.21087C9.39883 3.65924 9.34252 3.08745 9.12728 2.56783C8.91205 2.0482 8.54755 1.60407 8.0799 1.29159C7.61225 0.979115 7.06244 0.812332 6.5 0.812332C5.74579 0.812332 5.02247 1.11194 4.48917 1.64525C3.95586 2.17855 3.65625 2.90187 3.65625 3.65608Z" fill="url(#paint1_linear_5900_32)"/>
<defs>
<linearGradient id="paint0_linear_5900_32" x1="6.49805" y1="7.31276" x2="6.49805" y2="12.1878" gradientUnits="userSpaceOnUse">
<stop stop-color="white"/>
<stop offset="0.0001" stop-color="white"/>
<stop offset="1" stop-color="#EAEAEA"/>
</linearGradient>
<linearGradient id="paint1_linear_5900_32" x1="6.5" y1="0.812332" x2="6.5" y2="6.49984" gradientUnits="userSpaceOnUse">
<stop stop-color="white"/>
<stop offset="0.0001" stop-color="white"/>
<stop offset="1" stop-color="#EAEAEA"/>
</linearGradient>
</defs>
</svg>
