<?xml version="1.0" encoding="UTF-8"?>
<!DOCTYPE svg PUBLIC "-//W3C//DTD SVG 1.1//EN" "http://www.w3.org/Graphics/SVG/1.1/DTD/svg11.dtd">
<svg xmlns="http://www.w3.org/2000/svg" version="1.1" width="86px" height="86px" style="shape-rendering:geometricPrecision; text-rendering:geometricPrecision; image-rendering:optimizeQuality; fill-rule:evenodd; clip-rule:evenodd" xmlns:xlink="http://www.w3.org/1999/xlink">
<g><path style="opacity:0.891" fill="#fefffe" d="M 74.5,16.5 C 75.5,16.5 76.5,16.5 77.5,16.5C 77.6766,18.9806 76.6766,20.8139 74.5,22C 77,24.5 79.5,27 82,29.5C 82.4955,31.4727 82.6621,33.4727 82.5,35.5C 77.5536,35.5888 72.8869,36.7555 68.5,39C 65.6023,42.9046 63.1023,47.0713 61,51.5C 59.4878,52.2567 58.1545,53.2567 57,54.5C 56.3333,57.5 56.3333,60.5 57,63.5C 58.7411,66.3093 59.9078,69.3093 60.5,72.5C 57.9208,72.9167 55.7542,72.25 54,70.5C 50.5118,73.4615 47.8451,72.7948 46,68.5C 45.6972,64.106 45.0305,59.7727 44,55.5C 43.1612,54.3759 41.9945,53.7092 40.5,53.5C 36.8449,54.0819 33.1782,54.5819 29.5,55C 27.36,55.9733 25.6933,57.4733 24.5,59.5C 23.5,58.1667 22.5,58.1667 21.5,59.5C 20.8333,58.8333 20.1667,58.1667 19.5,57.5C 19.1667,57.8333 18.8333,58.1667 18.5,58.5C 19.6343,61.0698 20.4677,63.7365 21,66.5C 22.803,67.3134 24.303,68.4801 25.5,70C 22.71,73.3308 19.8767,73.1641 17,69.5C 15.5198,65.3849 13.8532,61.3849 12,57.5C 11.7132,59.8907 11.2132,62.2241 10.5,64.5C 12.3929,66.9524 13.7263,69.6191 14.5,72.5C 11.2893,72.988 8.456,72.3213 6,70.5C 5.19855,63.1122 4.86522,55.7788 5,48.5C 4.58605,48.9574 4.08605,49.2907 3.5,49.5C 2.16942,42.7917 2.33609,36.1251 4,29.5C 4.83333,28.6667 5.66667,27.8333 6.5,27C 15.9228,25.1745 25.4228,25.0079 35,26.5C 44.1837,25.4796 53.3504,24.3129 62.5,23C 61.3128,21.9805 60.3128,20.8139 59.5,19.5C 60.1667,19.1667 60.8333,18.8333 61.5,18.5C 65.1311,19.5148 68.7978,19.6814 72.5,19C 73.3805,18.2917 74.0472,17.4584 74.5,16.5 Z M 52.5,67.5 C 50.6742,65.5449 50.1742,63.2116 51,60.5C 51.977,62.74 52.477,65.0733 52.5,67.5 Z"/></g>
</svg>
