<svg width="31" height="35" viewBox="0 0 31 35" fill="none" xmlns="http://www.w3.org/2000/svg">
<path fill-rule="evenodd" clip-rule="evenodd" d="M16.6551 0.69726C16.848 0.478604 17.1452 0.553599 17.3256 0.726501C17.4431 0.761109 17.5569 0.812574 17.6643 0.880689C17.9072 0.849522 18.1619 0.849522 18.4001 0.858259C18.4579 0.825853 18.5198 0.797025 18.5872 0.772256C19.0688 0.596188 19.4953 0.685632 19.8471 0.921352C20.0166 0.761041 20.2304 0.660451 20.5036 0.675656C20.7476 0.689279 20.9214 0.804043 21.0703 0.955203C21.2189 0.741019 21.459 0.588207 21.7581 0.566947C22.1763 0.537224 22.5782 0.704897 22.9113 0.964491C23.1054 0.741845 23.3701 0.613871 23.6649 0.612632C23.859 0.577405 24.0637 0.591303 24.2487 0.647172C24.5173 0.72829 24.7532 0.880276 24.941 1.07753C25.2382 0.792965 25.602 0.588207 26.0214 0.618068C26.5642 0.657286 27.0142 1.05641 27.2234 1.54767C27.5908 1.69484 27.93 1.90475 28.2134 2.20405C28.2286 2.2198 28.243 2.23632 28.2582 2.2529C28.4109 2.30925 28.5547 2.38913 28.6813 2.49433C29.0824 2.82809 29.1719 3.31109 29.0391 3.78439C29.0577 3.86014 29.0735 3.9372 29.0879 4.01419C29.4636 4.0713 29.8049 4.28809 29.9989 4.64105C30.2645 5.12543 30.2122 5.76385 29.9246 6.22628C29.8009 6.42519 29.644 6.59279 29.4677 6.73934C29.6671 7.19207 29.5714 7.73231 29.25 8.09848C29.1717 8.22473 29.0756 8.33867 28.9675 8.44181C29.0868 8.90987 28.8745 9.3928 28.4507 9.6429L28.4144 9.73364C28.4083 9.74871 28.4022 9.76372 28.3958 9.77858C28.3911 9.79785 28.3853 9.81649 28.3796 9.83528C28.3695 10.0014 28.3148 10.1644 28.2062 10.3179C27.9839 10.6327 27.7084 10.8379 27.5624 11.2053L27.5477 11.2439C27.4849 11.4177 27.2821 11.5404 27.1092 11.4868C28.0688 13.4573 28.5719 15.65 28.9173 17.7989C29.0895 18.8709 29.2224 19.9467 29.3302 21.0265L29.4359 22.1019C29.5289 23.0577 29.6117 24.0167 29.6122 24.9757C29.6136 27.1452 28.993 29.2319 27.661 30.9582C26.4012 32.5902 24.6185 33.7729 22.6046 34.2387C20.5254 34.7189 18.0863 34.5297 16.2218 33.4303C15.672 33.107 16.1536 32.3294 16.713 32.5896C17.7719 33.0822 18.848 33.4482 20.0217 33.5301C21.1659 33.6105 22.3129 33.4674 23.3979 33.0931C25.193 32.4733 26.7204 31.175 27.7022 29.5581C28.1859 28.7613 28.5361 27.8965 28.7226 26.9827C28.9547 25.8438 28.9197 24.6667 28.8344 23.5132L28.8285 23.4346C28.66 21.2122 28.4377 18.9761 28.0786 16.7759C27.7611 14.8302 27.273 12.9239 26.6392 11.0598C26.391 10.8413 26.1133 10.6605 25.8161 10.5232C23.6401 10.4323 21.4601 10.4588 19.2869 10.609C17.4335 10.7378 15.5891 10.9559 13.7586 11.2736L13.5625 11.3081C13.1573 11.3802 12.7073 11.4215 12.3254 11.5847C11.9979 11.725 11.8651 11.9947 11.7826 12.3263C11.5748 13.165 11.5431 14.0829 11.5081 14.9429C11.4737 15.7836 11.5514 16.6314 11.484 17.4693C11.4269 18.1704 11.2473 18.888 10.7278 19.3952C10.4561 19.6607 10.1217 19.8059 9.80793 20.0075C9.60496 20.1376 9.51896 20.2717 9.5451 20.5125C9.60152 21.0395 10.026 21.7035 9.54923 22.1548C9.46529 22.2339 9.32012 22.2443 9.23755 22.1548C9.04078 21.9409 8.769 21.7778 8.53576 21.6051C8.43806 21.5336 8.51925 21.3946 8.63002 21.4441C8.77588 21.5095 8.9245 21.5866 9.07655 21.654C8.7408 21.3774 8.2633 21.2418 7.86562 21.1613C7.6654 21.1214 7.45487 21.1097 7.24639 21.1283C7.09227 21.2019 6.93471 21.2701 6.77716 21.3367C6.57694 21.4208 6.37466 21.4971 6.171 21.5694C5.46439 22.1452 5.12726 23.0817 5.2745 23.9974C5.355 24.5031 5.58824 25.0529 6.02789 25.348C6.54873 25.6976 7.24639 25.5475 7.8092 25.807C8.33623 26.0498 8.65686 26.5404 8.89698 27.0482L8.99708 27.2596C9.21996 27.7276 9.44905 28.1833 9.75358 28.6092C10.1058 29.1026 10.5372 29.5456 11.0079 29.9262C11.2362 30.1104 11.4795 30.276 11.731 30.4269L11.7998 30.4677C12.0544 30.617 12.2367 30.7593 12.2539 31.0751C12.2594 31.1852 12.1899 31.2857 12.1004 31.3428C11.7152 31.587 11.3319 31.2815 11.0113 31.0683C10.6652 30.8385 10.3343 30.5798 10.0281 30.2977C9.44603 29.7624 8.94239 29.1267 8.55503 28.4365C8.25986 27.9109 8.09198 27.1713 7.6255 26.764C7.34065 26.5156 6.93815 26.5136 6.58244 26.4681C6.2515 26.4255 5.93845 26.3567 5.64397 26.1936C4.44611 25.5283 4.1076 23.9176 4.39175 22.673C4.43991 22.4631 4.50734 22.2587 4.59059 22.0619C4.14475 22.1362 3.64386 21.6753 3.82481 21.2101C3.83858 21.1751 3.8544 21.1421 3.86954 21.1083C3.57575 20.915 3.34388 20.6219 3.2338 20.2386C3.17738 20.0405 3.16912 19.8403 3.19871 19.6469C3.05628 19.5514 2.93863 19.4199 2.86295 19.2582C2.62626 19.1488 2.41641 18.9851 2.29119 18.7512C2.11781 18.4284 2.13983 18.1312 2.27193 17.8636C2.25335 17.8299 2.23546 17.7955 2.21826 17.7604C1.7332 17.4529 1.39469 16.923 1.43322 16.3354C1.4456 16.1407 1.49377 15.9653 1.56807 15.8071C1.56188 15.7872 1.55569 15.7664 1.55018 15.7465C1.14425 15.5401 0.808487 15.201 0.688769 14.7482C0.569052 14.2927 0.710099 13.8386 0.992191 13.4891C0.579373 13.1871 0.330994 12.7653 0.481672 12.1275C0.542907 11.8681 0.666065 11.6321 0.832568 11.4332C0.83188 11.4271 0.830504 11.4209 0.829128 11.4147L0.790505 11.3847C0.280878 10.9825 -0.012082 10.4701 0.30072 9.83975C0.441078 9.55635 0.641295 9.35881 0.876602 9.22878L0.888298 9.19162C0.719731 8.83041 0.662624 8.42928 0.778901 8.00752C0.87385 7.66013 1.09884 7.38348 1.38643 7.19984C1.36717 7.04428 1.36992 6.87853 1.40088 6.69889C1.45248 6.39553 1.60316 6.13064 1.82333 5.94281C1.83159 5.90283 1.84191 5.86368 1.85361 5.8244C1.92791 5.58434 2.0669 5.32358 2.22789 5.13018C2.36068 4.96986 2.5093 4.91138 2.69094 4.90519C2.67993 4.75733 2.6875 4.60727 2.71777 4.45522C2.81066 3.98605 3.10926 3.54495 3.55167 3.34473C3.73331 3.26286 3.92458 3.23885 4.10897 3.25873C4.26584 2.92848 4.57202 2.68911 4.94837 2.63751C5.09492 2.61687 5.23115 2.61817 5.35637 2.63682C5.42724 2.60373 5.50086 2.57421 5.57792 2.54731C5.62883 2.52942 5.68043 2.51291 5.73204 2.49646C5.90611 2.28042 6.13522 2.10765 6.40287 2.00383C6.71179 1.88343 7.02622 1.89574 7.30487 1.99688L7.39363 1.97831C7.53261 1.73749 7.75416 1.55104 8.09473 1.46641C8.48141 1.37077 8.8784 1.50425 9.18251 1.7472C9.18251 1.7472 9.18526 1.7472 9.18733 1.74644C9.34626 1.39073 9.61804 1.14304 10.0742 1.16024C10.3584 1.17124 10.615 1.31236 10.8131 1.51326C10.9232 1.49944 11.0333 1.48705 11.1441 1.47474C11.2611 1.33775 11.3911 1.20984 11.5349 1.09494C11.7702 0.906353 12.0764 0.921558 12.2498 1.18707C12.2876 1.24486 12.3227 1.30335 12.3578 1.36183L12.5167 1.35082C12.7039 1.09831 12.9591 0.927682 13.3086 0.91399C13.6293 0.900849 13.8577 1.05779 14.0318 1.2772C14.1735 1.27376 14.3159 1.27108 14.4583 1.26895C14.6241 1.07698 14.8195 0.907729 15.0425 0.767371C15.2131 0.660038 15.4649 0.696572 15.6032 0.839683C15.6966 0.93697 15.7836 1.03852 15.8645 1.14365C16.0729 0.909999 16.3543 0.756087 16.6551 0.69726ZM6.52878 22.5457C6.85009 22.3626 7.28217 22.5608 7.59316 22.7163C7.97226 22.9055 8.34862 23.191 8.58048 23.5488C8.89629 24.0359 8.1539 24.4295 7.82159 23.9926C7.61724 23.7236 7.45418 23.4525 7.20649 23.2172C6.98012 23.0011 6.65193 22.8566 6.5219 22.5718C6.51708 22.5622 6.51846 22.5512 6.52878 22.5457ZM6.7545 10.7218L6.7605 10.7046C6.85188 10.4546 6.45309 10.3469 6.36248 10.5948C6.22515 10.9705 6.38346 11.379 6.75459 11.5412C6.85745 11.5862 6.97496 11.5706 7.03696 11.4672C7.08904 11.3802 7.06489 11.2294 6.96292 11.1848C6.75411 11.0935 6.68417 10.9324 6.7545 10.7218ZM3.31904 10.0228C3.51864 9.8467 3.22575 9.55559 3.02711 9.73097C2.84176 9.89458 2.70429 10.1168 2.74 10.3724C2.77639 10.6329 2.97283 10.8168 3.18784 10.9468C3.41571 11.0846 3.62343 10.7278 3.39617 10.5903L3.37064 10.5747C3.27525 10.5155 3.16359 10.434 3.14745 10.3174C3.13032 10.1936 3.2351 10.0969 3.31904 10.0228ZM4.45205 6.91487L4.4662 6.90447C4.68059 6.75145 4.47466 6.39326 4.25779 6.548C4.05895 6.68994 3.89947 6.87433 3.88268 7.12863C3.86637 7.37577 3.99214 7.59002 4.15658 7.76389C4.33953 7.95729 4.63112 7.66502 4.44851 7.47203C4.27059 7.28393 4.23581 7.07868 4.45205 6.91487Z" fill="white"/>
</svg>
