<svg width="51" height="41" viewBox="0 0 51 41" fill="none" xmlns="http://www.w3.org/2000/svg">
<g filter="url(#filter0_d_10727_7)">
<path d="M19.3648 3.25199C19.2836 3.2752 19.2077 3.31418 19.1416 3.3667C19.0755 3.41922 19.0203 3.48425 18.9793 3.55808C18.9383 3.63191 18.9123 3.7131 18.9026 3.797C18.893 3.8809 18.9 3.96587 18.9232 4.04707C19.3352 5.48367 20.2035 6.74714 21.3971 7.64655C22.5907 8.54596 24.0446 9.03242 25.5391 9.03242C27.0337 9.03242 28.4876 8.54596 29.6812 7.64655C30.8747 6.74714 31.7431 5.48367 32.1551 4.04707C32.1787 3.96575 32.186 3.88057 32.1766 3.79642C32.1672 3.71226 32.1413 3.63079 32.1004 3.55667C32.0594 3.48255 32.0042 3.41726 31.938 3.36452C31.8717 3.31179 31.7957 3.27266 31.7143 3.24939C31.6329 3.22611 31.5477 3.21914 31.4635 3.22888C31.3794 3.23861 31.2981 3.26487 31.2241 3.30613C31.1502 3.3474 31.0851 3.40286 31.0326 3.46934C30.9802 3.53581 30.9414 3.61199 30.9184 3.69351C30.5833 4.86142 29.8772 5.88854 28.9067 6.61968C27.9363 7.35083 26.7542 7.74627 25.5391 7.74627C24.3241 7.74627 23.142 7.35083 22.1716 6.61968C21.2011 5.88854 20.495 4.86142 20.1598 3.69351C20.1129 3.52953 20.0028 3.39089 19.8537 3.30809C19.7046 3.22529 19.5287 3.20511 19.3648 3.25199Z" fill="url(#paint0_linear_10727_7)" fill-opacity="0.8" stroke="url(#paint1_linear_10727_7)" stroke-width="0.691289"/>
<path d="M37.3254 10.9978C37.162 10.949 36.9859 10.9671 36.8358 11.0482C36.6857 11.1292 36.574 11.2666 36.5252 11.43L35.7316 14.0873C35.7138 14.147 35.7047 14.209 35.7047 14.2713V34.1763L15.3579 34.1291V14.2211C15.3579 14.1587 15.3489 14.0968 15.331 14.037L14.5374 11.3797C14.5136 11.2985 14.4739 11.2227 14.4206 11.1569C14.3674 11.091 14.3017 11.0363 14.2273 10.9959C14.1528 10.9555 14.0712 10.9302 13.9869 10.9214C13.9027 10.9127 13.8176 10.9206 13.7364 10.9449C13.6553 10.9691 13.5797 11.0091 13.5141 11.0626C13.4484 11.1161 13.394 11.1821 13.3539 11.2567C13.3139 11.3313 13.2889 11.4131 13.2805 11.4973C13.2721 11.5816 13.2805 11.6667 13.305 11.7477L14.0717 14.315V34.7707C14.0717 34.941 14.1393 35.1044 14.2596 35.2249C14.3798 35.3455 14.543 35.4134 14.7133 35.4138L36.3463 35.464H36.3478C36.5184 35.464 36.6819 35.3962 36.8025 35.2756C36.9231 35.155 36.9909 34.9915 36.9909 34.8209V14.3653L37.7576 11.798C37.8064 11.6345 37.7883 11.4584 37.7072 11.3084C37.6262 11.1583 37.4888 11.0466 37.3254 10.9978Z" fill="url(#paint2_linear_10727_7)" fill-opacity="0.8" stroke="url(#paint3_linear_10727_7)" stroke-width="0.691289"/>
<path d="M47.8914 12.8027L39.1151 4.02394C39.0488 3.95769 38.9818 3.89232 38.9139 3.82783C36.9878 2.01769 34.4449 1.00859 31.8017 1.00549L31.1552 1.00001H31.1497C30.9791 0.999294 30.8153 1.06636 30.6942 1.18646C30.5731 1.30656 30.5046 1.46985 30.5039 1.6404C30.5032 1.81096 30.5703 1.97481 30.6904 2.09591C30.8105 2.21702 30.9738 2.28545 31.1443 2.28617L31.7908 2.29165C34.1081 2.29236 36.3383 3.17511 38.0283 4.76057C38.0879 4.81721 38.1469 4.87474 38.2053 4.93317L46.5273 13.2574L40.8216 18.9629L38.8998 17.0412C38.7792 16.9206 38.6156 16.8529 38.4451 16.8529C38.2745 16.8529 38.1109 16.9206 37.9903 17.0412C37.8697 17.1618 37.8019 17.3254 37.8019 17.496C37.802 17.6665 37.8697 17.8301 37.9903 17.9507L40.3668 20.3272C40.4265 20.3869 40.4974 20.4342 40.5754 20.4666C40.6535 20.4989 40.7371 20.5155 40.8216 20.5155C40.906 20.5155 40.9896 20.4989 41.0677 20.4666C41.1457 20.4342 41.2166 20.3869 41.2763 20.3272L47.8914 13.7122C47.9511 13.6525 47.9985 13.5816 48.0308 13.5036C48.0631 13.4256 48.0798 13.342 48.0798 13.2575C48.0798 13.173 48.0631 13.0894 48.0308 13.0114C47.9985 12.9334 47.9511 12.8625 47.8914 12.8027Z" fill="url(#paint4_linear_10727_7)" fill-opacity="0.8" stroke="url(#paint5_linear_10727_7)" stroke-width="0.691289"/>
<path d="M12.2249 16.9973L10.2582 18.964L4.55248 13.2584L12.8744 4.93425C12.9327 4.87584 12.9917 4.81835 13.0513 4.76178C14.7414 3.1762 16.9716 2.29338 19.289 2.29268L20.0552 2.28617C20.2257 2.28545 20.389 2.21702 20.5091 2.09591C20.6292 1.97481 20.6963 1.81096 20.6956 1.6404C20.6949 1.46985 20.6264 1.30656 20.5053 1.18646C20.3842 1.06636 20.2204 0.999294 20.0498 1.00001H20.0442L19.2781 1.00652C16.6348 1.00963 14.0918 2.01881 12.1657 3.82906C12.098 3.89334 12.031 3.9586 11.9648 4.02482L3.18831 12.8038C3.06773 12.9244 2.99999 13.088 3 13.2585C3.00001 13.4291 3.06777 13.5926 3.18837 13.7132L9.80345 20.3281C9.86316 20.3879 9.93406 20.4352 10.0121 20.4676C10.0901 20.4999 10.1737 20.5165 10.2582 20.5165C10.3426 20.5165 10.4263 20.4999 10.5043 20.4676C10.5823 20.4352 10.6532 20.3879 10.7129 20.3281L13.1344 17.9068C13.255 17.7862 13.3227 17.6226 13.3227 17.452C13.3227 17.2815 13.255 17.1179 13.1344 16.9973C13.0138 16.8767 12.8502 16.8089 12.6796 16.8089C12.5091 16.8089 12.3455 16.8767 12.2249 16.9973Z" fill="url(#paint6_linear_10727_7)" fill-opacity="0.8" stroke="url(#paint7_linear_10727_7)" stroke-width="0.691289"/>
</g>
<defs>
<filter id="filter0_d_10727_7" x="0.529207" y="0.654297" width="50.0236" height="39.4103" filterUnits="userSpaceOnUse" color-interpolation-filters="sRGB">
<feFlood flood-opacity="0" result="BackgroundImageFix"/>
<feColorMatrix in="SourceAlpha" type="matrix" values="0 0 0 0 0 0 0 0 0 0 0 0 0 0 0 0 0 0 127 0" result="hardAlpha"/>
<feOffset dy="2.12704"/>
<feGaussianBlur stdDeviation="1.06352"/>
<feComposite in2="hardAlpha" operator="out"/>
<feColorMatrix type="matrix" values="0 0 0 0 0 0 0 0 0 0 0 0 0 0 0 0 0 0 0.25 0"/>
<feBlend mode="normal" in2="BackgroundImageFix" result="effect1_dropShadow_10727_7"/>
<feBlend mode="normal" in="SourceGraphic" in2="effect1_dropShadow_10727_7" result="shape"/>
</filter>
<linearGradient id="paint0_linear_10727_7" x1="25.5395" y1="3.22461" x2="25.5395" y2="9.03242" gradientUnits="userSpaceOnUse">
<stop stop-color="white"/>
<stop offset="1" stop-color="#B8B8B8"/>
</linearGradient>
<linearGradient id="paint1_linear_10727_7" x1="25.5395" y1="3.22461" x2="25.5395" y2="9.03242" gradientUnits="userSpaceOnUse">
<stop stop-color="white"/>
<stop offset="1" stop-color="#B8B8B8"/>
</linearGradient>
<linearGradient id="paint2_linear_10727_7" x1="25.5309" y1="10.918" x2="25.5309" y2="35.464" gradientUnits="userSpaceOnUse">
<stop stop-color="white"/>
<stop offset="1" stop-color="#C7C7C7"/>
</linearGradient>
<linearGradient id="paint3_linear_10727_7" x1="25.5309" y1="10.918" x2="25.5309" y2="35.464" gradientUnits="userSpaceOnUse">
<stop stop-color="white"/>
<stop offset="1" stop-color="#B8B8B8"/>
<stop offset="1" stop-color="#B8B8B8"/>
</linearGradient>
<linearGradient id="paint4_linear_10727_7" x1="39.2918" y1="1" x2="39.2918" y2="20.5155" gradientUnits="userSpaceOnUse">
<stop stop-color="white"/>
<stop offset="1" stop-color="#B8B8B8"/>
</linearGradient>
<linearGradient id="paint5_linear_10727_7" x1="39.2918" y1="1" x2="39.2918" y2="20.5155" gradientUnits="userSpaceOnUse">
<stop stop-color="white"/>
<stop offset="1" stop-color="#B8B8B8"/>
</linearGradient>
<linearGradient id="paint6_linear_10727_7" x1="11.8478" y1="1" x2="11.8478" y2="20.5165" gradientUnits="userSpaceOnUse">
<stop stop-color="white"/>
<stop offset="1" stop-color="#B8B8B8"/>
</linearGradient>
<linearGradient id="paint7_linear_10727_7" x1="11.8478" y1="1" x2="11.8478" y2="20.5165" gradientUnits="userSpaceOnUse">
<stop stop-color="white"/>
<stop offset="1" stop-color="#B8B8B8"/>
</linearGradient>
</defs>
</svg>
