<svg width="36" height="31" viewBox="0 0 36 31" fill="none" xmlns="http://www.w3.org/2000/svg">
<path d="M2 8.3L6.83888 12.3828C7.15836 12.6524 7.56108 12.8 7.97698 12.8H28.0229C28.4389 12.8 28.8416 12.6524 29.1611 12.3828L34 8.3M8.22222 19.1H8.24M27.7778 19.1H27.7956M11.1745 2H24.8256C26.1015 2 27.2796 2.69223 27.9125 3.8139L33.0631 12.9399C33.677 14.0278 34 15.259 34 16.5121V27.2C34 28.1941 33.2041 29 32.2222 29H30.4444C29.4626 29 28.6667 28.1941 28.6667 27.2V25.4H7.33333V27.2C7.33333 28.1941 6.53739 29 5.55556 29H3.77778C2.79595 29 2 28.1941 2 27.2V16.5121C2 15.259 2.32295 14.0278 2.93694 12.9399L8.0874 3.8139C8.72043 2.69223 9.89854 2 11.1745 2ZM9.11111 19.1C9.11111 19.597 8.71314 20 8.22222 20C7.73131 20 7.33333 19.597 7.33333 19.1C7.33333 18.603 7.73131 18.2 8.22222 18.2C8.71314 18.2 9.11111 18.603 9.11111 19.1ZM28.6667 19.1C28.6667 19.597 28.2686 20 27.7778 20C27.2869 20 26.8889 19.597 26.8889 19.1C26.8889 18.603 27.2869 18.2 27.7778 18.2C28.2686 18.2 28.6667 18.603 28.6667 19.1Z" stroke="url(#paint0_linear_10727_20)" stroke-width="2.3" stroke-linecap="round" stroke-linejoin="round"/>
<defs>
<linearGradient id="paint0_linear_10727_20" x1="18" y1="2" x2="18" y2="29" gradientUnits="userSpaceOnUse">
<stop stop-color="white"/>
<stop offset="1" stop-color="#C4C4C4"/>
</linearGradient>
</defs>
</svg>
