<svg width="24" height="35" viewBox="0 0 24 35" fill="none" xmlns="http://www.w3.org/2000/svg">
<path d="M17.1475 12.3704C16.7271 12.6011 16.2024 12.4444 15.9767 12.0229C15.7482 11.5985 15.9033 11.0687 16.3237 10.8409C18.3099 9.75282 19.2352 8.34576 19.4214 6.97004C19.5202 6.23518 19.4073 5.49748 19.1337 4.81389C18.8544 4.12176 18.4114 3.49229 17.85 2.98529C16.7582 1.99979 15.2262 1.4814 13.6266 1.88301C12.9777 2.04536 12.4163 2.37291 11.9254 2.83433C11.4035 3.32424 10.9521 3.9651 10.5571 4.72275C10.3342 5.14999 9.81228 5.31234 9.39191 5.09017C8.96873 4.86516 8.80791 4.33823 9.02797 3.91383C9.51322 2.98529 10.0803 2.18777 10.7517 1.55546C11.4542 0.897502 12.2696 0.424687 13.2175 0.188279C15.4181 -0.361439 17.5143 0.339238 19.0039 1.68363C19.76 2.36722 20.3609 3.21885 20.7389 4.15879C21.1198 5.10726 21.275 6.14974 21.1311 7.20645C20.8744 9.09201 19.6782 10.9833 17.1475 12.3704ZM10.5289 19.2547C7.25623 14.8171 7.17724 10.613 11.1495 6.70515L8.28881 5.11011C5.99796 4.21006 1.79431 10.8437 3.41934 12.6153L5.64812 15.9535L5.18826 16.9219C5.06131 17.2096 5.18544 17.4118 5.49578 17.5514L5.79765 17.634L0 29.218L1.17364 31.7444L3.52091 31.0466L4.12465 29.8617L3.5463 28.768L4.8215 28.4917L5.11773 27.9106L4.45192 26.8852L4.88921 26.0279L6.16159 25.8656L6.57631 25.0538L5.86536 24.1167L6.31958 23.228L7.61735 23.0144L9.38345 19.6107L9.6825 19.7759C10.2016 20.0949 10.4696 19.8899 10.5289 19.2547ZM16.6876 22.0375L15.8243 25.2902L14.6253 25.7687L14.3742 26.7172L15.2488 27.4663L15.0203 28.3293L13.8354 28.7509L13.5927 29.6623L14.4419 30.5026L14.2783 31.1206L13.1131 31.6533L13.8918 32.579L13.5561 33.8407L11.4542 35L9.81228 32.8268L12.9439 21.0263L12.1849 20.8212C12.0298 20.7785 11.9338 20.6162 11.9762 20.4567L12.295 19.2575C9.99848 17.5001 8.86152 14.4582 9.65147 11.476C10.6671 7.64509 14.4984 5.33228 18.2957 6.19246C18.3127 6.39754 18.3099 6.60546 18.2816 6.81339C18.2111 7.33177 17.9882 7.8644 17.5763 8.37994C17.5199 8.4483 17.4607 8.51951 17.3986 8.58787C16.1855 8.50811 15.0485 9.29994 14.7212 10.5304C14.5802 11.0602 14.6112 11.5957 14.7777 12.077C14.8172 12.2479 14.882 12.4131 14.9667 12.5755C15.167 12.9457 15.4604 13.2277 15.8046 13.4072C16.0303 13.5581 16.2842 13.6721 16.5579 13.749C17.9205 14.1164 19.317 13.3246 19.7233 11.9716C20.1352 11.6042 20.4935 11.2168 20.801 10.8181C21.3991 10.0405 21.8082 9.21449 22.0508 8.37425C23.6984 10.1687 24.4235 12.7521 23.7492 15.2927C22.9593 18.2749 20.4625 20.337 17.6074 20.6988L17.2886 21.8979C17.2462 22.0546 17.0854 22.1514 16.9274 22.1087L16.6876 22.0375Z" fill="url(#paint0_linear_10727_23)"/>
<defs>
<linearGradient id="paint0_linear_10727_23" x1="12" y1="0" x2="12" y2="35" gradientUnits="userSpaceOnUse">
<stop stop-color="white"/>
<stop offset="1" stop-color="#BBBBBB"/>
</linearGradient>
</defs>
</svg>
