<svg width="35" height="35" viewBox="0 0 35 35" fill="none" xmlns="http://www.w3.org/2000/svg">
<path fill-rule="evenodd" clip-rule="evenodd" d="M3.17257 0C2.80526 0 2.47705 0.254907 2.35084 0.638186L0.106536 7.45422C0.0360598 7.66831 0 7.89435 0 8.12233V10.8334C0 12.3674 1.11929 13.6111 2.5 13.6111C3.88071 13.6111 5.00004 12.3674 5.00004 10.8334C5.00004 12.3674 6.11926 13.6111 7.50001 13.6111C8.88067 13.6111 9.99999 12.3674 9.99999 10.8334C9.99999 12.3674 11.1193 13.6111 12.5 13.6111C13.88 13.6111 14.9989 12.3687 15 10.8356C15.0011 12.3687 16.1199 13.6111 17.5 13.6111C18.8808 13.6111 20 12.3674 20 10.8334C20 12.3674 21.1193 13.6111 22.5 13.6111C23.88 13.6111 24.9988 12.3687 25 10.8356C25.0011 12.3687 26.12 13.6111 27.5 13.6111C28.8807 13.6111 30 12.3674 30 10.8334C30 12.3674 31.1193 13.6111 32.5 13.6111C33.8807 13.6111 35 12.3674 35 10.8334V8.12233C35 7.89435 34.9639 7.66831 34.8934 7.45422L32.6492 0.638186C32.523 0.254897 32.1948 0 31.8274 0H3.17257Z" fill="url(#paint0_linear_10727_30)"/>
<path fill-rule="evenodd" clip-rule="evenodd" d="M2.9171 15.047V21.3887H1.45877C1.1903 21.3887 0.972656 21.6064 0.972656 21.8748V22.847C0.972656 23.1154 1.1903 23.3331 1.45877 23.3331H33.5421C33.8105 23.3331 34.0282 23.1154 34.0282 22.847V21.8748C34.0282 21.6064 33.8105 21.3887 33.5421 21.3887H32.0838V15.047C31.3416 14.9669 30.682 14.6746 30.1393 14.2395V21.3887H4.86154V14.2395C4.31885 14.6746 3.65929 14.9669 2.9171 15.047ZM30.6005 12.6387C30.695 12.7613 30.799 12.8746 30.9111 12.9774C31.2415 13.28 31.6431 13.4903 32.0838 13.5725V12.6387H30.6005ZM2.9171 13.5725V12.6387H4.40032C4.30582 12.7613 4.20189 12.8746 4.08979 12.9774C3.75938 13.28 3.35779 13.4903 2.9171 13.5725ZM2.43099 24.3053C2.16252 24.3053 1.94488 24.523 1.94488 24.7914V34.0276C1.94488 34.5645 2.38016 34.9998 2.9171 34.9998H32.0838C32.6207 34.9998 33.056 34.5645 33.056 34.0276V24.7914C33.056 24.523 32.8383 24.3053 32.5699 24.3053H2.43099Z" fill="url(#paint1_linear_10727_30)"/>
<path d="M5.83203 18.9588C5.83203 18.6903 6.04971 18.4727 6.31814 18.4727H9.23481C9.50324 18.4727 9.72092 18.6903 9.72092 18.9588V20.9032C9.72092 21.1716 9.50324 21.3893 9.23481 21.3893H6.31814C6.04971 21.3893 5.83203 21.1716 5.83203 20.9032V18.9588Z" fill="url(#paint2_linear_10727_30)"/>
<path d="M7.77734 19.9295C7.77734 19.661 7.99502 19.4434 8.26345 19.4434H11.1801C11.4486 19.4434 11.6662 19.661 11.6662 19.9295V20.9017C11.6662 21.1701 11.4486 21.3878 11.1801 21.3878H8.26345C7.99502 21.3878 7.77734 21.1701 7.77734 20.9017V19.9295Z" fill="url(#paint3_linear_10727_30)"/>
<path d="M15.5534 19.931C15.5534 20.7364 14.9004 21.3893 14.0951 21.3893C13.2897 21.3893 12.6367 20.7364 12.6367 19.931C12.6367 19.1256 13.2897 18.4727 14.0951 18.4727C14.9004 18.4727 15.5534 19.1256 15.5534 19.931Z" fill="url(#paint4_linear_10727_30)"/>
<defs>
<linearGradient id="paint0_linear_10727_30" x1="17.5" y1="0" x2="17.5" y2="13.6111" gradientUnits="userSpaceOnUse">
<stop stop-color="white"/>
<stop offset="1" stop-color="#BDBDBD"/>
</linearGradient>
<linearGradient id="paint1_linear_10727_30" x1="17.5004" y1="12.6387" x2="17.5004" y2="34.9998" gradientUnits="userSpaceOnUse">
<stop stop-color="white"/>
<stop offset="1" stop-color="#BDBDBD"/>
</linearGradient>
<linearGradient id="paint2_linear_10727_30" x1="7.77648" y1="18.4727" x2="7.77648" y2="21.3893" gradientUnits="userSpaceOnUse">
<stop stop-color="white"/>
<stop offset="1" stop-color="#BDBDBD"/>
</linearGradient>
<linearGradient id="paint3_linear_10727_30" x1="9.72179" y1="19.4434" x2="9.72179" y2="21.3878" gradientUnits="userSpaceOnUse">
<stop stop-color="white"/>
<stop offset="1" stop-color="#BDBDBD"/>
</linearGradient>
<linearGradient id="paint4_linear_10727_30" x1="14.0951" y1="18.4727" x2="14.0951" y2="21.3893" gradientUnits="userSpaceOnUse">
<stop stop-color="white"/>
<stop offset="1" stop-color="#BDBDBD"/>
</linearGradient>
</defs>
</svg>
