<svg width="20" height="37" viewBox="0 0 20 37" fill="none" xmlns="http://www.w3.org/2000/svg">
<path d="M14.2583 31.5527H5.58076C5.20885 31.5527 4.96094 31.8007 4.96094 32.1726C4.96094 32.5445 5.20885 32.7924 5.58076 32.7924H14.2583C14.6302 32.7924 14.8781 32.5445 14.8781 32.1726C14.8781 31.8007 14.6302 31.5527 14.2583 31.5527Z" fill="url(#paint0_linear_10727_38)"/>
<path d="M14.2583 29.0723H5.58076C5.20885 29.0723 4.96094 29.3202 4.96094 29.6921C4.96094 30.064 5.20885 30.3119 5.58076 30.3119H14.2583C14.6302 30.3119 14.8781 30.064 14.8781 29.6921C14.8781 29.3202 14.6302 29.0723 14.2583 29.0723Z" fill="url(#paint1_linear_10727_38)"/>
<path d="M16.4873 12.3387L16.3633 12.2147H16.3318C15.6367 6.37778 14.1645 3.21845 12.8922 1.49176C12.1486 0.562091 11.0328 -0.0577331 9.79319 0.00426355C8.55354 0.00426355 7.43789 0.562091 6.75606 1.55382C5.52706 3.19245 4.13099 6.33535 3.47596 12.2098L3.40903 12.2767C1.23965 13.6403 0 15.9956 0 18.4749V28.454C0 32.9167 3.59495 36.5117 8.05771 36.5117H11.7767C16.2393 36.5117 19.8344 32.9168 19.8344 28.454V18.4749C19.8343 15.9336 18.5946 13.6403 16.4873 12.3387ZM4.54433 21.6232C5.71826 20.8259 7.13647 20.3967 8.67753 20.4584H11.6527C13.0107 20.4584 14.3072 20.766 15.3587 21.3808C14.8704 23.3173 13.129 24.7351 11.0328 24.7351H8.80146C6.79392 24.7351 5.1118 23.4344 4.54433 21.6232ZM6.82685 3.77456C6.87249 4.0824 7.10533 4.28103 7.43789 4.28103C7.80979 4.28103 8.05771 4.03312 8.05771 3.66121C8.05771 3.2893 7.80979 3.04139 7.43789 3.04139C7.34418 3.04139 7.2584 3.06117 7.1824 3.09553C7.35275 2.7949 7.52152 2.53027 7.6858 2.29757C7.79865 2.14236 7.925 2.00408 8.06214 1.88173C8.09542 2.20865 8.33312 2.42156 8.67753 2.42156C9.04944 2.42156 9.29736 2.17365 9.29736 1.80174C9.29736 1.60211 9.22543 1.43876 9.10172 1.32976C9.321 1.2737 9.55213 1.24391 9.79326 1.24391C10.1032 1.24391 10.4037 1.29941 10.6848 1.4024C10.5908 1.51511 10.5371 1.65825 10.5371 1.80174C10.5371 2.17365 10.785 2.42156 11.1569 2.42156C11.4198 2.42156 11.6202 2.29728 11.7154 2.09329C11.7579 2.13936 11.7994 2.18643 11.8387 2.23564C12.0206 2.47149 12.2063 2.73897 12.3926 3.0416C12.023 3.04381 11.7768 3.35244 11.7768 3.66121C11.7768 4.03312 12.0247 4.28103 12.3966 4.28103C12.6347 4.28103 12.8215 4.17911 12.9254 4.00848C13.0714 4.30318 13.216 4.62173 13.3579 4.96678C13.1462 5.07392 13.0165 5.29698 13.0165 5.52068C13.0165 5.89259 13.2644 6.14051 13.6363 6.14051C13.6898 6.14051 13.7403 6.13486 13.7881 6.12501C14.1872 7.3143 14.5491 8.74986 14.8358 10.4813C14.4865 10.5029 14.2561 10.8005 14.2561 11.0991C14.2561 11.471 14.504 11.7189 14.8759 11.7189C14.9259 11.7189 14.9734 11.7141 15.0186 11.7054C15.1286 12.5245 15.2225 13.4023 15.2972 14.3434C15.1908 14.2509 15.0467 14.1982 14.8759 14.1982C14.504 14.1982 14.2561 14.5081 14.2561 14.818C14.2561 15.1899 14.504 15.4379 14.8759 15.4379C15.0832 15.4379 15.2518 15.3607 15.3605 15.2282C15.3655 15.305 15.37 15.3829 15.3747 15.4605C15.4281 16.403 15.4662 17.3848 15.484 18.4021C15.431 18.1064 15.2008 17.9171 14.8759 17.9171C14.504 17.9171 14.2561 18.227 14.2561 18.5369C14.2561 18.9088 14.504 19.1567 14.8759 19.1567C15.2106 19.1567 15.4442 18.9555 15.4877 18.6443C15.4928 18.9972 15.4957 19.3537 15.4957 19.7146V20.0282C14.3372 19.4684 12.9645 19.1567 11.5909 19.1567H9.91739H8.67753C7.07798 19.1567 5.5997 19.5604 4.33948 20.3016C4.33941 20.2918 4.33877 20.2822 4.33877 20.2724V19.7146C4.33877 19.3537 4.3417 18.9972 4.34677 18.6443C4.39026 18.9555 4.62389 19.1567 4.95859 19.1567C5.3305 19.1567 5.57841 18.9088 5.57841 18.5369C5.57841 18.165 5.3305 17.9171 4.95859 17.9171C4.63325 17.9171 4.40276 18.1543 4.35019 18.4211C4.36927 17.3173 4.41198 16.2523 4.4724 15.2263C4.58118 15.3599 4.75039 15.4377 4.95859 15.4377C5.3305 15.4377 5.57841 15.1898 5.57841 14.8179C5.57841 14.446 5.3305 14.1981 4.95859 14.1981C4.78239 14.1981 4.63454 14.2681 4.52719 14.3743C4.55868 13.9217 4.59354 13.4772 4.63097 13.0403C4.67575 12.5754 4.72489 12.1275 4.77817 11.6968C4.83431 11.711 4.89445 11.7188 4.95852 11.7188C5.33043 11.7188 5.57834 11.4709 5.57834 11.099C5.57834 10.7271 5.33043 10.4792 4.95852 10.4792C4.95431 10.4792 4.9503 10.4798 4.94609 10.4798C5.21479 8.72072 5.55427 7.27559 5.92632 6.08787C6.00639 6.12172 6.09753 6.14043 6.19817 6.14043C6.57007 6.14043 6.81799 5.89252 6.81799 5.52061C6.81799 5.19641 6.6295 4.96664 6.33487 4.91293C6.49658 4.49424 6.66143 4.1159 6.82685 3.77456ZM18.5946 28.454C18.5946 32.235 15.5575 35.2721 11.7766 35.2721H8.05764C4.2767 35.2721 1.23958 32.235 1.23958 28.454V18.4749C1.23958 16.6774 1.98339 15.0039 3.28497 13.8882C3.16097 15.6857 3.09905 17.6072 3.09905 19.7146V20.2724C3.09905 20.6534 3.13683 21.0251 3.20726 21.3847C3.20754 21.4268 3.21233 21.4693 3.22304 21.512C3.49538 22.783 4.19692 23.8758 5.15308 24.6624C5.16251 24.6702 5.17194 24.6782 5.18144 24.6859C5.22401 24.7205 5.26729 24.7541 5.31079 24.7875C6.02746 25.3413 6.88049 25.7271 7.81322 25.8887C7.81687 25.8893 7.82051 25.8899 7.82415 25.8906C7.89279 25.9023 7.96179 25.9129 8.03121 25.9222C8.05628 25.9256 8.08142 25.9286 8.10664 25.9317C8.1622 25.9384 8.21784 25.9447 8.27391 25.9499C8.31884 25.954 8.36398 25.9569 8.40905 25.9601C8.44997 25.9629 8.49069 25.9662 8.5319 25.9681C8.62139 25.9723 8.71117 25.9749 8.80146 25.9749H11.0328C11.1277 25.9749 11.2218 25.9722 11.3155 25.9678C11.3401 25.9666 11.3645 25.9644 11.389 25.9629C11.4592 25.9587 11.5292 25.9537 11.5987 25.947C11.6227 25.9447 11.6465 25.9416 11.6704 25.9389C11.7417 25.9312 11.8126 25.9224 11.8831 25.9121C11.9019 25.9093 11.9206 25.9062 11.9394 25.9032C12.0169 25.891 12.094 25.8774 12.1704 25.8622C12.181 25.86 12.1915 25.8579 12.2021 25.8557C13.117 25.6681 13.9495 25.2643 14.6413 24.695C14.6588 24.6807 14.6761 24.6663 14.6934 24.6518C14.7304 24.6205 14.7671 24.5889 14.8033 24.5567C14.8469 24.5182 14.89 24.4792 14.9324 24.4395C14.9336 24.4384 14.9346 24.4374 14.9358 24.4364C16.0441 23.3976 16.7351 21.9197 16.7351 20.2725V19.7146C16.7351 18.1733 16.6998 16.6672 16.6029 15.2494C16.574 14.787 16.541 14.3378 16.5036 13.9022C17.8566 15.0179 18.5946 16.6849 18.5946 18.4751L18.5946 28.454Z" fill="url(#paint2_linear_10727_38)"/>
<path d="M7.43623 17.916C7.06432 17.916 6.81641 18.2259 6.81641 18.5358C6.81641 18.9077 7.06432 19.1557 7.43623 19.1557C7.80814 19.1557 8.05605 18.9077 8.05605 18.5358C8.05605 18.1639 7.80814 17.916 7.43623 17.916Z" fill="url(#paint3_linear_10727_38)"/>
<path d="M12.3972 17.916C12.0253 17.916 11.7773 18.2259 11.7773 18.5358C11.7773 18.9077 12.0253 19.1557 12.3972 19.1557C12.7691 19.1557 13.017 18.9077 13.017 18.5358C13.017 18.1639 12.7691 17.916 12.3972 17.916Z" fill="url(#paint4_linear_10727_38)"/>
<path d="M10.5365 18.5358C10.5365 18.1639 10.2886 17.916 9.9167 17.916C9.54479 17.916 9.29688 18.2259 9.29688 18.5358C9.29688 18.9077 9.54479 19.1557 9.9167 19.1557C10.2886 19.1557 10.5365 18.9077 10.5365 18.5358Z" fill="url(#paint5_linear_10727_38)"/>
<path d="M6.19404 16.0586C5.82213 16.0586 5.57422 16.3685 5.57422 16.6784C5.57422 17.0503 5.82213 17.2982 6.19404 17.2982C6.56595 17.2982 6.81387 17.0503 6.81387 16.6784C6.81387 16.3065 6.56595 16.0586 6.19404 16.0586Z" fill="url(#paint6_linear_10727_38)"/>
<path d="M7.43623 14.1992C7.06432 14.1992 6.81641 14.5091 6.81641 14.819C6.81641 15.191 7.06432 15.4389 7.43623 15.4389C7.80814 15.4389 8.05605 15.191 8.05605 14.819C8.05605 14.4471 7.80814 14.1992 7.43623 14.1992Z" fill="url(#paint7_linear_10727_38)"/>
<path d="M12.3972 15.4389C12.7691 15.4389 13.017 15.191 13.017 14.819C13.017 14.4471 12.7691 14.1992 12.3972 14.1992C12.0253 14.1992 11.7773 14.5091 11.7773 14.819C11.7773 15.191 12.0253 15.4389 12.3972 15.4389Z" fill="url(#paint8_linear_10727_38)"/>
<path d="M9.9167 14.1992C9.54479 14.1992 9.29688 14.5091 9.29688 14.819C9.29688 15.191 9.54479 15.4389 9.9167 15.4389C10.2886 15.4389 10.5365 15.191 10.5365 14.819C10.5365 14.4471 10.2886 14.1992 9.9167 14.1992Z" fill="url(#paint9_linear_10727_38)"/>
<path d="M8.67451 16.0586C8.3026 16.0586 8.05469 16.3685 8.05469 16.6784C8.05469 17.0503 8.3026 17.2982 8.67451 17.2982C9.04642 17.2982 9.29434 17.0503 9.29434 16.6784C9.29434 16.3065 9.04642 16.0586 8.67451 16.0586Z" fill="url(#paint10_linear_10727_38)"/>
<path d="M11.155 16.0586C10.7831 16.0586 10.5352 16.3685 10.5352 16.6784C10.5352 17.0503 10.7831 17.2982 11.155 17.2982C11.5269 17.2982 11.7748 17.0503 11.7748 16.6784C11.7748 16.3065 11.5269 16.0586 11.155 16.0586Z" fill="url(#paint11_linear_10727_38)"/>
<path d="M13.6354 16.0586C13.2635 16.0586 13.0156 16.3685 13.0156 16.6784C13.0156 17.0503 13.2635 17.2982 13.6354 17.2982C14.0074 17.2982 14.2553 17.0503 14.2553 16.6784C14.2553 16.3065 14.0074 16.0586 13.6354 16.0586Z" fill="url(#paint12_linear_10727_38)"/>
<path d="M6.19404 13.5775C6.56595 13.5775 6.81387 13.3296 6.81387 12.9577C6.81387 12.5858 6.56595 12.3379 6.19404 12.3379C5.82213 12.3379 5.57422 12.6478 5.57422 12.9577C5.57422 13.3296 5.82213 13.5775 6.19404 13.5775Z" fill="url(#paint13_linear_10727_38)"/>
<path d="M7.43623 10.4805C7.06432 10.4805 6.81641 10.7904 6.81641 11.1003C6.81641 11.4722 7.06432 11.7201 7.43623 11.7201C7.80814 11.7201 8.05605 11.4722 8.05605 11.1003C8.05605 10.7284 7.80814 10.4805 7.43623 10.4805Z" fill="url(#paint14_linear_10727_38)"/>
<path d="M12.3972 10.4805C12.0253 10.4805 11.7773 10.7904 11.7773 11.1003C11.7773 11.4722 12.0253 11.7201 12.3972 11.7201C12.7691 11.7201 13.017 11.4722 13.017 11.1003C13.017 10.7284 12.7691 10.4805 12.3972 10.4805Z" fill="url(#paint15_linear_10727_38)"/>
<path d="M9.9167 11.7201C10.2886 11.7201 10.5365 11.4722 10.5365 11.1003C10.5365 10.7284 10.2886 10.4805 9.9167 10.4805C9.54479 10.4805 9.29688 10.7904 9.29688 11.1003C9.29688 11.4722 9.54479 11.7201 9.9167 11.7201Z" fill="url(#paint16_linear_10727_38)"/>
<path d="M8.67451 13.5775C9.04642 13.5775 9.29434 13.3296 9.29434 12.9577C9.29434 12.5858 9.04642 12.3379 8.67451 12.3379C8.3026 12.3379 8.05469 12.6478 8.05469 12.9577C8.05469 13.3296 8.3026 13.5775 8.67451 13.5775Z" fill="url(#paint17_linear_10727_38)"/>
<path d="M11.155 12.3379C10.7831 12.3379 10.5352 12.6478 10.5352 12.9577C10.5352 13.3296 10.7831 13.5775 11.155 13.5775C11.5269 13.5775 11.7748 13.3296 11.7748 12.9577C11.7748 12.5858 11.5269 12.3379 11.155 12.3379Z" fill="url(#paint18_linear_10727_38)"/>
<path d="M13.6354 12.3379C13.2635 12.3379 13.0156 12.6478 13.0156 12.9577C13.0156 13.3296 13.2635 13.5775 13.6354 13.5775C14.0074 13.5775 14.2553 13.3296 14.2553 12.9577C14.2553 12.5858 14.0074 12.3379 13.6354 12.3379Z" fill="url(#paint19_linear_10727_38)"/>
<path d="M6.19404 9.85879C6.56595 9.85879 6.81387 9.61087 6.81387 9.23896C6.81387 8.86706 6.56595 8.61914 6.19404 8.61914C5.82213 8.61914 5.57422 8.92905 5.57422 9.23896C5.57422 9.61087 5.82213 9.85879 6.19404 9.85879Z" fill="url(#paint20_linear_10727_38)"/>
<path d="M7.43623 7.99941C7.80814 7.99941 8.05605 7.7515 8.05605 7.37959C8.05605 7.00768 7.80814 6.75977 7.43623 6.75977C7.06432 6.75977 6.81641 7.06968 6.81641 7.37959C6.81641 7.7515 7.06432 7.99941 7.43623 7.99941Z" fill="url(#paint21_linear_10727_38)"/>
<path d="M12.3972 7.99941C12.7691 7.99941 13.017 7.7515 13.017 7.37959C13.017 7.00768 12.7691 6.75977 12.3972 6.75977C12.0253 6.75977 11.7773 7.06968 11.7773 7.37959C11.7773 7.7515 12.0253 7.99941 12.3972 7.99941Z" fill="url(#paint22_linear_10727_38)"/>
<path d="M9.9167 6.75977C9.54479 6.75977 9.29688 7.06968 9.29688 7.37959C9.29688 7.7515 9.54479 7.99941 9.9167 7.99941C10.2886 7.99941 10.5365 7.7515 10.5365 7.37959C10.5365 7.00768 10.2886 6.75977 9.9167 6.75977Z" fill="url(#paint23_linear_10727_38)"/>
<path d="M8.67451 8.61914C8.3026 8.61914 8.05469 8.92905 8.05469 9.23896C8.05469 9.61087 8.3026 9.85879 8.67451 9.85879C9.04642 9.85879 9.29434 9.61087 9.29434 9.23896C9.29434 8.86713 9.04642 8.61914 8.67451 8.61914Z" fill="url(#paint24_linear_10727_38)"/>
<path d="M11.155 8.61914C10.7831 8.61914 10.5352 8.92905 10.5352 9.23896C10.5352 9.61087 10.7831 9.85879 11.155 9.85879C11.5269 9.85879 11.7748 9.61087 11.7748 9.23896C11.7748 8.86713 11.5269 8.61914 11.155 8.61914Z" fill="url(#paint25_linear_10727_38)"/>
<path d="M13.6354 9.85879C14.0074 9.85879 14.2553 9.61087 14.2553 9.23896C14.2553 8.86706 14.0074 8.61914 13.6354 8.61914C13.2635 8.61914 13.0156 8.92905 13.0156 9.23896C13.0156 9.61087 13.2635 9.85879 13.6354 9.85879Z" fill="url(#paint26_linear_10727_38)"/>
<path d="M9.9167 4.28066C10.2886 4.28066 10.5365 4.03275 10.5365 3.66084C10.5365 3.28893 10.2886 3.04102 9.9167 3.04102C9.54479 3.04102 9.29688 3.35093 9.29688 3.66084C9.29688 4.03268 9.54479 4.28066 9.9167 4.28066Z" fill="url(#paint27_linear_10727_38)"/>
<path d="M8.67451 6.14199C9.04642 6.14199 9.29434 5.89408 9.29434 5.52217C9.29434 5.15026 9.04642 4.90234 8.67451 4.90234C8.3026 4.90234 8.05469 5.21226 8.05469 5.52217C8.05469 5.894 8.3026 6.14199 8.67451 6.14199Z" fill="url(#paint28_linear_10727_38)"/>
<path d="M11.155 6.14199C11.5269 6.14199 11.7748 5.89408 11.7748 5.52217C11.7748 5.15026 11.5269 4.90234 11.155 4.90234C10.7831 4.90234 10.5352 5.21226 10.5352 5.52217C10.5352 5.894 10.7831 6.14199 11.155 6.14199Z" fill="url(#paint29_linear_10727_38)"/>
<defs>
<linearGradient id="paint0_linear_10727_38" x1="9.91953" y1="31.5527" x2="9.91953" y2="32.7924" gradientUnits="userSpaceOnUse">
<stop stop-color="white"/>
<stop offset="1" stop-color="#BBBBBB"/>
</linearGradient>
<linearGradient id="paint1_linear_10727_38" x1="9.91953" y1="29.0723" x2="9.91953" y2="30.3119" gradientUnits="userSpaceOnUse">
<stop stop-color="white"/>
<stop offset="1" stop-color="#BBBBBB"/>
</linearGradient>
<linearGradient id="paint2_linear_10727_38" x1="9.91718" y1="0" x2="9.91718" y2="36.5117" gradientUnits="userSpaceOnUse">
<stop stop-color="white"/>
<stop offset="1" stop-color="#BBBBBB"/>
</linearGradient>
<linearGradient id="paint3_linear_10727_38" x1="7.43623" y1="17.916" x2="7.43623" y2="19.1557" gradientUnits="userSpaceOnUse">
<stop stop-color="white"/>
<stop offset="1" stop-color="#BBBBBB"/>
</linearGradient>
<linearGradient id="paint4_linear_10727_38" x1="12.3972" y1="17.916" x2="12.3972" y2="19.1557" gradientUnits="userSpaceOnUse">
<stop stop-color="white"/>
<stop offset="1" stop-color="#BBBBBB"/>
</linearGradient>
<linearGradient id="paint5_linear_10727_38" x1="9.9167" y1="17.916" x2="9.9167" y2="19.1557" gradientUnits="userSpaceOnUse">
<stop stop-color="white"/>
<stop offset="1" stop-color="#BBBBBB"/>
</linearGradient>
<linearGradient id="paint6_linear_10727_38" x1="6.19404" y1="16.0586" x2="6.19404" y2="17.2982" gradientUnits="userSpaceOnUse">
<stop stop-color="white"/>
<stop offset="1" stop-color="#BBBBBB"/>
</linearGradient>
<linearGradient id="paint7_linear_10727_38" x1="7.43623" y1="14.1992" x2="7.43623" y2="15.4389" gradientUnits="userSpaceOnUse">
<stop stop-color="white"/>
<stop offset="1" stop-color="#BBBBBB"/>
</linearGradient>
<linearGradient id="paint8_linear_10727_38" x1="12.3972" y1="14.1992" x2="12.3972" y2="15.4389" gradientUnits="userSpaceOnUse">
<stop stop-color="white"/>
<stop offset="1" stop-color="#BBBBBB"/>
</linearGradient>
<linearGradient id="paint9_linear_10727_38" x1="9.9167" y1="14.1992" x2="9.9167" y2="15.4389" gradientUnits="userSpaceOnUse">
<stop stop-color="white"/>
<stop offset="1" stop-color="#BBBBBB"/>
</linearGradient>
<linearGradient id="paint10_linear_10727_38" x1="8.67451" y1="16.0586" x2="8.67451" y2="17.2982" gradientUnits="userSpaceOnUse">
<stop stop-color="white"/>
<stop offset="1" stop-color="#BBBBBB"/>
</linearGradient>
<linearGradient id="paint11_linear_10727_38" x1="11.155" y1="16.0586" x2="11.155" y2="17.2982" gradientUnits="userSpaceOnUse">
<stop stop-color="white"/>
<stop offset="1" stop-color="#BBBBBB"/>
</linearGradient>
<linearGradient id="paint12_linear_10727_38" x1="13.6354" y1="16.0586" x2="13.6354" y2="17.2982" gradientUnits="userSpaceOnUse">
<stop stop-color="white"/>
<stop offset="1" stop-color="#BBBBBB"/>
</linearGradient>
<linearGradient id="paint13_linear_10727_38" x1="6.19404" y1="12.3379" x2="6.19404" y2="13.5775" gradientUnits="userSpaceOnUse">
<stop stop-color="white"/>
<stop offset="1" stop-color="#BBBBBB"/>
</linearGradient>
<linearGradient id="paint14_linear_10727_38" x1="7.43623" y1="10.4805" x2="7.43623" y2="11.7201" gradientUnits="userSpaceOnUse">
<stop stop-color="white"/>
<stop offset="1" stop-color="#BBBBBB"/>
</linearGradient>
<linearGradient id="paint15_linear_10727_38" x1="12.3972" y1="10.4805" x2="12.3972" y2="11.7201" gradientUnits="userSpaceOnUse">
<stop stop-color="white"/>
<stop offset="1" stop-color="#BBBBBB"/>
</linearGradient>
<linearGradient id="paint16_linear_10727_38" x1="9.9167" y1="10.4805" x2="9.9167" y2="11.7201" gradientUnits="userSpaceOnUse">
<stop stop-color="white"/>
<stop offset="1" stop-color="#BBBBBB"/>
</linearGradient>
<linearGradient id="paint17_linear_10727_38" x1="8.67451" y1="12.3379" x2="8.67451" y2="13.5775" gradientUnits="userSpaceOnUse">
<stop stop-color="white"/>
<stop offset="1" stop-color="#BBBBBB"/>
</linearGradient>
<linearGradient id="paint18_linear_10727_38" x1="11.155" y1="12.3379" x2="11.155" y2="13.5775" gradientUnits="userSpaceOnUse">
<stop stop-color="white"/>
<stop offset="1" stop-color="#BBBBBB"/>
</linearGradient>
<linearGradient id="paint19_linear_10727_38" x1="13.6354" y1="12.3379" x2="13.6354" y2="13.5775" gradientUnits="userSpaceOnUse">
<stop stop-color="white"/>
<stop offset="1" stop-color="#BBBBBB"/>
</linearGradient>
<linearGradient id="paint20_linear_10727_38" x1="6.19404" y1="8.61914" x2="6.19404" y2="9.85879" gradientUnits="userSpaceOnUse">
<stop stop-color="white"/>
<stop offset="1" stop-color="#BBBBBB"/>
</linearGradient>
<linearGradient id="paint21_linear_10727_38" x1="7.43623" y1="6.75977" x2="7.43623" y2="7.99941" gradientUnits="userSpaceOnUse">
<stop stop-color="white"/>
<stop offset="1" stop-color="#BBBBBB"/>
</linearGradient>
<linearGradient id="paint22_linear_10727_38" x1="12.3972" y1="6.75977" x2="12.3972" y2="7.99941" gradientUnits="userSpaceOnUse">
<stop stop-color="white"/>
<stop offset="1" stop-color="#BBBBBB"/>
</linearGradient>
<linearGradient id="paint23_linear_10727_38" x1="9.9167" y1="6.75977" x2="9.9167" y2="7.99941" gradientUnits="userSpaceOnUse">
<stop stop-color="white"/>
<stop offset="1" stop-color="#BBBBBB"/>
</linearGradient>
<linearGradient id="paint24_linear_10727_38" x1="8.67451" y1="8.61914" x2="8.67451" y2="9.85879" gradientUnits="userSpaceOnUse">
<stop stop-color="white"/>
<stop offset="1" stop-color="#BBBBBB"/>
</linearGradient>
<linearGradient id="paint25_linear_10727_38" x1="11.155" y1="8.61914" x2="11.155" y2="9.85879" gradientUnits="userSpaceOnUse">
<stop stop-color="white"/>
<stop offset="1" stop-color="#BBBBBB"/>
</linearGradient>
<linearGradient id="paint26_linear_10727_38" x1="13.6354" y1="8.61914" x2="13.6354" y2="9.85879" gradientUnits="userSpaceOnUse">
<stop stop-color="white"/>
<stop offset="1" stop-color="#BBBBBB"/>
</linearGradient>
<linearGradient id="paint27_linear_10727_38" x1="9.9167" y1="3.04102" x2="9.9167" y2="4.28066" gradientUnits="userSpaceOnUse">
<stop stop-color="white"/>
<stop offset="1" stop-color="#BBBBBB"/>
</linearGradient>
<linearGradient id="paint28_linear_10727_38" x1="8.67451" y1="4.90234" x2="8.67451" y2="6.14199" gradientUnits="userSpaceOnUse">
<stop stop-color="white"/>
<stop offset="1" stop-color="#BBBBBB"/>
</linearGradient>
<linearGradient id="paint29_linear_10727_38" x1="11.155" y1="4.90234" x2="11.155" y2="6.14199" gradientUnits="userSpaceOnUse">
<stop stop-color="white"/>
<stop offset="1" stop-color="#BBBBBB"/>
</linearGradient>
</defs>
</svg>
