<svg width="15" height="13" viewBox="0 0 15 13" fill="none" xmlns="http://www.w3.org/2000/svg">
<path d="M1 5.32293H1.75275M1.75275 5.32293H13.2073M1.75275 5.32293C1.76076 5.28588 1.77023 5.24914 1.78117 5.21285C1.80728 5.12624 1.84415 5.04296 1.91828 4.87615L3.03159 2.37121C3.2517 1.87595 3.36194 1.62818 3.53591 1.4466C3.68969 1.2861 3.8783 1.16349 4.08742 1.08816C4.324 1.00293 4.59522 1.00293 5.13719 1.00293H9.82257C10.3645 1.00293 10.636 1.00293 10.8726 1.08816C11.0817 1.16349 11.2701 1.2861 11.4238 1.4466C11.5977 1.62806 11.7077 1.87563 11.9275 2.37021L13.0453 4.88526C13.1168 5.04602 13.1531 5.12783 13.1788 5.21285C13.1897 5.24914 13.1992 5.28588 13.2073 5.32293M1.75275 5.32293C1.74377 5.36443 1.73663 5.40633 1.73132 5.44844C1.72 5.53818 1.72 5.62941 1.72 5.81195V9.64293M13.2073 5.32293H13.96M13.2073 5.32293C13.2163 5.36443 13.2234 5.40633 13.2288 5.44844C13.24 5.53764 13.24 5.62834 13.24 5.80867V9.64301M13.24 9.64301L10.36 9.64299M13.24 9.64301V10.3628C13.24 11.1581 12.5953 11.8029 11.8 11.8029C11.0047 11.8029 10.36 11.1582 10.36 10.3629V9.64299M10.36 9.64299L4.6 9.64293M4.6 9.64293H1.72M4.6 9.64293V10.3629C4.6 11.1582 3.95529 11.8029 3.16 11.8029C2.36471 11.8029 1.72 11.1582 1.72 10.3629V9.64293" stroke="white" stroke-linecap="round" stroke-linejoin="round"/>
</svg>
