<svg width="17" height="11" viewBox="0 0 17 11" fill="none" xmlns="http://www.w3.org/2000/svg">
<path d="M8.04956 2.2222C7.75332 2.22679 7.45928 2.27352 7.1764 2.36096C7.30725 2.58946 7.37692 2.84745 7.37876 3.11029C7.37876 3.31439 7.33827 3.51649 7.25961 3.70505C7.18096 3.89361 7.06566 4.06494 6.92032 4.20926C6.77498 4.35357 6.60244 4.46805 6.41254 4.54616C6.22264 4.62426 6.01911 4.66446 5.81356 4.66446C5.54885 4.66264 5.28903 4.59346 5.05892 4.46353C4.87736 5.08875 4.89852 5.75484 5.1194 6.36745C5.34028 6.98007 5.74967 7.50815 6.2896 7.87689C6.82952 8.24563 7.4726 8.43634 8.12775 8.42201C8.7829 8.40768 9.41689 8.18903 9.93994 7.79703C10.463 7.40504 10.8486 6.85957 11.0421 6.23789C11.2355 5.61621 11.2271 4.94984 11.018 4.33317C10.8089 3.71649 10.4097 3.18078 9.87694 2.80191C9.34417 2.42305 8.70486 2.22023 8.04956 2.2222ZM16.0019 4.92534C14.4861 1.98879 11.4854 0.00195312 8.04956 0.00195312C4.61367 0.00195312 1.61213 1.99018 0.0972504 4.92562C0.0333127 5.0512 0 5.18995 0 5.33067C0 5.47139 0.0333127 5.61014 0.0972504 5.73573C1.61297 8.67228 4.61367 10.6591 8.04956 10.6591C11.4854 10.6591 14.487 8.67089 16.0019 5.73545C16.0658 5.60987 16.0991 5.47112 16.0991 5.3304C16.0991 5.18967 16.0658 5.05092 16.0019 4.92534ZM8.04956 9.32697C5.2923 9.32697 2.76451 7.80055 1.39944 5.33053C2.76451 2.86051 5.29202 1.3341 8.04956 1.3341C10.8071 1.3341 13.3346 2.86051 14.6997 5.33053C13.3349 7.80055 10.8071 9.32697 8.04956 9.32697Z" fill="url(#paint0_linear_10984_133)"/>
<defs>
<linearGradient id="paint0_linear_10984_133" x1="8.04956" y1="0.00195312" x2="8.04956" y2="10.6591" gradientUnits="userSpaceOnUse">
<stop stop-color="white"/>
<stop offset="1" stop-color="#DEDEDE"/>
</linearGradient>
</defs>
</svg>
