<svg width="25" height="33" viewBox="0 0 25 33" fill="none" xmlns="http://www.w3.org/2000/svg">
<path d="M12.5 26.8333H12.5164M6.25714 32H18.7429C20.583 32 21.5032 32 22.206 31.6246C22.8242 31.2944 23.3269 30.7674 23.6419 30.1193C24 29.3826 24 28.4179 24 26.4889V6.51111C24 4.58205 24 3.6175 23.6419 2.8807C23.3269 2.23258 22.8242 1.70565 22.206 1.37543C21.5032 1 20.583 1 18.7429 1H6.25714C4.41698 1 3.49688 1 2.79403 1.37543C2.17578 1.70565 1.67313 2.23258 1.35813 2.8807C1 3.6175 1 4.58203 1 6.51111V26.4889C1 28.4179 1 29.3826 1.35813 30.1193C1.67313 30.7674 2.17578 31.2944 2.79403 31.6246C3.49688 32 4.41696 32 6.25714 32Z" stroke="url(#paint0_linear_11427_8)" stroke-width="1.3" stroke-linecap="round" stroke-linejoin="round"/>
<defs>
<linearGradient id="paint0_linear_11427_8" x1="12.5" y1="1" x2="12.5" y2="32" gradientUnits="userSpaceOnUse">
<stop stop-color="white"/>
<stop offset="1" stop-color="#B3B3B3"/>
</linearGradient>
</defs>
</svg>
