<svg width="28" height="30" viewBox="0 0 28 30" fill="none" xmlns="http://www.w3.org/2000/svg">
<path fill-rule="evenodd" clip-rule="evenodd" d="M7.00002 6.99556C7.00002 3.13684 10.1379 0 14 0C17.862 0 20.9873 3.13684 21 6.99556C21 10.8674 14 20.9998 14 20.9998C14 20.9998 7.00002 10.8674 7.00002 6.99556ZM11.2 7.49992C11.2 9.15591 12.4544 10.4999 14 10.4999C15.5456 10.4999 16.8 9.15591 16.8 7.49992C16.8 5.84394 15.5456 4.49996 14 4.49996C12.4544 4.49996 11.2 5.84394 11.2 7.49992ZM0.705449 18.1974L6.72814 14.5103C7.17901 15.3747 7.65519 16.2286 8.12184 17.0331L8.15573 17.0914L3.54479 19.9143L9.05574 27L18.9442 26.9997L24.4552 19.9144L19.8443 17.0914L19.8782 17.0331C20.3448 16.2286 20.8209 15.3747 21.2719 14.5103L27.2945 18.1975C27.6541 18.4176 27.9043 18.7969 27.9778 19.2336C28.0513 19.6702 27.9407 20.1193 27.6755 20.4601L20.6755 29.46C20.4095 29.802 20.0155 29.9997 19.6 29.9997L8.40005 30C7.98453 30 7.59048 29.8023 7.32448 29.4603L0.324484 20.4599C0.0593951 20.1191 -0.0512644 19.6701 0.0222505 19.2334C0.0957652 18.7968 0.345912 18.4174 0.705449 18.1974Z" fill="url(#paint0_linear_4746_46)"/>
<defs>
<linearGradient id="paint0_linear_4746_46" x1="14" y1="0" x2="14" y2="30" gradientUnits="userSpaceOnUse">
<stop stop-color="white"/>
<stop offset="1" stop-color="#D2D2D2"/>
</linearGradient>
</defs>
</svg>
