<svg width="26" height="22" viewBox="0 0 26 22" fill="none" xmlns="http://www.w3.org/2000/svg">
<path d="M25.3295 18.8007L14.6181 0.662539C13.7249 -0.220846 12.2755 -0.220846 11.3822 0.662539L0.669944 18.8007C-0.223315 19.6832 -0.223315 21.1158 0.669944 22H25.3287C26.2236 21.1158 26.2236 19.6832 25.3295 18.8007ZM12.0136 7.17369C12.0136 6.47223 12.5886 5.90446 13.2971 5.90446C14.0055 5.90446 14.5805 6.47223 14.5805 7.17369V13.0968C14.5805 13.7974 14.0055 14.366 13.2971 14.366C12.5886 14.366 12.0136 13.7974 12.0136 13.0968V7.17369ZM13.3048 18.6035C12.5963 18.6035 12.0213 18.0366 12.0213 17.3343C12.0213 16.6337 12.5963 16.0651 13.3048 16.0651C14.0132 16.0651 14.5882 16.6337 14.5882 17.3343C14.5882 18.0366 14.0132 18.6035 13.3048 18.6035Z" fill="url(#paint0_linear_9507_33)"/>
<defs>
<linearGradient id="paint0_linear_9507_33" x1="13" y1="0" x2="13" y2="22" gradientUnits="userSpaceOnUse">
<stop stop-color="white"/>
<stop offset="1" stop-color="#F8E700"/>
</linearGradient>
</defs>
</svg>
