<svg width="21" height="22" viewBox="0 0 21 22" fill="none" xmlns="http://www.w3.org/2000/svg">
<path d="M13.1116 1.51749C13.0355 1.10096 12.6732 0.799072 12.2506 0.799072C5.49528 0.799072 0 5.5094 0 11.2995C0 17.0888 5.49524 21.8 12.2506 21.8C12.6732 21.8 13.0355 21.4973 13.1116 21.0807L13.2017 20.5864C14.271 14.2957 14.2701 8.04354 13.2 2.00228L13.1116 1.51749Z" fill="white" fill-opacity="0.2"/>
<path d="M15.299 6.79929L19.6742 9.42441C19.8151 9.50928 19.9709 9.54956 20.124 9.54956C20.4215 9.54956 20.7111 9.39816 20.8748 9.12429C21.1233 8.71038 20.9894 8.17223 20.5746 7.92375L16.1994 5.29863C15.7847 5.04924 15.2465 5.18489 14.9989 5.59875C14.7504 6.01348 14.8842 6.55077 15.299 6.79929Z" fill="white" fill-opacity="0.2"/>
<path d="M20.5746 13.1742L16.1994 10.5491C15.7838 10.2997 15.2465 10.4354 14.9989 10.8492C14.7504 11.2631 14.8842 11.8013 15.299 12.0498L19.6742 14.6749C19.8151 14.7598 19.9709 14.7991 20.1231 14.7991C20.4206 14.7991 20.7103 14.6486 20.8748 14.3747C21.1233 13.96 20.9894 13.4228 20.5746 13.1742Z" fill="white" fill-opacity="0.2"/>
<path d="M20.5746 18.4245L16.1994 15.7994C15.7838 15.55 15.2465 15.6856 14.9989 16.0995C14.7504 16.5134 14.8842 17.0515 15.299 17.3L19.6742 19.9251C19.8151 20.01 19.9709 20.0494 20.1231 20.0494C20.4206 20.0494 20.7103 19.8989 20.8748 19.625C21.1233 19.2103 20.9894 18.673 20.5746 18.4245Z" fill="white" fill-opacity="0.2"/>
</svg>
