<svg width="21" height="21" viewBox="0 0 21 21" fill="none" xmlns="http://www.w3.org/2000/svg">
<path d="M12.9214 0.708126C12.8464 0.297563 12.4894 0 12.0728 0C5.41556 0 0 4.64282 0 10.35C0 16.0563 5.41552 20.7 12.0728 20.7C12.4894 20.7 12.8464 20.4016 12.9214 19.991L13.0102 19.5037C14.064 13.3032 14.0631 7.14065 13.0085 1.18596L12.9214 0.708126Z" fill="white"/>
<path d="M16.3286 3.58801H19.8246C20.3079 3.58801 20.6986 3.15526 20.6986 2.62203C20.6986 2.0888 20.3079 1.65601 19.8246 1.65601H16.3286C15.8453 1.65601 15.4546 2.08876 15.4546 2.62198C15.4546 3.15521 15.8453 3.58801 16.3286 3.58801Z" fill="white"/>
<path d="M19.8246 6.8999H16.3286C15.8453 6.8999 15.4546 7.27084 15.4546 7.7279C15.4546 8.18497 15.8453 8.5559 16.3286 8.5559H19.8246C20.3079 8.5559 20.6986 8.18497 20.6986 7.7279C20.6986 7.27084 20.3079 6.8999 19.8246 6.8999Z" fill="white"/>
<path d="M19.8246 12.144H16.3286C15.8453 12.144 15.4546 12.515 15.4546 12.972C15.4546 13.4291 15.8453 13.8 16.3286 13.8H19.8246C20.3079 13.8 20.6986 13.4291 20.6986 12.972C20.6986 12.515 20.3079 12.144 19.8246 12.144Z" fill="white"/>
<path d="M19.8246 17.3879H16.3286C15.8453 17.3879 15.4546 17.7589 15.4546 18.2159C15.4546 18.673 15.8453 19.0439 16.3286 19.0439H19.8246C20.3079 19.0439 20.6986 18.673 20.6986 18.2159C20.6986 17.7589 20.3079 17.3879 19.8246 17.3879Z" fill="white"/>
</svg>
