<svg width="82" height="32" viewBox="0 0 82 32" fill="none" xmlns="http://www.w3.org/2000/svg">
<path d="M0 3.84C0 1.71923 1.71923 0 3.84 0H78.16C80.2808 0 82 1.71923 82 3.84V28.16C82 30.2808 80.2808 32 78.16 32H3.84C1.71922 32 0 30.2808 0 28.16V3.84Z" fill="black" fill-opacity="0.5"/>
<rect x="50" y="6" width="20" height="20" rx="3.3" fill="white"/>
<path d="M63.657 12.324V21H62.829C62.701 21 62.593 20.98 62.505 20.94C62.421 20.896 62.339 20.824 62.259 20.724L57.729 14.94C57.753 15.204 57.765 15.448 57.765 15.672V21H56.343V12.324H57.189C57.257 12.324 57.315 12.328 57.363 12.336C57.415 12.34 57.459 12.352 57.495 12.372C57.535 12.388 57.573 12.414 57.609 12.45C57.645 12.482 57.685 12.526 57.729 12.582L62.277 18.39C62.265 18.25 62.255 18.112 62.247 17.976C62.239 17.84 62.235 17.714 62.235 17.598V12.324H63.657Z" fill="url(#paint0_linear_9523_53)"/>
<circle cx="22" cy="16" r="8" fill="black" fill-opacity="0.55"/>
<path d="M19.4369 12L18 13.4369L18.7338 14.1707L20.5478 16.0153L18.7338 17.8293L18 18.5325L19.4369 20L20.1707 19.2662L22.0153 17.4217L23.8293 19.2662L24.5325 20L26 18.5325L25.2662 17.8293L23.4217 16.0153L25.2662 14.1707L26 13.4369L24.5325 12L23.8293 12.7338L22.0153 14.5478L20.1707 12.7338L19.4369 12Z" fill="white"/>
<path d="M32 16C32 21.5228 27.5228 26 22 26C16.4772 26 12 21.5228 12 16C12 10.4772 16.4772 6 22 6C27.5228 6 32 10.4772 32 16ZM13.9068 16C13.9068 20.4697 17.5303 24.0932 22 24.0932C26.4697 24.0932 30.0932 20.4697 30.0932 16C30.0932 11.5303 26.4697 7.90682 22 7.90682C17.5303 7.90682 13.9068 11.5303 13.9068 16Z" fill="url(#paint1_linear_9523_53)"/>
<defs>
<linearGradient id="paint0_linear_9523_53" x1="60" y1="9" x2="60" y2="23" gradientUnits="userSpaceOnUse">
<stop/>
<stop offset="1"/>
</linearGradient>
<linearGradient id="paint1_linear_9523_53" x1="22" y1="6" x2="22" y2="26" gradientUnits="userSpaceOnUse">
<stop stop-color="#DF1F20"/>
<stop offset="1" stop-color="#C31D30"/>
</linearGradient>
</defs>
</svg>
