<svg width="82" height="32" viewBox="0 0 82 32" fill="none" xmlns="http://www.w3.org/2000/svg">
<path d="M0 3.84C0 1.71923 1.71923 0 3.84 0H78.16C80.2808 0 82 1.71923 82 3.84V28.16C82 30.2808 80.2808 32 78.16 32H3.84C1.71922 32 0 30.2808 0 28.16V3.84Z" fill="black" fill-opacity="0.5"/>
<rect x="50" y="6.23438" width="20" height="20" rx="3.3" fill="white"/>
<path d="M60.8365 17.64V21H59.2285V17.64L56.0665 12.324H57.4885C57.6285 12.324 57.7385 12.358 57.8185 12.426C57.9025 12.494 57.9725 12.58 58.0285 12.684L59.6125 15.582C59.7045 15.754 59.7845 15.916 59.8525 16.068C59.9245 16.22 59.9885 16.372 60.0445 16.524C60.0965 16.372 60.1565 16.22 60.2245 16.068C60.2925 15.916 60.3705 15.754 60.4585 15.582L62.0365 12.684C62.0805 12.596 62.1465 12.514 62.2345 12.438C62.3225 12.362 62.4345 12.324 62.5705 12.324H63.9985L60.8365 17.64Z" fill="url(#paint0_linear_9536_11)"/>
<circle cx="21.9219" cy="15.9219" r="8" fill="black" fill-opacity="0.55"/>
<path d="M18.875 18.8125C18.875 19.6754 19.5746 20.375 20.4375 20.375H23.5625C24.4254 20.375 25.125 19.6754 25.125 18.8125V18.8125C25.1243 18.2325 24.8936 17.6765 24.4835 17.2665C24.0735 16.8564 23.5175 16.6257 22.9375 16.625H21.0625C20.4825 16.6257 19.9265 16.8564 19.5165 17.2665C19.1064 17.6765 18.8757 18.2325 18.875 18.8125V18.8125Z" fill="white"/>
<path d="M19.8145 13.8125C19.8145 14.2451 19.9427 14.6681 20.1831 15.0278C20.4235 15.3875 20.7651 15.6679 21.1648 15.8335C21.5645 15.9991 22.0044 16.0424 22.4287 15.958C22.853 15.8736 23.2428 15.6652 23.5487 15.3593C23.8547 15.0534 24.063 14.6636 24.1474 14.2393C24.2318 13.8149 24.1885 13.3751 24.0229 12.9754C23.8574 12.5757 23.577 12.234 23.2173 11.9937C22.8575 11.7533 22.4346 11.625 22.002 11.625C21.4218 11.625 20.8654 11.8555 20.4552 12.2657C20.0449 12.6759 19.8145 13.2323 19.8145 13.8125Z" fill="white"/>
<path d="M32 16C32 21.5228 27.5228 26 22 26C16.4772 26 12 21.5228 12 16C12 10.4772 16.4772 6 22 6C27.5228 6 32 10.4772 32 16ZM13.9068 16C13.9068 20.4697 17.5303 24.0932 22 24.0932C26.4697 24.0932 30.0932 20.4697 30.0932 16C30.0932 11.5303 26.4697 7.90682 22 7.90682C17.5303 7.90682 13.9068 11.5303 13.9068 16Z" fill="url(#paint1_linear_9536_11)"/>
<defs>
<linearGradient id="paint0_linear_9536_11" x1="60.1445" y1="12" x2="60.1445" y2="21" gradientUnits="userSpaceOnUse">
<stop/>
<stop offset="1"/>
</linearGradient>
<linearGradient id="paint1_linear_9536_11" x1="22" y1="6" x2="22" y2="26" gradientUnits="userSpaceOnUse">
<stop stop-color="#FBD204"/>
<stop offset="1" stop-color="#FBCD04"/>
</linearGradient>
</defs>
</svg>
