<svg width="33" height="24" viewBox="0 0 33 24" fill="none" xmlns="http://www.w3.org/2000/svg">
<path d="M12.4019 18.4384C12.4019 17.9604 12.8549 17.573 13.4135 17.573H18.69C19.2487 17.573 19.7016 17.9604 19.7016 18.4384V20.1467L29.7602 11.55L19.7016 2.9534V4.66165C19.7016 5.13972 19.2487 5.52708 18.69 5.52708H2.64287V17.573H14.0605C14.6192 17.573 14.329 18.1942 14.329 18.6723C14.329 19.1503 13.9722 19.304 13.4135 19.304H1.56889C1.01022 19.304 0.303125 19.1503 0.303125 18.6723V4.42788C0.303125 3.94982 1.01022 3.7961 1.56889 3.7961H17.6784V0.865513C17.6784 0.515531 17.9249 0.200052 18.3027 0.0659675C18.6806 -0.0680016 19.1156 0.00584884 19.405 0.253247L31.9065 10.9378C32.0964 11.1 32.2031 11.3203 32.2031 11.55C32.2031 11.7798 32.0964 11.9999 31.9065 12.1623L19.405 22.8468C19.2115 23.0123 18.9529 23.1 18.6899 23.1C18.5595 23.1 18.428 23.0784 18.3027 23.0341C17.9249 22.9 17.6784 22.5845 17.6784 22.2346V19.304H13.4135C12.8549 19.3039 12.4019 18.9164 12.4019 18.4384Z" fill="white" fill-opacity="0.2"/>
</svg>
