<svg width="32" height="32" viewBox="0 0 32 32" fill="none" xmlns="http://www.w3.org/2000/svg">
<g filter="url(#filter0_d_9040_79)">
<path d="M8.09037 4.14051C8.0474 4.16773 8.00675 4.20006 7.96932 4.2375L5.92795 6.27884C5.33541 6.87139 5.33134 7.83243 5.91573 8.43003L5.92873 8.4442L5.99212 8.51309C6.0477 8.57349 6.12945 8.66209 6.23447 8.77545C6.44449 9.00224 6.74766 9.32816 7.12086 9.72555C7.86706 10.5201 8.89418 11.6013 10.0171 12.7472C12.2396 15.0149 14.9084 17.61 16.4987 18.679C18.29 19.8887 19.9176 20.5699 21.1061 20.9495C21.7003 21.1393 22.185 21.2538 22.526 21.3213C22.6965 21.3551 22.8312 21.3771 22.9257 21.391C22.973 21.3979 23.0103 21.4028 23.037 21.4061L23.0613 21.409C23.535 21.4835 23.9537 21.4974 24.3267 21.4195C24.7257 21.3362 25.0381 21.1551 25.2923 20.9009L25.7834 20.4098C25.8199 20.3734 25.8516 20.3336 25.8787 20.2912C26.0646 20.1225 26.2199 19.922 26.3369 19.6982C26.4972 19.3915 26.5806 19.0505 26.5802 18.7044C26.4981 17.7974 25.6423 17.2734 24.8847 16.8104C24.5034 16.6214 24.163 16.3592 23.8829 16.0388L23.3252 14.7368H23.3302C23.737 14.7368 24.0667 14.4071 24.0667 14.0002C24.0667 13.5934 23.737 13.2637 23.3302 13.2637H22.694L22.242 12.2084C22.5138 12.1 22.7058 11.8345 22.7058 11.524C22.7058 11.1171 22.3761 10.7874 21.9693 10.7874H21.6332L21.2602 9.91678C21.6511 9.89868 21.9622 9.57627 21.9622 9.18098C21.9622 8.77412 21.6325 8.44442 21.2257 8.44442H20.6295L20.3411 7.77098C20.2976 7.66576 20.2709 7.59 20.2485 7.52546C20.155 7.21898 19.9804 6.94343 19.7434 6.72786L19.3786 6.36239C19.209 6.19905 19.0052 6.07926 18.7844 6.01003V5.69458C18.3459 4.37235 16.7468 3.91132 15.6743 4.71614L14.1812 3.19374C14.3154 3.0583 14.4215 2.89766 14.4934 2.72108C14.5653 2.54448 14.6017 2.35543 14.6003 2.16475C14.5989 1.97408 14.5599 1.78555 14.4854 1.61002C14.411 1.43448 14.3026 1.27539 14.1665 1.14188C13.7571 0.733946 13.2028 0.504883 12.6249 0.504883C12.047 0.504883 11.4927 0.733946 11.0833 1.14188L8.09037 4.14051ZM14.7279 10.5805L14.7297 10.0578C14.7297 8.86531 14.2667 7.72889 13.4389 6.88009L10.4157 3.79651L12.0746 2.13519C12.1491 2.06039 12.2387 2.00234 12.3374 1.96493C12.4361 1.92751 12.5417 1.9116 12.6471 1.91824C12.7524 1.92488 12.8552 1.95393 12.9484 2.00343C13.0417 2.05294 13.1233 2.12178 13.1879 2.20534C12.919 2.4756 12.7681 2.8413 12.7681 3.22251C12.7681 3.60371 12.919 3.96941 13.1879 4.23967L16.2955 7.3557C16.5762 7.62626 16.9509 7.77744 17.3408 7.77744C17.7306 7.77744 18.1052 7.62626 18.386 7.3557L18.7508 7.72047C18.8363 7.78726 18.8968 7.88091 18.9226 7.98634L18.925 7.993C18.9553 8.08013 18.9922 8.18563 19.051 8.32236L19.1033 8.44442H18.4407C18.0338 8.44442 17.7041 8.77412 17.7041 9.18098C17.7041 9.38441 17.7883 9.5668 17.9216 9.70009C18.0549 9.83337 18.2443 9.91755 18.4407 9.91755H19.7343L20.1068 10.7874H19.5561C19.1492 10.7874 18.8195 11.1171 18.8195 11.524C18.8195 11.7274 18.9037 11.9098 19.037 12.0431C19.1703 12.1764 19.3597 12.2605 19.5561 12.2605H20.7378L21.1675 13.2637H20.482C20.0751 13.2637 19.7454 13.5934 19.7454 14.0002C19.7454 14.2037 19.8296 14.3861 19.9629 14.5193C20.0962 14.6526 20.2786 14.7298 20.482 14.7368H21.7985L22.5936 16.593C22.9605 17.2098 23.505 17.7017 24.1558 18.0044L24.1577 18.0055C24.5111 18.2212 25.1667 18.6213 25.1842 18.8209C25.1842 18.86 25.1459 18.9801 24.9703 19.1765C24.7728 19.1524 24.5031 19.1144 24.1805 19.0562C23.4609 18.9265 22.4873 18.6981 21.4652 18.305C19.4015 17.5116 17.2679 16.1007 16.4714 13.6046L16.471 13.6033C16.187 12.7192 15.5465 11.6902 14.8039 10.683C14.7787 10.6489 14.7534 10.6147 14.7279 10.5805ZM6.91841 7.44872C6.90137 7.42753 6.89207 7.40116 6.89207 7.37394C6.89207 7.3463 6.90167 7.3195 6.91923 7.29818L8.4857 5.72937C8.62584 5.8668 8.79121 6.03026 8.97656 6.21575C9.58181 6.82142 10.398 7.6598 11.2437 8.59215C12.0907 9.52598 12.9598 10.5459 13.6746 11.5155C14.4003 12.5 14.9242 13.3761 15.135 14.0317C15.1679 14.1351 15.2027 14.2368 15.2393 14.337L6.92014 7.45047C6.9201 7.4504 6.92018 7.45047 6.92014 7.45047C6.91959 7.44991 6.91894 7.44928 6.91841 7.44872Z" fill="url(#paint0_linear_9040_79)"/>
</g>
<defs>
<filter id="filter0_d_9040_79" x="0.620469" y="0.504883" width="30.8216" height="30.6868" filterUnits="userSpaceOnUse" color-interpolation-filters="sRGB">
<feFlood flood-opacity="0" result="BackgroundImageFix"/>
<feColorMatrix in="SourceAlpha" type="matrix" values="0 0 0 0 0 0 0 0 0 0 0 0 0 0 0 0 0 0 127 0" result="hardAlpha"/>
<feOffset dy="4.86"/>
<feGaussianBlur stdDeviation="2.43"/>
<feComposite in2="hardAlpha" operator="out"/>
<feColorMatrix type="matrix" values="0 0 0 0 0 0 0 0 0 0 0 0 0 0 0 0 0 0 0.25 0"/>
<feBlend mode="normal" in2="BackgroundImageFix" result="effect1_dropShadow_9040_79"/>
<feBlend mode="normal" in="SourceGraphic" in2="effect1_dropShadow_9040_79" result="shape"/>
</filter>
<linearGradient id="paint0_linear_9040_79" x1="16.0303" y1="0.504883" x2="16.0303" y2="21.4717" gradientUnits="userSpaceOnUse">
<stop stop-color="white"/>
<stop offset="1" stop-color="#C2C2C2"/>
</linearGradient>
</defs>
</svg>
