<svg width="29" height="24" viewBox="0 0 29 24" fill="none" xmlns="http://www.w3.org/2000/svg">
<g filter="url(#filter0_d_9040_6)">
<path d="M11.3006 2.30529C11.2612 2.31656 11.2244 2.33548 11.1923 2.36098C11.1602 2.38648 11.1334 2.41806 11.1135 2.4539C11.0936 2.48975 11.0809 2.52917 11.0763 2.5699C11.0716 2.61064 11.075 2.6519 11.0862 2.69132C11.2863 3.38882 11.7079 4.00227 12.2874 4.43896C12.8669 4.87565 13.5729 5.11184 14.2985 5.11184C15.0242 5.11184 15.7301 4.87565 16.3096 4.43896C16.8892 4.00227 17.3108 3.38882 17.5108 2.69132C17.5223 2.65184 17.5258 2.61048 17.5213 2.56962C17.5167 2.52876 17.5041 2.4892 17.4843 2.45322C17.4644 2.41723 17.4376 2.38553 17.4054 2.35992C17.3732 2.33432 17.3363 2.31532 17.2968 2.30402C17.2573 2.29272 17.2159 2.28934 17.175 2.29406C17.1342 2.29879 17.0947 2.31154 17.0588 2.33157C17.0229 2.35161 16.9913 2.37854 16.9658 2.41081C16.9404 2.44309 16.9215 2.48008 16.9104 2.51965C16.7477 3.08671 16.4048 3.5854 15.9336 3.94039C15.4624 4.29538 14.8885 4.48738 14.2985 4.48738C13.7086 4.48738 13.1346 4.29538 12.6634 3.94039C12.1922 3.5854 11.8494 3.08671 11.6867 2.51965C11.6639 2.44004 11.6104 2.37273 11.5381 2.33253C11.4657 2.29232 11.3803 2.28253 11.3006 2.30529Z" fill="white" fill-opacity="0.8" stroke="white" stroke-width="0.796378"/>
<path d="M20.02 6.06316C19.9406 6.03948 19.8551 6.04828 19.7823 6.08763C19.7094 6.12698 19.6552 6.19366 19.6315 6.273L19.2461 7.5632C19.2375 7.59219 19.2331 7.62229 19.2331 7.65254V17.317L9.35395 17.294V7.62815C9.35394 7.59789 9.34954 7.5678 9.34089 7.5388L8.95557 6.2486C8.94398 6.20916 8.92471 6.17239 8.89886 6.14041C8.87302 6.10843 8.84111 6.08186 8.80498 6.06225C8.76884 6.04263 8.72918 6.03034 8.68829 6.02609C8.64739 6.02184 8.60605 6.0257 8.56665 6.03747C8.52725 6.04923 8.49057 6.06866 8.4587 6.09464C8.42683 6.12062 8.4004 6.15264 8.38094 6.18886C8.36148 6.22508 8.34936 6.26479 8.34529 6.3057C8.34121 6.34662 8.34526 6.38793 8.35719 6.42728L8.72946 7.67377V17.6055C8.72945 17.6882 8.76225 17.7675 8.82065 17.8261C8.87906 17.8846 8.95829 17.9176 9.04098 17.9178L19.5446 17.9421H19.5453C19.6281 17.9421 19.7076 17.9093 19.7661 17.8507C19.8247 17.7921 19.8576 17.7127 19.8576 17.6299V7.69817L20.2298 6.45167C20.2535 6.37233 20.2447 6.28682 20.2054 6.21396C20.166 6.1411 20.0993 6.08686 20.02 6.06316Z" fill="url(#paint0_linear_9040_6)" fill-opacity="0.8" stroke="white" stroke-width="0.796378"/>
<path d="M25.1454 6.94343L20.8842 2.68109C20.852 2.64892 20.8194 2.61718 20.7865 2.58587C19.8513 1.70701 18.6166 1.21706 17.3332 1.21556L17.0194 1.21289H17.0167C16.9339 1.21255 16.8543 1.24511 16.7955 1.30342C16.7367 1.36173 16.7035 1.44101 16.7031 1.52382C16.7028 1.60663 16.7353 1.68619 16.7937 1.74499C16.852 1.80378 16.9313 1.83701 17.0141 1.83736L17.328 1.84002C18.4531 1.84037 19.5359 2.26896 20.3565 3.03875C20.3854 3.06625 20.4141 3.09418 20.4425 3.12254L24.4831 7.16418L21.7127 9.93435L20.7796 9.00132C20.7211 8.94277 20.6417 8.90987 20.5589 8.90987C20.476 8.90987 20.3966 8.94277 20.3381 9.00133C20.2795 9.05988 20.2466 9.1393 20.2466 9.22211C20.2466 9.30493 20.2795 9.38434 20.3381 9.4429L21.4919 10.5967C21.5209 10.6257 21.5554 10.6487 21.5932 10.6644C21.6311 10.6801 21.6717 10.6882 21.7127 10.6882C21.7537 10.6882 21.7943 10.6801 21.8322 10.6644C21.8701 10.6487 21.9045 10.6257 21.9335 10.5967L25.1454 7.38501C25.1744 7.35601 25.1974 7.3216 25.2131 7.28371C25.2288 7.24583 25.2369 7.20523 25.2369 7.16423C25.2369 7.12322 25.2288 7.08262 25.2131 7.04473C25.1974 7.00685 25.1744 6.97243 25.1454 6.94343Z" fill="white" fill-opacity="0.8" stroke="white" stroke-width="0.796378"/>
<path d="M7.83058 8.97805L6.87567 9.93291L4.10535 7.16272L8.14593 3.12112C8.17426 3.09276 8.20291 3.06484 8.23187 3.03738C9.05244 2.26754 10.1353 1.83891 11.2605 1.83857L11.6325 1.8354C11.7153 1.83506 11.7946 1.80183 11.8529 1.74303C11.9112 1.68423 11.9438 1.60468 11.9434 1.52187C11.9431 1.43906 11.9099 1.35978 11.8511 1.30147C11.7922 1.24316 11.7127 1.21059 11.6299 1.21094H11.6272L11.2552 1.2141C9.97176 1.21561 8.73705 1.7056 7.80186 2.58452C7.76898 2.61573 7.73647 2.64741 7.70431 2.67957L3.443 6.94199C3.38445 7.00055 3.35156 7.07996 3.35156 7.16277C3.35157 7.24557 3.38447 7.32498 3.44302 7.38354L6.65489 10.5953C6.68388 10.6242 6.71831 10.6472 6.75619 10.6629C6.79408 10.6786 6.83468 10.6867 6.87569 10.6867C6.91669 10.6867 6.9573 10.6786 6.99518 10.6629C7.03306 10.6472 7.06749 10.6242 7.09648 10.5953L8.27217 9.41961C8.33073 9.36106 8.36363 9.28164 8.36363 9.19883C8.36363 9.11602 8.33073 9.0366 8.27217 8.97804C8.21362 8.91949 8.13419 8.88659 8.05138 8.88659C7.96856 8.88659 7.88914 8.91949 7.83058 8.97805Z" fill="white" fill-opacity="0.8" stroke="white" stroke-width="0.796378"/>
</g>
<defs>
<filter id="filter0_d_9040_6" x="0.502731" y="0.8125" width="27.5844" height="22.4291" filterUnits="userSpaceOnUse" color-interpolation-filters="sRGB">
<feFlood flood-opacity="0" result="BackgroundImageFix"/>
<feColorMatrix in="SourceAlpha" type="matrix" values="0 0 0 0 0 0 0 0 0 0 0 0 0 0 0 0 0 0 127 0" result="hardAlpha"/>
<feOffset dy="2.45039"/>
<feGaussianBlur stdDeviation="1.2252"/>
<feComposite in2="hardAlpha" operator="out"/>
<feColorMatrix type="matrix" values="0 0 0 0 0 0 0 0 0 0 0 0 0 0 0 0 0 0 0.25 0"/>
<feBlend mode="normal" in2="BackgroundImageFix" result="effect1_dropShadow_9040_6"/>
<feBlend mode="normal" in="SourceGraphic" in2="effect1_dropShadow_9040_6" result="shape"/>
</filter>
<linearGradient id="paint0_linear_9040_6" x1="14.2933" y1="6.02441" x2="14.2933" y2="17.9421" gradientUnits="userSpaceOnUse">
<stop stop-color="white"/>
<stop offset="1" stop-color="#C7C7C7"/>
</linearGradient>
</defs>
</svg>
