<svg width="11" height="11" viewBox="0 0 11 11" fill="none" xmlns="http://www.w3.org/2000/svg">
<path d="M4.97477 1.06714C4.81268 1.13428 4.66738 1.27958 4.37679 1.57017C4.08627 1.86069 3.94091 2.00605 3.87378 2.16812C3.78426 2.38423 3.78426 2.62708 3.87378 2.8432C3.94091 3.00528 4.08621 3.15058 4.3768 3.44117C4.66723 3.7316 4.81271 3.87708 4.97475 3.9442C5.19087 4.03372 5.43372 4.03372 5.64983 3.9442C5.81192 3.87706 5.95722 3.73177 6.24781 3.44117C6.5384 3.15058 6.68327 3.00528 6.75041 2.8432C6.83993 2.62708 6.83993 2.38423 6.75041 2.16812C6.68327 2.00603 6.5384 1.86076 6.24781 1.57017C5.95722 1.27958 5.81192 1.13428 5.64983 1.06714C5.43372 0.977621 5.19088 0.977621 4.97477 1.06714Z" stroke="url(#paint0_linear_12116_18)" stroke-width="0.882" stroke-linecap="round" stroke-linejoin="round"/>
<path d="M2.16813 3.87356C2.00604 3.9407 1.86074 4.086 1.57015 4.37659C1.27964 4.6671 1.13427 4.81248 1.06714 4.97454C0.977621 5.19065 0.977621 5.4335 1.06714 5.64962C1.13428 5.8117 1.27958 5.957 1.57017 6.2476C1.86059 6.53802 2.00608 6.68351 2.16812 6.75063C2.38423 6.84014 2.62708 6.84014 2.8432 6.75062C3.00528 6.68349 3.15058 6.53819 3.44117 6.2476C3.73177 5.957 3.87663 5.81171 3.94377 5.64962C4.03329 5.4335 4.03329 5.19065 3.94377 4.97454C3.87663 4.81245 3.73177 4.66718 3.44117 4.37659C3.15058 4.086 3.00528 3.9407 2.8432 3.87356C2.62708 3.78404 2.38424 3.78404 2.16813 3.87356Z" stroke="url(#paint1_linear_12116_18)" stroke-width="0.882" stroke-linecap="round" stroke-linejoin="round"/>
<path d="M7.18343 4.37659C6.89291 4.66711 6.74754 4.81247 6.68041 4.97454C6.5909 5.19065 6.5909 5.4335 6.68041 5.64962C6.74755 5.81171 6.89285 5.957 7.18344 6.2476C7.47387 6.53802 7.61935 6.68351 7.78139 6.75063C7.99751 6.84014 8.24036 6.84014 8.45647 6.75062C8.61856 6.68349 8.76385 6.53819 9.05445 6.2476C9.34504 5.95701 9.48991 5.8117 9.55705 5.64962C9.64657 5.4335 9.64657 5.19065 9.55705 4.97454C9.48991 4.81245 9.34504 4.66718 9.05445 4.37659C8.76386 4.086 8.61856 3.9407 8.45647 3.87356C8.24036 3.78404 7.99752 3.78404 7.7814 3.87356C7.61932 3.9407 7.47402 4.086 7.18343 4.37659Z" stroke="url(#paint2_linear_12116_18)" stroke-width="0.882" stroke-linecap="round" stroke-linejoin="round"/>
<path d="M4.97477 6.6802C4.81268 6.74734 4.66738 6.89264 4.37679 7.18323C4.08628 7.47374 3.9409 7.61911 3.87378 7.78118C3.78426 7.99729 3.78426 8.24014 3.87378 8.45626C3.94091 8.61834 4.08621 8.76364 4.3768 9.05423C4.66723 9.34466 4.81272 9.49014 4.97475 9.55726C5.19087 9.64678 5.43372 9.64678 5.64983 9.55726C5.81192 9.49012 5.95722 9.34483 6.24781 9.05423C6.5384 8.76364 6.68327 8.61834 6.75041 8.45626C6.83993 8.24014 6.83993 7.99729 6.75041 7.78118C6.68327 7.61909 6.5384 7.47382 6.24781 7.18323C5.95722 6.89264 5.81192 6.74734 5.64983 6.6802C5.43372 6.59068 5.19088 6.59068 4.97477 6.6802Z" stroke="url(#paint3_linear_12116_18)" stroke-width="0.882" stroke-linecap="round" stroke-linejoin="round"/>
<defs>
<linearGradient id="paint0_linear_12116_18" x1="5.31209" y1="1" x2="5.31209" y2="9.6244" gradientUnits="userSpaceOnUse">
<stop stop-color="#FF80EE"/>
<stop offset="0.5" stop-color="#BB36A8"/>
<stop offset="0.901042" stop-color="#C600A8"/>
</linearGradient>
<linearGradient id="paint1_linear_12116_18" x1="5.31209" y1="1" x2="5.31209" y2="9.6244" gradientUnits="userSpaceOnUse">
<stop stop-color="#FF80EE"/>
<stop offset="0.5" stop-color="#BB36A8"/>
<stop offset="0.901042" stop-color="#C600A8"/>
</linearGradient>
<linearGradient id="paint2_linear_12116_18" x1="5.31209" y1="1" x2="5.31209" y2="9.6244" gradientUnits="userSpaceOnUse">
<stop stop-color="#FF80EE"/>
<stop offset="0.5" stop-color="#BB36A8"/>
<stop offset="0.901042" stop-color="#C600A8"/>
</linearGradient>
<linearGradient id="paint3_linear_12116_18" x1="5.31209" y1="1" x2="5.31209" y2="9.6244" gradientUnits="userSpaceOnUse">
<stop stop-color="#FF80EE"/>
<stop offset="0.5" stop-color="#BB36A8"/>
<stop offset="0.901042" stop-color="#C600A8"/>
</linearGradient>
</defs>
</svg>
