<svg width="12" height="11" viewBox="0 0 12 11" fill="none" xmlns="http://www.w3.org/2000/svg">
<path d="M8.79192 10.6371C8.70426 10.6375 8.6178 10.6168 8.53979 10.5768L5.74441 9.11336L2.94903 10.5768C2.85825 10.6246 2.75591 10.6459 2.65363 10.6383C2.55136 10.6308 2.45324 10.5947 2.37045 10.5342C2.28766 10.4737 2.22351 10.3911 2.18529 10.2959C2.14707 10.2008 2.13632 10.0968 2.15426 9.99582L2.70237 6.90994L0.444146 4.71749C0.37369 4.64718 0.323709 4.55901 0.299568 4.46245C0.275427 4.36588 0.278037 4.26457 0.307117 4.16938C0.338886 4.07196 0.397324 3.9854 0.475799 3.91952C0.554275 3.85364 0.649646 3.81108 0.751089 3.79666L3.87534 3.34172L5.2511 0.5299C5.29599 0.437229 5.36606 0.359076 5.45331 0.304391C5.54055 0.249707 5.64144 0.220703 5.74441 0.220703C5.84737 0.220703 5.94826 0.249707 6.0355 0.304391C6.12275 0.359076 6.19283 0.437229 6.23771 0.5299L7.62992 3.33624L10.7542 3.79118C10.8556 3.8056 10.951 3.84816 11.0295 3.91404C11.1079 3.97992 11.1664 4.06648 11.1981 4.16389C11.2272 4.25909 11.2298 4.3604 11.2057 4.45697C11.1815 4.55353 11.1316 4.6417 11.0611 4.71201L8.80288 6.90446L9.35099 9.99034C9.37056 10.0931 9.36032 10.1993 9.32147 10.2964C9.28262 10.3936 9.21679 10.4775 9.13175 10.5385C9.0325 10.608 8.91299 10.6427 8.79192 10.6371ZM5.74441 7.95136C5.83227 7.94914 5.91918 7.96993 5.99654 8.01165L8.06293 9.10788L7.66829 6.80032C7.65297 6.71221 7.65945 6.62169 7.68716 6.53666C7.71487 6.45163 7.76296 6.37467 7.82724 6.3125L9.47158 4.70653L7.1695 4.3667C7.08508 4.3497 7.00586 4.31305 6.93824 4.25972C6.87063 4.2064 6.81654 4.13789 6.78034 4.05975L5.74441 2.00433L4.70847 4.05975C4.66881 4.13852 4.61074 4.20655 4.53917 4.25808C4.46761 4.30961 4.38466 4.34311 4.29739 4.35573L1.99531 4.69556L3.63965 6.30154C3.70393 6.36371 3.75202 6.44067 3.77973 6.5257C3.80743 6.61073 3.81391 6.70125 3.7986 6.78936L3.40396 9.06951L5.47035 7.97328C5.55791 7.94073 5.65279 7.93314 5.74441 7.95136Z" fill="url(#paint0_linear_12116_9)"/>
<defs>
<linearGradient id="paint0_linear_12116_9" x1="5.75263" y1="0.220703" x2="5.75263" y2="10.6398" gradientUnits="userSpaceOnUse">
<stop offset="0.97" stop-color="white"/>
</linearGradient>
</defs>
</svg>
