<svg width="11" height="14" viewBox="0 0 11 14" fill="none" xmlns="http://www.w3.org/2000/svg">
<path id="Vector" d="M6.17328 7.39172L10.7618 11.8955C11.079 12.2068 11.079 12.7101 10.7618 13.0181L9.99933 13.7665C9.68218 14.0778 9.16934 14.0778 8.85556 13.7665L5.60308 10.5742L2.3506 13.7665C2.03345 14.0778 1.52061 14.0778 1.20683 13.7665L0.43757 13.0214C0.120419 12.7101 0.120419 12.2068 0.43757 11.8988L5.02614 7.39503C5.34329 7.08043 5.85613 7.08043 6.17328 7.39172ZM5.02614 1.03347L0.43757 5.53723C0.120419 5.84852 0.120419 6.35188 0.43757 6.65986L1.20008 7.40828C1.51723 7.71957 2.03007 7.71957 2.34385 7.40828L5.59633 4.2159L8.84882 7.40828C9.16597 7.71957 9.67881 7.71957 9.99258 7.40828L10.7551 6.65986C11.0722 6.34857 11.0722 5.84521 10.7551 5.53723L6.16653 1.03347C5.85613 0.722177 5.34329 0.722177 5.02614 1.03347Z" fill="url(#paint0_linear_94_233)"/>
<defs>
<linearGradient id="paint0_linear_94_233" x1="5.57049" y1="-0.992925" x2="5.57049" y2="16.5959" gradientUnits="userSpaceOnUse">
<stop stop-color="#FBB904"/>
<stop offset="1" stop-color="#FBA304"/>
</linearGradient>
</defs>
</svg>
