<svg width="21" height="20" viewBox="0 0 21 20" fill="none" xmlns="http://www.w3.org/2000/svg">
<path d="M2.76316 8.38235L8.28947 7.26471L11.0526 2.23529L13.2632 6.70588L15.4737 7.26471L19.8947 8.94118L16.0263 13.4118L16.5789 19L10.5 16.7647L6.07895 19L5.52632 18.4412L6.07895 12.8529L2.21053 8.94118L2.76316 8.38235Z" fill="url(#paint0_linear_4904_101)" fill-opacity="0.5"/>
<path d="M7.92863 7.13219L10.2664 2.45073C10.5665 1.84976 11.4335 1.84976 11.7336 2.45073L14.0713 7.13219L19.2993 7.88752C19.9701 7.98443 20.2374 8.79947 19.7519 9.26697L15.9695 12.9085L16.8621 18.0528C16.9768 18.7135 16.2753 19.2173 15.675 18.9053L11 16.4751L6.32492 18.9053C5.72474 19.2173 5.02318 18.7135 5.13781 18.0528L6.03042 12.9085L2.24818 9.26697C1.76255 8.79947 2.0299 7.98443 2.70067 7.88752L7.92863 7.13219Z" fill="url(#paint1_linear_4904_101)" fill-opacity="0.2" stroke="url(#paint2_linear_4904_101)" stroke-width="0.5" stroke-linecap="round" stroke-linejoin="round"/>
<defs>
<linearGradient id="paint0_linear_4904_101" x1="10.5" y1="0" x2="10.5" y2="19" gradientUnits="userSpaceOnUse">
<stop stop-color="#A50000"/>
<stop offset="1" stop-color="#FF0000"/>
</linearGradient>
<linearGradient id="paint1_linear_4904_101" x1="11" y1="2" x2="11" y2="19" gradientUnits="userSpaceOnUse">
<stop stop-color="#A50000"/>
<stop offset="1" stop-color="#FF0000"/>
</linearGradient>
<linearGradient id="paint2_linear_4904_101" x1="11" y1="2" x2="11" y2="19" gradientUnits="userSpaceOnUse">
<stop stop-color="white"/>
<stop offset="1" stop-color="#DCDCDC" stop-opacity="0.82"/>
</linearGradient>
</defs>
</svg>
