<svg width="11" height="11" viewBox="0 0 11 11" fill="none" xmlns="http://www.w3.org/2000/svg">
<path d="M5.05875 1.23711C4.89667 1.30424 4.75136 1.44955 4.46078 1.74013C4.17026 2.03065 4.02489 2.17602 3.95776 2.33809C3.86824 2.5542 3.86824 2.79705 3.95776 3.01316C4.0249 3.17525 4.1702 3.32055 4.46079 3.61114C4.75122 3.90157 4.8967 4.04705 5.05874 4.11417C5.27485 4.20369 5.5177 4.20369 5.73382 4.11417C5.8959 4.04703 6.0412 3.90173 6.33179 3.61114C6.62239 3.32055 6.76726 3.17525 6.83439 3.01316C6.92391 2.79705 6.92391 2.5542 6.83439 2.33809C6.76726 2.176 6.62239 2.03073 6.33179 1.74013C6.0412 1.44954 5.8959 1.30424 5.73382 1.23711C5.5177 1.14759 5.27487 1.14759 5.05875 1.23711Z" stroke="white" stroke-width="0.882" stroke-linecap="round" stroke-linejoin="round"/>
<path d="M2.25211 4.04353C2.09003 4.11067 1.94473 4.25597 1.65414 4.54656C1.36363 4.83707 1.21825 4.98244 1.15112 5.14451C1.0616 5.36062 1.0616 5.60347 1.15112 5.81959C1.21826 5.98167 1.36356 6.12697 1.65415 6.41756C1.94458 6.70799 2.09006 6.85347 2.2521 6.92059C2.46822 7.01011 2.71107 7.01011 2.92718 6.92059C3.08927 6.85345 3.23456 6.70816 3.52516 6.41756C3.81575 6.12697 3.96062 5.98167 4.02776 5.81959C4.11727 5.60347 4.11727 5.36062 4.02776 5.14451C3.96062 4.98242 3.81575 4.83715 3.52516 4.54656C3.23456 4.25596 3.08927 4.11067 2.92718 4.04353C2.71107 3.95401 2.46823 3.95401 2.25211 4.04353Z" stroke="white" stroke-width="0.882" stroke-linecap="round" stroke-linejoin="round"/>
<path d="M7.26741 4.54656C6.9769 4.83707 6.83153 4.98244 6.7644 5.14451C6.67488 5.36062 6.67488 5.60347 6.7644 5.81959C6.83154 5.98167 6.97683 6.12697 7.26743 6.41756C7.55785 6.70799 7.70334 6.85347 7.86538 6.92059C8.08149 7.01011 8.32434 7.01011 8.54046 6.92059C8.70254 6.85345 8.84784 6.70816 9.13843 6.41756C9.42902 6.12698 9.5739 5.98167 9.64103 5.81959C9.73055 5.60347 9.73055 5.36062 9.64103 5.14451C9.5739 4.98242 9.42902 4.83714 9.13843 4.54656C8.84784 4.25597 8.70254 4.11067 8.54046 4.04353C8.32434 3.95401 8.0815 3.95401 7.86539 4.04353C7.7033 4.11067 7.558 4.25597 7.26741 4.54656Z" stroke="white" stroke-width="0.882" stroke-linecap="round" stroke-linejoin="round"/>
<path d="M5.05875 6.85017C4.89667 6.9173 4.75137 7.0626 4.46078 7.35319C4.17026 7.64371 4.02489 7.78908 3.95776 7.95115C3.86824 8.16726 3.86824 8.41011 3.95776 8.62623C4.0249 8.78831 4.1702 8.93361 4.46079 9.2242C4.75121 9.51463 4.8967 9.66011 5.05874 9.72723C5.27485 9.81675 5.5177 9.81675 5.73382 9.72723C5.8959 9.66009 6.0412 9.5148 6.33179 9.2242C6.62239 8.93361 6.76726 8.78831 6.83439 8.62623C6.92391 8.41011 6.92391 8.16726 6.83439 7.95115C6.76726 7.78906 6.62239 7.64379 6.33179 7.35319C6.0412 7.0626 5.8959 6.9173 5.73382 6.85017C5.5177 6.76065 5.27487 6.76065 5.05875 6.85017Z" stroke="white" stroke-width="0.882" stroke-linecap="round" stroke-linejoin="round"/>
</svg>
