<svg width="11" height="10" viewBox="0 0 11 10" fill="none" xmlns="http://www.w3.org/2000/svg">
<path d="M8.10432 9.77356C8.0264 9.77388 7.94955 9.7555 7.8802 9.71997L5.39542 8.41911L2.91064 9.71997C2.82995 9.7624 2.73898 9.78134 2.64807 9.77464C2.55715 9.76793 2.46994 9.73586 2.39635 9.68206C2.32276 9.62826 2.26573 9.5549 2.23176 9.4703C2.19779 9.38571 2.18823 9.29328 2.20418 9.20352L2.69139 6.46052L0.684076 4.51167C0.621448 4.44917 0.577021 4.3708 0.555563 4.28497C0.534104 4.19913 0.536424 4.10907 0.562273 4.02446C0.590511 3.93787 0.642456 3.86093 0.712212 3.80237C0.781968 3.7438 0.866742 3.70597 0.956915 3.69315L3.73402 3.28877L4.95693 0.789368C4.99682 0.706994 5.05911 0.637524 5.13666 0.588916C5.21422 0.540307 5.30389 0.514526 5.39542 0.514526C5.48694 0.514526 5.57662 0.540307 5.65417 0.588916C5.73172 0.637524 5.79401 0.706994 5.83391 0.789368L7.07143 3.28389L9.84854 3.68828C9.93871 3.7011 10.0235 3.73893 10.0932 3.79749C10.163 3.85605 10.2149 3.93299 10.2432 4.01958C10.269 4.1042 10.2713 4.19426 10.2499 4.28009C10.2284 4.36593 10.184 4.4443 10.1214 4.5068L8.11406 6.45565L8.60127 9.19865C8.61867 9.28999 8.60956 9.3844 8.57503 9.47074C8.54049 9.55707 8.48198 9.63172 8.40639 9.68586C8.31816 9.74769 8.21193 9.77853 8.10432 9.77356ZM5.39542 7.38622C5.47352 7.38425 5.55078 7.40272 5.61953 7.43982L7.45632 8.41424L7.10553 6.36308C7.09192 6.28476 7.09768 6.2043 7.12231 6.12871C7.14694 6.05313 7.18969 5.98472 7.24682 5.92946L8.70846 4.50193L6.66217 4.19985C6.58713 4.18475 6.51671 4.15217 6.45661 4.10477C6.39651 4.05736 6.34842 3.99647 6.31625 3.92701L5.39542 2.09997L4.47459 3.92701C4.43934 3.99703 4.38771 4.0575 4.3241 4.10331C4.26048 4.14911 4.18676 4.17889 4.10918 4.19011L2.06289 4.49218L3.52452 5.91971C3.58166 5.97498 3.62441 6.04339 3.64904 6.11897C3.67366 6.19455 3.67942 6.27501 3.66581 6.35333L3.31502 8.38013L5.15181 7.40571C5.22964 7.37678 5.31398 7.37003 5.39542 7.38622Z" fill="url(#paint0_linear_10467_85)"/>
<defs>
<linearGradient id="paint0_linear_10467_85" x1="5.40273" y1="0.514526" x2="5.40273" y2="9.77595" gradientUnits="userSpaceOnUse">
<stop stop-color="white"/>
<stop offset="1" stop-color="#C5C5C5"/>
</linearGradient>
</defs>
</svg>
