<svg width="38" height="31" viewBox="0 0 38 31" fill="none" xmlns="http://www.w3.org/2000/svg">
<g filter="url(#filter0_d_9734_666)">
<path d="M14.6162 2.59756C14.5585 2.61404 14.5047 2.64171 14.4578 2.67899C14.4108 2.71627 14.3717 2.76243 14.3426 2.81484C14.3135 2.86724 14.295 2.92487 14.2881 2.98442C14.2813 3.04398 14.2863 3.1043 14.3027 3.16193C14.5952 4.18167 15.2116 5.07853 16.0588 5.71695C16.906 6.35538 17.9381 6.70069 18.9989 6.70069C20.0598 6.70069 21.0918 6.35538 21.9391 5.71695C22.7863 5.07853 23.4027 4.18167 23.6951 3.16193C23.7119 3.10421 23.7171 3.04375 23.7104 2.98401C23.7038 2.92427 23.6854 2.86644 23.6563 2.81383C23.6272 2.76122 23.588 2.71487 23.541 2.67744C23.494 2.64001 23.44 2.61224 23.3822 2.59571C23.3244 2.57919 23.264 2.57424 23.2042 2.58115C23.1445 2.58807 23.0868 2.6067 23.0343 2.63599C22.9818 2.66528 22.9356 2.70465 22.8984 2.75184C22.8611 2.79903 22.8336 2.8531 22.8173 2.91096C22.5794 3.73998 22.0782 4.46906 21.3893 4.98805C20.7005 5.50704 19.8614 5.78774 18.9989 5.78774C18.1364 5.78774 17.2974 5.50704 16.6085 4.98805C15.9196 4.46906 15.4184 3.73998 15.1805 2.91096C15.1473 2.79457 15.0691 2.69616 14.9633 2.63738C14.8574 2.57861 14.7326 2.56429 14.6162 2.59756Z" fill="url(#paint0_linear_9734_666)" fill-opacity="0.8" stroke="url(#paint1_linear_9734_666)" stroke-width="0.691289"/>
<path d="M27.3669 8.09571C27.2509 8.06109 27.1259 8.07396 27.0194 8.13149C26.9129 8.18902 26.8336 8.2865 26.7989 8.40249L26.2356 10.2887C26.2229 10.3311 26.2165 10.3751 26.2165 10.4194V24.5486L11.7737 24.515V10.3837C11.7737 10.3395 11.7673 10.2955 11.7546 10.2531L11.1913 8.36682C11.1744 8.30915 11.1462 8.2554 11.1084 8.20864C11.0706 8.16189 11.024 8.12305 10.9712 8.09437C10.9183 8.06569 10.8604 8.04773 10.8006 8.04151C10.7408 8.03529 10.6803 8.04095 10.6227 8.05815C10.5651 8.07535 10.5115 8.10375 10.4649 8.14174C10.4183 8.17972 10.3797 8.22653 10.3512 8.27948C10.3228 8.33244 10.3051 8.39049 10.2991 8.4503C10.2932 8.51012 10.2991 8.57052 10.3165 8.62805L10.8608 10.4504V24.9705C10.8608 25.0914 10.9087 25.2073 10.9941 25.2929C11.0795 25.3785 11.1953 25.4267 11.3162 25.427L26.6719 25.4626H26.673C26.7941 25.4626 26.9102 25.4145 26.9958 25.3289C27.0814 25.2433 27.1295 25.1272 27.1295 25.0061V10.4861L27.6737 8.66371C27.7083 8.54771 27.6955 8.4227 27.6379 8.31618C27.5804 8.20966 27.4829 8.13035 27.3669 8.09571Z" fill="url(#paint2_linear_9734_666)" fill-opacity="0.8" stroke="url(#paint3_linear_9734_666)" stroke-width="0.691289"/>
<path d="M34.8656 9.37795L28.6359 3.14649C28.5889 3.09946 28.5413 3.05305 28.4931 3.00728C27.1259 1.72239 25.3209 1.0061 23.4446 1.0039L22.9858 1H22.9818C22.8608 0.999499 22.7445 1.04711 22.6585 1.13236C22.5725 1.2176 22.5239 1.33351 22.5234 1.45458C22.5229 1.57564 22.5705 1.69195 22.6558 1.77791C22.741 1.86388 22.857 1.91245 22.978 1.91296L23.4369 1.91685C25.0818 1.91736 26.6649 2.54396 27.8645 3.66937C27.9068 3.70957 27.9487 3.75041 27.9901 3.79188L33.8973 9.70068L29.8472 13.7506L28.4831 12.3865C28.3975 12.3009 28.2814 12.2528 28.1603 12.2529C28.0392 12.2529 27.9231 12.3009 27.8375 12.3866C27.7519 12.4722 27.7038 12.5883 27.7038 12.7093C27.7038 12.8304 27.7519 12.9465 27.8375 13.0321L29.5244 14.719C29.5668 14.7614 29.6171 14.795 29.6725 14.818C29.7279 14.8409 29.7873 14.8527 29.8472 14.8527C29.9072 14.8527 29.9665 14.8409 30.0219 14.818C30.0773 14.795 30.1276 14.7614 30.17 14.719L34.8656 10.0235C34.908 9.98114 34.9416 9.93082 34.9646 9.87543C34.9875 9.82005 34.9993 9.76069 34.9993 9.70074C34.9993 9.6408 34.9875 9.58143 34.9646 9.52605C34.9416 9.47066 34.908 9.42034 34.8656 9.37795Z" fill="url(#paint4_linear_9734_666)" fill-opacity="0.8" stroke="url(#paint5_linear_9734_666)" stroke-width="0.691289"/>
<path d="M9.54809 12.3554L8.15206 13.7514L4.102 9.70141L10.0091 3.79265C10.0505 3.75119 10.0924 3.71038 10.1347 3.67023C11.3344 2.54473 12.9175 1.91808 14.5624 1.91758L15.1063 1.91296C15.2273 1.91245 15.3432 1.86388 15.4285 1.77791C15.5138 1.69195 15.5614 1.57564 15.5609 1.45458C15.5603 1.33351 15.5118 1.21761 15.4258 1.13236C15.3398 1.04711 15.2235 0.999499 15.1025 1H15.0985L14.5547 1.00463C12.6784 1.00684 10.8733 1.72318 9.5061 3.00815C9.45804 3.05378 9.4105 3.1001 9.36349 3.14711L3.13367 9.37869C3.04807 9.4643 2.99999 9.58041 3 9.70147C3.00001 9.82253 3.0481 9.93863 3.13371 10.0242L7.82929 14.7197C7.87168 14.7621 7.922 14.7957 7.97739 14.8187C8.03277 14.8416 8.09213 14.8534 8.15208 14.8534C8.21203 14.8534 8.27139 14.8416 8.32678 14.8187C8.38216 14.7957 8.43248 14.7621 8.47487 14.7197L10.1937 13.0009C10.2793 12.9153 10.3274 12.7992 10.3274 12.6782C10.3274 12.5571 10.2793 12.441 10.1937 12.3554C10.1081 12.2698 9.99196 12.2217 9.87089 12.2217C9.74982 12.2217 9.6337 12.2698 9.54809 12.3554Z" fill="url(#paint6_linear_9734_666)" fill-opacity="0.8" stroke="url(#paint7_linear_9734_666)" stroke-width="0.691289"/>
</g>
<defs>
<filter id="filter0_d_9734_666" x="0.529207" y="0.654297" width="36.9416" height="29.408" filterUnits="userSpaceOnUse" color-interpolation-filters="sRGB">
<feFlood flood-opacity="0" result="BackgroundImageFix"/>
<feColorMatrix in="SourceAlpha" type="matrix" values="0 0 0 0 0 0 0 0 0 0 0 0 0 0 0 0 0 0 127 0" result="hardAlpha"/>
<feOffset dy="2.12704"/>
<feGaussianBlur stdDeviation="1.06352"/>
<feComposite in2="hardAlpha" operator="out"/>
<feColorMatrix type="matrix" values="0 0 0 0 0 0 0 0 0 0 0 0 0 0 0 0 0 0 0.25 0"/>
<feBlend mode="normal" in2="BackgroundImageFix" result="effect1_dropShadow_9734_666"/>
<feBlend mode="normal" in="SourceGraphic" in2="effect1_dropShadow_9734_666" result="shape"/>
</filter>
<linearGradient id="paint0_linear_9734_666" x1="18.9992" y1="2.57812" x2="18.9992" y2="6.70069" gradientUnits="userSpaceOnUse">
<stop stop-color="white"/>
<stop offset="1" stop-color="#B8B8B8"/>
</linearGradient>
<linearGradient id="paint1_linear_9734_666" x1="18.9992" y1="2.57812" x2="18.9992" y2="6.70069" gradientUnits="userSpaceOnUse">
<stop stop-color="white"/>
<stop offset="1" stop-color="#B8B8B8"/>
</linearGradient>
<linearGradient id="paint2_linear_9734_666" x1="18.9948" y1="8.03906" x2="18.9948" y2="25.4626" gradientUnits="userSpaceOnUse">
<stop stop-color="white"/>
<stop offset="1" stop-color="#C7C7C7"/>
</linearGradient>
<linearGradient id="paint3_linear_9734_666" x1="18.9948" y1="8.03906" x2="18.9948" y2="25.4626" gradientUnits="userSpaceOnUse">
<stop stop-color="white"/>
<stop offset="1" stop-color="#B8B8B8"/>
<stop offset="1" stop-color="#B8B8B8"/>
</linearGradient>
<linearGradient id="paint4_linear_9734_666" x1="28.7614" y1="1" x2="28.7614" y2="14.8527" gradientUnits="userSpaceOnUse">
<stop stop-color="white"/>
<stop offset="1" stop-color="#B8B8B8"/>
</linearGradient>
<linearGradient id="paint5_linear_9734_666" x1="28.7614" y1="1" x2="28.7614" y2="14.8527" gradientUnits="userSpaceOnUse">
<stop stop-color="white"/>
<stop offset="1" stop-color="#B8B8B8"/>
</linearGradient>
<linearGradient id="paint6_linear_9734_666" x1="9.28043" y1="1" x2="9.28043" y2="14.8534" gradientUnits="userSpaceOnUse">
<stop stop-color="white"/>
<stop offset="1" stop-color="#B8B8B8"/>
</linearGradient>
<linearGradient id="paint7_linear_9734_666" x1="9.28043" y1="1" x2="9.28043" y2="14.8534" gradientUnits="userSpaceOnUse">
<stop stop-color="white"/>
<stop offset="1" stop-color="#B8B8B8"/>
</linearGradient>
</defs>
</svg>
