<svg width="79" height="69" viewBox="0 0 79 69" fill="none" xmlns="http://www.w3.org/2000/svg">
<path d="M66.0509 53.1528H65.1356L61.9212 23.4962C61.401 18.6966 57.4112 15.0772 52.6435 15.0772H26.3565C21.5876 15.0772 17.599 18.6966 17.0788 23.4962L13.8645 53.154H12.9491C9.46097 53.154 6.62318 56.0272 6.62318 59.5576V62.5964C6.62318 66.1268 9.45974 69 12.9491 69H66.0522C69.5403 69 72.3768 66.1268 72.3768 62.5964V59.5576C72.3768 56.026 69.539 53.1528 66.0509 53.1528ZM68.6608 62.5951C68.6608 64.0512 67.4903 65.2363 66.0522 65.2363H12.9491C11.5097 65.2363 10.3392 64.0512 10.3392 62.5951V59.5564C10.3392 58.1003 11.5097 56.9152 12.9491 56.9152H15.5305H63.4695H66.0509C67.4903 56.9152 68.6596 58.1003 68.6596 59.5564L68.6608 62.5951ZM37.642 9.83493V1.8812C37.642 0.842779 38.4731 0 39.5 0C40.5269 0 41.358 0.842779 41.358 1.8812V9.83493C41.358 10.8734 40.5269 11.7161 39.5 11.7161C38.4744 11.7161 37.642 10.8734 37.642 9.83493ZM79 29.9437C79 30.9822 78.1688 31.8249 77.142 31.8249H69.2863C68.2595 31.8249 67.4283 30.9822 67.4283 29.9437C67.4283 28.9053 68.2595 28.0625 69.2863 28.0625H77.142C78.1676 28.0625 79 28.9053 79 29.9437ZM9.71366 31.8249H1.85801C0.831149 31.8249 0 30.9822 0 29.9437C0 28.9053 0.831149 28.0625 1.85801 28.0625H9.71366C10.7405 28.0625 11.5717 28.9053 11.5717 29.9437C11.5717 30.9822 10.7405 31.8249 9.71366 31.8249ZM59.704 14.0664C58.9781 13.3315 58.9781 12.1413 59.704 11.4064L65.2594 5.78282C65.9853 5.04789 67.1608 5.04789 67.8866 5.78282C68.6125 6.51774 68.6125 7.70791 67.8866 8.44284L62.3312 14.0664C61.9683 14.4338 61.4926 14.6169 61.017 14.6169C60.5413 14.6169 60.0669 14.4338 59.704 14.0664ZM11.1134 8.44284C10.3875 7.70791 10.3875 6.51774 11.1134 5.78282C11.838 5.04789 13.0147 5.04789 13.7406 5.78282L19.296 11.4064C20.0219 12.1413 20.0219 13.3315 19.296 14.0664C18.9331 14.4338 18.4574 14.6169 17.9818 14.6169C17.5061 14.6169 17.0317 14.4326 16.6676 14.0664L11.1134 8.44284Z" fill="url(#paint0_linear_9970_1595)"/>
<defs>
<linearGradient id="paint0_linear_9970_1595" x1="39.5" y1="0" x2="39.5" y2="69" gradientUnits="userSpaceOnUse">
<stop stop-color="white"/>
<stop offset="0.530352" stop-color="#DFDFDF"/>
<stop offset="1" stop-color="#C2C2C2"/>
</linearGradient>
</defs>
</svg>
