<?xml version="1.0" encoding="iso-8859-1"?>
<!-- Uploaded to: SVG Repo, www.svgrepo.com, Generator: SVG Repo Mixer Tools -->
<svg fill="#000000" height="800px" width="800px" version="1.1" id="Layer_1" xmlns="http://www.w3.org/2000/svg" xmlns:xlink="http://www.w3.org/1999/xlink" 
	 viewBox="0 0 512 512" xml:space="preserve">
<g>
	<g>
		<path d="M227.941,260.473c-0.002-0.553-0.606-1.106-0.708-1.652c-0.022-0.118-0.043-0.234-0.069-0.35
			c-0.108-0.478-0.24-0.953-0.424-1.415l-0.067-0.168l0.538-0.007l-17.364-44.758v-72.753c0-58.161-37.251-131.565-38.817-134.659
			c-3.167-6.279-13.199-6.279-16.366,0c-1.565,3.094-38.006,76.498-38.006,134.659v72.754l-18.638,44.76v0.005l-0.242,0.168
			c-0.185,0.462-0.404,0.937-0.512,1.415c-0.026,0.116-0.091,0.232-0.113,0.35c-0.101,0.548,0.354,1.099,0.353,1.652
			c0,0.014,0.514,0.027,0.514,0.041v214.334c0,5.151,2.33,9.319,9.319,9.319v18.638c0,5.151,3.092,9.196,8.238,9.196h93.189
			c5.146,0,10.4-4.045,10.4-9.196v-18.638c4.659,0,9.319-4.168,9.319-9.319V260.514C228.484,260.5,227.941,260.487,227.941,260.473z
			 M135.296,139.369c0-37.212,17.25-83.142,27.961-108.077c10.711,24.917,27.952,70.82,27.952,108.077v9.196h-55.913V139.369z
			 M135.296,167.202h55.913v37.275h-55.913V167.202z M131.207,223.115h61.928l11.185,27.957h-84.297L131.207,223.115z
			 M200.528,493.362h-74.551v-9.319h74.551V493.362z M209.847,465.406h-93.189V269.71h93.189V465.406z"/>
	</g>
</g>
<g>
	<g>
		<path d="M414.318,260.473c-0.002-0.553-0.606-1.106-0.708-1.652c-0.022-0.118-0.043-0.234-0.069-0.35
			c-0.108-0.478-0.24-0.953-0.424-1.415l-0.067-0.168l0.538-0.007l-17.364-44.758v-72.753c0-58.161-37.251-131.565-38.817-134.659
			c-3.167-6.279-13.199-6.279-16.366,0c-1.565,3.094-38.006,76.498-38.006,134.659v72.754l-18.638,44.76v0.005l-0.242,0.168
			c-0.185,0.462-0.404,0.937-0.512,1.415c-0.026,0.116-0.091,0.232-0.113,0.35c-0.101,0.548,0.354,1.099,0.353,1.652
			c0,0.014,0.514,0.027,0.514,0.041v214.334c0,5.151,2.33,9.319,9.319,9.319v18.638c0,5.151,3.092,9.196,8.238,9.196h93.189
			c5.146,0,10.4-4.045,10.4-9.196v-18.638c4.659,0,9.319-4.168,9.319-9.319V260.514C414.861,260.5,414.318,260.487,414.318,260.473z
			 M321.673,139.369c0-37.212,17.25-83.142,27.961-108.077c10.711,24.917,27.952,70.82,27.952,108.077v9.196h-55.913V139.369z
			 M321.673,167.202h55.913v37.275h-55.913V167.202z M317.584,223.115h61.928l11.185,27.957H306.4L317.584,223.115z
			 M386.905,493.362h-74.551v-9.319h74.551V493.362z M396.224,465.406h-93.189V269.71h93.189V465.406z"/>
	</g>
</g>
</svg>