<svg width="16" height="14" viewBox="0 0 16 14" fill="none" xmlns="http://www.w3.org/2000/svg">
<path d="M11.3707 0.109375C12.6953 0.109375 13.8502 0.82199 14.1722 1.83814L14.5146 2.92067H15.3259C15.6634 2.92067 15.9422 3.11897 15.9864 3.37626L15.9924 3.44779C15.9924 3.71465 15.7417 3.93519 15.4164 3.97009L15.3259 3.97491H14.8496L15.0344 4.55579C15.611 4.83325 15.9961 5.33487 15.9961 5.90768V11.8794C15.9961 12.5587 15.2998 13.1094 14.4409 13.1094H13.1042C12.2453 13.1094 11.549 12.5587 11.549 11.8794L11.5481 11.0032H4.44308L4.44315 11.8794C4.44315 12.5587 3.74687 13.1094 2.88795 13.1094H1.5513C0.69238 13.1094 -0.00390625 12.5587 -0.00390625 11.8794V5.90768C-0.00390625 5.33501 0.381037 4.83339 0.957448 4.55591L1.14161 3.97491H0.662609C0.325174 3.97491 0.0463134 3.77661 0.00218126 3.51932L-0.00390625 3.44779C-0.00390625 3.18093 0.246837 2.96039 0.572167 2.92549L0.662609 2.92067H1.47398L1.81699 1.83956C2.13843 0.822721 3.29367 0.109375 4.61899 0.109375H11.3707ZM3.11005 11.0032H1.32823L1.32912 11.8794C1.32912 11.9764 1.42859 12.0551 1.5513 12.0551H2.88795C3.01065 12.0551 3.11012 11.9764 3.11012 11.8794L3.11005 11.0032ZM14.663 11.0032H12.8812L12.882 11.8794C12.882 11.9764 12.9815 12.0551 13.1042 12.0551H14.4409C14.5636 12.0551 14.6631 11.9764 14.6631 11.8794L14.663 11.0032ZM9.55009 7.84044H6.43818L6.34771 7.84522C6.02241 7.88015 5.77166 8.1007 5.77166 8.36756C5.77166 8.63442 6.02241 8.85497 6.34771 8.8899L6.43818 8.89468H9.55009L9.64056 8.8899C9.96591 8.85497 10.2166 8.63442 10.2166 8.36756C10.2166 8.07645 9.91828 7.84044 9.55009 7.84044ZM12.4377 6.43479C11.9469 6.43479 11.549 6.74945 11.549 7.13762C11.549 7.52572 11.9469 7.84037 12.4377 7.84037C12.9284 7.84037 13.3263 7.52572 13.3263 7.13762C13.3263 6.74945 12.9284 6.43479 12.4377 6.43479ZM3.55081 6.43479C3.06002 6.43479 2.66215 6.74945 2.66215 7.13762C2.66215 7.52572 3.06002 7.84037 3.55081 7.84037C4.04162 7.84037 4.43948 7.52572 4.43948 7.13762C4.43948 6.74945 4.04162 6.43479 3.55081 6.43479ZM11.3707 1.16361H4.61899C3.90535 1.16361 3.2833 1.54772 3.11022 2.09525L2.40495 4.32632H13.5867L12.8792 2.09449C12.7058 1.54733 12.0839 1.16361 11.3707 1.16361Z" fill="url(#paint0_linear_10332_452)"/>
<defs>
<linearGradient id="paint0_linear_10332_452" x1="7.99609" y1="0.109375" x2="7.99609" y2="13.1094" gradientUnits="userSpaceOnUse">
<stop stop-color="white"/>
<stop offset="1" stop-color="#E7E7E7"/>
</linearGradient>
</defs>
</svg>
