<svg width="17" height="17" viewBox="0 0 17 17" fill="none" xmlns="http://www.w3.org/2000/svg">
<path d="M10.7699 8.5C10.7699 9.7368 9.76723 10.7393 8.53053 10.7393C7.29382 10.7393 6.2911 9.7368 6.2911 8.5C6.2911 7.2632 7.29373 6.26066 8.53044 6.26066C9.76714 6.26066 10.7699 7.2632 10.7699 8.5ZM17 14.776C17 16.0043 16.0043 17 14.776 17H2.22398C0.995688 17 0 16.0043 0 14.776V2.22398C0 0.995688 0.995688 0 2.22398 0H14.7759C16.0043 0 17 0.995688 17 2.22398V14.776ZM13.9839 8.16247C13.9839 7.93096 13.8287 7.73409 13.5998 7.6989L12.4235 7.51693C12.3268 7.13223 12.1781 6.76957 11.9796 6.43788L12.6895 5.47226C12.8264 5.28563 12.8075 5.02697 12.6438 4.86328L12.1669 4.38591C12.0032 4.22222 11.7448 4.20247 11.5581 4.3393L10.5926 5.04745C10.2608 4.84884 9.8983 4.69675 9.51351 4.60005L9.33154 3.41545C9.29635 3.18659 9.09948 3.01613 8.86797 3.01613H8.1929C7.96139 3.01613 7.76452 3.18659 7.72933 3.41535L7.54736 4.59923C7.16267 4.69593 6.8 4.84847 6.46832 5.04699L5.5027 4.33902C5.31606 4.20211 5.05741 4.22203 4.89371 4.38563L4.41634 4.86301C4.25265 5.0267 4.23291 5.28535 4.36973 5.47208L5.07788 6.4377C4.87927 6.76947 4.72719 7.13205 4.63049 7.51674L3.43062 7.69872C3.20185 7.73409 3.01613 7.93096 3.01613 8.16247V8.83753C3.01613 9.06904 3.20185 9.26591 3.43062 9.3011L4.62208 9.48308C4.71878 9.86777 4.87507 10.2304 5.07368 10.5621L4.36763 11.5277C4.23072 11.7144 4.25155 11.973 4.41525 12.1367L4.89308 12.6141C5.05677 12.7778 5.3157 12.7975 5.50233 12.6606L6.46813 11.9525C6.79991 12.1511 7.16258 12.3032 7.54727 12.3999L7.72933 13.5845C7.76452 13.8132 7.96148 13.9837 8.1929 13.9837H8.86797C9.09948 13.9837 9.29635 13.8132 9.33154 13.5845L9.51351 12.4006C9.8982 12.3039 10.2609 12.1514 10.5926 11.9528L11.5582 12.6608C11.7448 12.7977 12.0035 12.7778 12.1672 12.6142L12.6445 12.1368C12.8082 11.9731 12.828 11.7145 12.6911 11.5277L11.983 10.562C12.1816 10.2303 12.3337 9.86768 12.4304 9.48298L13.5998 9.30101C13.8286 9.26582 13.9839 9.06895 13.9839 8.83744V8.16247Z" fill="url(#paint0_linear_10332_448)"/>
<defs>
<linearGradient id="paint0_linear_10332_448" x1="8.5" y1="0" x2="8.5" y2="17" gradientUnits="userSpaceOnUse">
<stop stop-color="white"/>
<stop offset="1" stop-color="#C0BEBE"/>
</linearGradient>
</defs>
</svg>
