<svg width="24" height="29" viewBox="0 0 24 29" fill="none" xmlns="http://www.w3.org/2000/svg">
<mask id="path-1-inside-1_9562_12" fill="white">
<path d="M1.33333 29H22.6667C23.0203 29 23.3594 28.8611 23.6095 28.6139C23.8595 28.3667 24 28.0314 24 27.6818C24 27.3322 23.8595 26.9969 23.6095 26.7497C23.3594 26.5025 23.0203 26.3636 22.6667 26.3636V1.31818C22.6667 0.968578 22.5262 0.633293 22.2761 0.386086C22.0261 0.138879 21.687 0 21.3333 0H2.66667C2.31304 0 1.97391 0.138879 1.72386 0.386086C1.47381 0.633293 1.33333 0.968578 1.33333 1.31818V26.3636C0.979711 26.3636 0.640573 26.5025 0.390524 26.7497C0.140476 26.9969 0 27.3322 0 27.6818C0 28.0314 0.140476 28.3667 0.390524 28.6139C0.640573 28.8611 0.979711 29 1.33333 29ZM4 2.63636H20V26.3636H4V2.63636ZM8 13.1818V15.8182C8 16.1678 7.85952 16.5031 7.60947 16.7503C7.35943 16.9975 7.02029 17.1364 6.66667 17.1364C6.31304 17.1364 5.97391 16.9975 5.72386 16.7503C5.47381 16.5031 5.33333 16.1678 5.33333 15.8182V13.1818C5.33333 12.8322 5.47381 12.4969 5.72386 12.2497C5.97391 12.0025 6.31304 11.8636 6.66667 11.8636C7.02029 11.8636 7.35943 12.0025 7.60947 12.2497C7.85952 12.4969 8 12.8322 8 13.1818Z"/>
</mask>
<path d="M1.33333 29H22.6667C23.0203 29 23.3594 28.8611 23.6095 28.6139C23.8595 28.3667 24 28.0314 24 27.6818C24 27.3322 23.8595 26.9969 23.6095 26.7497C23.3594 26.5025 23.0203 26.3636 22.6667 26.3636V1.31818C22.6667 0.968578 22.5262 0.633293 22.2761 0.386086C22.0261 0.138879 21.687 0 21.3333 0H2.66667C2.31304 0 1.97391 0.138879 1.72386 0.386086C1.47381 0.633293 1.33333 0.968578 1.33333 1.31818V26.3636C0.979711 26.3636 0.640573 26.5025 0.390524 26.7497C0.140476 26.9969 0 27.3322 0 27.6818C0 28.0314 0.140476 28.3667 0.390524 28.6139C0.640573 28.8611 0.979711 29 1.33333 29ZM4 2.63636H20V26.3636H4V2.63636ZM8 13.1818V15.8182C8 16.1678 7.85952 16.5031 7.60947 16.7503C7.35943 16.9975 7.02029 17.1364 6.66667 17.1364C6.31304 17.1364 5.97391 16.9975 5.72386 16.7503C5.47381 16.5031 5.33333 16.1678 5.33333 15.8182V13.1818C5.33333 12.8322 5.47381 12.4969 5.72386 12.2497C5.97391 12.0025 6.31304 11.8636 6.66667 11.8636C7.02029 11.8636 7.35943 12.0025 7.60947 12.2497C7.85952 12.4969 8 12.8322 8 13.1818Z" fill="url(#paint0_linear_9562_12)"/>
<path d="M22.6667 26.3636H18.6667V30.3636H22.6667V26.3636ZM21.3333 0V-4V0ZM2.66667 0L2.66667 -4L2.66667 0ZM1.33333 1.31818H-2.66667H1.33333ZM1.33333 26.3636V30.3636H5.33333V26.3636H1.33333ZM0 27.6818L-4 27.6818L0 27.6818ZM4 2.63636V-1.36364H-8.9407e-08V2.63636H4ZM20 2.63636H24V-1.36364H20V2.63636ZM20 26.3636V30.3636H24V26.3636H20ZM4 26.3636H-8.9407e-08V30.3636H4V26.3636ZM1.33333 33H22.6667V25H1.33333V33ZM22.6667 33C24.0665 33 25.4181 32.4507 26.4217 31.4585L20.7973 25.7694C21.3008 25.2716 21.9741 25 22.6667 25V33ZM26.4217 31.4585C27.4269 30.4647 28 29.1071 28 27.6818H20C20 26.9557 20.2922 26.2687 20.7973 25.7694L26.4217 31.4585ZM28 27.6818C28 26.2565 27.4269 24.8989 26.4217 23.9052L20.7973 29.5943C20.2922 29.0949 20 28.4079 20 27.6818H28ZM26.4217 23.9052C25.4181 22.913 24.0665 22.3636 22.6667 22.3636V30.3636C21.9741 30.3636 21.3008 30.0921 20.7973 29.5943L26.4217 23.9052ZM26.6667 26.3636V1.31818H18.6667V26.3636H26.6667ZM26.6667 1.31818C26.6667 -0.107121 26.0935 -1.46471 25.0884 -2.45846L19.4639 3.23063C18.9588 2.73129 18.6667 2.04428 18.6667 1.31818H26.6667ZM25.0884 -2.45846C24.0847 -3.45067 22.7332 -4 21.3333 -4L21.3333 4C20.6407 4 19.9674 3.72843 19.4639 3.23063L25.0884 -2.45846ZM21.3333 -4H2.66667V4H21.3333V-4ZM2.66667 -4C1.26684 -4 -0.0847448 -3.45067 -1.08836 -2.45846L4.53608 3.23063C4.03256 3.72843 3.35925 4 2.66667 4L2.66667 -4ZM-1.08836 -2.45846C-2.09352 -1.46472 -2.66667 -0.107138 -2.66667 1.31818L5.33333 1.31818C5.33333 2.04429 5.04114 2.7313 4.53608 3.23063L-1.08836 -2.45846ZM-2.66667 1.31818V26.3636H5.33333V1.31818H-2.66667ZM1.33333 22.3636C-0.0665015 22.3636 -1.41808 22.913 -2.42169 23.9052L3.20274 29.5943C2.69923 30.0921 2.02592 30.3636 1.33333 30.3636V22.3636ZM-2.42169 23.9052C-3.42686 24.8989 -4 26.2565 -4 27.6818L4 27.6818C4 28.4079 3.70781 29.0949 3.20274 29.5943L-2.42169 23.9052ZM-4 27.6818C-4 29.1071 -3.42686 30.4647 -2.42169 31.4585L3.20274 25.7694C3.70781 26.2687 4 26.9557 4 27.6818L-4 27.6818ZM-2.42169 31.4585C-1.41807 32.4507 -0.0664828 33 1.33333 33V25C2.02591 25 2.69921 25.2716 3.20274 25.7694L-2.42169 31.4585ZM4 6.63636H20V-1.36364H4V6.63636ZM16 2.63636V26.3636H24V2.63636H16ZM20 22.3636H4V30.3636H20V22.3636ZM8 26.3636V2.63636H-8.9407e-08V26.3636H8ZM4 13.1818V15.8182H12V13.1818H4ZM4 15.8182C4 15.0921 4.2922 14.4051 4.79726 13.9057L10.4217 19.5948C11.4269 18.6011 12 17.2435 12 15.8182H4ZM4.79726 13.9057C5.30077 13.4079 5.97407 13.1364 6.66667 13.1364V21.1364C8.0665 21.1364 9.41808 20.587 10.4217 19.5948L4.79726 13.9057ZM6.66667 13.1364C7.35926 13.1364 8.03256 13.4079 8.53608 13.9057L2.91164 19.5948C3.91525 20.587 5.26683 21.1364 6.66667 21.1364V13.1364ZM8.53608 13.9057C9.04114 14.4051 9.33333 15.0921 9.33333 15.8182H1.33333C1.33333 17.2435 1.90648 18.6011 2.91164 19.5948L8.53608 13.9057ZM9.33333 15.8182V13.1818H1.33333V15.8182H9.33333ZM9.33333 13.1818C9.33333 13.9079 9.04114 14.5949 8.53608 15.0943L2.91164 9.40518C1.90648 10.3989 1.33333 11.7565 1.33333 13.1818H9.33333ZM8.53608 15.0943C8.03255 15.5921 7.35925 15.8636 6.66667 15.8636V7.86364C5.26684 7.86364 3.91526 8.41296 2.91164 9.40518L8.53608 15.0943ZM6.66667 15.8636C5.97408 15.8636 5.30078 15.5921 4.79726 15.0943L10.4217 9.40518C9.41807 8.41296 8.06649 7.86364 6.66667 7.86364V15.8636ZM4.79726 15.0943C4.29219 14.5949 4 13.9079 4 13.1818H12C12 11.7565 11.4269 10.3989 10.4217 9.40518L4.79726 15.0943Z" fill="url(#paint1_linear_9562_12)" mask="url(#path-1-inside-1_9562_12)"/>
<defs>
<linearGradient id="paint0_linear_9562_12" x1="12" y1="0" x2="12" y2="29" gradientUnits="userSpaceOnUse">
<stop stop-color="white" stop-opacity="0.7"/>
<stop offset="1" stop-color="#EFEFEF"/>
</linearGradient>
<linearGradient id="paint1_linear_9562_12" x1="12" y1="0" x2="12" y2="29" gradientUnits="userSpaceOnUse">
<stop stop-color="#989898" stop-opacity="0.7"/>
<stop offset="0.758889" stop-color="#EFEFEF"/>
</linearGradient>
</defs>
</svg>
