<svg width="56" height="61" viewBox="0 0 56 61" fill="none" xmlns="http://www.w3.org/2000/svg">
<path d="M5.33333 0V5.30435H0V61H14.6667V49.0652H20V61H34.6667V5.30435H29.3333V0H5.33333ZM8 10.6087H10.6667V13.2609H8V10.6087ZM13.3333 10.6087H16V13.2609H13.3333V10.6087ZM18.6667 10.6087H21.3333V13.2609H18.6667V10.6087ZM24 10.6087H26.6667V13.2609H24V10.6087ZM37.3333 15.913V21.2174H40V23.8696H37.3333V26.5217H40V29.1739H37.3333V31.8261H40V34.4783H37.3333V37.1304H40V39.7826H37.3333V42.4348H40V45.087H37.3333V47.7391H40V50.3913H37.3333V53.0435H40V55.6957H37.3333V61H56V15.913H37.3333ZM8 17.2391H10.6667V22.5435H8V17.2391ZM13.3333 17.2391H16V22.5435H13.3333V17.2391ZM18.6667 17.2391H21.3333V22.5435H18.6667V17.2391ZM24 17.2391H26.6667V22.5435H24V17.2391ZM42.6667 21.2174H45.3333V23.8696H42.6667V21.2174ZM48 21.2174H50.6667V23.8696H48V21.2174ZM8 25.1957H10.6667V30.5H8V25.1957ZM13.3333 25.1957H16V30.5H13.3333V25.1957ZM18.6667 25.1957H21.3333V30.5H18.6667V25.1957ZM24 25.1957H26.6667V30.5H24V25.1957ZM42.6667 26.5217H45.3333V29.1739H42.6667V26.5217ZM48 26.5217H50.6667V29.1739H48V26.5217ZM42.6667 31.8261H45.3333V34.4783H42.6667V31.8261ZM48 31.8261H50.6667V34.4783H48V31.8261ZM8 33.1522H10.6667V38.4565H8V33.1522ZM13.3333 33.1522H16V38.4565H13.3333V33.1522ZM18.6667 33.1522H21.3333V38.4565H18.6667V33.1522ZM24 33.1522H26.6667V38.4565H24V33.1522ZM42.6667 37.1304H45.3333V39.7826H42.6667V37.1304ZM48 37.1304H50.6667V39.7826H48V37.1304ZM8 41.1087H10.6667V46.413H8V41.1087ZM13.3333 41.1087H16V46.413H13.3333V41.1087ZM18.6667 41.1087H21.3333V46.413H18.6667V41.1087ZM24 41.1087H26.6667V46.413H24V41.1087ZM42.6667 42.4348H45.3333V45.087H42.6667V42.4348ZM48 42.4348H50.6667V45.087H48V42.4348ZM42.6667 47.7391H45.3333V50.3913H42.6667V47.7391ZM48 47.7391H50.6667V50.3913H48V47.7391ZM8 49.0652H10.6667V55.6957H8V49.0652ZM24 49.0652H26.6667V55.6957H24V49.0652ZM42.6667 53.0435H45.3333V55.6957H42.6667V53.0435ZM48 53.0435H50.6667V55.6957H48V53.0435Z" fill="url(#paint0_linear_9970_1617)"/>
<defs>
<linearGradient id="paint0_linear_9970_1617" x1="28" y1="0" x2="28" y2="61" gradientUnits="userSpaceOnUse">
<stop stop-color="white"/>
<stop offset="1" stop-color="#A6A6A6"/>
</linearGradient>
</defs>
</svg>
