<svg width="25" height="35" viewBox="0 0 25 35" fill="none" xmlns="http://www.w3.org/2000/svg">
<path d="M21.136 0.421991C20.891 0.186327 20.5036 0.186324 20.2586 0.421985L20.2302 0.449291C20.001 0.669701 19.6387 0.669701 19.4095 0.449292V0.449292C19.1804 0.228883 18.8181 0.228883 18.5889 0.449292L17.8846 1.1268C17.6606 1.34225 17.6606 1.7007 17.8846 1.91615V1.91615C18.1085 2.13159 18.1085 2.49005 17.8845 2.70549L2.90354 17.1154C2.6744 17.3358 2.31206 17.3358 2.08291 17.1154V17.1154C1.85377 16.895 1.49143 16.895 1.26228 17.1154L0.59349 17.7587C0.350086 17.9928 0.350087 18.3823 0.593491 18.6164V18.6164C0.817616 18.832 0.833798 19.1818 0.667551 19.4446C0.332282 19.9746 0.123306 20.5582 0.0406125 21.155C-0.180567 22.7512 1.78372 23.081 2.94513 21.9639L21.9184 3.71373C22.6389 3.0207 22.6389 1.86767 21.9184 1.17464L21.136 0.421991Z" fill="url(#paint0_linear_8960_7786)"/>
<path d="M15.3643 22.5807C16.0948 21.8781 16.5684 21.0206 16.7851 20.1171C17.4035 17.5393 17.2021 14.2608 19.1126 12.4231L23.7875 7.92638C24.4022 7.33508 24.4022 6.35129 23.7875 5.76V5.76C23.2056 5.20032 22.2856 5.20032 21.7037 5.76L3.02065 23.731C2.40591 24.3223 2.40592 25.3061 3.02065 25.8974L3.53315 26.3903C3.8288 26.6747 4.29631 26.6747 4.59196 26.3903V26.3903C4.92224 26.0726 5.456 26.1153 5.73156 26.4815L9.33118 31.2648C10.8267 33.252 13.7235 33.4838 15.516 31.7597L15.7227 31.5608C17.1152 30.2215 17.2887 28.0534 16.1269 26.5096L15.1535 25.2161C14.5473 24.4106 14.6379 23.2795 15.3643 22.5807V22.5807ZM13.8393 21.1139C13.2925 21.6398 12.4089 21.5691 11.9527 20.9629L11.4842 20.3403L11.3931 20.2192C11.3006 20.0964 11.3144 19.9239 11.4252 19.8174V19.8174C11.5429 19.7042 11.729 19.7042 11.8466 19.8174L12.1979 20.1552C12.5117 20.4571 13.0079 20.4571 13.3217 20.1552L13.7229 19.7694C14.0296 19.4743 14.0296 18.9834 13.7229 18.6884L13.645 18.6135C13.3807 18.3593 13.3807 17.9364 13.645 17.6822V17.6822C13.925 17.4129 14.3845 17.4501 14.5351 17.8081C14.9986 18.9101 14.7667 20.2218 13.8393 21.1139V21.1139Z" fill="url(#paint1_linear_8960_7786)"/>
<defs>
<linearGradient id="paint0_linear_8960_7786" x1="11.6191" y1="0" x2="11.6191" y2="24.1121" gradientUnits="userSpaceOnUse">
<stop stop-color="white" stop-opacity="0.7"/>
<stop offset="1" stop-color="#EFEFEF"/>
</linearGradient>
<linearGradient id="paint1_linear_8960_7786" x1="13.4041" y1="4.75781" x2="13.4041" y2="35.0029" gradientUnits="userSpaceOnUse">
<stop stop-color="white" stop-opacity="0.7"/>
<stop offset="1" stop-color="#EFEFEF"/>
</linearGradient>
</defs>
</svg>
