<svg width="96" height="75" viewBox="0 0 96 75" fill="none" xmlns="http://www.w3.org/2000/svg">
<g filter="url(#filter0_d_9761_1640)">
<path d="M36.1058 5.28255C35.9514 5.32671 35.8071 5.40087 35.6813 5.50078C35.5555 5.60069 35.4506 5.7244 35.3726 5.86485C35.2946 6.0053 35.245 6.15973 35.2267 6.31933C35.2084 6.47894 35.2217 6.64059 35.2659 6.79506C36.0495 9.52793 37.7014 11.9315 39.972 13.6424C42.2426 15.3534 45.0084 16.2788 47.8514 16.2788C50.6945 16.2788 53.4603 15.3534 55.7308 13.6424C58.0014 11.9315 59.6533 9.52793 60.4369 6.79506C60.4819 6.64036 60.4958 6.47832 60.478 6.31823C60.4601 6.15814 60.4108 6.00315 60.3329 5.86215C60.255 5.72116 60.15 5.59695 60.024 5.49663C59.8979 5.39632 59.7533 5.32188 59.5984 5.2776C59.4436 5.23332 59.2815 5.22006 59.1214 5.23859C58.9614 5.25711 58.8066 5.30706 58.666 5.38555C58.5253 5.46405 58.4015 5.56956 58.3017 5.69602C58.202 5.82248 58.1281 5.9674 58.0845 6.12246C57.447 8.34421 56.1037 10.2981 54.2576 11.689C52.4115 13.0799 50.1628 13.8321 47.8514 13.8321C45.54 13.8321 43.2913 13.0799 41.4452 11.689C39.5991 10.2981 38.2558 8.34421 37.6183 6.12246C37.5291 5.81052 37.3197 5.54679 37.036 5.38928C36.7524 5.23177 36.4178 5.19338 36.1058 5.28255Z" fill="url(#paint0_linear_9761_1640)" fill-opacity="0.8" stroke="url(#paint1_linear_9761_1640)" stroke-width="0.7"/>
<path d="M70.2859 20.0073C69.975 19.9145 69.64 19.949 69.3545 20.1032C69.0691 20.2573 68.8565 20.5186 68.7636 20.8294L67.254 25.8845C67.2201 25.9981 67.2028 26.116 67.2028 26.2346V64.1004L28.497 64.0106V26.139C28.4969 26.0205 28.4797 25.9025 28.4458 25.789L26.9361 20.7339C26.8907 20.5793 26.8152 20.4352 26.714 20.3099C26.6127 20.1846 26.4877 20.0806 26.3461 20.0037C26.2045 19.9268 26.0492 19.8787 25.8889 19.862C25.7287 19.8454 25.5668 19.8605 25.4124 19.9066C25.258 19.9527 25.1143 20.0288 24.9894 20.1306C24.8646 20.2324 24.761 20.3579 24.6848 20.4998C24.6085 20.6417 24.561 20.7973 24.5451 20.9576C24.5291 21.1179 24.545 21.2798 24.5917 21.4339L26.0502 26.3178V65.2311C26.0502 65.5551 26.1787 65.8658 26.4075 66.0952C26.6364 66.3245 26.9468 66.4537 27.2708 66.4545L68.4234 66.5499H68.4262C68.7506 66.5499 69.0618 66.421 69.2912 66.1916C69.5207 65.9622 69.6495 65.651 69.6495 65.3266V26.4133L71.108 21.5295C71.2009 21.2186 71.1664 20.8836 71.0122 20.5981C70.8581 20.3127 70.5968 20.1001 70.2859 20.0073Z" fill="url(#paint2_linear_9761_1640)" fill-opacity="0.8" stroke="url(#paint3_linear_9761_1640)" stroke-width="0.7"/>
<path d="M90.3733 23.4526L73.678 6.75252C73.552 6.62647 73.4244 6.50212 73.2953 6.37944C69.6313 2.93598 64.7938 1.01634 59.7656 1.01044L58.5359 1.00001H58.5254C58.2009 0.998657 57.8892 1.12625 57.6588 1.35471C57.4284 1.58317 57.2982 1.8938 57.2969 2.21825C57.2955 2.5427 57.4231 2.8544 57.6516 3.08478C57.8801 3.31516 58.1907 3.44535 58.5151 3.4467L59.7449 3.45713C64.1532 3.45849 68.3957 5.13775 71.6106 8.15383C71.724 8.26157 71.8362 8.37101 71.9474 8.48215L87.7783 24.3175L76.9243 35.1713L73.2685 31.5156C73.039 31.2862 72.7279 31.1573 72.4034 31.1573C72.0789 31.1573 71.7678 31.2862 71.5383 31.5156C71.3089 31.745 71.18 32.0562 71.18 32.3807C71.18 32.7051 71.3089 33.0163 71.5383 33.2457L76.0592 37.7665C76.1728 37.8801 76.3076 37.9702 76.456 38.0317C76.6045 38.0932 76.7636 38.1248 76.9242 38.1248C77.0849 38.1248 77.244 38.0932 77.3924 38.0317C77.5408 37.9702 77.6757 37.8801 77.7893 37.7665L90.3732 25.1828C90.4868 25.0692 90.5769 24.9343 90.6384 24.7859C90.6999 24.6375 90.7316 24.4784 90.7316 24.3177C90.7316 24.1571 90.7 23.998 90.6385 23.8495C90.577 23.7011 90.4869 23.5662 90.3733 23.4526Z" fill="url(#paint4_linear_9761_1640)" fill-opacity="0.8" stroke="url(#paint5_linear_9761_1640)" stroke-width="0.7"/>
<path d="M22.5485 31.4321L18.8073 35.1733L7.9533 24.3195L23.7841 8.48422C23.8951 8.3731 24.0073 8.26373 24.1208 8.15612C27.3357 5.13982 31.5783 3.46043 35.9868 3.45909L37.4442 3.4467C37.7686 3.44535 38.0793 3.31516 38.3077 3.08478C38.5362 2.8544 38.6638 2.5427 38.6624 2.21825C38.6611 1.8938 38.5309 1.58318 38.3005 1.35471C38.0701 1.12625 37.7584 0.998657 37.434 1.00001H37.4233L35.9659 1.0124C30.9376 1.01832 26.1 2.93811 22.436 6.38178C22.3072 6.50407 22.1798 6.6282 22.0538 6.75419L5.35823 23.4546C5.12884 23.6841 4.99998 23.9952 5 24.3197C5.00002 24.6441 5.12892 24.9552 5.35834 25.1846L17.9423 37.7684C18.0559 37.882 18.1907 37.9721 18.3391 38.0336C18.4876 38.095 18.6467 38.1267 18.8073 38.1267C18.968 38.1267 19.1271 38.095 19.2755 38.0336C19.4239 37.9721 19.5588 37.882 19.6724 37.7684L24.2787 33.1621C24.5081 32.9327 24.637 32.6215 24.637 32.2971C24.637 31.9726 24.5081 31.6615 24.2787 31.432C24.0493 31.2026 23.7381 31.0737 23.4136 31.0737C23.0892 31.0737 22.778 31.2026 22.5485 31.4321Z" fill="url(#paint6_linear_9761_1640)" fill-opacity="0.8" stroke="url(#paint7_linear_9761_1640)" stroke-width="0.7"/>
</g>
<defs>
<filter id="filter0_d_9761_1640" x="0.660238" y="0.648438" width="94.41" height="74.2264" filterUnits="userSpaceOnUse" color-interpolation-filters="sRGB">
<feFlood flood-opacity="0" result="BackgroundImageFix"/>
<feColorMatrix in="SourceAlpha" type="matrix" values="0 0 0 0 0 0 0 0 0 0 0 0 0 0 0 0 0 0 127 0" result="hardAlpha"/>
<feOffset dy="3.9882"/>
<feGaussianBlur stdDeviation="1.9941"/>
<feComposite in2="hardAlpha" operator="out"/>
<feColorMatrix type="matrix" values="0 0 0 0 0 0 0 0 0 0 0 0 0 0 0 0 0 0 0.25 0"/>
<feBlend mode="normal" in2="BackgroundImageFix" result="effect1_dropShadow_9761_1640"/>
<feBlend mode="normal" in="SourceGraphic" in2="effect1_dropShadow_9761_1640" result="shape"/>
</filter>
<linearGradient id="paint0_linear_9761_1640" x1="47.8521" y1="5.23047" x2="47.8521" y2="16.2788" gradientUnits="userSpaceOnUse">
<stop stop-color="white"/>
<stop offset="1" stop-color="#B8B8B8"/>
</linearGradient>
<linearGradient id="paint1_linear_9761_1640" x1="47.8521" y1="5.23047" x2="47.8521" y2="16.2788" gradientUnits="userSpaceOnUse">
<stop stop-color="white"/>
<stop offset="1" stop-color="#B8B8B8"/>
</linearGradient>
<linearGradient id="paint2_linear_9761_1640" x1="47.8491" y1="19.8555" x2="47.8491" y2="66.5499" gradientUnits="userSpaceOnUse">
<stop stop-color="white"/>
<stop offset="1" stop-color="#C7C7C7"/>
</linearGradient>
<linearGradient id="paint3_linear_9761_1640" x1="47.8491" y1="19.8555" x2="47.8491" y2="66.5499" gradientUnits="userSpaceOnUse">
<stop stop-color="white"/>
<stop offset="1" stop-color="#B8B8B8"/>
<stop offset="1" stop-color="#B8B8B8"/>
</linearGradient>
<linearGradient id="paint4_linear_9761_1640" x1="74.0142" y1="1" x2="74.0142" y2="38.1248" gradientUnits="userSpaceOnUse">
<stop stop-color="white"/>
<stop offset="1" stop-color="#B8B8B8"/>
</linearGradient>
<linearGradient id="paint5_linear_9761_1640" x1="74.0142" y1="1" x2="74.0142" y2="38.1248" gradientUnits="userSpaceOnUse">
<stop stop-color="white"/>
<stop offset="1" stop-color="#B8B8B8"/>
</linearGradient>
<linearGradient id="paint6_linear_9761_1640" x1="21.8312" y1="1" x2="21.8312" y2="38.1267" gradientUnits="userSpaceOnUse">
<stop stop-color="white"/>
<stop offset="1" stop-color="#B8B8B8"/>
</linearGradient>
<linearGradient id="paint7_linear_9761_1640" x1="21.8312" y1="1" x2="21.8312" y2="38.1267" gradientUnits="userSpaceOnUse">
<stop stop-color="white"/>
<stop offset="1" stop-color="#B8B8B8"/>
</linearGradient>
</defs>
</svg>
