<svg width="8" height="7" viewBox="0 0 8 7" fill="none" xmlns="http://www.w3.org/2000/svg">
<path d="M4 0C3.19511 0 2.53571 0.595581 2.53571 1.32258C2.53571 1.7389 2.7522 2.11187 3.08818 2.35484H1.71429L0 7H8L6.28571 2.35484H4.91182C5.2478 2.11187 5.46429 1.7389 5.46429 1.32258C5.46429 0.595581 4.80489 0 4 0ZM4 0.580645C4.45746 0.580645 4.82143 0.909387 4.82143 1.32258C4.82143 1.73577 4.45746 2.06452 4 2.06452C3.54254 2.06452 3.17857 1.73577 3.17857 1.32258C3.17857 0.909387 3.54254 0.580645 4 0.580645ZM2.53188 3.85403H2.95152V4.39053L3.55639 3.85402H4.04359L3.25996 4.54998L4.12425 5.32376H3.59893L2.95152 4.74492V5.32376H2.53188V3.85403ZM4.67355 4.19661C4.75855 4.19661 4.83341 4.21168 4.89807 4.24187C4.96271 4.27206 5.02196 4.31961 5.07575 4.38461V4.22123H5.46811V5.21255C5.46811 5.38974 5.40596 5.52494 5.28171 5.61813C5.1582 5.712 4.97871 5.75889 4.74329 5.75889C4.667 5.75889 4.59329 5.75365 4.52204 5.74315C4.45086 5.73266 4.37925 5.71658 4.30732 5.69492V5.42024C4.37564 5.45569 4.4425 5.48195 4.50786 5.49902C4.57329 5.51673 4.63905 5.5256 4.70518 5.5256C4.83307 5.5256 4.92679 5.50034 4.98636 5.44979C5.04595 5.39927 5.07575 5.32019 5.07575 5.21256V5.13676C5.022 5.20105 4.96275 5.24831 4.89807 5.2785C4.83343 5.30866 4.75855 5.32379 4.67355 5.32379C4.52457 5.32379 4.40145 5.27097 4.30409 5.16531C4.20671 5.05898 4.15802 4.92379 4.15802 4.75973C4.15802 4.59498 4.20671 4.46011 4.30409 4.35511C4.40145 4.24947 4.52457 4.19661 4.67355 4.19661ZM4.81852 4.45058C4.73786 4.45058 4.67498 4.47752 4.62995 4.53131C4.58489 4.58515 4.56238 4.66127 4.56238 4.75973C4.56238 4.86079 4.58416 4.93756 4.62777 4.99005C4.67137 5.0419 4.73496 5.06784 4.81852 5.06784C4.89989 5.06784 4.96309 5.0409 5.00816 4.9871C5.0532 4.93327 5.07573 4.85748 5.07573 4.75971C5.07573 4.66126 5.0532 4.58513 5.00814 4.53132C4.96309 4.4775 4.89991 4.45058 4.81852 4.45058Z" fill="url(#paint0_linear_3_203)"/>
<defs>
<linearGradient id="paint0_linear_3_203" x1="4" y1="0" x2="4" y2="7" gradientUnits="userSpaceOnUse">
<stop stop-color="white"/>
<stop offset="1" stop-color="#D1D1D1"/>
</linearGradient>
</defs>
</svg>
