<svg width="12" height="12" viewBox="0 0 12 12" fill="none" xmlns="http://www.w3.org/2000/svg">
<path fill-rule="evenodd" clip-rule="evenodd" d="M11.266 2.04905C11.266 1.24531 10.6144 0.59375 9.81065 0.59375H3.98945C3.18571 0.59375 2.53415 1.24531 2.53415 2.04905V2.53415H2.04905C1.24531 2.53415 0.59375 3.18571 0.59375 3.98945V9.81065C0.59375 10.6144 1.24531 11.266 2.04905 11.266H7.87025C8.67401 11.266 9.32555 10.6144 9.32555 9.81065V9.32555H9.81065C10.6144 9.32555 11.266 8.67401 11.266 7.87025V2.04905ZM9.32555 8.35535H9.81065C10.0786 8.35535 10.2957 8.13817 10.2957 7.87025V2.04905C10.2957 1.78114 10.0786 1.56395 9.81065 1.56395H3.98945C3.72154 1.56395 3.50435 1.78114 3.50435 2.04905V2.53415H7.87025C8.67401 2.53415 9.32555 3.18571 9.32555 3.98945V8.35535ZM7.87025 3.50435C8.13817 3.50435 8.35535 3.72154 8.35535 3.98945V9.81065C8.35535 10.0786 8.13817 10.2957 7.87025 10.2957H2.04905C1.78114 10.2957 1.56395 10.0786 1.56395 9.81065V3.98945C1.56395 3.72154 1.78114 3.50435 2.04905 3.50435H7.87025Z" fill="url(#paint0_linear_3_245)"/>
<defs>
<linearGradient id="paint0_linear_3_245" x1="5.92985" y1="0.59375" x2="5.92985" y2="11.266" gradientUnits="userSpaceOnUse">
<stop stop-color="white"/>
<stop offset="1" stop-color="#C8C8C8"/>
</linearGradient>
</defs>
</svg>
