<svg width="22" height="14" viewBox="0 0 22 14" fill="none" xmlns="http://www.w3.org/2000/svg">
<path fill-rule="evenodd" clip-rule="evenodd" d="M16.9478 7.32617C16.3803 8.53641 14.097 10.0027 10.7342 10.0027C7.39244 10.0027 5.01548 8.55489 4.51528 7.34597C1.9905 7.45947 0.175781 8.9693 0.175781 9.86675C0.175781 11.3555 4.90198 13.4671 10.7342 13.4671C16.565 13.4671 21.2925 11.3555 21.2925 9.86675C21.2925 8.95742 19.4778 7.79865 16.9478 7.32617Z" fill="url(#paint0_linear_11443_129)"/>
<path fill-rule="evenodd" clip-rule="evenodd" d="M13.4771 0.708984C12.7961 0.708984 11.3892 1.17619 10.7517 1.17619C10.1142 1.17619 8.70732 0.708984 8.02763 0.708984C6.55737 0.708984 5.63879 2.51973 5.51077 3.21261L5.48438 6.41572C6.2261 7.08353 7.61057 7.92291 9.12834 8.04961C9.65626 8.09317 10.2132 8.11956 10.7926 8.11956C11.3694 8.11956 11.925 8.09317 12.4542 8.04961C13.972 7.92159 15.1915 7.18648 15.9755 6.43816L15.9689 3.25352C15.8553 2.53292 14.9341 0.708984 13.4771 0.708984Z" fill="url(#paint1_linear_11443_129)"/>
<defs>
<linearGradient id="paint0_linear_11443_129" x1="10.7342" y1="7.32617" x2="10.7342" y2="13.4671" gradientUnits="userSpaceOnUse">
<stop stop-color="white"/>
<stop offset="1" stop-color="#CDCDCD"/>
</linearGradient>
<linearGradient id="paint1_linear_11443_129" x1="10.7299" y1="0.708984" x2="10.7299" y2="8.11956" gradientUnits="userSpaceOnUse">
<stop stop-color="white"/>
<stop offset="1" stop-color="#CDCDCD"/>
</linearGradient>
</defs>
</svg>
