<svg width="19" height="16" viewBox="0 0 19 16" fill="none" xmlns="http://www.w3.org/2000/svg">
<g filter="url(#filter0_d_10399_122)">
<path d="M7.29938 1.73152C7.2731 1.73903 7.24855 1.75165 7.22714 1.76865C7.20574 1.78565 7.18789 1.8067 7.17462 1.8306C7.16134 1.85449 7.15291 1.88077 7.14979 1.90793C7.14668 1.93509 7.14894 1.96259 7.15646 1.98887C7.2898 2.45388 7.57089 2.86284 7.95724 3.15397C8.34359 3.44509 8.81421 3.60255 9.29798 3.60255C9.78174 3.60255 10.2524 3.44509 10.6387 3.15397C11.0251 2.86284 11.3062 2.45388 11.4395 1.98887C11.4471 1.96255 11.4495 1.93498 11.4465 1.90774C11.4434 1.8805 11.4351 1.85413 11.4218 1.83014C11.4085 1.80615 11.3907 1.78501 11.3692 1.76794C11.3478 1.75088 11.3232 1.73821 11.2968 1.73068C11.2705 1.72314 11.2429 1.72089 11.2157 1.72404C11.1884 1.72719 11.1621 1.73569 11.1382 1.74904C11.1142 1.7624 11.0932 1.78035 11.0762 1.80187C11.0592 1.82339 11.0466 1.84805 11.0392 1.87443C10.9307 2.25247 10.7022 2.58493 10.388 2.82159C10.0739 3.05825 9.69128 3.18625 9.29798 3.18625C8.90467 3.18625 8.52205 3.05825 8.20792 2.82159C7.89379 2.58493 7.66522 2.25247 7.55674 1.87443C7.54156 1.82135 7.50592 1.77648 7.45766 1.74968C7.4094 1.72288 7.35246 1.71635 7.29938 1.73152Z" fill="white" fill-opacity="0.8" stroke="white" stroke-width="0.530919"/>
<path d="M13.1123 4.23482C13.0594 4.21903 13.0024 4.2249 12.9538 4.25113C12.9052 4.27736 12.8691 4.32181 12.8533 4.37471L12.5964 5.23484C12.5906 5.25417 12.5877 5.27423 12.5877 5.2944V11.7373L6.00159 11.7221V5.27814C6.00159 5.25797 5.99865 5.23791 5.99289 5.21858L5.73601 4.35844C5.72828 4.33215 5.71543 4.30763 5.6982 4.28631C5.68097 4.26499 5.6597 4.24728 5.63561 4.23421C5.61152 4.22113 5.58508 4.21294 5.55782 4.2101C5.53055 4.20727 5.50299 4.20984 5.47673 4.21769C5.45046 4.22553 5.426 4.23848 5.40476 4.2558C5.38351 4.27312 5.36589 4.29447 5.35292 4.31862C5.33994 4.34276 5.33187 4.36923 5.32915 4.39651C5.32643 4.42379 5.32913 4.45133 5.33709 4.47756L5.58526 5.30856V11.9297C5.58526 11.9849 5.60713 12.0377 5.64606 12.0768C5.685 12.1158 5.73782 12.1378 5.79295 12.1379L12.7954 12.1541H12.7958C12.851 12.1541 12.904 12.1322 12.943 12.0932C12.9821 12.0541 13.004 12.0012 13.004 11.946V5.32482L13.2522 4.49382C13.268 4.44093 13.2621 4.38392 13.2359 4.33535C13.2096 4.28678 13.1652 4.25061 13.1123 4.23482Z" fill="url(#paint0_linear_10399_122)" fill-opacity="0.8" stroke="white" stroke-width="0.530919"/>
<path d="M16.5305 4.82036L13.6897 1.9788C13.6683 1.95736 13.6466 1.9362 13.6246 1.91532C13.0011 1.32941 12.178 1.00278 11.3224 1.00178L11.1132 1H11.1114C11.0562 0.999771 11.0031 1.02148 10.9639 1.06035C10.9247 1.09923 10.9026 1.15208 10.9023 1.20729C10.9021 1.26249 10.9238 1.31553 10.9627 1.35473C11.0016 1.39393 11.0544 1.41608 11.1096 1.41631L11.3189 1.41809C12.069 1.41832 12.7909 1.70405 13.3379 2.21724C13.3572 2.23557 13.3763 2.25419 13.3952 2.2731L16.089 4.96753L14.2421 6.81431L13.62 6.19229C13.581 6.15325 13.528 6.13132 13.4728 6.13132C13.4176 6.13132 13.3647 6.15325 13.3256 6.19229C13.2866 6.23133 13.2647 6.28427 13.2647 6.33948C13.2647 6.39469 13.2866 6.44764 13.3256 6.48667L14.0949 7.25589C14.1142 7.27522 14.1372 7.29055 14.1624 7.30101C14.1877 7.31147 14.2147 7.31686 14.2421 7.31686C14.2694 7.31686 14.2965 7.31147 14.3217 7.30101C14.347 7.29055 14.3699 7.27522 14.3893 7.25589L16.5305 5.11474C16.5499 5.09542 16.5652 5.07247 16.5757 5.04721C16.5861 5.02196 16.5915 4.99489 16.5915 4.96756C16.5915 4.94022 16.5861 4.91315 16.5757 4.88789C16.5652 4.86264 16.5499 4.83969 16.5305 4.82036Z" fill="white" fill-opacity="0.8" stroke="white" stroke-width="0.530919"/>
<path d="M4.98601 6.17807L4.34941 6.81465L2.50253 4.96786L5.19625 2.27345C5.21513 2.25455 5.23423 2.23594 5.25354 2.21763C5.80058 1.7044 6.5225 1.41865 7.27262 1.41842L7.52061 1.41631C7.57582 1.41608 7.62868 1.39393 7.66755 1.35473C7.70643 1.31553 7.72814 1.26249 7.72791 1.20729C7.72768 1.15208 7.70553 1.09923 7.66633 1.06035C7.62712 1.02148 7.57409 0.999771 7.51888 1H7.51706L7.26908 1.00211C6.41347 1.00312 5.59032 1.32977 4.96686 1.91572C4.94495 1.93653 4.92327 1.95765 4.90183 1.97909L2.06096 4.8207C2.02192 4.85974 2 4.91268 2 4.96789C2 5.02309 2.02194 5.07603 2.06097 5.11507L4.20222 7.25621C4.22155 7.27554 4.2445 7.29087 4.26975 7.30133C4.29501 7.31179 4.32208 7.31718 4.34942 7.31718C4.37675 7.31718 4.40382 7.31179 4.42908 7.30133C4.45433 7.29087 4.47728 7.27554 4.49661 7.25621L5.28041 6.47245C5.31945 6.43341 5.34138 6.38047 5.34138 6.32526C5.34138 6.27005 5.31945 6.21711 5.28041 6.17807C5.24137 6.13903 5.18842 6.1171 5.13321 6.1171C5.078 6.1171 5.02505 6.13904 4.98601 6.17807Z" fill="white" fill-opacity="0.8" stroke="white" stroke-width="0.530919"/>
</g>
<defs>
<filter id="filter0_d_10399_122" x="0.100779" y="0.734375" width="18.3883" height="14.9527" filterUnits="userSpaceOnUse" color-interpolation-filters="sRGB">
<feFlood flood-opacity="0" result="BackgroundImageFix"/>
<feColorMatrix in="SourceAlpha" type="matrix" values="0 0 0 0 0 0 0 0 0 0 0 0 0 0 0 0 0 0 127 0" result="hardAlpha"/>
<feOffset dy="1.6336"/>
<feGaussianBlur stdDeviation="0.816798"/>
<feComposite in2="hardAlpha" operator="out"/>
<feColorMatrix type="matrix" values="0 0 0 0 0 0 0 0 0 0 0 0 0 0 0 0 0 0 0.25 0"/>
<feBlend mode="normal" in2="BackgroundImageFix" result="effect1_dropShadow_10399_122"/>
<feBlend mode="normal" in="SourceGraphic" in2="effect1_dropShadow_10399_122" result="shape"/>
</filter>
<linearGradient id="paint0_linear_10399_122" x1="9.2945" y1="4.20898" x2="9.2945" y2="12.1541" gradientUnits="userSpaceOnUse">
<stop stop-color="white"/>
<stop offset="1" stop-color="#C7C7C7"/>
</linearGradient>
</defs>
</svg>
