<svg width="16" height="23" viewBox="0 0 16 23" fill="none" xmlns="http://www.w3.org/2000/svg">
<path d="M8 8.58333V11.5L10.3333 13.25M3.25389 4.73833C3.96484 4.5 4.92428 4.5 6.6 4.5H9.4C11.0757 4.5 12.0351 4.5 12.7461 4.73834M3.25389 4.73833C3.13321 4.77879 3.01969 4.82612 2.91103 4.88148C2.25246 5.21703 1.71703 5.75246 1.38148 6.41103C1 7.15972 1 8.13981 1 10.1V12.9C1 14.8602 1 15.8402 1.38148 16.589C1.71703 17.2476 2.25246 17.783 2.91103 18.1185C3.01964 18.1739 3.13311 18.2212 3.25374 18.2616M3.25389 4.73833L4.50003 1H11.5L12.7461 4.73834M12.7461 4.73834C12.8667 4.7788 12.9803 4.82612 13.089 4.88148C13.7476 5.21703 14.283 5.75246 14.6185 6.41103C15 7.15972 15 8.13981 15 10.1V12.9C15 14.8602 15 15.8402 14.6185 16.589C14.283 17.2476 13.7476 17.783 13.089 18.1185C12.9803 18.1739 12.8668 18.2213 12.746 18.2618M3.25374 18.2616C3.96469 18.5 4.92415 18.5 6.6 18.5H9.4C11.0756 18.5 12.035 18.5 12.746 18.2618M3.25374 18.2616L4.49953 22H11.4995L12.746 18.2618" stroke="url(#paint0_linear_10298_8)" stroke-width="2" stroke-linecap="round" stroke-linejoin="round"/>
<defs>
<linearGradient id="paint0_linear_10298_8" x1="8" y1="1" x2="8" y2="22" gradientUnits="userSpaceOnUse">
<stop stop-color="white"/>
<stop offset="1" stop-color="#C4C4C4"/>
</linearGradient>
</defs>
</svg>
