<svg width="30" height="15" viewBox="0 0 30 15" fill="none" xmlns="http://www.w3.org/2000/svg">
<path fill-rule="evenodd" clip-rule="evenodd" d="M6.5625 2.14286C4.0225 2.14286 1.875 4.85 1.875 7.5C1.875 10.15 4.0225 12.8571 6.5625 12.8571C7.83375 12.8571 9.08 12.2043 10.39 11.0671C11.5025 10.0986 12.5875 8.84714 13.7088 7.5C12.5875 6.15286 11.5025 4.9 10.39 3.93286C9.08 2.79571 7.83375 2.14286 6.5625 2.14286ZM15 5.94286C13.8912 4.61 12.7338 3.27857 11.525 2.22857C10.06 0.952858 8.41625 0 6.5625 0C2.92875 0 0 3.73571 0 7.5C0 11.2643 2.92875 15 6.5625 15C8.41625 15 10.06 14.0457 11.525 12.7714C12.7338 11.7214 13.8912 10.39 15 9.05714C16.1088 10.39 17.2662 11.7214 18.475 12.7714C19.94 14.0457 21.5837 15 23.4375 15C27.0713 15 30 11.2643 30 7.5C30 3.73571 27.0713 0 23.4375 0C21.5837 0 19.94 0.954286 18.475 2.22857C17.2662 3.27857 16.1088 4.61 15 5.94286ZM16.2912 7.5C17.4125 8.84714 18.4975 10.1 19.61 11.0671C20.92 12.2043 22.1663 12.8571 23.4375 12.8571C25.9775 12.8571 28.125 10.15 28.125 7.5C28.125 4.85 25.9775 2.14286 23.4375 2.14286C22.1663 2.14286 20.92 2.79571 19.61 3.93286C18.4975 4.90143 17.4125 6.15286 16.2912 7.5Z" fill="url(#paint0_linear_10298_14)"/>
<defs>
<linearGradient id="paint0_linear_10298_14" x1="15" y1="0" x2="15" y2="15" gradientUnits="userSpaceOnUse">
<stop stop-color="white"/>
<stop offset="1" stop-color="#D0D0D0"/>
</linearGradient>
</defs>
</svg>
