<svg width="28" height="33" viewBox="0 0 28 33" fill="none" xmlns="http://www.w3.org/2000/svg">
<g filter="url(#filter0_d_9734_427)">
<path d="M13.7616 7.32737C12.8958 7.32737 12.093 7.92266 12.093 8.28392C12.093 8.64519 11.4167 20.2584 11.4167 20.2584H7V6.93138V2.70468V0.999893H13.7628H20.5256V2.70468V6.93138V20.2584H16.1089C16.1089 20.2584 15.4326 8.64522 15.4326 8.28392C15.4326 7.92263 14.6298 7.32737 13.764 7.32737" stroke="url(#paint0_linear_9734_427)" stroke-width="1.5" stroke-miterlimit="10" stroke-linecap="round" stroke-linejoin="round"/>
<path d="M13.8545 2.72792C13.8545 2.6872 13.8875 2.6542 13.9282 2.6542C13.9689 2.6542 14.002 2.6872 14.002 2.72792C14.002 2.76865 13.9689 2.80165 13.9282 2.80165C13.8875 2.80165 13.8545 2.76865 13.8545 2.72792Z" fill="white" stroke="url(#paint1_linear_9734_427)" stroke-width="1.5"/>
<path d="M17.5593 2.13976C17.5593 2.13976 16.7467 5.16202 19.6177 6.01703" stroke="url(#paint2_linear_9734_427)" stroke-width="1.5" stroke-miterlimit="10" stroke-linecap="round" stroke-linejoin="round"/>
<path d="M9.96081 2.13976C9.96081 2.13976 10.7734 5.16202 7.90234 6.01703" stroke="url(#paint3_linear_9734_427)" stroke-width="1.5" stroke-miterlimit="10" stroke-linecap="round" stroke-linejoin="round"/>
</g>
<defs>
<filter id="filter0_d_9734_427" x="0.25" y="0.249893" width="27.0254" height="32.7585" filterUnits="userSpaceOnUse" color-interpolation-filters="sRGB">
<feFlood flood-opacity="0" result="BackgroundImageFix"/>
<feColorMatrix in="SourceAlpha" type="matrix" values="0 0 0 0 0 0 0 0 0 0 0 0 0 0 0 0 0 0 127 0" result="hardAlpha"/>
<feOffset dy="6"/>
<feGaussianBlur stdDeviation="3"/>
<feComposite in2="hardAlpha" operator="out"/>
<feColorMatrix type="matrix" values="0 0 0 0 0 0 0 0 0 0 0 0 0 0 0 0 0 0 0.25 0"/>
<feBlend mode="normal" in2="BackgroundImageFix" result="effect1_dropShadow_9734_427"/>
<feBlend mode="normal" in="SourceGraphic" in2="effect1_dropShadow_9734_427" result="shape"/>
</filter>
<linearGradient id="paint0_linear_9734_427" x1="13.7628" y1="0.999893" x2="13.7628" y2="20.2584" gradientUnits="userSpaceOnUse">
<stop stop-color="white"/>
<stop offset="1" stop-color="#CACACA"/>
</linearGradient>
<linearGradient id="paint1_linear_9734_427" x1="13.9282" y1="2.05165" x2="13.9282" y2="3.4042" gradientUnits="userSpaceOnUse">
<stop stop-color="white"/>
<stop offset="1" stop-color="#CACACA"/>
</linearGradient>
<linearGradient id="paint2_linear_9734_427" x1="18.5354" y1="2.13976" x2="18.5354" y2="6.01703" gradientUnits="userSpaceOnUse">
<stop stop-color="white"/>
<stop offset="1" stop-color="#CACACA"/>
</linearGradient>
<linearGradient id="paint3_linear_9734_427" x1="8.98465" y1="2.13976" x2="8.98465" y2="6.01703" gradientUnits="userSpaceOnUse">
<stop stop-color="white"/>
<stop offset="1" stop-color="#CACACA"/>
</linearGradient>
</defs>
</svg>
