<svg width="19" height="17" viewBox="0 0 19 17" fill="none" xmlns="http://www.w3.org/2000/svg">
<path d="M2.21235 1L16.6124 15.4M13.4624 12.4803C12.245 13.136 10.8691 13.5999 9.41235 13.5999C6.23477 13.5999 3.44207 11.393 1.84058 9.80093C1.41784 9.38067 1.20651 9.17056 1.07197 8.75811C0.976024 8.46395 0.975994 7.93591 1.07197 7.64177C1.20655 7.22932 1.41832 7.01871 1.84189 6.5977C2.64909 5.79539 3.75866 4.83723 5.06743 4.08408M16.1624 10.5701C16.4621 10.3065 16.7366 10.0471 16.983 9.80225L16.9856 9.7995C17.4074 9.38028 17.6188 9.17009 17.7531 8.75854C17.8491 8.4644 17.8489 7.93615 17.7529 7.642C17.6184 7.22968 17.4068 7.01897 16.9844 6.599C15.3829 5.00688 12.5899 2.8 9.41235 2.8C9.1086 2.8 8.80837 2.82017 8.51235 2.85803M10.603 9.55C10.2857 9.83006 9.86885 10 9.41235 10C8.41824 10 7.61235 9.19411 7.61235 8.2C7.61235 7.71445 7.80461 7.27397 8.11715 6.9502" stroke="url(#paint0_linear_9675_458)" stroke-width="1.8" stroke-linecap="round" stroke-linejoin="round"/>
<defs>
<linearGradient id="paint0_linear_9675_458" x1="9.4125" y1="15.4" x2="9.4125" y2="1" gradientUnits="userSpaceOnUse">
<stop stop-color="white"/>
<stop offset="1" stop-color="#CCCCCC"/>
</linearGradient>
</defs>
</svg>
