<svg width="20" height="15" viewBox="0 0 20 15" fill="none" xmlns="http://www.w3.org/2000/svg">
<path d="M1.25203 2.5C1.34317 2.5 1.46685 2.48698 1.62309 2.46094L2.54096 3.37891C2.13735 3.6263 1.70771 3.75 1.25203 3.75C1.23901 3.75 1.21948 3.74674 1.19345 3.74023L1.15439 3.73047L0.00216866 14.375C-0.0108509 14.5443 0.0347176 14.6908 0.138872 14.8145C0.243029 14.9382 0.379732 15 0.548985 15H4.23999C4.40924 15 4.55897 14.9382 4.68916 14.8145C4.81936 14.6908 4.89096 14.5443 4.90398 14.375L5.37268 10H8.12629C9.03765 10 9.78626 9.67448 10.3721 9.02344C10.958 8.3724 11.2509 7.44792 11.2509 6.25H18.1252C18.2945 6.25 18.4409 6.18815 18.5646 6.06445C18.6883 5.94076 18.7501 5.79427 18.7501 5.625V5H19.3751C19.5443 5 19.6908 4.93815 19.8145 4.81445C19.9382 4.69076 20 4.54427 20 4.375V1.875C20 1.70573 19.9382 1.55924 19.8145 1.43555C19.6908 1.31185 19.5443 1.25 19.3751 1.25H18.7501V0.625C18.7501 0.455729 18.6883 0.309245 18.5646 0.185547C18.4409 0.061849 18.2945 0 18.1252 0C17.956 0 17.8095 0.061849 17.6858 0.185547C17.5621 0.309245 17.5003 0.455729 17.5003 0.625V1.25H3.75176C3.75176 1.70573 3.62808 2.13542 3.38071 2.53906L2.28708 1.42578C2.1048 1.25651 1.89649 1.21094 1.66215 1.28906C1.49289 1.26302 1.35619 1.25 1.25203 1.25C0.900509 1.25 0.604317 1.31185 0.363457 1.43555C0.122599 1.55924 0.00216866 1.70573 0.00216866 1.875C0.00216866 2.04427 0.122599 2.19076 0.363457 2.31445C0.604317 2.43815 0.900509 2.5 1.25203 2.5ZM5.78279 6.25H6.25149C6.25149 6.74479 6.36216 7.21029 6.58349 7.64648C6.80482 8.08268 7.11077 8.44401 7.50136 8.73047V6.25H9.88391C9.96203 6.45833 10.0011 6.66667 10.0011 6.875C10.0011 7.39583 9.81881 7.83854 9.45427 8.20312C9.08972 8.56771 8.64706 8.75 8.12629 8.75H5.50938L5.78279 6.25Z" fill="url(#paint0_linear_9675_460)"/>
<defs>
<linearGradient id="paint0_linear_9675_460" x1="10" y1="0" x2="10" y2="15" gradientUnits="userSpaceOnUse">
<stop stop-color="white"/>
<stop offset="1" stop-color="#C4C2C2"/>
</linearGradient>
</defs>
</svg>
