<svg width="16" height="16" viewBox="0 0 16 16" fill="none" xmlns="http://www.w3.org/2000/svg">
<path d="M8.04254 0.0606338C7.8833 0.0208238 7.7167 0.0208239 7.55746 0.0606339L0.757464 1.76063C0.312297 1.87193 0 2.27191 0 2.73078V11.082C0 11.4607 0.214002 11.807 0.552786 11.9764L7.35279 15.3764C7.63431 15.5172 7.96569 15.5172 8.24721 15.3764L15.0472 11.9764C15.386 11.807 15.6 11.4607 15.6 11.082V2.73078C15.6 2.27191 15.2877 1.87193 14.8425 1.76063L8.04254 0.0606338ZM7.66691 1.00991C7.75429 0.98699 7.84597 0.985946 7.93385 1.00687C8.47516 1.13575 8.50471 1.89492 7.97506 2.06549L4.30416 3.24764C4.16842 3.29136 4.02214 3.28966 3.88746 3.24281C3.27532 3.02989 3.30964 2.1528 3.93655 1.98837L7.66691 1.00991ZM7.8 12.9095C7.8 13.6528 7.01769 14.1363 6.35279 13.8039L1.52779 11.3914C1.189 11.222 0.975 10.8757 0.975 10.497V4.60492C0.975 3.92237 1.6437 3.4404 2.29123 3.65624L3.21623 3.96458C3.62457 4.10069 3.9 4.48283 3.9 4.91326V7.14479C3.9 7.36007 4.04121 7.54986 4.24742 7.61173C4.5602 7.70556 4.875 7.47134 4.875 7.14479V5.96993C4.875 5.28737 5.5437 4.8054 6.19123 5.02124L7.11623 5.32958C7.52457 5.46569 7.8 5.84783 7.8 6.27826V12.9095ZM8.55126 4.58165C8.38058 4.64529 8.19326 4.64859 8.02044 4.59098C7.28399 4.3455 7.29675 3.29938 8.03897 3.07193L11.5168 2.00614C11.6367 1.96941 11.7643 1.96607 11.8859 1.99647C12.5426 2.16065 12.5938 3.07427 11.9595 3.31078L8.55126 4.58165Z" fill="url(#paint0_linear_9675_435)"/>
<defs>
<linearGradient id="paint0_linear_9675_435" x1="7.8" y1="0" x2="7.8" y2="15.6" gradientUnits="userSpaceOnUse">
<stop stop-color="white"/>
<stop offset="1" stop-color="#C4C4C4"/>
</linearGradient>
</defs>
</svg>
