<svg width="31" height="31" viewBox="0 0 31 31" fill="none" xmlns="http://www.w3.org/2000/svg">
<g filter="url(#filter0_d_9734_434)">
<path d="M7.6099 3.63559C7.56693 3.66282 7.52628 3.69515 7.48885 3.73259L5.44748 5.77393C4.85494 6.36648 4.85087 7.32752 5.43526 7.92512L5.44826 7.93929L5.51165 8.00818C5.56723 8.06858 5.64898 8.15718 5.754 8.27054C5.96402 8.49733 6.26719 8.82324 6.64039 9.22064C7.38659 10.0152 8.41371 11.0964 9.53664 12.2422C11.7592 14.51 14.428 17.1051 16.0183 18.1741C17.8095 19.3838 19.4372 20.065 20.6256 20.4446C21.2198 20.6343 21.7046 20.7489 22.0456 20.8164C22.216 20.8502 22.3507 20.8722 22.4453 20.8861C22.4926 20.893 22.5298 20.8979 22.5565 20.9012L22.5809 20.9041C23.0545 20.9786 23.4733 20.9925 23.8462 20.9146C24.2453 20.8313 24.5576 20.6502 24.8119 20.396L25.3029 19.9049C25.3394 19.8685 25.3712 19.8287 25.3982 19.7863C25.5841 19.6176 25.7395 19.417 25.8564 19.1933C26.0167 18.8866 26.1002 18.5456 26.0997 18.1995C26.0177 17.2925 25.1618 16.7685 24.4042 16.3055C24.0229 16.1164 23.6825 15.8543 23.4025 15.5339L22.8447 14.2319H22.8497C23.2566 14.2319 23.5863 13.9022 23.5863 13.4953C23.5863 13.0885 23.2566 12.7588 22.8497 12.7588H22.2136L21.7615 11.7035C22.0334 11.5951 22.2254 11.3296 22.2254 11.0191C22.2254 10.6122 21.8957 10.2825 21.4888 10.2825H21.1528L20.7798 9.41187C21.1706 9.39377 21.4818 9.07136 21.4818 8.67607C21.4818 8.2692 21.1521 7.9395 20.7452 7.9395H20.1491L19.8606 7.26607C19.8171 7.16085 19.7905 7.08508 19.768 7.02055C19.6745 6.71406 19.5 6.43852 19.2629 6.22295L18.8981 5.85747C18.7285 5.69414 18.5247 5.57435 18.304 5.50511V5.18967C17.8654 3.86744 16.2663 3.40641 15.1938 4.21123L13.7007 2.68883C13.8349 2.55339 13.9411 2.39275 14.013 2.21616C14.0849 2.03957 14.1212 1.85051 14.1199 1.65984C14.1185 1.46917 14.0795 1.28064 14.005 1.10511C13.9305 0.929564 13.8221 0.770473 13.686 0.636965C13.2767 0.229033 12.7223 -3.05176e-05 12.1444 -3.05176e-05C11.5665 -3.05176e-05 11.0122 0.229033 10.6029 0.636965L7.6099 3.63559ZM14.2475 10.0756L14.2492 9.55293C14.2492 8.3604 13.7862 7.22398 12.9585 6.37517L9.93524 3.29159L11.5941 1.63028C11.6686 1.55548 11.7582 1.49743 11.8569 1.46002C11.9557 1.4226 12.0612 1.40668 12.1666 1.41333C12.272 1.41996 12.3747 1.44901 12.468 1.49852C12.5612 1.54803 12.6429 1.61687 12.7074 1.70043C12.4385 1.97068 12.2876 2.33639 12.2876 2.71759C12.2876 3.0988 12.4385 3.4645 12.7074 3.73476L15.815 6.85079C16.0957 7.12135 16.4704 7.27252 16.8603 7.27252C17.2501 7.27252 17.6248 7.12135 17.9055 6.85079L18.2703 7.21556C18.3558 7.28234 18.4164 7.37599 18.4422 7.48143L18.4445 7.48809C18.4749 7.57522 18.5118 7.68072 18.5705 7.81744L18.6228 7.9395H17.9602C17.5534 7.9395 17.2237 8.2692 17.2237 8.67607C17.2237 8.8795 17.3078 9.06189 17.4411 9.19517C17.5744 9.32846 17.7638 9.41264 17.9602 9.41264H19.2538L19.6264 10.2825H19.0756C18.6688 10.2825 18.339 10.6122 18.339 11.0191C18.339 11.2225 18.4232 11.4049 18.5565 11.5382C18.6898 11.6714 18.8792 11.7556 19.0756 11.7556H20.2574L20.687 12.7588H20.0015C19.5947 12.7588 19.265 13.0885 19.265 13.4953C19.265 13.6988 19.3491 13.8811 19.4824 14.0144C19.6157 14.1477 19.7981 14.2249 20.0015 14.2319H21.318L22.1131 16.088C22.4801 16.7049 23.0245 17.1967 23.6754 17.4994L23.6773 17.5006C24.0306 17.7163 24.6862 18.1164 24.7038 18.316C24.7038 18.3551 24.6654 18.4752 24.4898 18.6716C24.2923 18.6475 24.0227 18.6095 23.7001 18.5513C22.9805 18.4216 22.0068 18.1931 20.9847 17.8001C18.921 17.0066 16.7874 15.5958 15.9909 13.0997L15.9905 13.0984C15.7065 12.2143 15.066 11.1853 14.3234 10.1781C14.2983 10.1439 14.2729 10.1098 14.2475 10.0756ZM6.43794 6.9438C6.4209 6.92262 6.4116 6.89624 6.4116 6.86902C6.4116 6.84139 6.4212 6.81459 6.43876 6.79326L8.00523 5.22446C8.14537 5.36189 8.31074 5.52535 8.49609 5.71084C9.10134 6.31651 9.91755 7.15488 10.7632 8.08724C11.6103 9.02106 12.4793 10.041 13.1941 11.0106C13.9199 11.995 14.4438 12.8712 14.6545 13.5268C14.6875 13.6301 14.7222 13.7319 14.7589 13.832L6.43967 6.94556C6.43963 6.94549 6.43971 6.94556 6.43967 6.94556C6.43913 6.945 6.43847 6.94436 6.43794 6.9438Z" fill="url(#paint0_linear_9734_434)"/>
</g>
<defs>
<filter id="filter0_d_9734_434" x="0.14" y="-3.05176e-05" width="30.8196" height="30.6869" filterUnits="userSpaceOnUse" color-interpolation-filters="sRGB">
<feFlood flood-opacity="0" result="BackgroundImageFix"/>
<feColorMatrix in="SourceAlpha" type="matrix" values="0 0 0 0 0 0 0 0 0 0 0 0 0 0 0 0 0 0 127 0" result="hardAlpha"/>
<feOffset dy="4.86"/>
<feGaussianBlur stdDeviation="2.43"/>
<feComposite in2="hardAlpha" operator="out"/>
<feColorMatrix type="matrix" values="0 0 0 0 0 0 0 0 0 0 0 0 0 0 0 0 0 0 0.25 0"/>
<feBlend mode="normal" in2="BackgroundImageFix" result="effect1_dropShadow_9734_434"/>
<feBlend mode="normal" in="SourceGraphic" in2="effect1_dropShadow_9734_434" result="shape"/>
</filter>
<linearGradient id="paint0_linear_9734_434" x1="15.5499" y1="-3.05176e-05" x2="15.5499" y2="20.9668" gradientUnits="userSpaceOnUse">
<stop stop-color="white"/>
<stop offset="1" stop-color="#C2C2C2"/>
</linearGradient>
</defs>
</svg>
