<svg width="23" height="18" viewBox="0 0 23 18" fill="none" xmlns="http://www.w3.org/2000/svg">
<path d="M8.5993 2.04396C8.5616 2.05474 8.5264 2.07283 8.49569 2.09722C8.46499 2.1216 8.43939 2.15179 8.42036 2.18606C8.40132 2.22034 8.38923 2.25803 8.38476 2.29698C8.38029 2.33593 8.38354 2.37538 8.39431 2.41307C8.58555 3.08 8.98868 3.66656 9.54278 4.08411C10.0969 4.50165 10.7718 4.72749 11.4656 4.72749C12.1595 4.72749 12.8344 4.50165 13.3885 4.08411C13.9426 3.66656 14.3457 3.08 14.537 2.41307C14.5479 2.37532 14.5513 2.33578 14.547 2.29671C14.5426 2.25764 14.5306 2.21981 14.5116 2.18541C14.4926 2.151 14.467 2.12069 14.4362 2.0962C14.4054 2.07172 14.3701 2.05356 14.3324 2.04275C14.2946 2.03195 14.255 2.02871 14.2159 2.03323C14.1769 2.03775 14.1391 2.04994 14.1048 2.0691C14.0705 2.08825 14.0403 2.114 14.0159 2.14486C13.9916 2.17572 13.9735 2.21109 13.9629 2.24893C13.8073 2.79113 13.4795 3.26796 13.029 3.60739C12.5785 3.94682 12.0297 4.1304 11.4656 4.1304C10.9016 4.1304 10.3528 3.94682 9.9023 3.60739C9.45178 3.26796 9.12397 2.79113 8.96839 2.24893C8.94663 2.17281 8.89551 2.10845 8.82629 2.07001C8.75707 2.03157 8.67542 2.0222 8.5993 2.04396Z" fill="url(#paint0_linear_9223_404)" stroke="white" stroke-width="0.63"/>
<path d="M16.9334 5.64642C16.8576 5.62378 16.7758 5.6322 16.7061 5.66982C16.6365 5.70745 16.5846 5.7712 16.5619 5.84706L16.1935 7.08071C16.1853 7.10843 16.1811 7.13721 16.1811 7.16614V16.4069L6.7354 16.385V7.14281C6.7354 7.11388 6.73119 7.08511 6.72292 7.05738L6.35451 5.82374C6.34342 5.78602 6.325 5.75086 6.30029 5.72028C6.27558 5.6897 6.24507 5.66431 6.21052 5.64555C6.17597 5.62679 6.13805 5.61504 6.09895 5.61098C6.05985 5.60691 6.02033 5.61061 5.98265 5.62186C5.94498 5.63311 5.90991 5.65168 5.87943 5.67653C5.84896 5.70137 5.8237 5.73198 5.80509 5.76662C5.78648 5.80125 5.7749 5.83921 5.771 5.87833C5.7671 5.91746 5.77097 5.95696 5.78239 5.99458L6.13831 7.18644V16.6829C6.13831 16.7619 6.16967 16.8378 6.22551 16.8937C6.28135 16.9497 6.35711 16.9812 6.43617 16.9814L16.4789 17.0047H16.4796C16.5588 17.0047 16.6347 16.9733 16.6907 16.9173C16.7467 16.8613 16.7781 16.7853 16.7781 16.7062V7.20976L17.1341 6.01791C17.1567 5.94204 17.1483 5.86028 17.1107 5.79061C17.0731 5.72095 17.0093 5.66908 16.9334 5.64642Z" fill="url(#paint1_linear_9223_404)" stroke="white" stroke-width="0.63"/>
<path d="M21.8453 6.47935L17.771 2.40385C17.7403 2.37309 17.7091 2.34274 17.6776 2.3128C16.7835 1.47246 15.603 1.00399 14.3759 1.00255L14.0758 1H14.0732C13.9941 0.999672 13.918 1.03081 13.8618 1.08656C13.8055 1.14232 13.7738 1.21812 13.7734 1.2973C13.7731 1.37648 13.8042 1.45255 13.86 1.50877C13.9158 1.56499 13.9916 1.59676 14.0707 1.59709L14.3708 1.59964C15.4466 1.59997 16.4819 2.00978 17.2665 2.74582C17.2942 2.77212 17.3216 2.79882 17.3487 2.82595L21.212 6.69042L18.5632 9.33917L17.6711 8.44704C17.6151 8.39105 17.5392 8.3596 17.46 8.3596C17.3808 8.3596 17.3049 8.39105 17.2489 8.44704C17.1929 8.50303 17.1614 8.57897 17.1614 8.65815C17.1614 8.73733 17.1929 8.81327 17.2489 8.86926L18.3521 9.97251C18.3798 10.0002 18.4128 10.0222 18.449 10.0372C18.4852 10.0522 18.524 10.06 18.5632 10.06C18.6024 10.06 18.6413 10.0522 18.6775 10.0372C18.7137 10.0222 18.7466 10.0002 18.7743 9.97251L21.8453 6.90157C21.873 6.87385 21.895 6.84094 21.91 6.80472C21.925 6.7685 21.9327 6.72967 21.9327 6.69047C21.9327 6.65126 21.925 6.61244 21.91 6.57621C21.895 6.53999 21.873 6.50708 21.8453 6.47935Z" fill="url(#paint2_linear_9223_404)" stroke="white" stroke-width="0.63"/>
<path d="M5.28248 8.42665L4.36948 9.33966L1.72071 6.6909L5.584 2.82645C5.61108 2.79933 5.63847 2.77264 5.66616 2.74638C6.45073 2.01028 7.48608 1.60045 8.5619 1.60012L8.91757 1.59709C8.99675 1.59676 9.07255 1.56499 9.12831 1.50877C9.18406 1.45255 9.2152 1.37648 9.21487 1.2973C9.21454 1.21812 9.18276 1.14232 9.12654 1.08656C9.07032 1.03081 8.99425 0.999672 8.91507 1H8.91247L8.55681 1.00303C7.32971 1.00447 6.14918 1.47298 5.25502 2.31337C5.22359 2.34321 5.1925 2.37351 5.16176 2.40425L1.08742 6.47984C1.03144 6.53583 0.999995 6.61176 1 6.69094C1.00001 6.77012 1.03146 6.84605 1.08745 6.90203L4.15838 9.97297C4.18611 10.0007 4.21902 10.0227 4.25524 10.0377C4.29146 10.0527 4.33028 10.0604 4.36949 10.0604C4.4087 10.0604 4.44752 10.0527 4.48374 10.0377C4.51996 10.0227 4.55287 10.0007 4.5806 9.97297L5.7047 8.84886C5.76069 8.79287 5.79215 8.71693 5.79215 8.63775C5.79215 8.55857 5.76069 8.48264 5.7047 8.42665C5.64871 8.37066 5.57278 8.3392 5.4936 8.3392C5.41442 8.3392 5.33847 8.37066 5.28248 8.42665Z" fill="url(#paint3_linear_9223_404)" stroke="white" stroke-width="0.63"/>
<defs>
<linearGradient id="paint0_linear_9223_404" x1="11.4658" y1="2.03125" x2="11.4658" y2="4.72749" gradientUnits="userSpaceOnUse">
<stop stop-color="white"/>
<stop offset="1" stop-color="#999999"/>
</linearGradient>
<linearGradient id="paint1_linear_9223_404" x1="11.458" y1="5.60937" x2="11.458" y2="17.0047" gradientUnits="userSpaceOnUse">
<stop stop-color="white"/>
<stop offset="1" stop-color="#999999"/>
</linearGradient>
<linearGradient id="paint2_linear_9223_404" x1="17.8531" y1="1" x2="17.8531" y2="10.06" gradientUnits="userSpaceOnUse">
<stop stop-color="white"/>
<stop offset="1" stop-color="#999999"/>
</linearGradient>
<linearGradient id="paint3_linear_9223_404" x1="5.10743" y1="1" x2="5.10743" y2="10.0604" gradientUnits="userSpaceOnUse">
<stop stop-color="white"/>
<stop offset="1" stop-color="#999999"/>
</linearGradient>
</defs>
</svg>
