<svg width="16" height="17" viewBox="0 0 16 17" fill="none" xmlns="http://www.w3.org/2000/svg">
<path d="M15.1111 3.77778H14.2222V0.944444C14.2222 0.422922 13.8242 0 13.3333 0C12.8425 0 12.4444 0.422922 12.4444 0.944444V3.77778C12.4444 4.82101 13.2404 5.66667 14.2222 5.66667V13.6944C14.2222 13.9553 14.0233 14.1667 13.7778 14.1667C13.5323 14.1667 13.3333 13.9553 13.3333 13.6944V10.3889C13.3333 8.82413 12.1394 7.55556 10.6667 7.55556V1.88889C10.6667 0.845656 9.87076 0 8.88889 0H1.77778C0.795911 0 0 0.845656 0 1.88889V15.1111C0 16.1543 0.795911 17 1.77778 17H8.88889C9.87076 17 10.6667 16.1543 10.6667 15.1111V9.44444C11.1575 9.44444 11.5556 9.86737 11.5556 10.3889V13.6944C11.5556 14.9985 12.5504 16.0556 13.7778 16.0556C15.0052 16.0556 16 14.9985 16 13.6944V4.72222C16 4.2007 15.602 3.77778 15.1111 3.77778ZM8.88889 6.61111C8.89884 7.12224 8.51698 7.54498 8.03591 7.55556C8.03573 7.55556 8.03609 7.55556 8.03591 7.55556H2.70222C2.2016 7.56613 1.78773 7.1434 1.77778 6.61149C1.77778 6.6113 1.77778 6.61168 1.77778 6.61149V3.77778C1.77778 3.25626 2.17582 2.83333 2.66667 2.83333H8C8.49084 2.83333 8.88889 3.25626 8.88889 3.77778V6.61111Z" fill="white"/>
</svg>
