<svg width="17" height="17" viewBox="0 0 17 17" fill="none" xmlns="http://www.w3.org/2000/svg">
<path d="M10.6895 0.6138C10.6286 0.280573 10.3388 0.0390625 10.0007 0.0390625C4.59642 0.0390625 0.200195 3.80732 0.200195 8.43944C0.200195 13.0708 4.59638 16.8398 10.0007 16.8398C10.3388 16.8398 10.6286 16.5976 10.6895 16.2644L10.7616 15.8689C11.617 10.8364 11.6163 5.83464 10.7602 1.00163L10.6895 0.6138Z" fill="white" fill-opacity="0.2"/>
<path d="M12.4391 4.83939L15.9393 6.93948C16.052 7.00737 16.1766 7.0396 16.2991 7.0396C16.5371 7.0396 16.7688 6.91848 16.8997 6.69938C17.0985 6.36826 16.9914 5.93774 16.6596 5.73895L13.1594 3.63885C12.8276 3.43934 12.3971 3.54786 12.199 3.87895C12.0002 4.21074 12.1073 4.64057 12.4391 4.83939Z" fill="white" fill-opacity="0.2"/>
<path d="M16.6596 9.93914L13.1594 7.83905C12.8269 7.63954 12.3971 7.74806 12.199 8.07915C12.0002 8.41027 12.1073 8.84079 12.4391 9.03958L15.9393 11.1397C16.052 11.2076 16.1766 11.2391 16.2984 11.2391C16.5364 11.2391 16.7681 11.1187 16.8997 10.8995C17.0985 10.5678 16.9914 10.138 16.6596 9.93914Z" fill="white" fill-opacity="0.2"/>
<path d="M16.6596 14.1393L13.1594 12.0392C12.8269 11.8397 12.3971 11.9483 12.199 12.2793C12.0002 12.6105 12.1073 13.041 12.4391 13.2398L15.9393 15.3399C16.052 15.4078 16.1766 15.4393 16.2984 15.4393C16.5364 15.4393 16.7681 15.3189 16.8997 15.0997C17.0985 14.768 16.9914 14.3382 16.6596 14.1393Z" fill="white" fill-opacity="0.2"/>
</svg>
