<svg width="17" height="17" viewBox="0 0 17 17" fill="none" xmlns="http://www.w3.org/2000/svg">
<path d="M10.5373 0.566501C10.4773 0.23805 10.1917 0 9.85847 0C4.53264 0 0.200195 3.71426 0.200195 8.28C0.200195 12.845 4.53261 16.56 9.85847 16.56C10.1917 16.56 10.4773 16.3213 10.5373 15.9928L10.6084 15.603C11.4514 10.6426 11.4507 5.71252 10.607 0.948772L10.5373 0.566501Z" fill="url(#paint0_linear_297_23)"/>
<path d="M13.2627 2.87043H16.0595C16.4461 2.87043 16.7587 2.52423 16.7587 2.09765C16.7587 1.67106 16.4462 1.32483 16.0595 1.32483H13.2627C12.876 1.32483 12.5635 1.67103 12.5635 2.09761C12.5635 2.52419 12.876 2.87043 13.2627 2.87043Z" fill="#20A1FB"/>
<path d="M16.0595 5.52002H13.2627C12.876 5.52002 12.5635 5.81677 12.5635 6.18242C12.5635 6.54807 12.876 6.84482 13.2627 6.84482H16.0595C16.4461 6.84482 16.7587 6.54807 16.7587 6.18242C16.7587 5.81677 16.4462 5.52002 16.0595 5.52002Z" fill="#20A1FB"/>
<path d="M16.0595 9.71521H13.2627C12.876 9.71521 12.5635 10.012 12.5635 10.3776C12.5635 10.7433 12.876 11.04 13.2627 11.04H16.0595C16.4461 11.04 16.7587 10.7433 16.7587 10.3776C16.7587 10.012 16.4462 9.71521 16.0595 9.71521Z" fill="#20A1FB"/>
<path d="M16.0595 13.9104H13.2627C12.876 13.9104 12.5635 14.2072 12.5635 14.5728C12.5635 14.9385 12.876 15.2352 13.2627 15.2352H16.0595C16.4461 15.2352 16.7587 14.9385 16.7587 14.5728C16.7587 14.2072 16.4462 13.9104 16.0595 13.9104Z" fill="#20A1FB"/>
<defs>
<linearGradient id="paint0_linear_297_23" x1="5.72019" y1="0" x2="5.72019" y2="16.56" gradientUnits="userSpaceOnUse">
<stop stop-color="#20A1FB"/>
<stop offset="0.802885" stop-color="#1775B6"/>
</linearGradient>
</defs>
</svg>
