<svg width="82" height="32" viewBox="0 0 82 32" fill="none" xmlns="http://www.w3.org/2000/svg">
<path d="M0 3.84C0 1.71923 1.71923 0 3.84 0H78.16C80.2808 0 82 1.71923 82 3.84V28.16C82 30.2808 80.2808 32 78.16 32H3.84C1.71922 32 0 30.2808 0 28.16V3.84Z" fill="black" fill-opacity="0.5"/>
<rect x="50" y="6" width="20" height="20" rx="3.24" fill="white"/>
<path d="M59.1032 19.8704V16.9832H62.7464V15.4928H59.1032V12.548H63.7256V11H57.1592V21.4112H63.7256V19.8704H59.1032Z" fill="url(#paint0_linear_9536_10)"/>
<circle cx="21.9219" cy="15.9219" r="8" fill="black" fill-opacity="0.55"/>
<path d="M20.3964 19.8429L17.1464 16.3563C16.9512 16.1468 16.9512 15.8072 17.1464 15.5977L17.8535 14.8391C18.0488 14.6296 18.3654 14.6296 18.5606 14.8391L20.75 17.1878L25.4394 12.1571C25.6346 11.9476 25.9512 11.9476 26.1465 12.1571L26.8536 12.9157C27.0488 13.1252 27.0488 13.4648 26.8536 13.6743L21.1036 19.8429C20.9083 20.0524 20.5917 20.0524 20.3964 19.8429Z" fill="white"/>
<path d="M32 16C32 21.5228 27.5228 26 22 26C16.4772 26 12 21.5228 12 16C12 10.4772 16.4772 6 22 6C27.5228 6 32 10.4772 32 16ZM13.9068 16C13.9068 20.4697 17.5303 24.0932 22 24.0932C26.4697 24.0932 30.0932 20.4697 30.0932 16C30.0932 11.5303 26.4697 7.90682 22 7.90682C17.5303 7.90682 13.9068 11.5303 13.9068 16Z" fill="url(#paint1_linear_9536_10)"/>
<defs>
<linearGradient id="paint0_linear_9536_10" x1="60" y1="22" x2="60" y2="11" gradientUnits="userSpaceOnUse">
<stop/>
<stop offset="1"/>
</linearGradient>
<linearGradient id="paint1_linear_9536_10" x1="22" y1="6" x2="22" y2="26" gradientUnits="userSpaceOnUse">
<stop stop-color="#38DC66"/>
<stop offset="1" stop-color="#33963C"/>
</linearGradient>
</defs>
</svg>
