<svg width="16" height="16" viewBox="0 0 16 16" fill="none" xmlns="http://www.w3.org/2000/svg">
<path d="M13.0749 12.9892H8.03583L5.52741 15.4908C5.18703 15.8303 4.76911 16 4.27364 16C3.77817 16 3.35995 15.8303 3.01898 15.4908L0.510564 12.9892C0.170188 12.6497 0 12.2291 0 11.7273C0 11.2255 0.170188 10.8048 0.510564 10.4654L2.99679 7.98586V2.96041L13.0749 12.9892ZM3.75153 1.25575C5.33502 0.252134 7.04814 -0.149901 8.89091 0.0496407C10.7337 0.249183 12.3207 1.01281 13.652 2.34053C14.9833 3.66826 15.7493 5.25131 15.95 7.08969C16.1507 8.92807 15.7473 10.6363 14.7397 12.2143L13.4522 10.9303C14.1182 9.72004 14.3514 8.43984 14.1519 7.08969C13.9524 5.73953 13.364 4.57712 12.3867 3.60243C11.4094 2.62775 10.2441 2.04122 8.89091 1.84286C7.53769 1.6445 6.25374 1.87681 5.03904 2.53978L3.75153 1.25575ZM6.37094 3.86809C7.21448 3.61719 8.06542 3.56553 8.92376 3.71312C9.7821 3.86071 10.522 4.24445 11.1436 4.86433C11.7652 5.4842 12.1464 6.21861 12.2873 7.06755C12.4282 7.91649 12.3725 8.7613 12.1203 9.60197L10.6108 8.09655C10.6108 7.72757 10.5555 7.36982 10.4448 7.02327C10.3341 6.67673 10.1527 6.37771 9.90049 6.12622C9.63411 5.86056 9.32718 5.66869 8.9797 5.55062C8.63222 5.43255 8.2658 5.37351 7.88044 5.37351L6.37094 3.86809Z" fill="white" fill-opacity="0.2"/>
</svg>
