<svg width="33" height="24" viewBox="0 0 33 24" fill="none" xmlns="http://www.w3.org/2000/svg">
<path d="M20.484 18.4384C20.484 17.9604 20.0154 17.573 19.4375 17.573H13.979C13.4011 17.573 12.9326 17.9604 12.9326 18.4384V20.1467L2.52718 11.55L12.9326 2.9534V4.66165C12.9326 5.13972 13.4011 5.52708 13.979 5.52708H30.5796V17.573H18.7682C18.1903 17.573 18.4905 18.1942 18.4905 18.6723C18.4905 19.1503 18.8596 19.304 19.4375 19.304H31.6906C32.2685 19.304 33 19.1503 33 18.6723V4.42788C33 3.94982 32.2685 3.7961 31.6906 3.7961H15.0255V0.865513C15.0255 0.515531 14.7706 0.200052 14.3798 0.0659675C13.9888 -0.0680016 13.5388 0.00584884 13.2394 0.253247L0.306829 10.9378C0.110369 11.1 0 11.3203 0 11.55C0 11.7798 0.110369 11.9999 0.306829 12.1623L13.2394 22.8468C13.4396 23.0123 13.7071 23.1 13.9792 23.1C14.1141 23.1 14.2502 23.0784 14.3798 23.0341C14.7706 22.9 15.0255 22.5845 15.0255 22.2346V19.304H19.4375C20.0154 19.3039 20.484 18.9164 20.484 18.4384Z" fill="white" fill-opacity="0.2"/>
</svg>
