<svg width="74" height="95" viewBox="0 0 74 95" fill="none" xmlns="http://www.w3.org/2000/svg">
<path d="M69.5922 44.0782H65.9549C65.8276 44.0782 65.72 44.1379 65.5956 44.1502C64.5153 34.3122 59.2311 25.7494 51.4059 20.5081V4.05167C51.4059 2.05191 49.7852 0.431152 47.7854 0.431152H18.6539C16.6542 0.431152 15.0334 2.05191 15.0334 4.05167V20.5073C6.2647 26.3815 0.484375 36.3687 0.484375 47.7155C0.484375 59.0622 6.2647 69.0494 15.0334 74.9228V91.3785C15.0334 93.3783 16.6542 94.9998 18.6539 94.9998H47.7847C49.7852 94.9998 51.4059 93.3783 51.4059 91.3785V74.9228C59.2311 69.6816 64.5153 61.1187 65.5956 51.28C65.72 51.2931 65.8276 51.3527 65.9549 51.3527H69.5922C71.6007 51.3527 73.2295 49.7239 73.2295 47.7155C73.2295 45.7062 71.6007 44.0782 69.5922 44.0782ZM33.2197 73.1762C19.158 73.1762 7.75888 61.7771 7.75888 47.7155C7.75888 33.6538 19.158 22.2547 33.2197 22.2547C47.2813 22.2547 58.6804 33.6538 58.6804 47.7155C58.6804 61.7771 47.2813 73.1762 33.2197 73.1762Z" fill="white"/>
<path d="M44.131 44.0783H36.8565V33.1666C36.8565 31.1573 35.2278 29.5293 33.2193 29.5293C31.2108 29.5293 29.582 31.1573 29.582 33.1666V47.7156C29.582 49.7241 31.2108 51.3528 33.2193 51.3528H44.131C46.1395 51.3528 47.7683 49.7241 47.7683 47.7156C47.7683 45.7063 46.1395 44.0783 44.131 44.0783Z" fill="white"/>
</svg>
