<svg width="62" height="69" viewBox="0 0 62 69" fill="none" xmlns="http://www.w3.org/2000/svg">
<path d="M15.3366 0L0.56132 5.90919L1.5858 8.47347L11.3491 4.56724L9.78475 10.8108C6.85546 11.3476 4.60098 13.9241 4.60098 17.0068C4.60098 20.0587 6.80945 22.62 9.70807 23.1874C8.37378 25.9633 6.7481 29.4601 5.11169 33.4783C2.37564 40.165 0 47.5266 0 51.9742C0 55.2716 1.30821 57.5721 3.31577 59.1824C5.32487 60.7774 8.09773 61.6363 10.889 61.6363C13.6802 61.6363 16.4562 60.7774 18.4653 59.1824C20.4744 57.5721 21.778 55.2716 21.778 51.9742C21.778 47.5266 19.4008 40.165 16.6709 33.4783C15.0299 29.4601 13.4042 25.9633 12.0699 23.1874C14.9685 22.62 17.177 20.0587 17.177 17.0068C17.177 14.1388 15.2292 11.7156 12.5914 10.9641L15.3366 0ZM54.5983 0.00613478L39.8292 5.91686L40.8414 8.48114L50.6108 4.57644L49.0464 10.8108C46.1172 11.3476 43.8627 13.9241 43.8627 17.0068C43.8627 20.0587 46.0711 22.62 48.9698 23.1874C47.6355 25.9633 46.0098 29.4601 44.3688 33.4783C41.6389 40.165 39.2617 47.5266 39.2617 51.9742C39.2617 55.2716 40.5653 57.5721 42.5744 59.1824C44.5835 60.7774 47.3594 61.6363 50.1507 61.6363C52.9419 61.6363 55.7179 60.7774 57.727 59.1824C59.7361 57.5721 61.0397 55.2716 61.0397 51.9742C61.0397 47.5266 58.6625 40.165 55.9326 33.4783C54.2916 29.4601 52.6659 25.9633 51.3316 23.1874C54.2302 22.62 56.4387 20.0587 56.4387 17.0068C56.4387 14.1388 54.4909 11.7156 51.8531 10.9641L54.5983 0.00613478ZM10.889 13.4793C12.8521 13.4793 14.4164 15.0437 14.4164 17.0068C14.4164 18.9698 12.8521 20.5342 10.889 20.5342C8.9259 20.5342 7.36157 18.9698 7.36157 17.0068C7.36157 15.0437 8.9259 13.4793 10.889 13.4793ZM50.1507 13.4793C52.1138 13.4793 53.6781 15.0437 53.6781 17.0068C53.6781 18.9698 52.1138 20.5342 50.1507 20.5342C48.1876 20.5342 46.6233 18.9698 46.6233 17.0068C46.6233 15.0437 48.1876 13.4793 50.1507 13.4793ZM10.889 64.3969C9.81542 64.3969 8.86456 64.7343 8.25109 65.1944C7.62229 65.6698 7.36157 66.1759 7.36157 66.6973C7.36157 67.2188 7.62229 67.7249 8.25109 68.2003C8.86456 68.6604 9.81542 68.9978 10.889 68.9978C11.9625 68.9978 12.9134 68.6604 13.5269 68.2003C14.1557 67.7249 14.4164 67.2188 14.4164 66.6973C14.4164 66.1759 14.1557 65.6698 13.5269 65.1944C12.9134 64.7343 11.9625 64.3969 10.889 64.3969ZM50.1507 64.3969C49.0771 64.3969 48.1263 64.7343 47.5128 65.1944C46.884 65.6698 46.6233 66.1759 46.6233 66.6973C46.6233 67.2188 46.884 67.7249 47.5128 68.2003C48.1263 68.6604 49.0771 68.9978 50.1507 68.9978C51.2242 68.9978 52.1751 68.6604 52.7886 68.2003C53.4174 67.7249 53.6781 67.2188 53.6781 66.6973C53.6781 66.1759 53.4174 65.6698 52.7886 65.1944C52.1751 64.7343 51.2242 64.3969 50.1507 64.3969Z" fill="white"/>
</svg>
