<svg width="50" height="49" viewBox="0 0 50 49" fill="none" xmlns="http://www.w3.org/2000/svg">
<path d="M36.0671 46.4951C36.5958 46.281 36.8508 45.6788 36.6366 45.1501C36.4225 44.6215 35.8203 44.3665 35.2917 44.5807C34.1153 45.0585 32.8982 45.4203 31.6579 45.6626C30.4214 45.9041 29.1579 46.0266 27.8847 46.0266C22.4506 46.0266 17.5311 43.8241 13.9701 40.2631C10.4091 36.7022 8.20661 31.7826 8.20661 26.3486C8.20661 20.9145 10.4091 15.995 13.9701 12.434C17.531 8.87303 22.4506 6.67051 27.8847 6.67051C33.3188 6.67051 38.2383 8.87303 41.7993 12.434C45.3602 15.9949 47.5628 20.9145 47.5628 26.3486C47.5628 28.3516 47.2589 30.3272 46.6713 32.2105C46.0818 34.0999 45.2092 35.8985 44.074 37.5406C43.7505 38.009 43.8681 38.651 44.3365 38.9744C44.8049 39.2978 45.4468 39.1803 45.7703 38.7119C47.0278 36.8927 47.9927 34.9062 48.6422 32.8243C49.2937 30.7361 49.6307 28.5536 49.6307 26.3486C49.6307 20.3437 47.1966 14.9072 43.2614 10.9718C39.3261 7.03659 33.8896 4.60254 27.8846 4.60254C21.8798 4.60254 16.4432 7.03659 12.508 10.9719C8.57272 14.9072 6.13867 20.3437 6.13867 26.3485C6.13867 32.3533 8.57272 37.7898 12.508 41.7251C16.4433 45.6604 21.8798 48.0945 27.8846 48.0945C29.2836 48.0945 30.6797 47.9584 32.0536 47.69C33.4235 47.4224 34.7679 47.0229 36.0671 46.4951Z" fill="#FFFFFE"/>
<path d="M11.5077 40.9264C12.0095 41.194 12.6334 41.0042 12.9011 40.5023C13.1688 40.0004 12.9789 39.3765 12.477 39.1089C9.27313 37.3986 6.67026 34.8746 4.86814 31.8698C3.06789 28.868 2.06796 25.3825 2.06796 21.746C2.06796 16.3119 4.27048 11.3924 7.83142 7.83138C11.3924 4.27045 16.312 2.06792 21.746 2.06792C24.5074 2.06792 27.2032 2.64673 29.6731 3.73369C32.1502 4.82387 34.3993 6.4196 36.2593 8.45002C36.6429 8.86934 37.2939 8.89831 37.7132 8.51466C38.1326 8.13102 38.1615 7.48002 37.7779 7.06069C35.7146 4.80837 33.2313 3.0433 30.5051 1.84353C27.7717 0.640591 24.7928 0 21.746 0C15.7412 0 10.3046 2.43405 6.36931 6.36931C2.43405 10.3046 0 15.7411 0 21.746C0 25.7558 1.10662 29.6058 3.09906 32.9281C5.08975 36.2472 7.96617 39.0359 11.5077 40.9264Z" fill="#FFFFFE"/>
<path d="M9.85078 5.80273C11.0225 5.80273 12.0989 6.1531 12.8919 6.71954C13.7867 7.35868 14.3403 8.27101 14.3403 9.3049C14.3403 10.3388 13.7867 11.2511 12.8919 11.8902C12.0989 12.4567 11.0225 12.807 9.85078 12.807C8.67901 12.807 7.60262 12.4566 6.80965 11.8902C5.91487 11.2511 5.36133 10.3388 5.36133 9.3049C5.36133 8.27098 5.91487 7.35868 6.80961 6.71954C7.60266 6.1531 8.67905 5.80273 9.85078 5.80273ZM11.6965 8.39965C11.2389 8.07284 10.5875 7.87065 9.85078 7.87065C9.1141 7.87065 8.46263 8.07284 8.00508 8.39965C7.64933 8.65374 7.42925 8.97563 7.42925 9.3049C7.42925 9.63416 7.64933 9.95598 8.00511 10.2101C8.46268 10.5369 9.1141 10.7391 9.85078 10.7391C10.5875 10.7391 11.2389 10.5369 11.6965 10.2101C12.0523 9.95598 12.2723 9.63416 12.2723 9.3049C12.2723 8.97563 12.0523 8.65378 11.6965 8.39965Z" fill="#FFFFFE"/>
<path d="M5.25086 15.3423C6.29352 15.3423 7.25319 15.6553 7.96166 16.1614C8.77187 16.7401 9.27313 17.5689 9.27313 18.5107C9.27313 19.4524 8.77191 20.2813 7.96166 20.8601C7.25318 21.3661 6.29352 21.6791 5.25086 21.6791C4.20812 21.6791 3.2485 21.3661 2.54003 20.8601C1.72973 20.2813 1.22852 19.4524 1.22852 18.5107C1.22852 17.569 1.72974 16.7401 2.53999 16.1614C3.24847 15.6553 4.2082 15.3423 5.25086 15.3423ZM6.7662 17.8415C6.39317 17.575 5.85852 17.4102 5.25086 17.4102C4.64321 17.4102 4.10849 17.575 3.73544 17.8415C3.46423 18.0352 3.29643 18.2736 3.29643 18.5107C3.29643 18.7478 3.46427 18.9862 3.73548 19.1799C4.10852 19.4464 4.6432 19.6112 5.25086 19.6112C5.85852 19.6112 6.39316 19.4464 6.7662 19.1799C7.03742 18.9862 7.20522 18.7478 7.20522 18.5107C7.20522 18.2736 7.03742 18.0352 6.7662 17.8415Z" fill="#FFFFFE"/>
<path d="M19.4461 0.933594C20.4888 0.933594 21.4485 1.2466 22.1569 1.75266C22.9671 2.33143 23.4684 3.1603 23.4684 4.10207C23.4684 5.04379 22.9672 5.87267 22.1569 6.4514C21.4485 6.95747 20.4888 7.27047 19.4461 7.27047C18.4034 7.27047 17.4438 6.95743 16.7353 6.4514C15.925 5.87267 15.4238 5.04376 15.4238 4.10207C15.4238 3.16035 15.9251 2.33143 16.7353 1.75266C17.4438 1.24667 18.4034 0.933594 19.4461 0.933594ZM20.9614 3.43279C20.5884 3.16634 20.0538 3.00152 19.4461 3.00152C18.8384 3.00152 18.3038 3.16638 17.9308 3.43279C17.6595 3.6265 17.4917 3.86497 17.4917 4.10207C17.4917 4.33917 17.6595 4.57757 17.9308 4.77128C18.3038 5.03773 18.8384 5.20255 19.4461 5.20255C20.0537 5.20255 20.5884 5.03773 20.9614 4.77128C21.2327 4.57757 21.4005 4.33917 21.4005 4.10207C21.4005 3.86497 21.2327 3.62654 20.9614 3.43279Z" fill="#FFFFFE"/>
</svg>
