<svg width="34" height="45" viewBox="0 0 34 45" fill="none" xmlns="http://www.w3.org/2000/svg">
<path d="M33.2385 27.6988C33.2385 36.8774 25.7979 44.318 16.6193 44.318C7.44062 44.318 0 36.8774 0 27.6988C0 20.8727 4.12305 15.0205 10.0081 12.4626L10.6585 12.9686L13.5166 15.1915C7.89082 16.5904 3.69317 21.646 3.69317 27.6988C3.69317 34.8262 9.49181 40.6248 16.6193 40.6248C23.7467 40.6248 29.5453 34.8262 29.5453 27.6988C29.5453 21.646 25.3477 16.5904 19.7219 15.1915L23.2304 12.463C29.1155 15.0208 33.2385 20.8727 33.2385 27.6988ZM16.6193 12.9261L25.8522 5.74472L22.159 0H11.0795L7.38633 5.74472L12.9261 10.0535L16.6193 12.9261Z" fill="white"/>
</svg>
