<svg width="12" height="12" viewBox="0 0 12 12" fill="none" xmlns="http://www.w3.org/2000/svg">
<path d="M4.55632 3.97705L0.75939 4.30425L0.623431 4.73747L1.36955 4.83209C1.85702 4.9119 1.95318 5.03274 1.84707 5.36678L0.623431 9.3205C0.30177 10.3431 0.797526 10.8242 1.96313 10.8242C2.86677 10.8242 3.91631 10.5369 4.39217 10.1425L4.53808 9.66822C4.20647 9.86887 3.72232 9.94867 3.40066 9.94867C2.94469 9.94867 2.77889 9.72864 2.89661 9.34102L4.55632 3.97705Z" fill="white" fill-opacity="0.9"/>
<path d="M3.01644 3.07699C3.93216 3.07699 4.67449 2.56657 4.67449 1.93693C4.67449 1.3073 3.93216 0.796875 3.01644 0.796875C2.10073 0.796875 1.3584 1.3073 1.3584 1.93693C1.3584 2.56657 2.10073 3.07699 3.01644 3.07699Z" fill="white" fill-opacity="0.9"/>
</svg>
