<svg width="12" height="12" viewBox="0 0 12 12" fill="none" xmlns="http://www.w3.org/2000/svg">
<path d="M3.8973 11.3495C0.610155 6.58414 0 6.09506 0 4.34371C0 1.94474 1.94474 0 4.3437 0C6.74267 0 8.68741 1.94474 8.68741 4.34371C8.68741 6.09506 8.07726 6.58414 4.79011 11.3495C4.5744 11.6611 4.11299 11.6611 3.8973 11.3495ZM4.3437 6.15359C5.34328 6.15359 6.15358 5.34329 6.15358 4.34371C6.15358 3.34414 5.34328 2.53383 4.3437 2.53383C3.34413 2.53383 2.53383 3.34414 2.53383 4.34371C2.53383 5.34329 3.34413 6.15359 4.3437 6.15359Z" fill="white" fill-opacity="0.8"/>
</svg>
