<svg width="24" height="25" viewBox="0 0 24 25" fill="none" xmlns="http://www.w3.org/2000/svg">
<ellipse cx="11.8419" cy="12.1599" rx="9.92" ry="10.24" fill="black" fill-opacity="0.55"/>
<path d="M9.7775 16.0227L6.8525 12.9719C6.67677 12.7886 6.67677 12.4914 6.8525 12.3081L7.48888 11.6444C7.66461 11.4611 7.94955 11.4611 8.12528 11.6444L10.0957 13.6995L14.3161 9.29762C14.4919 9.11434 14.7768 9.11434 14.9525 9.29762L15.5889 9.96138C15.7646 10.1447 15.7646 10.4418 15.5889 10.6251L10.4139 16.0227C10.2382 16.206 9.95323 16.206 9.7775 16.0227Z" fill="white"/>
<path d="M23.68 12.16C23.68 18.8758 18.3791 24.32 11.84 24.32C5.30095 24.32 0 18.8758 0 12.16C0 5.44422 5.30095 0 11.84 0C18.3791 0 23.68 5.44422 23.68 12.16ZM2.25768 12.16C2.25768 17.5952 6.54783 22.0013 11.84 22.0013C17.1322 22.0013 21.4223 17.5952 21.4223 12.16C21.4223 6.7248 17.1322 2.31869 11.84 2.31869C6.54783 2.31869 2.25768 6.7248 2.25768 12.16Z" fill="url(#paint0_linear_4638_2)"/>
<defs>
<linearGradient id="paint0_linear_4638_2" x1="11.84" y1="0" x2="11.84" y2="24.32" gradientUnits="userSpaceOnUse">
<stop stop-color="#38DC66"/>
<stop offset="1" stop-color="#33963C"/>
</linearGradient>
</defs>
</svg>
