<svg width="24" height="25" viewBox="0 0 24 25" fill="none" xmlns="http://www.w3.org/2000/svg">
<ellipse cx="11.8419" cy="12.1599" rx="9.92" ry="10.24" fill="black" fill-opacity="0.55"/>
<path d="M8.93694 8L7.5 9.43694L8.23376 10.1707L10.0478 12.0153L8.23376 13.8293L7.5 14.5325L8.93694 16L9.6707 15.2662L11.5153 13.4217L13.3293 15.2662L14.0325 16L15.5 14.5325L14.7662 13.8293L12.9217 12.0153L14.7662 10.1707L15.5 9.43694L14.0325 8L13.3293 8.73376L11.5153 10.5478L9.6707 8.73376L8.93694 8Z" fill="white"/>
<path d="M23.68 12.16C23.68 18.8758 18.3791 24.32 11.84 24.32C5.30095 24.32 0 18.8758 0 12.16C0 5.44422 5.30095 0 11.84 0C18.3791 0 23.68 5.44422 23.68 12.16ZM2.25768 12.16C2.25768 17.5952 6.54783 22.0013 11.84 22.0013C17.1322 22.0013 21.4223 17.5952 21.4223 12.16C21.4223 6.7248 17.1322 2.31869 11.84 2.31869C6.54783 2.31869 2.25768 6.7248 2.25768 12.16Z" fill="url(#paint0_linear_4638_2)"/>
<defs>
<linearGradient id="paint0_linear_4638_2" x1="11.84" y1="0" x2="11.84" y2="24.32" gradientUnits="userSpaceOnUse">
<stop stop-color="#DF1F20"/>
<stop offset="1" stop-color="#C31D30"/>
</linearGradient>
</defs>
</svg>
