<svg width="24" height="25" viewBox="0 0 24 25" fill="none" xmlns="http://www.w3.org/2000/svg">
<ellipse cx="11.8419" cy="12.1599" rx="9.92" ry="10.24" fill="black" fill-opacity="0.55"/>
<path d="M8.55859 14.9147C8.55859 15.8228 9.29474 16.5589 10.2028 16.5589H13.4912C14.3993 16.5589 15.1355 15.8228 15.1355 14.9147V14.9147C15.1347 14.3044 14.892 13.7193 14.4605 13.2878C14.0289 12.8563 13.4438 12.6135 12.8336 12.6128H10.8605C10.2502 12.6135 9.66513 12.8563 9.23359 13.2878C8.80206 13.7193 8.55931 14.3044 8.55859 14.9147V14.9147Z" fill="white"/>
<path d="M9.54688 9.65274C9.54688 10.108 9.68188 10.5531 9.93482 10.9316C10.1878 11.3102 10.5473 11.6052 10.9679 11.7794C11.3885 11.9536 11.8513 11.9992 12.2979 11.9104C12.7444 11.8216 13.1545 11.6024 13.4765 11.2804C13.7984 10.9585 14.0176 10.5483 14.1064 10.1018C14.1953 9.65529 14.1497 9.19245 13.9755 8.77183C13.8012 8.35122 13.5062 7.99171 13.1276 7.73877C12.7491 7.48583 12.304 7.35083 11.8488 7.35083C11.2383 7.35083 10.6528 7.59335 10.2211 8.02504C9.7894 8.45673 9.54688 9.04223 9.54688 9.65274Z" fill="white"/>
<path d="M23.68 12.16C23.68 18.8758 18.3791 24.32 11.84 24.32C5.30095 24.32 0 18.8758 0 12.16C0 5.44422 5.30095 0 11.84 0C18.3791 0 23.68 5.44422 23.68 12.16ZM2.25768 12.16C2.25768 17.5952 6.54783 22.0013 11.84 22.0013C17.1322 22.0013 21.4223 17.5952 21.4223 12.16C21.4223 6.7248 17.1322 2.31869 11.84 2.31869C6.54783 2.31869 2.25768 6.7248 2.25768 12.16Z" fill="url(#paint0_linear_4638_2)"/>
<defs>
<linearGradient id="paint0_linear_4638_2" x1="11.84" y1="0" x2="11.84" y2="24.32" gradientUnits="userSpaceOnUse">
<stop stop-color="#FBD204"/>
<stop offset="1" stop-color="#FBCD04"/>
</linearGradient>
</defs>
</svg>
