<svg width="34" height="29" viewBox="0 0 34 29" fill="none" xmlns="http://www.w3.org/2000/svg">
<path d="M10.2687 13.6444L12.8448 5.2301L18.3537 17.8335L19.5726 13.5759H32.8348C33.1545 12.5361 33.3393 11.3391 33.3393 10.1C33.3393 9.59572 33.3083 9.09984 33.2499 8.61237L33.2558 8.67121C32.9207 6.11739 31.548 1.34595 25.9878 0.249738C25.2925 0.103257 24.4875 0.0132073 23.6646 0H23.6538H23.4904C20.7879 0.0480266 18.368 1.22348 16.6661 3.07731L16.6601 3.08331C14.9511 1.22468 12.5312 0.050428 9.83817 0H9.82862H9.66285C8.82918 0.0132073 8.02534 0.103257 7.24535 0.264146L7.32883 0.249738C3.34061 1.11902 0.349446 4.5049 0.0620178 8.64239L0.0608251 8.67121C0.0226603 9.04221 0 9.47445 0 9.91029C0 11.243 0.203943 12.5265 0.583206 13.7332L0.559353 13.6432L10.2687 13.6444Z" fill="url(#paint0_linear_7526_73)"/>
<path d="M21.0511 15.5534L18.7433 23.6483L13.1688 10.8984L11.7269 15.6243H1.30078C3.07664 19.5817 7.21632 24.5476 16.655 28.8148C26.214 24.4924 30.3585 19.5204 32.1117 15.5594L21.0511 15.5534Z" fill="url(#paint1_linear_7526_73)"/>
<defs>
<linearGradient id="paint0_linear_7526_73" x1="16.6697" y1="0" x2="16.6697" y2="17.8335" gradientUnits="userSpaceOnUse">
<stop stop-color="white"/>
<stop offset="1" stop-color="#BEBEBE"/>
</linearGradient>
<linearGradient id="paint1_linear_7526_73" x1="16.7062" y1="10.8984" x2="16.7062" y2="28.8148" gradientUnits="userSpaceOnUse">
<stop stop-color="white"/>
<stop offset="1" stop-color="#BEBEBE"/>
</linearGradient>
</defs>
</svg>
