<svg width="28" height="27" viewBox="0 0 28 27" fill="none" xmlns="http://www.w3.org/2000/svg">
<g filter="url(#filter0_d_9932_344)">
<path d="M14.2646 0C8.05779 0 3 5.05779 3 11.2646C3 17.4713 8.05779 22.5291 14.2646 22.5291C20.4713 22.5291 25.5291 17.4713 25.5291 11.2646C25.5291 5.05779 20.4713 0 14.2646 0ZM18.7704 12.1094H15.1094V15.7704C15.1094 16.2322 14.7264 16.6152 14.2646 16.6152C13.8027 16.6152 13.4197 16.2322 13.4197 15.7704V12.1094H9.75874C9.29689 12.1094 8.91389 11.7264 8.91389 11.2646C8.91389 10.8027 9.29689 10.4197 9.75874 10.4197H13.4197V6.75874C13.4197 6.29689 13.8027 5.91389 14.2646 5.91389C14.7264 5.91389 15.1094 6.29689 15.1094 6.75874V10.4197H18.7704C19.2322 10.4197 19.6152 10.8027 19.6152 11.2646C19.6152 11.7264 19.2322 12.1094 18.7704 12.1094Z" fill="url(#paint0_linear_9932_344)"/>
</g>
<defs>
<filter id="filter0_d_9932_344" x="0.84" y="0" width="26.8473" height="26.8513" filterUnits="userSpaceOnUse" color-interpolation-filters="sRGB">
<feFlood flood-opacity="0" result="BackgroundImageFix"/>
<feColorMatrix in="SourceAlpha" type="matrix" values="0 0 0 0 0 0 0 0 0 0 0 0 0 0 0 0 0 0 127 0" result="hardAlpha"/>
<feOffset dy="2.16"/>
<feGaussianBlur stdDeviation="1.08"/>
<feComposite in2="hardAlpha" operator="out"/>
<feColorMatrix type="matrix" values="0 0 0 0 0 0 0 0 0 0 0 0 0 0 0 0 0 0 0.1 0"/>
<feBlend mode="normal" in2="BackgroundImageFix" result="effect1_dropShadow_9932_344"/>
<feBlend mode="normal" in="SourceGraphic" in2="effect1_dropShadow_9932_344" result="shape"/>
</filter>
<linearGradient id="paint0_linear_9932_344" x1="14.2646" y1="0" x2="14.2646" y2="22.5291" gradientUnits="userSpaceOnUse">
<stop stop-color="white"/>
<stop offset="1" stop-color="#D2D2D2" stop-opacity="0.868"/>
</linearGradient>
</defs>
</svg>
