<svg width="11" height="6" viewBox="0 0 11 6" fill="none" xmlns="http://www.w3.org/2000/svg">
<path d="M7.15523 0.5L8.53745 2.13333H9.45892C9.97034 2.13333 10.3804 2.49675 10.3804 2.95V4.175H9.45892C9.45892 4.85283 8.84153 5.4 8.07671 5.4C7.31188 5.4 6.69449 4.85283 6.69449 4.175H3.93005C3.93005 4.85283 3.31266 5.4 2.54784 5.4C1.78301 5.4 1.16562 4.85283 1.16562 4.175H0.244141V2.95C0.244141 2.49675 0.654198 2.13333 1.16562 2.13333L2.54784 0.5H7.15523ZM4.62116 1.1125H2.89339L2.02259 2.13333H4.62116V1.1125ZM5.31227 1.1125V2.13333H7.68047L6.80967 1.1125H5.31227ZM2.54784 3.5625C2.16542 3.5625 1.85673 3.83608 1.85673 4.175C1.85673 4.51392 2.16542 4.7875 2.54784 4.7875C2.93025 4.7875 3.23895 4.51392 3.23895 4.175C3.23895 3.83608 2.93025 3.5625 2.54784 3.5625ZM8.07671 3.5625C7.69429 3.5625 7.3856 3.83608 7.3856 4.175C7.3856 4.51392 7.69429 4.7875 8.07671 4.7875C8.45912 4.7875 8.76782 4.51392 8.76782 4.175C8.76782 3.83608 8.45912 3.5625 8.07671 3.5625Z" fill="white"/>
</svg>
