<svg width="17" height="17" viewBox="0 0 17 17" fill="none" xmlns="http://www.w3.org/2000/svg">
<path d="M13.974 11.1674C13.3125 11.168 12.6777 11.4424 12.2058 11.9317L5.55406 8.80326C5.55406 8.69661 5.55406 8.60773 5.55406 8.50108C5.55406 8.39443 5.55406 8.30555 5.55406 8.20779L12.2058 5.07043C12.6225 5.5015 13.1676 5.76705 13.7487 5.82199C14.3298 5.87692 14.9109 5.71785 15.3935 5.37179C15.8761 5.02572 16.2303 4.51401 16.396 3.92356C16.5617 3.3331 16.5286 2.70031 16.3025 2.13266C16.0763 1.565 15.6709 1.09749 15.1553 0.809509C14.6396 0.521532 14.0454 0.43085 13.4735 0.552866C12.9017 0.674881 12.3875 1.00207 12.0183 1.47886C11.649 1.95566 11.4476 2.55266 11.448 3.16847V3.47065L4.79626 6.59912C4.44124 6.23095 3.9911 5.98168 3.50234 5.88261C3.01358 5.78355 2.50798 5.83909 2.04902 6.04227C1.59006 6.24545 1.19819 6.58722 0.922608 7.02467C0.647021 7.46211 0.5 7.97574 0.5 8.50108C0.5 9.02642 0.647021 9.54005 0.922608 9.9775C1.19819 10.4149 1.59006 10.7567 2.04902 10.9599C2.50798 11.1631 3.01358 11.2186 3.50234 11.1195C3.9911 11.0205 4.44124 10.7712 4.79626 10.403L11.448 13.5404V13.8337C11.448 14.361 11.5962 14.8765 11.8737 15.315C12.1513 15.7535 12.5458 16.0952 13.0074 16.297C13.4689 16.4988 13.9768 16.5516 14.4668 16.4488C14.9568 16.3459 15.4069 16.0919 15.7602 15.7191C16.1134 15.3462 16.354 14.8711 16.4515 14.3539C16.5489 13.8367 16.4989 13.3005 16.3077 12.8133C16.1165 12.3261 15.7928 11.9097 15.3774 11.6167C14.962 11.3238 14.4736 11.1674 13.974 11.1674Z" fill="url(#paint0_linear_9129_358)"/>
<defs>
<linearGradient id="paint0_linear_9129_358" x1="8.5" y1="0.5" x2="8.5" y2="16.5" gradientUnits="userSpaceOnUse">
<stop stop-color="white"/>
<stop offset="1" stop-color="#B3B3B3"/>
</linearGradient>
</defs>
</svg>
