<svg width="22" height="15" viewBox="0 0 22 15" fill="none" xmlns="http://www.w3.org/2000/svg">
<path d="M10.6179 2.92864C10.2271 2.93471 9.83928 2.99635 9.46614 3.11169C9.63874 3.41309 9.73064 3.75339 9.73307 4.1001C9.73307 4.36932 9.67966 4.6359 9.57591 4.88462C9.47215 5.13335 9.32008 5.35934 9.12836 5.54971C8.93665 5.74007 8.70905 5.89108 8.45856 5.9941C8.20807 6.09713 7.9396 6.15015 7.66847 6.15015C7.3193 6.14775 6.97658 6.0565 6.67304 5.88511C6.43356 6.70982 6.46147 7.58843 6.75282 8.39651C7.04418 9.20459 7.5842 9.90116 8.29639 10.3876C9.00859 10.874 9.85685 11.1255 10.721 11.1066C11.5852 11.0877 12.4215 10.7993 13.1114 10.2822C13.8014 9.76515 14.31 9.04564 14.5652 8.2256C14.8204 7.40557 14.8093 6.52658 14.5335 5.71315C14.2577 4.89972 13.7311 4.19308 13.0283 3.69333C12.3256 3.19358 11.4823 2.92605 10.6179 2.92864ZM21.1075 6.49427C19.1082 2.62077 15.15 0 10.6179 0C6.08574 0 2.12651 2.6226 0.12828 6.49464C0.0439416 6.66029 0 6.84331 0 7.02893C0 7.21455 0.0439416 7.39757 0.12828 7.56323C2.12762 11.4367 6.08574 14.0575 10.6179 14.0575C15.15 14.0575 19.1093 11.4349 21.1075 7.56286C21.1918 7.3972 21.2358 7.21418 21.2358 7.02856C21.2358 6.84294 21.1918 6.65992 21.1075 6.49427ZM10.6179 12.3003C6.98089 12.3003 3.64657 10.2869 1.84595 7.02875C3.64657 3.77063 6.98052 1.75719 10.6179 1.75719C14.2553 1.75719 17.5892 3.77063 19.3898 7.02875C17.5896 10.2869 14.2553 12.3003 10.6179 12.3003Z" fill="url(#paint0_linear_9129_355)"/>
<defs>
<linearGradient id="paint0_linear_9129_355" x1="10.6179" y1="0" x2="10.6179" y2="14.0575" gradientUnits="userSpaceOnUse">
<stop stop-color="white"/>
<stop offset="1" stop-color="#B6B6B6"/>
</linearGradient>
</defs>
</svg>
