<svg width="23" height="23" viewBox="0 0 23 23" fill="none" xmlns="http://www.w3.org/2000/svg">
<path d="M4.95272 3.69275C4.8394 3.69131 4.72935 3.65461 4.63784 3.58776C4.54632 3.52092 4.4779 3.42723 4.44206 3.31972C4.40622 3.21221 4.40475 3.0962 4.43785 2.98782C4.47095 2.87943 4.53698 2.78404 4.62677 2.7149C6.58191 1.3317 8.93647 0.627319 11.33 0.709594C13.2149 0.709594 15.9217 1.02846 18.0616 2.56609C18.1786 2.65005 18.2577 2.77688 18.2816 2.91891C18.3055 3.06094 18.2723 3.20666 18.1891 3.32428C18.1028 3.44067 17.9743 3.5185 17.8311 3.54103C17.688 3.56356 17.5418 3.52898 17.4239 3.44474C15.6067 2.28989 13.4816 1.71415 11.33 1.79373C9.18192 1.72076 7.06823 2.3474 5.30702 3.57938C5.20674 3.6592 5.08071 3.69953 4.95272 3.69275Z" fill="white"/>
<path d="M19.9976 8.68873C19.9099 8.68793 19.8238 8.66631 19.7462 8.62565C19.6685 8.58499 19.6017 8.52647 19.5511 8.45489C18.3253 6.72594 16.1358 4.42303 11.3315 4.42303C9.73418 4.3828 8.15075 4.72903 6.71595 5.43224C5.28115 6.13545 4.03745 7.17484 3.09066 8.46198C3.00563 8.57789 2.8783 8.65556 2.73633 8.67811C2.59436 8.70067 2.44923 8.66629 2.33247 8.58244C2.27122 8.53981 2.21949 8.48492 2.18058 8.42124C2.14166 8.35756 2.11641 8.28649 2.10641 8.21254C2.09642 8.13859 2.10191 8.06336 2.12252 7.99164C2.14314 7.91992 2.17844 7.85326 2.22618 7.79591C3.27585 6.37791 4.65086 5.23288 6.23544 4.45724C7.82002 3.68159 9.56777 3.29805 11.3315 3.33889C15.3067 3.33889 18.2828 4.81275 20.4298 7.83134C20.5122 7.94983 20.5443 8.09614 20.5191 8.23823C20.4938 8.38033 20.4133 8.50665 20.2952 8.58953C20.2074 8.65028 20.1042 8.6847 19.9976 8.68873Z" fill="white"/>
<path d="M8.70758 21.967C8.59765 21.9664 8.49039 21.9331 8.39951 21.8712C8.30864 21.8094 8.23826 21.7219 8.19739 21.6198C8.16906 21.5531 8.15469 21.4812 8.15516 21.4087C8.15564 21.3362 8.17095 21.2645 8.20016 21.1981C8.22936 21.1318 8.27185 21.0721 8.32499 21.0227C8.37813 20.9734 8.44081 20.9354 8.50917 20.9112C11.6057 19.7208 13.4693 17.2832 13.4693 14.3851C13.4905 14.1005 13.45 13.8147 13.3506 13.5472C13.2513 13.2797 13.0954 13.0368 12.8936 12.835C12.6919 12.6332 12.4489 12.4773 12.1814 12.378C11.9139 12.2787 11.6281 12.2382 11.3435 12.2594C10.0256 12.2594 9.38782 12.9679 9.21776 14.6331C9.13868 15.412 8.76083 16.1298 8.16358 16.6359C7.56633 17.142 6.79618 17.3969 6.01494 17.347C5.59482 17.3531 5.17802 17.2717 4.79111 17.1078C4.4042 16.944 4.05566 16.7013 3.76769 16.3954C3.47972 16.0894 3.25863 15.7268 3.11851 15.3307C2.97839 14.9346 2.92231 14.5136 2.95385 14.0946C2.993 11.9038 3.89712 9.81742 5.4689 8.29078C7.04068 6.76413 9.15251 5.92116 11.3435 5.94584C13.5901 5.9458 15.7454 6.83484 17.3386 8.41876C18.9318 10.0027 19.8335 12.1527 19.8466 14.3993C19.7966 15.9811 19.463 17.5412 18.8616 19.0051C18.8039 19.1357 18.6979 19.2388 18.5658 19.293C18.4337 19.3471 18.2858 19.3481 18.1531 19.2956C18.0872 19.2685 18.0274 19.2286 17.977 19.1782C17.9267 19.1278 17.8869 19.0679 17.8599 19.002C17.8329 18.9361 17.8192 18.8655 17.8196 18.7943C17.8201 18.723 17.8347 18.6526 17.8625 18.587C18.4067 17.255 18.7113 15.8373 18.7624 14.3993C18.7531 12.4391 17.9668 10.5626 16.5761 9.18123C15.1854 7.79982 13.3037 7.0262 11.3435 7.02998C10.395 7.0112 9.45214 7.17969 8.56885 7.52583C7.68556 7.87196 6.87923 8.38893 6.19602 9.04713C5.51281 9.70532 4.96614 10.4918 4.58732 11.3616C4.2085 12.2314 4.00497 13.1673 3.98838 14.1159C3.95934 14.3915 3.98902 14.6702 4.07547 14.9336C4.16192 15.197 4.30318 15.4391 4.48995 15.6439C4.67673 15.8488 4.90477 16.0117 5.15907 16.1221C5.41337 16.2324 5.68816 16.2877 5.96534 16.2841C6.22052 16.3095 6.4782 16.2841 6.72349 16.2093C6.96879 16.1346 7.19685 16.0119 7.39449 15.8486C7.59214 15.6852 7.75546 15.4842 7.87503 15.2574C7.99459 15.0305 8.06803 14.7822 8.09111 14.5268C8.3462 12.3231 9.43034 11.2036 11.3223 11.2036C11.751 11.1819 12.1795 11.2509 12.5798 11.406C12.9801 11.5611 13.3432 11.7988 13.6454 12.1037C13.9477 12.4086 14.1822 12.7738 14.3338 13.1754C14.4853 13.5771 14.5505 14.0062 14.5251 14.4347C14.5251 17.7934 12.3993 20.6136 8.85638 21.967C8.80694 21.9727 8.75702 21.9727 8.70758 21.967Z" fill="white"/>
<path d="M14.0044 21.4575C13.8687 21.4553 13.7381 21.4051 13.6359 21.3158C13.5854 21.2657 13.5452 21.2061 13.5179 21.1404C13.4905 21.0748 13.4764 21.0043 13.4764 20.9331C13.4764 20.862 13.4905 20.7915 13.5179 20.7259C13.5452 20.6602 13.5854 20.6006 13.6359 20.5505C15.2301 18.898 16.1282 16.696 16.1443 14.4C16.1443 13.2946 15.8042 9.68785 11.3968 9.68785C10.7546 9.66526 10.1143 9.7708 9.51332 9.9983C8.91233 10.2258 8.36266 10.5707 7.89639 11.0129C7.4792 11.4257 7.14938 11.9182 6.9266 12.4612C6.70382 13.0041 6.59263 13.5864 6.59967 14.1732C6.59781 14.3167 6.5395 14.4537 6.43738 14.5544C6.33526 14.6552 6.19754 14.7118 6.05406 14.7117C5.98274 14.7127 5.91195 14.6994 5.8458 14.6728C5.77964 14.6462 5.71943 14.6066 5.66867 14.5565C5.61791 14.5064 5.57761 14.4468 5.55011 14.3809C5.5226 14.3151 5.50844 14.2445 5.50845 14.1732C5.4974 13.4473 5.63079 12.7264 5.90084 12.0525C6.17089 11.3786 6.57223 10.7651 7.08151 10.2476C7.64604 9.7058 8.31256 9.28146 9.04239 8.99926C9.77222 8.71706 10.5508 8.58261 11.333 8.60371C15.6412 8.60371 17.1718 11.7215 17.1718 14.4C17.1625 16.9558 16.1735 19.4107 14.4083 21.2591C14.3596 21.3197 14.2982 21.3689 14.2284 21.4032C14.1586 21.4374 14.0821 21.456 14.0044 21.4575Z" fill="white"/>
<path d="M6.14174 19.6587C5.77238 19.6579 5.40335 19.6366 5.03634 19.595C4.96562 19.587 4.89715 19.5653 4.83484 19.5309C4.77253 19.4965 4.7176 19.4502 4.67319 19.3946C4.62877 19.339 4.59575 19.2752 4.57599 19.2069C4.55623 19.1385 4.55014 19.0669 4.55805 18.9962C4.56595 18.9255 4.58772 18.857 4.62209 18.7947C4.65646 18.7324 4.70277 18.6775 4.75837 18.633C4.81396 18.5886 4.87777 18.5556 4.94613 18.5358C5.0145 18.5161 5.08608 18.51 5.1568 18.5179C6.92119 18.7163 8.31002 18.4045 9.29495 17.5826C9.74896 17.1766 10.1161 16.6829 10.3743 16.1312C10.6324 15.5796 10.7763 14.9814 10.7972 14.3727C10.8007 14.3009 10.8187 14.2306 10.8501 14.166C10.8816 14.1014 10.9258 14.0439 10.9801 13.9969C11.0344 13.9498 11.0977 13.9143 11.1661 13.8924C11.2345 13.8706 11.3067 13.8628 11.3782 13.8696C11.521 13.8805 11.6541 13.9464 11.7493 14.0535C11.8444 14.1605 11.8943 14.3004 11.8884 14.4435C11.8585 15.2014 11.6748 15.9453 11.3483 16.6299C11.0218 17.3145 10.5595 17.9255 9.98937 18.4258C8.89561 19.2838 7.53048 19.7213 6.14174 19.6587Z" fill="white"/>
</svg>
