<svg width="24" height="15" viewBox="0 0 24 15" fill="none" xmlns="http://www.w3.org/2000/svg">
<path fill-rule="evenodd" clip-rule="evenodd" d="M18.6355 7.35066C18.005 8.69537 15.468 10.3246 11.7315 10.3246C8.01851 10.3246 5.37744 8.7159 4.82166 7.37266C2.01636 7.49877 0 9.17636 0 10.1735C0 11.8277 5.25133 14.1739 11.7315 14.1739C18.2103 14.1739 23.4631 11.8277 23.4631 10.1735C23.4631 9.16316 21.4467 7.87564 18.6355 7.35066Z" fill="url(#paint0_linear_9734_438)"/>
<path fill-rule="evenodd" clip-rule="evenodd" d="M14.7812 7.62939e-05C14.0245 7.62939e-05 12.4613 0.519191 11.753 0.519191C11.0447 0.519191 9.48144 7.62939e-05 8.72623 7.62939e-05C7.09261 7.62939e-05 6.07196 2.01201 5.92972 2.78188L5.90039 6.3409C6.72453 7.08291 8.26283 8.01555 9.94924 8.15633C10.5358 8.20472 11.1547 8.23405 11.7984 8.23405C12.4393 8.23405 13.0566 8.20472 13.6447 8.15633C15.3311 8.01409 16.6861 7.19729 17.5571 6.36583L17.5498 2.82734C17.4237 2.02668 16.4001 7.62939e-05 14.7812 7.62939e-05Z" fill="url(#paint1_linear_9734_438)"/>
<defs>
<linearGradient id="paint0_linear_9734_438" x1="11.7315" y1="7.35066" x2="11.7315" y2="14.1739" gradientUnits="userSpaceOnUse">
<stop stop-color="white"/>
<stop offset="1" stop-color="#CDCDCD"/>
</linearGradient>
<linearGradient id="paint1_linear_9734_438" x1="11.7288" y1="7.62939e-05" x2="11.7288" y2="8.23405" gradientUnits="userSpaceOnUse">
<stop stop-color="white"/>
<stop offset="1" stop-color="#CDCDCD"/>
</linearGradient>
</defs>
</svg>
