<svg width="15" height="22" viewBox="0 0 15 22" fill="none" xmlns="http://www.w3.org/2000/svg">
<path d="M10.7172 7.77567C10.4545 7.92069 10.1265 7.82222 9.98543 7.55725C9.8426 7.29049 9.93958 6.95748 10.2023 6.81425C11.4437 6.13034 12.022 5.24591 12.1384 4.38117C12.2001 3.91926 12.1296 3.45556 11.9585 3.02587C11.784 2.59082 11.5071 2.19515 11.1562 1.87647C10.4739 1.25701 9.5164 0.931166 8.51662 1.1836C8.11107 1.28565 7.76018 1.49155 7.45337 1.78158C7.12716 2.08952 6.84504 2.49235 6.59818 2.96858C6.45888 3.23714 6.13267 3.33919 5.86994 3.19954C5.60545 3.0581 5.50495 2.72689 5.64248 2.46012C5.94577 1.87647 6.30018 1.37517 6.71984 0.977715C7.1589 0.564144 7.66849 0.266946 8.26095 0.118347C9.6363 -0.227191 10.9464 0.213235 11.8774 1.05828C12.35 1.48796 12.7256 2.02328 12.9618 2.61409C13.1999 3.21028 13.2969 3.86555 13.2069 4.52977C13.0465 5.71498 12.2988 6.90377 10.7172 7.77567ZM6.58054 12.1029C4.53514 9.31358 4.48577 6.67103 6.96847 4.21467L5.1805 3.21207C3.74872 2.64632 1.12144 6.81604 2.13709 7.92964L3.53008 10.0279L3.24266 10.6367C3.16332 10.8175 3.2409 10.9446 3.43486 11.0323L3.62353 11.0842L0 18.3656L0.733523 19.9536L2.20057 19.515L2.57791 18.7702L2.21644 18.0827L3.01344 17.9091L3.19858 17.5438L2.78245 16.8993L3.05576 16.3604L3.85099 16.2583L4.1102 15.7481L3.66585 15.1591L3.94974 14.6005L4.76084 14.4662L5.86465 12.3267L6.05156 12.4306C6.376 12.6311 6.54352 12.5022 6.58054 12.1029ZM10.4298 13.8521L9.89021 15.8967L9.14082 16.1975L8.98389 16.7937L9.5305 17.2645L9.38768 17.807L8.6471 18.072L8.49546 18.6449L9.02621 19.173L8.92394 19.5615L8.19571 19.8963L8.68237 20.4782L8.47254 21.2713L7.1589 22L6.13267 20.634L8.08991 13.2165L7.61559 13.0876C7.51861 13.0608 7.45866 12.9587 7.48511 12.8585L7.68436 12.1047C6.24905 11.0001 5.53845 9.088 6.03217 7.2135C6.66694 4.80548 9.06147 3.35172 11.4348 3.8924C11.4454 4.02131 11.4437 4.152 11.426 4.2827C11.3819 4.60854 11.2426 4.94334 10.9852 5.26739C10.9499 5.31036 10.9129 5.35512 10.8741 5.39809C10.1159 5.34796 9.40531 5.84568 9.20077 6.61911C9.11261 6.95211 9.132 7.2887 9.23604 7.59127C9.26072 7.69869 9.30128 7.80253 9.35418 7.90458C9.47937 8.13732 9.66275 8.31457 9.87787 8.42736C10.0189 8.52225 10.1776 8.59386 10.3487 8.6422C11.2003 8.87316 12.0731 8.37544 12.3271 7.52502C12.5845 7.29407 12.8084 7.05058 13.0006 6.79993C13.3744 6.31117 13.6301 5.79197 13.7818 5.26381C14.8115 6.39173 15.2647 8.01558 14.8433 9.61257C14.3495 11.4871 12.789 12.7833 11.0046 13.0107L10.8054 13.7644C10.7789 13.8629 10.6784 13.9237 10.5797 13.8969L10.4298 13.8521Z" fill="url(#paint0_linear_9675_434)"/>
<defs>
<linearGradient id="paint0_linear_9675_434" x1="7.5" y1="0" x2="7.5" y2="22" gradientUnits="userSpaceOnUse">
<stop stop-color="white"/>
<stop offset="1" stop-color="#B3B3B3"/>
</linearGradient>
</defs>
</svg>
