<svg width="24" height="17" viewBox="0 0 24 17" fill="none" xmlns="http://www.w3.org/2000/svg">
<path d="M17.5327 12.6331C17.8582 12.8742 18.2847 13.3162 18.2847 13.3162C18.3247 13.3529 18.3801 13.3677 18.4328 13.3549C18.4854 13.3429 18.5289 13.3049 18.5485 13.2541C18.5485 13.2541 20.8761 7.30082 22.0827 4.21244C17.7193 -0.604516 9.55302 4.30759 4.69855 0.746871C4.36389 0.500848 3.92053 0.0426409 3.92053 0.0426409C3.87986 0.00596085 3.82441 -0.00811536 3.77179 0.00456249C3.71845 0.0165636 3.67499 0.0545969 3.65533 0.105353C3.65533 0.105353 1.32841 6.05939 0.121094 9.14705C4.49297 13.9732 12.681 9.03498 17.5327 12.6331ZM14.3976 3.0408C16.1528 2.98512 17.8526 3.06899 19.3468 3.68231C19.1118 4.5177 19.4737 5.38475 20.1185 6.03403C19.6056 7.34734 19.0922 8.66069 18.5786 9.974C17.8301 9.58911 16.9672 10.005 16.5772 10.7671C15.0837 10.1545 13.3839 10.0699 11.6287 10.1255C13.0907 9.39028 14.3787 8.12628 14.9749 6.60079C15.5705 5.07809 15.3173 3.69427 14.3976 3.0408ZM11.1826 4.93146C11.2682 4.90751 11.3573 4.88987 11.4456 4.87295C11.5046 4.72068 11.5642 4.56913 11.6231 4.41686C11.8714 4.40274 12.1191 4.38726 12.3668 4.37247C12.3092 4.52194 12.2503 4.67137 12.1921 4.82084C12.3597 4.82436 12.5154 4.83916 12.6551 4.86595C12.8922 4.91179 13.0935 5.08166 13.0935 5.08166C13.1216 5.09578 13.1342 5.12253 13.1272 5.15497C13.1202 5.18741 13.0949 5.22053 13.0585 5.24593C12.9041 5.35096 12.7484 5.45744 12.5927 5.56387C12.5436 5.59843 12.4832 5.60759 12.4439 5.59067C12.4439 5.59067 12.2861 5.47503 12.1226 5.44684C11.9606 5.41724 11.7789 5.41088 11.5818 5.42143C11.3243 5.43695 11.1167 5.48911 10.9602 5.58074C10.8045 5.6717 10.6992 5.78517 10.6467 5.92052C10.5989 6.04319 10.606 6.13342 10.6691 6.19334C10.7316 6.25258 10.8628 6.28709 11.0641 6.29273C11.2528 6.29557 11.4422 6.29837 11.6323 6.30121C12.0539 6.30758 12.3415 6.39005 12.4987 6.54232C12.6572 6.69459 12.674 6.92933 12.5513 7.24303C12.4783 7.42986 12.371 7.59408 12.2293 7.73792C12.0869 7.88315 11.9199 8.00582 11.7305 8.10801C11.539 8.21237 11.3286 8.292 11.0963 8.35124C10.9953 8.37731 10.8922 8.39635 10.7884 8.41327C10.7189 8.59022 10.6495 8.76645 10.5808 8.94267C10.3331 8.95747 10.0855 8.97299 9.83713 8.98707C9.90447 8.81436 9.97182 8.64165 10.0399 8.46895C9.83363 8.4661 9.64353 8.44851 9.47095 8.41467C9.20718 8.36251 8.93497 8.10449 8.93497 8.10449C8.90902 8.08969 8.89847 8.06149 8.90619 8.02978C8.91463 7.99946 8.94058 7.96562 8.97493 7.94234C9.13979 7.83235 9.30465 7.721 9.46951 7.60888C9.52141 7.57504 9.58597 7.56516 9.62454 7.58772C9.62454 7.58772 9.82308 7.77947 10.0139 7.81615C10.2061 7.85211 10.4067 7.86411 10.6158 7.85283C10.8795 7.83663 11.1139 7.78443 11.3166 7.69492C11.5207 7.60608 11.6554 7.4771 11.7214 7.30931C11.7676 7.18803 11.7635 7.09428 11.7059 7.02872C11.6484 6.96245 11.5207 6.92793 11.3257 6.91945C11.1096 6.91733 10.8935 6.91381 10.6775 6.91097C10.2944 6.90321 10.0265 6.82498 9.87421 6.68187C9.72058 6.53803 9.70657 6.30825 9.8286 5.99523C9.89594 5.82252 9.99768 5.66601 10.1317 5.52714C10.2663 5.38967 10.4235 5.26844 10.6017 5.16901C10.7814 5.06826 10.9749 4.98858 11.1826 4.93146ZM2.08538 7.32478C2.59891 6.01147 3.11239 4.69884 3.62592 3.38549C4.37372 3.77038 5.23659 3.35305 5.62522 2.59242C7.11943 3.20574 8.82062 3.29034 10.5765 3.23394C9.11384 3.96993 7.82584 5.23321 7.22957 6.7587C6.63396 8.28279 6.88651 9.66734 7.8055 10.3187C6.0503 10.3751 4.34984 10.2912 2.85563 9.67718C3.09133 8.84184 2.73077 7.97334 2.08538 7.32478Z" fill="url(#paint0_linear_11992_49)"/>
<path d="M5.82584 7.08554C6.10505 7.13206 6.41794 6.94807 6.51896 6.68865C6.61997 6.43062 6.47123 6.19516 6.19206 6.14864C5.91357 6.10213 5.61051 6.26216 5.50949 6.52014C5.40843 6.77888 5.5473 7.03975 5.82584 7.08554Z" fill="url(#paint1_linear_11992_49)"/>
<path d="M16.011 7.20949C16.2902 7.256 16.5933 7.09597 16.6943 6.83799C16.7953 6.57929 16.6564 6.31843 16.3772 6.27263C16.098 6.22684 15.7851 6.41082 15.6841 6.6688C15.583 6.9275 15.7318 7.16437 16.011 7.20949Z" fill="url(#paint2_linear_11992_49)"/>
<path d="M22.5781 5.57031L18.8018 15.2945C18.6685 15.1111 18.5156 14.9102 18.3459 14.7058L18.3381 14.6967L18.329 14.6875C17.8983 14.2258 17.2361 13.6893 16.2708 13.2726C15.3069 12.8553 14.0414 12.5578 12.4124 12.5578C12.3605 12.5578 12.3058 12.5585 12.2497 12.5592C11.351 12.5592 10.4131 12.6156 9.51237 12.6699C8.58777 12.7255 7.63932 12.7819 6.72455 12.7813C5.64213 12.782 4.43481 12.7087 3.26399 12.3688C2.47619 12.1397 1.70872 11.7901 0.99459 11.2635L0.617188 12.0756C1.38465 12.6142 2.20402 12.9765 3.022 13.2134C4.3135 13.587 5.60356 13.6596 6.72459 13.6596C7.67443 13.6596 8.63971 13.6018 9.56432 13.5461C10.4651 13.4925 11.3869 13.4369 12.2497 13.4376H12.2441L12.2575 13.4369C12.3072 13.4369 12.3592 13.4361 12.4125 13.4361C13.9369 13.4369 15.0768 13.7125 15.9257 14.079C16.7689 14.4442 17.3259 14.8996 17.6844 15.2803C17.9236 15.5701 18.1382 15.8654 18.2912 16.0882C18.3698 16.201 18.4315 16.2947 18.4736 16.3596C18.4953 16.3921 18.5115 16.4181 18.5227 16.4351L18.5339 16.4541L18.5374 16.459L18.6504 16.6409C18.7164 16.7473 18.837 16.8073 18.9612 16.796C19.0854 16.784 19.1927 16.7029 19.2383 16.5859L23.1147 6.60376L22.5781 5.57031Z" fill="url(#paint3_linear_11992_49)"/>
<defs>
<linearGradient id="paint0_linear_11992_49" x1="11.1019" y1="0" x2="11.1019" y2="13.3594" gradientUnits="userSpaceOnUse">
<stop stop-color="white"/>
<stop offset="1" stop-color="#D4D4D4"/>
</linearGradient>
<linearGradient id="paint1_linear_11992_49" x1="6.01361" y1="6.14062" x2="6.01361" y2="7.09275" gradientUnits="userSpaceOnUse">
<stop stop-color="white"/>
<stop offset="1" stop-color="#D4D4D4"/>
</linearGradient>
<linearGradient id="paint2_linear_11992_49" x1="16.1898" y1="6.26562" x2="16.1898" y2="7.2175" gradientUnits="userSpaceOnUse">
<stop stop-color="white"/>
<stop offset="1" stop-color="#D4D4D4"/>
</linearGradient>
<linearGradient id="paint3_linear_11992_49" x1="11.866" y1="5.57031" x2="11.866" y2="16.7973" gradientUnits="userSpaceOnUse">
<stop stop-color="white"/>
<stop offset="1" stop-color="#D4D4D4"/>
</linearGradient>
</defs>
</svg>
