<svg width="23" height="23" viewBox="0 0 23 23" fill="none" xmlns="http://www.w3.org/2000/svg">
<path d="M22.2 11.4C22.2 17.696 17.2304 22.8 11.1 22.8C4.96964 22.8 0 17.696 0 11.4C0 5.10395 4.96964 0 11.1 0C17.2304 0 22.2 5.10395 22.2 11.4ZM2.11657 11.4C2.11657 16.4955 6.13859 20.6262 11.1 20.6262C16.0614 20.6262 20.0834 16.4955 20.0834 11.4C20.0834 6.3045 16.0614 2.17378 11.1 2.17378C6.13859 2.17378 2.11657 6.3045 2.11657 11.4Z" fill="url(#paint0_linear_194_32)"/>
<path d="M7.79191 15V8H9.13191L13.2619 13.04H12.6119V8H14.2119V15H12.8819L8.74191 9.96H9.39191V15H7.79191Z" fill="url(#paint1_linear_194_32)"/>
<ellipse cx="11.3" cy="11.6" rx="9.3" ry="9.6" fill="url(#paint2_linear_194_32)" fill-opacity="0.3"/>
<defs>
<linearGradient id="paint0_linear_194_32" x1="11.1" y1="0" x2="11.1" y2="22.8" gradientUnits="userSpaceOnUse">
<stop stop-color="#E01F1F"/>
<stop offset="1" stop-color="#C21D30"/>
</linearGradient>
<linearGradient id="paint1_linear_194_32" x1="11" y1="2" x2="11" y2="21" gradientUnits="userSpaceOnUse">
<stop stop-color="white"/>
<stop offset="1" stop-color="#CDCDCD"/>
</linearGradient>
<linearGradient id="paint2_linear_194_32" x1="11.3" y1="2" x2="11.3" y2="21.2" gradientUnits="userSpaceOnUse">
<stop/>
<stop offset="1" stop-color="#171717" stop-opacity="0.5"/>
</linearGradient>
</defs>
</svg>
