<svg width="24" height="24" viewBox="0 0 24 24" fill="none" xmlns="http://www.w3.org/2000/svg">
<g filter="url(#filter0_d_12338_276)">
<path d="M12.0425 0.0606338C11.8833 0.0208238 11.7167 0.0208239 11.5575 0.0606339L4.75746 1.76063C4.3123 1.87193 4 2.27191 4 2.73078V11.082C4 11.4607 4.214 11.807 4.55279 11.9764L11.3528 15.3764C11.6343 15.5172 11.9657 15.5172 12.2472 15.3764L19.0472 11.9764C19.386 11.807 19.6 11.4607 19.6 11.082V2.73078C19.6 2.27191 19.2877 1.87193 18.8425 1.76063L12.0425 0.0606338ZM11.6669 1.00991C11.7543 0.98699 11.846 0.985946 11.9339 1.00687C12.4752 1.13575 12.5047 1.89492 11.9751 2.06549L8.30416 3.24764C8.16842 3.29136 8.02214 3.28966 7.88746 3.24281C7.27532 3.02989 7.30964 2.1528 7.93655 1.98837L11.6669 1.00991ZM11.8 12.9095C11.8 13.6528 11.0177 14.1363 10.3528 13.8039L5.52779 11.3914C5.189 11.222 4.975 10.8757 4.975 10.497V4.60492C4.975 3.92237 5.6437 3.4404 6.29123 3.65624L7.21623 3.96458C7.62457 4.10069 7.9 4.48283 7.9 4.91326V7.14479C7.9 7.36007 8.04121 7.54986 8.24742 7.61173C8.5602 7.70556 8.875 7.47134 8.875 7.14479V5.96993C8.875 5.28737 9.5437 4.8054 10.1912 5.02124L11.1162 5.32958C11.5246 5.46569 11.8 5.84783 11.8 6.27826V12.9095ZM12.5513 4.58165C12.3806 4.64529 12.1933 4.64859 12.0204 4.59098C11.284 4.3455 11.2967 3.29938 12.039 3.07193L15.5168 2.00614C15.6367 1.96941 15.7643 1.96607 15.8859 1.99647C16.5426 2.16065 16.5938 3.07427 15.9595 3.31078L12.5513 4.58165Z" fill="url(#paint0_linear_12338_276)"/>
</g>
<defs>
<filter id="filter0_d_12338_276" x="0" y="0.03125" width="23.5996" height="23.4512" filterUnits="userSpaceOnUse" color-interpolation-filters="sRGB">
<feFlood flood-opacity="0" result="BackgroundImageFix"/>
<feColorMatrix in="SourceAlpha" type="matrix" values="0 0 0 0 0 0 0 0 0 0 0 0 0 0 0 0 0 0 127 0" result="hardAlpha"/>
<feOffset dy="4"/>
<feGaussianBlur stdDeviation="2"/>
<feComposite in2="hardAlpha" operator="out"/>
<feColorMatrix type="matrix" values="0 0 0 0 0 0 0 0 0 0 0 0 0 0 0 0 0 0 0.25 0"/>
<feBlend mode="normal" in2="BackgroundImageFix" result="effect1_dropShadow_12338_276"/>
<feBlend mode="normal" in="SourceGraphic" in2="effect1_dropShadow_12338_276" result="shape"/>
</filter>
<linearGradient id="paint0_linear_12338_276" x1="11.8" y1="0" x2="11.8" y2="15.6" gradientUnits="userSpaceOnUse">
<stop stop-color="white"/>
<stop offset="1" stop-color="#C4C4C4"/>
</linearGradient>
</defs>
</svg>
