<svg width="15" height="27" viewBox="0 0 15 27" fill="none" xmlns="http://www.w3.org/2000/svg">
<path d="M11.6393 11.3725V26.9613H7.95082V15.4341C7.95082 15.2407 7.78689 15.0473 7.54098 15.0473H7.45902C7.2541 15.0473 7.04918 15.202 7.04918 15.4341V27H3.36065V11.3338H11.6393V11.3725ZM11.1885 0H10.4918L7.45902 3.28797L4.42623 0H3.72951C1.47541 0 0 1.77937 0 3.98424V12.8037H2.54098V4.64183C2.54098 4.40974 2.7459 4.25501 2.95082 4.25501C3.19672 4.25501 3.36065 4.40974 3.36065 4.64183V10.3668H11.6393V4.64183C11.6393 4.40974 11.8443 4.25501 12.0492 4.25501C12.2951 4.25501 12.459 4.44842 12.459 4.64183V12.8037H15V4.02292C14.959 1.77937 13.5246 0 11.1885 0Z" fill="url(#paint0_linear_10298_10)"/>
<defs>
<linearGradient id="paint0_linear_10298_10" x1="7.5" y1="0" x2="7.5" y2="27" gradientUnits="userSpaceOnUse">
<stop stop-color="white"/>
<stop offset="1" stop-color="#BBBBBB"/>
</linearGradient>
</defs>
</svg>
