<svg width="14" height="14" viewBox="0 0 14 14" fill="none" xmlns="http://www.w3.org/2000/svg">
<path d="M13.2053 8.93667C13.2053 8.96 13.2053 8.98333 13.182 8.98333C13.1119 9.24 13.0184 9.49667 12.9249 9.75333C12.808 10.0333 12.6912 10.29 12.5509 10.5467C12.2704 11.06 11.9199 11.5267 11.4992 11.9467C11.1018 12.3667 10.6344 12.74 10.1202 13.0433C9.60601 13.3467 9.06845 13.58 8.48414 13.7433C7.89983 13.9067 7.29215 14 6.68447 14C2.99165 14 0 11.0133 0 7.30333C0 3.59333 2.99165 0.63 6.68447 0.63C7.9232 0.63 9.09182 0.98 10.0968 1.56333C10.0968 1.56333 10.0968 1.56333 10.1202 1.56333C10.611 1.84333 11.0551 2.19333 11.429 2.59C11.5459 2.68333 11.616 2.75333 11.7095 2.87C11.9199 3.05667 12.0835 2.94 12.0835 2.66V0.466667C12.0835 0.21 12.2938 0 12.5509 0H13.4858C13.7429 0 13.9533 0.21 14 0.466667V6.18333C14 6.39333 13.813 6.60333 13.5793 6.60333H7.85309C7.59599 6.60333 7.40902 6.41667 7.40902 6.16V5.18C7.40902 4.92333 7.61937 4.71333 7.87646 4.71333H10.0735C10.2604 4.71333 10.4007 4.66667 10.4708 4.55C9.62938 3.38333 8.22704 2.61333 6.68447 2.61333C4.09015 2.61333 1.98664 4.71333 1.98664 7.30333C1.98664 9.89333 4.09015 11.9933 6.68447 11.9933C8.71786 11.9933 10.4474 10.71 11.1018 8.89C11.1018 8.89 11.172 8.47 11.4992 8.47C11.8264 8.47 12.621 8.47 12.8314 8.47C13.0184 8.47 13.2053 8.61 13.2053 8.82C13.2053 8.86667 13.2053 8.89 13.2053 8.93667Z" fill="url(#paint0_linear_9971_183)"/>
<defs>
<linearGradient id="paint0_linear_9971_183" x1="7" y1="0" x2="7" y2="14" gradientUnits="userSpaceOnUse">
<stop stop-color="white"/>
<stop offset="1" stop-color="#B9B9B9"/>
</linearGradient>
</defs>
</svg>
