<svg width="20" height="19" viewBox="0 0 20 19" fill="none" xmlns="http://www.w3.org/2000/svg">
<path d="M18.7791 11.0297V13.8952M11.6152 18.1936H14.4808" stroke="white" stroke-width="1.43278" stroke-linecap="round" stroke-linejoin="round"/>
<path d="M14.4813 6.73126H7.89049C7.57397 6.73126 7.31738 6.98785 7.31738 7.30437V13.8952" stroke="white" stroke-width="1.43278" stroke-linecap="round" stroke-linejoin="round"/>
<path d="M8.75016 18.1937H7.89049C7.57397 18.1937 7.31738 17.9371 7.31738 17.6206V16.7609" stroke="white" stroke-width="1.43278" stroke-linecap="round" stroke-linejoin="round"/>
<path d="M18.7795 16.7609V17.6206C18.7795 17.9371 18.5229 18.1937 18.2063 18.1937H17.3467" stroke="white" stroke-width="1.43278" stroke-linecap="round" stroke-linejoin="round"/>
<path d="M17.3467 6.73126H18.2063C18.5229 6.73126 18.7795 6.98785 18.7795 7.30437V8.16404" stroke="white" stroke-width="1.43278" stroke-linecap="round" stroke-linejoin="round"/>
<path d="M1.58594 8.16389V5.29834M5.88427 1H8.74983" stroke="white" stroke-width="1.43278" stroke-linecap="round" stroke-linejoin="round"/>
<path d="M5.88477 12.4623H12.4755C12.7921 12.4623 13.0487 12.2058 13.0487 11.8892V5.29843" stroke="white" stroke-width="1.43278" stroke-linecap="round" stroke-linejoin="round"/>
<path d="M3.01872 12.4624H2.15905C1.84253 12.4624 1.58594 12.2059 1.58594 11.8893V11.0297" stroke="white" stroke-width="1.43278" stroke-linecap="round" stroke-linejoin="round"/>
<path d="M1.58594 2.43278V1.57311C1.58594 1.25659 1.84253 1 2.15905 1H3.01872" stroke="white" stroke-width="1.43278" stroke-linecap="round" stroke-linejoin="round"/>
<path d="M11.6152 1H12.4749C12.7914 1 13.048 1.25659 13.048 1.57311V2.43278" stroke="white" stroke-width="1.43278" stroke-linecap="round" stroke-linejoin="round"/>
</svg>
