<svg width="16" height="16" viewBox="0 0 16 16" fill="none" xmlns="http://www.w3.org/2000/svg">
<path d="M7.30915 1.10657C7.05188 1.21314 6.82123 1.44378 6.35999 1.90503C5.89884 2.36617 5.6681 2.59691 5.56155 2.85415C5.41946 3.19719 5.41946 3.58267 5.56155 3.92571C5.66812 4.18299 5.89875 4.41362 6.36001 4.87488C6.821 5.33587 7.05193 5.5668 7.30913 5.67334C7.65217 5.81543 8.03765 5.81543 8.38069 5.67334C8.63797 5.56677 8.8686 5.33614 9.32986 4.87488C9.79112 4.41362 10.0211 4.18299 10.1276 3.92571C10.2697 3.58267 10.2697 3.19719 10.1276 2.85415C10.0211 2.59688 9.79112 2.36628 9.32986 1.90503C8.8686 1.44377 8.63797 1.21314 8.38069 1.10657C8.03765 0.964477 7.65219 0.964477 7.30915 1.10657Z" stroke="white" stroke-width="1.4" stroke-linecap="round" stroke-linejoin="round"/>
<path d="M2.85417 5.56121C2.59689 5.66778 2.36626 5.89841 1.90501 6.35966C1.44388 6.82079 1.21312 7.05155 1.10657 7.30879C0.964477 7.65183 0.964477 8.03731 1.10657 8.38035C1.21314 8.63763 1.44377 8.86826 1.90503 9.32952C2.36602 9.79051 2.59695 10.0214 2.85415 10.128C3.19719 10.2701 3.58267 10.2701 3.92571 10.128C4.18299 10.0214 4.41362 9.79078 4.87488 9.32952C5.33614 8.86826 5.56609 8.63763 5.67265 8.38035C5.81475 8.03731 5.81475 7.65183 5.67265 7.30879C5.56609 7.05151 5.33614 6.82092 4.87488 6.35966C4.41362 5.89841 4.18299 5.66778 3.92571 5.56121C3.58267 5.41912 3.19721 5.41912 2.85417 5.56121Z" stroke="white" stroke-width="1.4" stroke-linecap="round" stroke-linejoin="round"/>
<path d="M10.815 6.35966C10.3538 6.8208 10.1231 7.05155 10.0165 7.30879C9.87444 7.65183 9.87444 8.03731 10.0165 8.38035C10.1231 8.63763 10.3537 8.86826 10.815 9.32952C11.276 9.79051 11.5069 10.0214 11.7641 10.128C12.1072 10.2701 12.4926 10.2701 12.8357 10.128C13.0929 10.0214 13.3236 9.79078 13.7848 9.32952C14.2461 8.86827 14.476 8.63763 14.5826 8.38035C14.7247 8.03731 14.7247 7.65183 14.5826 7.30879C14.476 7.05152 14.2461 6.82092 13.7848 6.35966C13.3236 5.89841 13.0929 5.66778 12.8357 5.56121C12.4926 5.41912 12.1072 5.41912 11.7641 5.56121C11.5069 5.66778 11.2762 5.89841 10.815 6.35966Z" stroke="white" stroke-width="1.4" stroke-linecap="round" stroke-linejoin="round"/>
<path d="M7.30915 10.0162C7.05187 10.1228 6.82124 10.3534 6.35999 10.8146C5.89885 11.2758 5.6681 11.5065 5.56155 11.7638C5.41946 12.1068 5.41946 12.4923 5.56155 12.8353C5.66812 13.0926 5.89875 13.3232 6.36001 13.7845C6.821 14.2455 7.05193 14.4764 7.30913 14.583C7.65217 14.725 8.03765 14.725 8.38069 14.583C8.63797 14.4764 8.8686 14.2458 9.32986 13.7845C9.79112 13.3232 10.0211 13.0926 10.1276 12.8353C10.2697 12.4923 10.2697 12.1068 10.1276 11.7638C10.0211 11.5065 9.79112 11.2759 9.32986 10.8146C8.8686 10.3534 8.63797 10.1228 8.38069 10.0162C8.03765 9.8741 7.65219 9.8741 7.30915 10.0162Z" stroke="white" stroke-width="1.4" stroke-linecap="round" stroke-linejoin="round"/>
</svg>
