<svg width="16" height="16" viewBox="0 0 16 16" fill="none" xmlns="http://www.w3.org/2000/svg">
<path d="M8 12C8.22667 12 8.4168 11.9232 8.5704 11.7696C8.724 11.616 8.80054 11.4262 8.8 11.2C8.79947 10.9739 8.72267 10.784 8.5696 10.6304C8.41654 10.4768 8.22667 10.4 8 10.4C7.77334 10.4 7.58347 10.4768 7.4304 10.6304C7.27734 10.784 7.20054 10.9739 7.2 11.2C7.19947 11.4262 7.27627 11.6163 7.4304 11.7704C7.58454 11.9246 7.7744 12.0011 8 12ZM8 8.80005C8.22667 8.80005 8.4168 8.72325 8.5704 8.56965C8.724 8.41605 8.80054 8.22618 8.8 8.00005V4.80005C8.8 4.57338 8.7232 4.38352 8.5696 4.23045C8.416 4.07738 8.22614 4.00058 8 4.00005C7.77387 3.99952 7.584 4.07632 7.4304 4.23045C7.2768 4.38458 7.2 4.57445 7.2 4.80005V8.00005C7.2 8.22672 7.2768 8.41685 7.4304 8.57045C7.584 8.72405 7.77387 8.80058 8 8.80005ZM5.66 15.2C5.44667 15.2 5.24347 15.16 5.0504 15.08C4.85734 15 4.6872 14.8867 4.54 14.74L1.26 11.46C1.11334 11.3134 1 11.1432 0.920003 10.9496C0.840003 10.756 0.800003 10.5531 0.800003 10.3408V5.66085C0.800003 5.44752 0.840003 5.24432 0.920003 5.05125C1 4.85818 1.11334 4.68805 1.26 4.54085L4.54 1.26085C4.68667 1.11418 4.8568 1.00085 5.0504 0.920849C5.244 0.840849 5.4472 0.800582 5.66 0.800049H10.34C10.5533 0.800049 10.7568 0.840049 10.9504 0.920049C11.144 1.00005 11.3139 1.11338 11.46 1.26005L14.74 4.54005C14.8867 4.68672 15 4.85685 15.08 5.05045C15.16 5.24405 15.2 5.44725 15.2 5.66005V10.34C15.2 10.5534 15.16 10.7568 15.08 10.9504C15 11.144 14.8867 11.3139 14.74 11.46L11.46 14.74C11.3133 14.8867 11.1432 15 10.9496 15.08C10.756 15.16 10.5528 15.2 10.34 15.2H5.66ZM5.68 13.6H10.32L13.6 10.32V5.68005L10.32 2.40005H5.68L2.4 5.68005V10.32L5.68 13.6Z" fill="white"/>
</svg>
