<svg width="16" height="16" viewBox="0 0 16 16" fill="none" xmlns="http://www.w3.org/2000/svg">
<path fill-rule="evenodd" clip-rule="evenodd" d="M8.263 11.5H8.97L9.4585 9.0385L10.6115 9.0435C11.4165 9.0435 12.0785 8.8375 12.598 8.4255C13.118 8.0135 13.4145 7.465 13.4875 6.779C13.5315 6.3085 13.4595 5.899 13.2705 5.5515L11.9055 6.265C11.9155 6.32 11.921 6.3765 11.923 6.4325C11.934 6.8685 11.8315 7.2155 11.6155 7.474C11.3995 7.732 11.0955 7.864 10.7045 7.8705L9.689 7.8605L9.786 7.373L8.0285 8.2915L7.7085 9.914L7.2775 8.684L5.955 9.3755L6.496 11.5H8.263ZM7.6055 6.005H8.4805L8.2145 7.3515L9.9725 6.4325L10.1225 5.6775L11.27 5.6875C11.305 5.6895 11.34 5.694 11.374 5.7005L12.774 4.9685C12.401 4.6755 11.9235 4.521 11.341 4.505L8.778 4.5H7.6705L6.7305 6.005L6.205 6.8945L5.59 4.5H3.85L5.036 7.9135L3.8025 9.6585L7.132 7.9175L8.4805 6.0045L7.6055 6.005ZM8 16C3.5815 16 0 12.4185 0 8C0 3.5815 3.5815 0 8 0C12.4185 0 16 3.5815 16 8C16 12.4185 12.4185 16 8 16ZM2.893 10.976L2.883 10.9575L2.5 11.5H4.3825L5.5565 9.5835L2.893 10.976Z" fill="url(#paint0_linear_12363_8)"/>
<defs>
<linearGradient id="paint0_linear_12363_8" x1="8" y1="0" x2="8" y2="16" gradientUnits="userSpaceOnUse">
<stop stop-color="white"/>
<stop offset="1" stop-color="white"/>
</linearGradient>
</defs>
</svg>
