<svg width="13" height="16" viewBox="0 0 13 16" fill="none" xmlns="http://www.w3.org/2000/svg">
<path d="M7.19041 7.98996L12.7137 13.4491C13.0954 13.8264 13.0954 14.4365 12.7137 14.8098L11.7958 15.717C11.4141 16.0943 10.7968 16.0943 10.4191 15.717L6.50406 11.8475L2.58903 15.717C2.20728 16.0943 1.58997 16.0943 1.21228 15.717L0.286317 14.8138C-0.0954389 14.4365 -0.0954389 13.8264 0.286317 13.4531L5.80959 7.99398C6.19135 7.61264 6.80865 7.61264 7.19041 7.98996ZM5.80959 0.28299L0.286317 5.7421C-0.0954389 6.11942 -0.0954389 6.72955 0.286317 7.10286L1.20415 8.01003C1.58591 8.38736 2.20322 8.38736 2.58091 8.01003L6.49594 4.14049L10.411 8.01003C10.7927 8.38736 11.41 8.38736 11.7877 8.01003L12.7056 7.10286C13.0873 6.72554 13.0873 6.1154 12.7056 5.7421L7.18229 0.28299C6.80865 -0.0943317 6.19135 -0.0943317 5.80959 0.28299Z" fill="url(#paint0_linear_12287_186)"/>
<defs>
<linearGradient id="paint0_linear_12287_186" x1="6.46483" y1="-2.17324" x2="6.46483" y2="19.1466" gradientUnits="userSpaceOnUse">
<stop stop-color="#FEFEFE"/>
<stop offset="1" stop-color="#EFEFEF"/>
</linearGradient>
</defs>
</svg>
