<svg width="12" height="10" viewBox="0 0 12 14" fill="none" xmlns="http://www.w3.org/2000/svg">
<path d="M3.95598 12.56V0.339999H5.25598V12.56H3.95598ZM4.42398 11.156C3.69598 11.156 2.99831 11.0607 2.33098 10.87C1.66365 10.6707 1.12631 10.415 0.71898 10.103L1.43398 8.517C1.82398 8.79433 2.28331 9.024 2.81198 9.206C3.34931 9.37933 3.89098 9.466 4.43698 9.466C4.85298 9.466 5.18665 9.427 5.43798 9.349C5.69798 9.26233 5.88865 9.14533 6.00998 8.998C6.13131 8.85067 6.19198 8.68167 6.19198 8.491C6.19198 8.24833 6.09665 8.05767 5.90598 7.919C5.71531 7.77167 5.46398 7.65467 5.15198 7.568C4.83998 7.47267 4.49331 7.386 4.11198 7.308C3.73931 7.22133 3.36231 7.11733 2.98098 6.996C2.60831 6.87467 2.26598 6.71867 1.95398 6.528C1.64198 6.33733 1.38631 6.086 1.18698 5.774C0.996314 5.462 0.900981 5.06333 0.900981 4.578C0.900981 4.058 1.03965 3.58567 1.31698 3.161C1.60298 2.72767 2.02765 2.38533 2.59098 2.134C3.16298 1.874 3.87798 1.744 4.73598 1.744C5.30798 1.744 5.87131 1.81333 6.42598 1.952C6.98065 2.082 7.47031 2.28133 7.89498 2.55L7.24498 4.149C6.82031 3.90633 6.39565 3.72867 5.97098 3.616C5.54631 3.49467 5.13031 3.434 4.72298 3.434C4.31565 3.434 3.98198 3.48167 3.72198 3.577C3.46198 3.67233 3.27565 3.798 3.16298 3.954C3.05031 4.10133 2.99398 4.27467 2.99398 4.474C2.99398 4.708 3.08931 4.89867 3.27998 5.046C3.47065 5.18467 3.72198 5.29733 4.03398 5.384C4.34598 5.47067 4.68831 5.55733 5.06098 5.644C5.44231 5.73067 5.81931 5.83033 6.19198 5.943C6.57331 6.05567 6.91998 6.20733 7.23198 6.398C7.54398 6.58867 7.79531 6.84 7.98598 7.152C8.18531 7.464 8.28498 7.85833 8.28498 8.335C8.28498 8.84633 8.14198 9.31433 7.85598 9.739C7.56998 10.1637 7.14098 10.506 6.56898 10.766C6.00565 11.026 5.29065 11.156 4.42398 11.156Z" fill="#38DC66"/>
</svg>
